<svg width="250" height="250" viewBox="0 0 250 250" fill="none" xmlns="http://www.w3.org/2000/svg">
<path d="M109.122 127.608C109.137 124.511 111.661 122.012 114.758 122.028C117.855 122.043 120.353 124.566 120.338 127.664L120.21 153.501C120.194 156.598 117.671 159.096 114.574 159.081C111.477 159.065 108.978 156.542 108.994 153.445L109.122 127.608Z" fill="#FFE2E2"/>
<path d="M138.265 127.608C138.25 124.511 135.726 122.012 132.629 122.028C129.532 122.043 127.034 124.566 127.049 127.664L127.177 153.501C127.193 156.598 129.716 159.096 132.813 159.081C135.91 159.065 138.408 156.542 138.393 153.445L138.265 127.608Z" fill="#FFE2E2"/>
<path d="M89.3402 81.2507C86.9052 83.1647 83.3797 82.7424 81.4657 80.3074C79.5517 77.8724 79.974 74.3468 82.409 72.4328L102.722 56.4657C105.157 54.5517 108.683 54.974 110.597 57.409C112.511 59.844 112.088 63.3695 109.653 65.2835L89.3402 81.2507Z" fill="#FFE2E2"/>
<path d="M159.722 81.2507C162.157 83.1647 165.683 82.7424 167.597 80.3074C169.511 77.8724 169.088 74.3468 166.653 72.4328L146.34 56.4657C143.905 54.5517 140.38 54.974 138.466 57.409C136.552 59.844 136.974 63.3695 139.409 65.2835L159.722 81.2507Z" fill="#FFE2E2"/>
<path d="M109.14 155.621C109.141 152.524 111.653 150.014 114.75 150.016C117.847 150.017 120.357 152.529 120.355 155.626L120.34 191.524C120.339 194.621 117.827 197.131 114.73 197.129C111.633 197.128 109.123 194.616 109.124 191.519L109.14 155.621Z" fill="#FFE2E2"/>
<path d="M138.247 155.621C138.246 152.524 135.734 150.014 132.637 150.016C129.54 150.017 127.03 152.529 127.031 155.626L127.047 191.524C127.048 194.621 129.56 197.131 132.657 197.129C135.754 197.128 138.264 194.616 138.263 191.519L138.247 155.621Z" fill="#FFE2E2"/>
<path d="M106.5 104H141.5L142 105.5L142 107H106V105.5L106.5 104Z" fill="#373E4D"/>
<path d="M106 106H142C142 114.284 135.284 121 127 121H121C112.716 121 106 114.284 106 106Z" fill="#081023"/>
<path d="M106 113.5C106 109.358 109.358 106 113.5 106C117.642 106 121 109.358 121 113.5V138H106V113.5Z" fill="#081023"/>
<rect x="106" y="138" width="15" height="2" fill="#373E4C"/>
<path d="M127 113.5C127 109.358 130.358 106 134.5 106C138.642 106 142 109.358 142 113.5V138H127V113.5Z" fill="#081023"/>
<rect x="127" y="138" width="15" height="2" fill="#373E4C"/>
<path d="M107 59H141V79H107V59Z" fill="#FFE2E2"/>
<path d="M107 59.5C107 57.0147 109.015 55 111.5 55H136.5C138.986 55 141 57.0147 141 59.5C141 61.9853 138.986 64 136.5 64H111.5C109.015 64 107 61.9853 107 59.5Z" fill="#FFE2E2"/>
<rect x="101" y="55" width="46" height="11" rx="5.5" fill="#FFE2E2"/>
<rect x="119" y="48" width="10" height="18" fill="#FFE2E2"/>
<path d="M112 53H117.5L120 58H128L130.5 53H135.5L135 64L136.5 70L141.5 74.5V80L141 83L141.5 88L141 95.5L141.5 97V104H106.5L106 97L106.5 92L106 87.5L106.5 74.5L111.5 70L112.5 63.5L112 53Z" fill="#1A3474"/>
<path fill-rule="evenodd" clip-rule="evenodd" d="M134.835 26.4736C134.841 26.4293 134.818 26.3845 134.775 26.3634C134.768 26.3598 134.751 26.3481 134.725 26.3238C134.701 26.301 134.675 26.2722 134.649 26.2409C134.596 26.1762 134.555 26.1122 134.541 26.0809C134.488 25.9628 134.433 25.8768 134.363 25.7763C134.288 25.669 134.212 25.5681 134.138 25.4693C133.993 25.2756 133.854 25.0899 133.739 24.8797L133.707 24.8204C133.556 24.5434 133.399 24.2572 133.211 23.9985C133.098 23.8442 132.918 23.7466 132.739 23.6867C132.626 23.6487 132.507 23.6241 132.396 23.6101C132.388 23.45 132.331 23.3163 132.274 23.1977C132.263 23.1743 132.252 23.1517 132.241 23.1296C132.19 23.0262 132.146 22.9349 132.122 22.8302C132.091 22.6945 132.028 22.5705 131.972 22.4591L131.962 22.4403C131.951 22.4175 131.939 22.3919 131.926 22.3627L131.923 22.3557C131.911 22.3292 131.898 22.3002 131.884 22.2717C131.855 22.2111 131.816 22.1415 131.762 22.0877C131.72 22.0462 131.674 22.022 131.627 22.0092C131.607 21.9878 131.578 21.9745 131.546 21.9745C131.53 21.9745 131.522 21.9706 131.517 21.9672C131.51 21.9625 131.501 21.9531 131.488 21.9332C131.477 21.9154 131.468 21.8956 131.455 21.87L131.448 21.8564C131.433 21.8267 131.415 21.7898 131.39 21.7557C131.19 21.4822 130.911 21.3375 130.637 21.2025C130.152 20.9636 129.63 20.7725 129.077 20.726C128.732 20.6969 128.391 20.6238 128.042 20.5472L127.998 20.5376C127.666 20.4645 127.327 20.3898 126.981 20.3539C126.973 20.353 126.965 20.3531 126.957 20.3541C126.857 20.3331 126.76 20.287 126.648 20.2329L126.644 20.2311C126.534 20.1784 126.409 20.1183 126.273 20.0914C125.88 20.0138 125.475 19.9897 125.076 20.0038C125.032 20.0053 124.986 20.0063 124.937 20.0072C124.775 20.0105 124.593 20.0141 124.432 20.043C124.197 20.0851 123.968 20.0843 123.724 20.0835C123.634 20.0832 123.541 20.0829 123.446 20.0848C123.228 20.0891 123.014 20.1163 122.802 20.1743C122.74 20.1914 122.688 20.2269 122.653 20.2509L122.646 20.2557C122.606 20.2835 122.583 20.297 122.56 20.3022C122.506 20.3146 122.47 20.3648 122.475 20.4183C122.454 20.4148 122.435 20.4121 122.417 20.4097L122.405 20.408C122.358 20.4014 122.324 20.3954 122.292 20.3826C122.269 20.3735 122.246 20.3636 122.222 20.3535C122.086 20.2966 121.928 20.2302 121.757 20.2201C121.616 20.2116 121.47 20.214 121.329 20.2163C121.266 20.2173 121.204 20.2184 121.145 20.2184H120.519C120.448 20.2184 120.396 20.2344 120.35 20.2532C120.331 20.2614 120.316 20.2682 120.303 20.2741C120.283 20.2833 120.267 20.2908 120.242 20.299C120.128 20.3363 120.017 20.3749 119.905 20.4133C119.708 20.4814 119.513 20.5489 119.314 20.6071C119.165 20.6506 119.031 20.7185 118.907 20.7866C118.878 20.8026 118.85 20.8186 118.822 20.8343C118.728 20.8867 118.639 20.9365 118.544 20.9786L118.528 20.9858C118.45 21.0205 118.328 21.0743 118.25 21.1379C118.128 21.2369 117.991 21.3149 117.844 21.3929L117.768 21.4333C117.646 21.4974 117.518 21.5645 117.399 21.6432C117.305 21.7047 117.22 21.7732 117.139 21.8408C117.114 21.8609 117.091 21.8808 117.068 21.9004C117.012 21.9478 116.957 21.9941 116.9 22.0389C116.846 22.0809 116.791 22.1177 116.733 22.1569L116.677 22.1943C116.6 22.247 116.519 22.3055 116.444 22.3789C116.328 22.493 116.221 22.6293 116.118 22.7604C116.082 22.8053 116.047 22.8501 116.013 22.8927C115.873 23.0649 115.733 23.2158 115.567 23.3142C115.532 23.3351 115.513 23.3723 115.513 23.4102L115.442 23.4236C115.318 23.4471 115.185 23.4736 115.058 23.5221C114.808 23.6168 114.58 23.7955 114.392 23.944L114.385 23.9492C114.088 24.1838 113.754 24.4473 113.566 24.8181C113.378 25.1878 113.186 25.5501 112.969 25.9014C112.925 25.9719 112.886 26.0457 112.85 26.1152C112.838 26.1374 112.827 26.1594 112.815 26.1805C112.767 26.2701 112.72 26.3521 112.66 26.4261C112.636 26.4563 112.609 26.4961 112.586 26.5312C112.574 26.5478 112.564 26.5634 112.555 26.5764C112.521 26.6249 112.493 26.6562 112.467 26.6726C112.404 26.7126 112.375 26.7849 112.358 26.8372C112.34 26.896 112.329 26.9642 112.322 27.0291C112.307 27.1596 112.307 27.2947 112.307 27.3527C112.307 27.403 112.341 27.4453 112.388 27.458C112.205 27.6817 112.017 27.9034 111.829 28.1262L111.828 28.1273C111.715 28.2609 111.602 28.3955 111.489 28.5305C111.18 28.9002 110.865 29.2448 110.479 29.5169C110.464 29.5277 110.351 29.6114 110.246 29.6923C110.192 29.733 110.14 29.7739 110.101 29.8054C110.081 29.8209 110.064 29.8352 110.051 29.8464C110.046 29.8516 110.038 29.8584 110.032 29.8655C110.029 29.8681 110.022 29.876 110.016 29.887C110.013 29.8915 110.005 29.9055 110.002 29.9254C109.998 29.9477 109.999 29.995 110.042 30.0288C110.066 30.0477 110.092 30.0565 110.111 30.0611C110.131 30.066 110.151 30.0685 110.17 30.0697C110.207 30.0722 110.248 30.0706 110.286 30.0678C110.324 30.065 110.362 30.0608 110.393 30.0571L110.417 30.0542C110.437 30.0518 110.451 30.0501 110.459 30.0494C110.786 30.0239 111.1 29.9752 111.418 29.9253C111.428 29.9237 111.453 29.9226 111.499 29.9209C111.54 29.9193 111.591 29.9172 111.642 29.9125C111.68 29.909 111.721 29.9037 111.759 29.895C111.758 30.139 111.752 30.3803 111.726 30.6191C111.692 30.9237 111.617 31.2278 111.541 31.5349C111.52 31.6228 111.498 31.711 111.477 31.7995C111.351 32.3315 111.303 32.8912 111.257 33.4252L111.255 33.4482C111.178 34.3506 111.387 35.1668 111.683 35.9932C111.711 36.0716 111.735 36.1487 111.759 36.2283C111.773 36.2747 111.788 36.3226 111.804 36.3714C111.845 36.5005 111.894 36.6331 111.964 36.7598C111.998 36.821 112.047 36.8855 112.091 36.943L112.121 36.9831C112.175 37.0562 112.214 37.1154 112.23 37.1658C112.235 37.1836 112.245 37.199 112.257 37.2112C112.076 37.1688 111.895 37.1678 111.726 37.2282C111.55 37.2912 111.397 37.4168 111.274 37.6081C111.031 37.9848 110.893 38.6281 110.893 39.6156V39.638L110.902 39.6586C110.902 40.4006 111.091 41.2856 111.606 42.1686C111.863 42.6099 112.132 43.0275 112.395 43.3634C112.654 43.6957 112.756 43.9612 113.001 44.0822L115.593 45.0828L115.888 45.6776C117.203 48.9331 118.671 49.0846 122.085 50.5C123.36 50.8434 124.119 50.8516 125.5 50.5C128.985 48.9598 130.109 48.7695 131.6 45.6776L131.724 45.1245C132.577 44.8405 134.071 45.2662 135.31 43.2302C136.149 41.8511 136.461 39.4935 136.315 38.7751C136.17 38.0601 135.735 37.6308 135.457 37.3569L135.454 37.3541C135.438 37.3386 135.422 37.3245 135.405 37.3118C135.495 37.1794 135.591 37.0511 135.689 36.9206L135.761 36.8248C135.886 36.6561 136.012 36.4826 136.122 36.2977C136.27 36.0518 136.255 35.8129 136.241 35.5841C136.238 35.5318 136.235 35.4801 136.234 35.429C136.231 35.3158 136.212 35.2065 136.194 35.1059L136.191 35.0936C136.174 34.9954 136.157 34.9056 136.153 34.8152C136.142 34.6019 136.118 34.3918 136.08 34.1813C136.021 33.8598 136.015 33.5247 136.015 33.1874V32.036L136.015 31.9572C136.015 31.6858 136.016 31.3999 135.971 31.1212C135.954 31.0207 135.95 30.9188 135.946 30.8094L135.946 30.8082C135.941 30.7006 135.937 30.5855 135.917 30.4704C135.896 30.3482 135.899 30.2242 135.903 30.0905C135.904 30.04 135.905 29.9882 135.905 29.9345C135.905 29.8915 135.9 29.8497 135.895 29.8124L135.889 29.7726C135.885 29.7501 135.882 29.7297 135.88 29.7078C135.872 29.6424 135.875 29.5987 135.893 29.563C135.913 29.5242 135.907 29.4793 135.882 29.4471C135.933 29.4555 135.987 29.4613 136.041 29.4613C136.101 29.4613 136.158 29.4536 136.207 29.447L136.209 29.4468C136.261 29.4398 136.303 29.4343 136.344 29.4343C136.39 29.4343 136.555 29.4226 136.695 29.4011C136.764 29.3906 136.837 29.3763 136.889 29.3561C136.902 29.3508 136.918 29.3439 136.932 29.3349C136.945 29.3265 136.966 29.3117 136.981 29.2876C136.999 29.2594 137.007 29.2214 136.994 29.1821C136.983 29.1485 136.96 29.1273 136.945 29.1157C136.877 29.064 136.797 29.0371 136.737 29.017L136.713 29.009C136.645 28.9854 136.601 28.9652 136.569 28.9285C136.512 28.8654 136.441 28.8142 136.377 28.7708L136.332 28.7407C136.283 28.7079 136.239 28.6788 136.2 28.6469C136.119 28.5795 136.053 28.5026 135.985 28.4179L135.946 28.3685C135.891 28.299 135.832 28.2243 135.765 28.1542C135.691 28.0772 135.626 27.9859 135.559 27.8865L135.523 27.832C135.468 27.7503 135.411 27.6643 135.349 27.5856C135.301 27.5249 135.249 27.4656 135.196 27.4076C135.222 27.4066 135.249 27.396 135.27 27.3757C135.313 27.3331 135.313 27.2639 135.27 27.2213C135.264 27.216 135.259 27.2073 135.245 27.1751L135.243 27.1713C135.231 27.1443 135.211 27.0997 135.174 27.0614L135.155 27.0412C135.124 27.009 135.111 26.9957 135.104 26.976C135.08 26.9111 135.029 26.7845 134.966 26.6675C134.935 26.6092 134.899 26.5499 134.859 26.501C134.852 26.4921 134.844 26.4828 134.835 26.4736ZM126.229 20.3056C125.856 20.2319 125.469 20.2085 125.084 20.2221C125.032 20.2239 124.98 20.225 124.929 20.226C124.77 20.2293 124.614 20.2324 124.471 20.2579C124.215 20.3039 123.956 20.303 123.706 20.3021C123.62 20.3018 123.534 20.3015 123.45 20.3032C123.249 20.3072 123.053 20.3323 122.861 20.3848C122.838 20.3912 122.816 20.4058 122.773 20.4351L122.771 20.4365C122.739 20.4586 122.692 20.4902 122.635 20.5083C122.643 20.5302 122.643 20.5546 122.635 20.5783C122.616 20.6355 122.553 20.6664 122.495 20.6474C122.463 20.6367 122.429 20.632 122.383 20.6256L122.374 20.6243C122.327 20.6177 122.268 20.6089 122.208 20.5848C122.18 20.5736 122.153 20.5624 122.127 20.5516C121.991 20.4948 121.873 20.4458 121.744 20.4381C121.611 20.4302 121.48 20.4324 121.344 20.4346C121.279 20.4357 121.212 20.4368 121.145 20.4368H120.519C120.486 20.4368 120.463 20.4433 120.436 20.4546C120.43 20.4571 120.422 20.4609 120.412 20.4654C120.385 20.4774 120.348 20.4944 120.312 20.5063C120.205 20.5413 120.097 20.5788 119.987 20.6168C119.786 20.6862 119.581 20.757 119.377 20.8166C119.252 20.8529 119.136 20.9109 119.015 20.9774C118.989 20.9916 118.963 21.0063 118.936 21.0213C118.841 21.0746 118.74 21.131 118.636 21.1777L118.63 21.1803C118.542 21.2193 118.445 21.2623 118.391 21.3065C118.251 21.4199 118.098 21.5062 117.95 21.5851L117.869 21.6277C117.747 21.6917 117.632 21.7528 117.522 21.825C117.439 21.8794 117.361 21.9414 117.282 22.0076C117.26 22.0259 117.237 22.0448 117.215 22.0638C117.157 22.1124 117.098 22.1625 117.037 22.2099C116.977 22.2575 116.913 22.3004 116.853 22.3404L116.803 22.3741C116.728 22.4251 116.66 22.4744 116.601 22.5334C116.496 22.6369 116.401 22.7571 116.301 22.8847C116.263 22.9319 116.225 22.9803 116.186 23.0292C116.108 23.1252 116.024 23.2219 115.932 23.3093C116.142 23.2704 116.384 23.2818 116.576 23.3448C116.639 23.3654 116.702 23.3857 116.765 23.4061C117.094 23.5116 117.427 23.6187 117.748 23.7873C118.339 24.0974 118.879 24.4956 119.382 24.9206C119.448 24.9759 119.519 25.0318 119.594 25.0909L119.653 25.137C119.748 25.2125 119.848 25.2929 119.942 25.3787C120.13 25.5493 120.305 25.7498 120.388 25.9942C120.407 26.0515 120.376 26.1133 120.318 26.1324C120.26 26.1515 120.197 26.1205 120.178 26.0633C120.113 25.8711 119.97 25.7011 119.792 25.5393C119.704 25.4589 119.609 25.3826 119.514 25.3075L119.457 25.263C119.382 25.2036 119.307 25.1446 119.238 25.0864C118.742 24.6674 118.216 24.28 117.644 23.9801C117.342 23.8213 117.03 23.7209 116.701 23.6154C116.637 23.5946 116.571 23.5736 116.506 23.552C116.317 23.4899 116.054 23.4898 115.866 23.5507C115.749 23.5882 115.629 23.6109 115.516 23.6321L115.484 23.6381C115.359 23.6617 115.244 23.6853 115.137 23.726C114.925 23.8064 114.723 23.9622 114.53 24.1146C114.224 24.3563 113.928 24.5925 113.764 24.9158C113.575 25.2875 113.38 25.6561 113.158 26.0151C113.119 26.0785 113.085 26.1427 113.049 26.2104C113.037 26.234 113.024 26.258 113.011 26.2825C112.962 26.3751 112.906 26.4717 112.833 26.5621C112.815 26.5854 112.799 26.6095 112.779 26.6382C112.767 26.6568 112.753 26.6774 112.737 26.7009C112.701 26.7516 112.654 26.8129 112.59 26.8543L112.589 26.8549L112.588 26.856L112.59 26.8543L112.589 26.8549C112.587 26.8587 112.579 26.8719 112.57 26.9014C112.558 26.9412 112.548 26.9939 112.542 27.0529C112.533 27.1354 112.53 27.2213 112.529 27.2853C112.803 26.9459 113.067 26.6003 113.312 26.2383C113.346 26.1881 113.415 26.1745 113.466 26.208C113.517 26.2414 113.53 26.3092 113.496 26.3594C113.041 27.0335 112.518 27.6527 111.997 28.2691C111.884 28.4024 111.771 28.536 111.66 28.6695C111.348 29.0422 111.019 29.4052 110.608 29.6946L110.606 29.6963L110.6 29.7001L110.583 29.7126L110.53 29.7522C110.499 29.7757 110.461 29.804 110.423 29.8335L110.442 29.8316C110.758 29.8069 111.065 29.7596 111.383 29.7096C111.408 29.7057 111.446 29.7042 111.481 29.7029L111.49 29.7026C111.532 29.701 111.577 29.6991 111.622 29.695C111.667 29.6908 111.704 29.6847 111.731 29.6765C111.741 29.6736 111.747 29.6711 111.75 29.6695C111.753 29.6653 111.756 29.6615 111.759 29.6578L111.759 29.6367C111.759 29.578 111.759 29.5191 111.759 29.4601C111.759 29.3997 111.808 29.3508 111.87 29.3508C111.931 29.3508 111.98 29.3997 111.98 29.4601C111.98 29.5176 111.981 29.5754 111.981 29.6336C111.982 29.9655 111.983 30.3067 111.946 30.6427C111.911 30.963 111.831 31.2858 111.755 31.5951C111.733 31.6809 111.712 31.7656 111.693 31.849C111.571 32.3656 111.524 32.9118 111.477 33.4509L111.476 33.4667C111.402 34.3234 111.6 35.1051 111.892 35.9204C111.921 36.0028 111.948 36.0892 111.974 36.1727C111.987 36.2181 112.001 36.2627 112.015 36.3052C112.055 36.4297 112.099 36.5467 112.159 36.6549C112.184 36.7013 112.221 36.7493 112.263 36.8054L112.299 36.8539C112.352 36.925 112.413 37.0115 112.441 37.1015C112.459 37.1592 112.427 37.2203 112.368 37.2381L112.361 37.2398C112.71 37.3498 113.075 37.6033 113.415 37.9066C113.765 38.2189 114.098 38.5932 114.37 38.9445L113.652 35.758L114.776 34.6499L116.765 32.371L118.948 30.7587L128.468 30.6191L129.947 32.2447L132.711 34.6499L133.835 35.758L133.27 38.2682C133.542 38.0188 133.9 37.7279 134.252 37.5156C134.47 37.3834 134.694 37.2771 134.897 37.2341C135 37.2122 135.104 37.2057 135.2 37.2237C135.202 37.2184 135.205 37.2133 135.209 37.2083C135.306 37.0648 135.41 36.9258 135.512 36.7893L135.582 36.6955C135.707 36.5277 135.827 36.3616 135.932 36.1865C136.042 36.0029 136.033 35.8426 136.021 35.6222C136.017 35.5642 136.014 35.5019 136.012 35.434C136.01 35.3398 135.994 35.2461 135.976 35.1443L135.973 35.1278C135.955 35.0331 135.937 34.9307 135.932 34.8259C135.922 34.622 135.898 34.4212 135.862 34.2199C135.799 33.8775 135.793 33.5252 135.793 33.1874L135.793 31.9591C135.793 31.6845 135.794 31.4161 135.752 31.1555C135.733 31.0422 135.729 30.9293 135.725 30.8238L135.724 30.817C135.72 30.7074 135.715 30.6058 135.699 30.5064C135.674 30.362 135.678 30.2073 135.681 30.0674C135.682 30.0212 135.683 29.9766 135.683 29.9345C135.683 29.9071 135.68 29.8774 135.675 29.8429L135.67 29.8105C135.667 29.7856 135.662 29.758 135.659 29.7324C135.651 29.6553 135.648 29.5591 135.695 29.4653C135.705 29.4449 135.722 29.429 135.74 29.4187L135.696 29.4084L135.689 29.4069C135.653 29.3985 135.619 29.3906 135.586 29.384C135.574 29.3815 135.559 29.3788 135.542 29.3757C135.478 29.3642 135.387 29.3478 135.31 29.3201C135.218 29.2871 135.081 29.2141 135.081 29.0548C135.081 28.9945 135.13 28.9456 135.191 28.9456C135.253 28.9456 135.302 28.9945 135.302 29.0548C135.302 29.0612 135.304 29.0853 135.386 29.115C135.443 29.1355 135.506 29.147 135.568 29.1582C135.589 29.1621 135.61 29.1659 135.631 29.17C135.667 29.1774 135.704 29.1859 135.74 29.1942L135.746 29.1956C135.78 29.2036 135.813 29.2113 135.846 29.2182C135.917 29.2329 135.981 29.2428 136.041 29.2428C136.084 29.2428 136.128 29.2372 136.179 29.2303L136.184 29.2297C136.231 29.2233 136.287 29.2158 136.344 29.2158C136.37 29.2158 136.476 29.209 136.587 29.1955C136.526 29.1713 136.459 29.1359 136.402 29.0731C136.365 29.0318 136.314 28.9936 136.251 28.9508L136.213 28.9254C136.162 28.8916 136.106 28.8542 136.058 28.8144C135.958 28.7319 135.881 28.6404 135.811 28.553L135.768 28.4988C135.714 28.4301 135.663 28.3659 135.604 28.3043C135.516 28.2126 135.442 28.1078 135.375 28.0073L135.336 27.949C135.282 27.8678 135.23 27.7911 135.174 27.7201C135.073 27.5926 134.958 27.4748 134.839 27.3537C134.793 27.3069 134.747 27.2597 134.701 27.2111L134.653 27.1604C134.478 26.9758 134.322 26.8117 134.118 26.6743C134.067 26.6403 134.024 26.598 133.989 26.5638L133.975 26.5505C133.934 26.5113 133.902 26.483 133.866 26.4641C133.774 26.4155 133.673 26.3864 133.561 26.3542C133.532 26.3459 133.502 26.3374 133.472 26.3283C133.161 26.2349 132.871 26.1649 132.56 26.1649C132.499 26.1649 132.45 26.116 132.45 26.0557C132.45 25.9953 132.499 25.9464 132.56 25.9464C132.905 25.9464 133.22 26.0243 133.537 26.1193C133.561 26.1265 133.586 26.1338 133.613 26.1413C133.726 26.1739 133.856 26.211 133.971 26.2716C134.037 26.3065 134.088 26.3546 134.129 26.3941L134.144 26.408C134.181 26.4438 134.21 26.4716 134.243 26.4938C134.468 26.6455 134.64 26.8271 134.813 27.0092L134.863 27.0617C134.904 27.105 134.947 27.1492 134.991 27.1941C135.003 27.206 135.014 27.218 135.026 27.23C135.021 27.2213 135.018 27.2159 135.013 27.2114L135.001 27.1991C134.971 27.1689 134.92 27.118 134.895 27.0506C134.873 26.9902 134.827 26.8742 134.771 26.7698C134.742 26.7174 134.714 26.6714 134.686 26.6376C134.673 26.6207 134.661 26.6088 134.651 26.601C134.643 26.5947 134.638 26.5925 134.638 26.5925C134.585 26.5766 134.553 26.5242 134.561 26.4711C134.532 26.4428 134.504 26.4107 134.477 26.3784C134.42 26.3083 134.364 26.2266 134.338 26.1688C134.293 26.0685 134.247 25.9952 134.18 25.9C134.115 25.8062 134.044 25.7119 133.973 25.6161C133.822 25.4147 133.666 25.2068 133.544 24.9833L133.513 24.9268C133.36 24.6469 133.211 24.3727 133.031 24.1262C132.956 24.024 132.826 23.9464 132.668 23.8935C132.512 23.8412 132.341 23.8175 132.202 23.8143C132.14 23.8129 132.092 23.7628 132.093 23.7025C132.095 23.6537 132.128 23.6131 132.173 23.6001C132.164 23.4933 132.125 23.3969 132.074 23.2911C132.065 23.2718 132.055 23.252 132.045 23.2316C131.994 23.1277 131.935 23.0096 131.906 22.8776C131.881 22.769 131.829 22.667 131.769 22.5487L131.764 22.538C131.75 22.5098 131.736 22.4794 131.723 22.4508L131.72 22.4442C131.708 22.4171 131.697 22.3912 131.684 22.366C131.657 22.31 131.632 22.2685 131.605 22.2422C131.581 22.218 131.55 22.2098 131.494 22.2185C131.464 22.223 131.433 22.2314 131.396 22.242L131.378 22.2473C131.348 22.2561 131.315 22.266 131.283 22.2729L131.273 22.2788C131.264 22.2847 131.253 22.2932 131.238 22.3057L131.23 22.3125C131.206 22.3339 131.164 22.37 131.116 22.3891C131.082 22.4029 131.051 22.4149 131.021 22.4261C130.905 22.4705 130.82 22.5029 130.733 22.5826C130.552 22.7484 130.39 22.9359 130.241 23.1338C130.152 23.2507 130.057 23.3561 129.963 23.4574L129.901 23.5236C129.827 23.6021 129.755 23.679 129.685 23.7606C129.493 23.9847 129.291 24.1983 129.09 24.4105C128.996 24.5096 128.902 24.6086 128.81 24.7079C128.667 24.8625 128.535 25.0273 128.401 25.1957L128.389 25.2102C128.26 25.373 128.128 25.5391 127.984 25.6965C127.943 25.7414 127.873 25.745 127.827 25.7046C127.782 25.6643 127.778 25.5952 127.819 25.5504C127.958 25.3985 128.086 25.2375 128.217 25.0731L128.227 25.0608C128.36 24.8931 128.497 24.7221 128.646 24.5606C128.742 24.4573 128.838 24.3565 128.932 24.2564C129.131 24.0464 129.327 23.8395 129.516 23.6195C129.59 23.5339 129.666 23.4524 129.74 23.3733L129.8 23.3096C129.893 23.2095 129.982 23.1108 130.063 23.0034C130.218 22.798 130.389 22.5998 130.582 22.4227C130.703 22.3117 130.835 22.262 130.955 22.2166C130.982 22.2067 131.008 22.197 131.032 22.1869C131.044 22.1825 131.057 22.1713 131.094 22.1401L131.096 22.1382C131.123 22.1155 131.172 22.0735 131.235 22.0598C131.254 22.0556 131.274 22.05 131.297 22.0432C131.281 22.0166 131.267 21.9877 131.255 21.964L131.249 21.9524C131.234 21.9229 131.223 21.9009 131.21 21.8834C131.046 21.6585 130.814 21.534 130.538 21.3978C130.066 21.1655 129.573 20.9869 129.058 20.9436C128.696 20.9132 128.341 20.8367 127.994 20.7604L127.954 20.7517C127.619 20.6779 127.291 20.6057 126.958 20.5712L126.957 20.571C126.945 20.5725 126.933 20.5722 126.921 20.5698C126.788 20.5437 126.666 20.4848 126.558 20.4328L126.55 20.4292C126.436 20.3739 126.335 20.3264 126.229 20.3056ZM131.503 45.0968L133.593 35.8277L132.501 34.7514L129.74 32.371L128.401 30.8238L119.015 30.9634L116.973 32.4973L114.987 34.7514L113.895 35.8277L115.432 42.6477L116.009 45.2088L116.09 45.5681C117.446 48.7782 118.83 48.844 122.177 50.2816C123.596 50.6302 124.227 50.4929 125.408 50.2816C128.549 48.8904 129.88 48.9208 131.397 45.5681L131.503 45.0968ZM135.12 43.1178C133.968 45.0108 132.615 44.556 131.781 44.872L133.203 38.5654L133.238 38.6007C133.512 38.3312 133.948 37.9552 134.367 37.7019C134.578 37.5748 134.776 37.4831 134.944 37.4476C135.111 37.4121 135.224 37.4367 135.297 37.5085C135.574 37.7809 135.966 38.1703 136.098 38.8179C136.229 39.4648 135.942 41.7663 135.12 43.1178ZM115.217 42.7001L115.692 44.8082L113.261 43.8869C113.063 43.7895 112.827 43.5589 112.57 43.2302C112.316 42.905 112.053 42.4966 111.798 42.0596C111.294 41.1953 111.113 40.5583 111.115 39.5932C111.117 38.6281 111.255 38.0446 111.461 37.7252C111.563 37.5673 111.679 37.4773 111.801 37.4336C111.925 37.3895 112.066 37.3885 112.223 37.4278C112.543 37.5076 112.907 37.7477 113.267 38.0685C113.618 38.3821 113.955 38.7632 114.226 39.1185L115.217 42.7001Z" fill="black"/>
<path d="M125.084 20.2221C125.469 20.2085 125.856 20.2319 126.229 20.3056C126.335 20.3264 126.436 20.3739 126.55 20.4292L126.558 20.4328C126.666 20.4848 126.788 20.5437 126.921 20.5698C126.933 20.5722 126.945 20.5725 126.957 20.571L126.958 20.5712C127.291 20.6057 127.619 20.6779 127.954 20.7517L127.994 20.7604C128.341 20.8367 128.696 20.9132 129.058 20.9436C129.573 20.9869 130.066 21.1655 130.538 21.3978C130.814 21.534 131.046 21.6585 131.21 21.8834C131.223 21.9009 131.234 21.9229 131.249 21.9524L131.255 21.964C131.267 21.9877 131.281 22.0166 131.297 22.0432C131.274 22.05 131.254 22.0556 131.235 22.0598C131.172 22.0735 131.123 22.1155 131.096 22.1382L131.094 22.1401C131.057 22.1713 131.044 22.1825 131.032 22.1869C131.008 22.197 130.982 22.2067 130.955 22.2166C130.835 22.262 130.703 22.3117 130.582 22.4227C130.389 22.5998 130.218 22.798 130.063 23.0034C129.982 23.1108 129.893 23.2095 129.8 23.3096L129.74 23.3733C129.666 23.4524 129.59 23.5339 129.516 23.6195C129.327 23.8395 129.131 24.0464 128.932 24.2564C128.838 24.3565 128.742 24.4573 128.646 24.5606C128.497 24.7221 128.36 24.8931 128.227 25.0608L128.217 25.0731C128.086 25.2375 127.958 25.3985 127.819 25.5504C127.778 25.5952 127.782 25.6643 127.827 25.7046C127.873 25.745 127.943 25.7414 127.984 25.6965C128.128 25.5391 128.26 25.373 128.389 25.2102L128.401 25.1957C128.535 25.0273 128.667 24.8625 128.81 24.7079C128.902 24.6086 128.996 24.5096 129.09 24.4105C129.291 24.1983 129.493 23.9847 129.685 23.7606C129.755 23.679 129.827 23.6021 129.901 23.5236L129.963 23.4574C130.057 23.3561 130.152 23.2507 130.241 23.1338C130.39 22.9359 130.552 22.7484 130.733 22.5826C130.82 22.5029 130.905 22.4705 131.021 22.4261C131.051 22.4149 131.082 22.4029 131.116 22.3891C131.164 22.37 131.206 22.3339 131.23 22.3125L131.238 22.3057C131.253 22.2932 131.264 22.2847 131.273 22.2788L131.283 22.2729C131.315 22.266 131.348 22.2561 131.378 22.2473L131.396 22.242C131.433 22.2314 131.464 22.223 131.494 22.2185C131.55 22.2098 131.581 22.218 131.605 22.2422C131.632 22.2685 131.657 22.31 131.684 22.366C131.697 22.3912 131.708 22.4171 131.72 22.4442L131.723 22.4508C131.736 22.4794 131.75 22.5098 131.764 22.538L131.769 22.5487C131.829 22.667 131.881 22.769 131.906 22.8776C131.935 23.0096 131.994 23.1277 132.045 23.2316C132.055 23.252 132.065 23.2718 132.074 23.2911C132.125 23.3969 132.164 23.4933 132.173 23.6001C132.128 23.6131 132.095 23.6537 132.093 23.7025C132.092 23.7628 132.14 23.8129 132.202 23.8143C132.341 23.8175 132.512 23.8412 132.668 23.8935C132.826 23.9464 132.956 24.024 133.031 24.1262C133.211 24.3727 133.36 24.6469 133.513 24.9268L133.544 24.9833C133.666 25.2068 133.822 25.4147 133.973 25.6161C134.044 25.7119 134.115 25.8062 134.18 25.9C134.247 25.9952 134.293 26.0685 134.338 26.1688C134.364 26.2266 134.42 26.3083 134.477 26.3784C134.504 26.4107 134.532 26.4428 134.561 26.4711C134.553 26.5242 134.585 26.5766 134.638 26.5925C134.638 26.5925 134.643 26.5947 134.651 26.601C134.661 26.6088 134.673 26.6207 134.686 26.6376C134.714 26.6714 134.742 26.7174 134.771 26.7698C134.827 26.8742 134.873 26.9902 134.895 27.0506C134.92 27.118 134.971 27.1689 135.001 27.1991L135.013 27.2114C135.018 27.2159 135.021 27.2213 135.026 27.23L134.991 27.1941C134.947 27.1492 134.904 27.105 134.863 27.0617L134.813 27.0092C134.64 26.8271 134.468 26.6455 134.243 26.4938C134.21 26.4716 134.181 26.4438 134.144 26.408L134.129 26.3941C134.088 26.3546 134.037 26.3065 133.971 26.2716C133.856 26.211 133.726 26.1739 133.613 26.1413C133.586 26.1338 133.561 26.1265 133.537 26.1193C133.22 26.0243 132.905 25.9464 132.56 25.9464C132.499 25.9464 132.45 25.9953 132.45 26.0557C132.45 26.116 132.499 26.1649 132.56 26.1649C132.871 26.1649 133.161 26.2349 133.472 26.3283C133.502 26.3374 133.532 26.3459 133.561 26.3542C133.673 26.3864 133.774 26.4155 133.866 26.4641C133.902 26.483 133.934 26.5113 133.975 26.5505L133.989 26.5638C134.024 26.598 134.067 26.6403 134.118 26.6743C134.322 26.8117 134.478 26.9758 134.653 27.1604L134.701 27.2111C134.747 27.2597 134.793 27.3069 134.839 27.3537C134.958 27.4748 135.073 27.5926 135.174 27.7201C135.23 27.7911 135.282 27.8678 135.336 27.949L135.375 28.0073C135.442 28.1078 135.516 28.2126 135.604 28.3043C135.663 28.3659 135.714 28.4301 135.768 28.4988L135.811 28.553C135.881 28.6404 135.958 28.7319 136.058 28.8144C136.106 28.8542 136.162 28.8916 136.213 28.9254L136.251 28.9508C136.314 28.9936 136.365 29.0318 136.402 29.0731C136.459 29.1359 136.526 29.1713 136.587 29.1955C136.476 29.209 136.37 29.2158 136.344 29.2158C136.287 29.2158 136.231 29.2233 136.184 29.2297L136.179 29.2303C136.128 29.2372 136.084 29.2428 136.041 29.2428C135.981 29.2428 135.917 29.2329 135.846 29.2182C135.813 29.2113 135.78 29.2036 135.746 29.1956L135.74 29.1942C135.704 29.1859 135.667 29.1774 135.631 29.17C135.61 29.1659 135.589 29.1621 135.568 29.1582C135.506 29.147 135.443 29.1355 135.386 29.115C135.304 29.0853 135.302 29.0612 135.302 29.0548C135.302 28.9945 135.253 28.9456 135.191 28.9456C135.13 28.9456 135.081 28.9945 135.081 29.0548C135.081 29.2141 135.218 29.2871 135.31 29.3201C135.387 29.3478 135.478 29.3642 135.542 29.3757C135.559 29.3788 135.574 29.3815 135.586 29.384C135.619 29.3906 135.653 29.3985 135.689 29.4069L135.696 29.4084L135.74 29.4187C135.722 29.429 135.705 29.4449 135.695 29.4653C135.648 29.5591 135.651 29.6553 135.659 29.7324C135.662 29.758 135.667 29.7856 135.67 29.8105L135.675 29.8429C135.68 29.8774 135.683 29.9071 135.683 29.9345C135.683 29.9766 135.682 30.0212 135.681 30.0674C135.678 30.2073 135.674 30.362 135.699 30.5064C135.715 30.6058 135.72 30.7074 135.724 30.817L135.725 30.8238C135.729 30.9293 135.733 31.0422 135.752 31.1555C135.794 31.4161 135.793 31.6845 135.793 31.9591L135.793 33.1874C135.793 33.5252 135.799 33.8775 135.862 34.2199C135.898 34.4212 135.922 34.622 135.932 34.8259C135.937 34.9307 135.955 35.0331 135.973 35.1278L135.976 35.1443C135.994 35.2461 136.01 35.3398 136.012 35.434C136.014 35.5019 136.017 35.5642 136.021 35.6222C136.033 35.8426 136.042 36.0029 135.932 36.1865C135.827 36.3616 135.707 36.5277 135.582 36.6955L135.512 36.7893C135.41 36.9258 135.306 37.0648 135.209 37.2083C135.205 37.2133 135.202 37.2184 135.2 37.2237C135.104 37.2057 135 37.2122 134.897 37.2341C134.694 37.2771 134.47 37.3834 134.252 37.5156C133.9 37.7279 133.542 38.0188 133.27 38.2682L133.835 35.758L132.711 34.6499L129.947 32.2447L128.468 30.6191L118.948 30.7587L116.765 32.371L114.776 34.6499L113.652 35.758L114.37 38.9445C114.098 38.5932 113.765 38.2189 113.415 37.9066C113.075 37.6033 112.71 37.3498 112.361 37.2398L112.368 37.2381C112.427 37.2203 112.459 37.1592 112.441 37.1015C112.413 37.0115 112.352 36.925 112.299 36.8539L112.263 36.8054C112.221 36.7493 112.184 36.7013 112.159 36.6549C112.099 36.5467 112.055 36.4297 112.015 36.3052C112.001 36.2627 111.987 36.2181 111.974 36.1727C111.948 36.0892 111.921 36.0028 111.892 35.9204C111.6 35.1051 111.402 34.3234 111.476 33.4667L111.477 33.4509C111.524 32.9118 111.571 32.3656 111.693 31.849C111.712 31.7656 111.733 31.6809 111.755 31.5951C111.831 31.2858 111.911 30.963 111.946 30.6427C111.983 30.3067 111.982 29.9655 111.981 29.6336C111.981 29.5754 111.98 29.5176 111.98 29.4601C111.98 29.3997 111.931 29.3508 111.87 29.3508C111.808 29.3508 111.759 29.3997 111.759 29.4601C111.759 29.5191 111.759 29.578 111.759 29.6367L111.759 29.6578C111.756 29.6615 111.753 29.6653 111.75 29.6695C111.747 29.6711 111.741 29.6736 111.731 29.6765C111.704 29.6847 111.667 29.6908 111.622 29.695C111.577 29.6991 111.532 29.701 111.49 29.7026L111.481 29.7029C111.446 29.7042 111.408 29.7057 111.383 29.7096C111.065 29.7596 110.758 29.8069 110.442 29.8316L110.423 29.8335C110.461 29.804 110.499 29.7757 110.53 29.7522L110.583 29.7126L110.6 29.7001L110.606 29.6963L110.608 29.6946C111.019 29.4052 111.348 29.0422 111.66 28.6695C111.771 28.536 111.884 28.4024 111.997 28.2691C112.518 27.6527 113.041 27.0335 113.496 26.3594C113.53 26.3092 113.517 26.2414 113.466 26.208C113.415 26.1745 113.346 26.1881 113.312 26.2383C113.067 26.6003 112.803 26.9459 112.529 27.2853C112.53 27.2213 112.533 27.1354 112.542 27.0529C112.548 26.9939 112.558 26.9412 112.57 26.9014C112.579 26.8719 112.587 26.8587 112.589 26.8549L112.59 26.8543C112.654 26.8129 112.701 26.7516 112.737 26.7009C112.753 26.6774 112.767 26.6568 112.779 26.6382C112.799 26.6095 112.815 26.5854 112.833 26.5621C112.906 26.4717 112.962 26.3751 113.011 26.2825C113.024 26.258 113.037 26.234 113.049 26.2104C113.085 26.1427 113.119 26.0785 113.158 26.0151C113.38 25.6561 113.575 25.2875 113.764 24.9158C113.928 24.5925 114.224 24.3563 114.53 24.1146C114.723 23.9622 114.925 23.8064 115.137 23.726C115.244 23.6853 115.359 23.6617 115.484 23.6381L115.516 23.6321C115.629 23.6109 115.749 23.5882 115.866 23.5507C116.054 23.4898 116.317 23.4899 116.506 23.552C116.571 23.5736 116.637 23.5946 116.701 23.6154C117.03 23.7209 117.342 23.8213 117.644 23.9801C118.216 24.28 118.742 24.6674 119.238 25.0864C119.307 25.1446 119.382 25.2036 119.457 25.263L119.514 25.3075C119.609 25.3826 119.704 25.4589 119.792 25.5393C119.97 25.7011 120.113 25.8711 120.178 26.0633C120.197 26.1205 120.26 26.1515 120.318 26.1324C120.376 26.1133 120.407 26.0515 120.388 25.9942C120.305 25.7498 120.13 25.5493 119.942 25.3787C119.848 25.2929 119.748 25.2125 119.653 25.137L119.594 25.0909C119.519 25.0318 119.448 24.9759 119.382 24.9206C118.879 24.4956 118.339 24.0974 117.748 23.7873C117.427 23.6187 117.094 23.5116 116.765 23.4061C116.702 23.3857 116.639 23.3654 116.576 23.3448C116.384 23.2818 116.142 23.2704 115.932 23.3093C116.024 23.2219 116.108 23.1252 116.186 23.0292C116.225 22.9803 116.263 22.9319 116.301 22.8847C116.401 22.7571 116.496 22.6369 116.601 22.5334C116.66 22.4744 116.728 22.4251 116.803 22.3741L116.853 22.3404C116.913 22.3004 116.977 22.2575 117.037 22.2099C117.098 22.1625 117.157 22.1124 117.215 22.0638C117.237 22.0448 117.26 22.0259 117.282 22.0076C117.361 21.9414 117.439 21.8794 117.522 21.825C117.632 21.7528 117.747 21.6917 117.869 21.6277L117.95 21.5851C118.098 21.5062 118.251 21.4199 118.391 21.3065C118.445 21.2623 118.542 21.2193 118.63 21.1803L118.636 21.1777C118.74 21.131 118.841 21.0746 118.936 21.0213C118.963 21.0063 118.989 20.9916 119.015 20.9774C119.136 20.9109 119.252 20.8529 119.377 20.8166C119.581 20.757 119.786 20.6862 119.987 20.6168C120.097 20.5788 120.205 20.5413 120.312 20.5063C120.348 20.4944 120.385 20.4774 120.412 20.4654C120.422 20.4609 120.43 20.4571 120.436 20.4546C120.463 20.4433 120.486 20.4368 120.519 20.4368H121.145C121.212 20.4368 121.279 20.4357 121.344 20.4346C121.48 20.4324 121.611 20.4302 121.744 20.4381C121.873 20.4458 121.991 20.4948 122.127 20.5516C122.153 20.5624 122.18 20.5736 122.208 20.5848C122.268 20.6089 122.327 20.6177 122.374 20.6243L122.383 20.6256C122.429 20.632 122.463 20.6367 122.495 20.6474C122.553 20.6664 122.616 20.6355 122.635 20.5783C122.643 20.5546 122.643 20.5302 122.635 20.5083C122.692 20.4902 122.739 20.4586 122.771 20.4365L122.773 20.4351C122.816 20.4058 122.838 20.3912 122.861 20.3848C123.053 20.3323 123.249 20.3072 123.45 20.3032C123.534 20.3015 123.62 20.3018 123.706 20.3021C123.956 20.303 124.215 20.3039 124.471 20.2579C124.614 20.2324 124.77 20.2293 124.929 20.226C124.98 20.225 125.032 20.2239 125.084 20.2221Z" fill="black"/>
<path d="M131.503 45.0968L131.397 45.5681C129.88 48.9208 128.549 48.8904 125.408 50.2816C124.227 50.4929 123.596 50.6302 122.177 50.2816C118.83 48.844 117.446 48.7782 116.09 45.5681L116.009 45.2088L115.432 42.6477L113.895 35.8277L114.987 34.7514L116.973 32.4973L119.015 30.9634L128.401 30.8238L129.74 32.371L132.501 34.7514L133.593 35.8277L131.503 45.0968Z" fill="#FFE2E2"/>
<path d="M131.781 44.872C132.615 44.556 133.968 45.0108 135.12 43.1178C135.942 41.7663 136.229 39.4648 136.098 38.8179C135.966 38.1703 135.574 37.7809 135.297 37.5085C135.224 37.4367 135.111 37.4121 134.944 37.4476C134.776 37.4831 134.578 37.5748 134.367 37.7019C133.948 37.9552 133.512 38.3312 133.238 38.6007L133.203 38.5654L131.781 44.872Z" fill="#FFE2E2"/>
<path d="M115.692 44.8082L115.217 42.7001L114.226 39.1185C113.955 38.7632 113.618 38.3821 113.267 38.0685C112.907 37.7477 112.543 37.5076 112.223 37.4278C112.066 37.3885 111.925 37.3895 111.801 37.4336C111.679 37.4773 111.563 37.5673 111.461 37.7252C111.255 38.0446 111.117 38.6281 111.115 39.5932C111.113 40.5583 111.294 41.1953 111.798 42.0596C112.053 42.4966 112.316 42.905 112.57 43.2302C112.827 43.5589 113.063 43.7895 113.261 43.8869L115.692 44.8082Z" fill="url(#paint0_linear_157_325)"/>
<path d="M80.9168 73.3504C83.4593 71.5818 86.9542 72.2091 88.7229 74.7516C90.4916 77.2941 89.8643 80.789 87.3218 82.5576L66.1115 97.3125C63.569 99.0812 60.0741 98.4539 58.3054 95.9114C56.5367 93.3689 57.164 89.874 59.7065 88.1053L80.9168 73.3504Z" fill="#FFE2E2"/>
<rect x="64.0739" y="84.8477" width="12" height="2" transform="rotate(55.1757 64.0739 84.8477)" fill="#8CA5E5"/>
<rect x="62.4321" y="85.9897" width="12" height="2" transform="rotate(55.1757 62.4321 85.9897)" fill="#0045F5"/>
<path d="M168.146 73.3504C165.603 71.5818 162.108 72.2091 160.34 74.7516C158.571 77.2941 159.198 80.789 161.741 82.5576L182.951 97.3125C185.493 99.0812 188.988 98.4539 190.757 95.9114C192.526 93.3689 191.898 89.874 189.356 88.1053L168.146 73.3504Z" fill="#FFE2E2"/>
<rect width="12" height="2" transform="matrix(-0.571062 0.820907 0.820907 0.571062 184.989 84.8477)" fill="#8CA5E5"/>
<rect width="12" height="2" transform="matrix(-0.571062 0.820907 0.820907 0.571062 186.63 85.9897)" fill="#0045F5"/>
<rect x="108.998" y="193.037" width="12" height="3" transform="rotate(-1.73964 108.998 193.037)" fill="#8CA5E5"/>
<path d="M104.276 202.282C104.157 198.364 107.237 195.092 111.154 194.973L121.053 194.672L121.387 205.667L108.296 206.065C106.141 206.13 104.342 204.436 104.276 202.282Z" fill="#E0E7F5"/>
<path d="M105.364 205.153L121.357 204.668L121.387 205.667L107.848 206.078C106.931 206.106 106.039 205.774 105.364 205.153Z" fill="#393939"/>
<rect x="108.937" y="191.038" width="12" height="2" transform="rotate(-1.73964 108.937 191.038)" fill="#0045F5"/>
<rect width="12" height="3" transform="matrix(-0.999539 -0.0303577 -0.0303577 0.999539 138.389 193.037)" fill="#8CA5E5"/>
<path d="M143.111 202.282C143.23 198.364 140.15 195.092 136.233 194.973L126.334 194.672L126 205.667L139.091 206.065C141.246 206.13 143.045 204.436 143.111 202.282Z" fill="#E0E7F5"/>
<path d="M142.023 205.153L126.03 204.668L126 205.667L139.539 206.078C140.456 206.106 141.347 205.774 142.023 205.153Z" fill="#393939"/>
<rect width="12" height="2" transform="matrix(-0.999539 -0.0303577 -0.0303577 0.999539 138.45 191.038)" fill="#0045F5"/>
<ellipse cx="123.5" cy="232.5" rx="28.5" ry="1.5" fill="black" fill-opacity="0.1"/>
<defs>
<linearGradient id="paint0_linear_157_325" x1="123.5" y1="20" x2="123.5" y2="50.7607" gradientUnits="userSpaceOnUse">
<stop offset="1" stop-color="#FFD6D6"/>
</linearGradient>
</defs>
</svg>
