<svg width="250" height="250" viewBox="0 0 250 250" fill="none" xmlns="http://www.w3.org/2000/svg">
<ellipse cx="125.5" cy="232.5" rx="22.5" ry="1.5" fill="black" fill-opacity="0.1"/>
<path d="M110.122 153.608C110.137 150.511 112.661 148.012 115.758 148.028C118.855 148.043 121.353 150.566 121.338 153.664L121.21 179.501C121.194 182.598 118.671 185.096 115.574 185.081C112.477 185.065 109.979 182.542 109.994 179.445L110.122 153.608Z" fill="#FFE2E2"/>
<path d="M139.265 153.608C139.25 150.511 136.726 148.012 133.629 148.028C130.532 148.043 128.034 150.566 128.049 153.664L128.177 179.501C128.193 182.598 130.716 185.096 133.813 185.081C136.91 185.065 139.408 182.542 139.393 179.445L139.265 153.608Z" fill="#FFE2E2"/>
<path d="M106.826 113.597C106.441 116.67 103.637 118.849 100.564 118.463C97.4912 118.078 95.3123 115.274 95.6976 112.201L98.9123 86.5645C99.2977 83.4914 102.101 81.3125 105.174 81.6978C108.248 82.0832 110.426 84.8868 110.041 87.9599L106.826 113.597Z" fill="#FFE2E2"/>
<path d="M142.912 113.597C143.298 116.67 146.101 118.849 149.174 118.463C152.248 118.078 154.426 115.274 154.041 112.201L150.826 86.5645C150.441 83.4914 147.637 81.3125 144.564 81.6978C141.491 82.0832 139.312 84.8868 139.698 87.9599L142.912 113.597Z" fill="#FFE2E2"/>
<path d="M110.14 181.621C110.141 178.524 112.653 176.014 115.75 176.016C118.847 176.017 121.357 178.529 121.356 181.626L121.34 217.524C121.339 220.621 118.827 223.131 115.73 223.129C112.633 223.128 110.123 220.616 110.124 217.519L110.14 181.621Z" fill="#FFE2E2"/>
<path d="M139.247 181.621C139.246 178.524 136.734 176.014 133.637 176.016C130.54 176.017 128.03 178.529 128.031 181.626L128.047 217.524C128.048 220.621 130.56 223.131 133.657 223.129C136.754 223.128 139.264 220.616 139.263 217.519L139.247 181.621Z" fill="#FFE2E2"/>
<path d="M108 85H142V105H108V85Z" fill="#FFE2E2"/>
<path d="M108 85.5C108 83.0147 110.015 81 112.5 81H137.5C139.986 81 142 83.0147 142 85.5C142 87.9853 139.986 90 137.5 90H112.5C110.015 90 108 87.9853 108 85.5Z" fill="#FFE2E2"/>
<rect x="102" y="81" width="46" height="11" rx="5.5" fill="#FFE2E2"/>
<rect x="120" y="74" width="10" height="18" fill="#FFE2E2"/>
<path d="M113 79H118.5L121 84H129L131.5 79H136.5L136 90L137.5 96L142.5 100.5V106L142 109L142.5 114L142 121.5L142.5 123V130H107.5L107 123L107.5 118L107 113.5L107.5 100.5L112.5 96L113.5 89.5L113 79Z" fill="#1A3474"/>
<path fill-rule="evenodd" clip-rule="evenodd" d="M135.835 52.4736C135.841 52.4293 135.818 52.3845 135.775 52.3634C135.768 52.3598 135.751 52.3481 135.725 52.3238C135.701 52.301 135.675 52.2722 135.649 52.2409C135.596 52.1762 135.555 52.1122 135.541 52.0809C135.488 51.9628 135.433 51.8768 135.363 51.7763C135.288 51.669 135.212 51.5681 135.138 51.4693C134.993 51.2756 134.854 51.0899 134.739 50.8797L134.707 50.8204C134.556 50.5434 134.399 50.2572 134.211 49.9985C134.098 49.8442 133.918 49.7466 133.739 49.6867C133.626 49.6487 133.507 49.6241 133.396 49.6101C133.388 49.45 133.331 49.3163 133.274 49.1977C133.263 49.1743 133.252 49.1517 133.241 49.1296C133.19 49.0262 133.146 48.9349 133.122 48.8302C133.091 48.6945 133.028 48.5705 132.972 48.4591L132.962 48.4403C132.951 48.4175 132.939 48.3919 132.926 48.3627L132.923 48.3557C132.911 48.3292 132.898 48.3002 132.884 48.2717C132.855 48.2111 132.816 48.1415 132.762 48.0877C132.72 48.0462 132.674 48.022 132.627 48.0092C132.607 47.9878 132.578 47.9745 132.546 47.9745C132.53 47.9745 132.522 47.9706 132.517 47.9672C132.51 47.9625 132.501 47.9531 132.488 47.9332C132.477 47.9154 132.468 47.8956 132.455 47.87L132.448 47.8564C132.433 47.8267 132.415 47.7898 132.39 47.7557C132.19 47.4822 131.911 47.3375 131.637 47.2025C131.152 46.9636 130.63 46.7725 130.077 46.726C129.732 46.6969 129.391 46.6238 129.042 46.5472L128.998 46.5376C128.666 46.4645 128.327 46.3898 127.981 46.3539C127.973 46.353 127.965 46.3531 127.957 46.3541C127.857 46.3331 127.76 46.287 127.648 46.2329L127.644 46.2311C127.534 46.1784 127.409 46.1183 127.273 46.0914C126.88 46.0138 126.475 45.9897 126.076 46.0038C126.032 46.0053 125.986 46.0063 125.937 46.0072C125.775 46.0105 125.593 46.0141 125.432 46.043C125.197 46.0851 124.968 46.0843 124.724 46.0835C124.634 46.0832 124.541 46.0829 124.446 46.0848C124.228 46.0891 124.014 46.1163 123.802 46.1743C123.74 46.1914 123.688 46.2269 123.653 46.2509L123.646 46.2557C123.606 46.2835 123.583 46.297 123.56 46.3022C123.506 46.3146 123.47 46.3648 123.475 46.4183C123.454 46.4148 123.435 46.4121 123.417 46.4097L123.405 46.408C123.358 46.4014 123.324 46.3954 123.292 46.3826C123.269 46.3735 123.246 46.3636 123.222 46.3535C123.086 46.2966 122.928 46.2302 122.757 46.2201C122.616 46.2116 122.47 46.214 122.329 46.2163C122.266 46.2173 122.204 46.2184 122.145 46.2184H121.519C121.448 46.2184 121.396 46.2344 121.35 46.2532C121.331 46.2614 121.316 46.2682 121.303 46.2741C121.283 46.2833 121.267 46.2908 121.242 46.299C121.128 46.3363 121.017 46.3749 120.905 46.4133C120.708 46.4814 120.513 46.5489 120.314 46.6071C120.165 46.6506 120.031 46.7185 119.907 46.7866C119.878 46.8026 119.85 46.8186 119.822 46.8343C119.728 46.8867 119.639 46.9365 119.544 46.9786L119.528 46.9858C119.45 47.0205 119.328 47.0743 119.25 47.1379C119.128 47.2369 118.991 47.3149 118.844 47.3929L118.768 47.4333C118.646 47.4974 118.518 47.5645 118.399 47.6432C118.305 47.7047 118.22 47.7732 118.139 47.8408C118.114 47.8609 118.091 47.8808 118.068 47.9004C118.012 47.9478 117.957 47.9941 117.9 48.0389C117.846 48.0809 117.791 48.1177 117.733 48.1569L117.677 48.1943C117.6 48.247 117.519 48.3055 117.444 48.3789C117.328 48.493 117.221 48.6293 117.118 48.7604C117.082 48.8053 117.047 48.8501 117.013 48.8927C116.873 49.0649 116.733 49.2158 116.567 49.3142C116.532 49.3351 116.513 49.3723 116.513 49.4102L116.442 49.4236C116.318 49.4471 116.185 49.4736 116.058 49.5221C115.808 49.6168 115.58 49.7955 115.392 49.944L115.385 49.9492C115.088 50.1838 114.754 50.4473 114.566 50.8181C114.378 51.1878 114.186 51.5501 113.969 51.9014C113.925 51.9719 113.886 52.0457 113.85 52.1152C113.838 52.1374 113.827 52.1594 113.815 52.1805C113.767 52.2701 113.72 52.3521 113.66 52.4261C113.636 52.4563 113.609 52.4961 113.586 52.5312C113.574 52.5478 113.564 52.5634 113.555 52.5764C113.521 52.6249 113.493 52.6562 113.467 52.6726C113.404 52.7126 113.375 52.7849 113.358 52.8372C113.34 52.896 113.329 52.9642 113.322 53.0291C113.307 53.1596 113.307 53.2947 113.307 53.3527C113.307 53.403 113.341 53.4453 113.388 53.458C113.205 53.6817 113.017 53.9034 112.829 54.1262L112.828 54.1273C112.715 54.2609 112.602 54.3955 112.489 54.5305C112.18 54.9002 111.865 55.2448 111.479 55.5169C111.464 55.5277 111.351 55.6114 111.246 55.6923C111.192 55.733 111.14 55.7739 111.101 55.8054C111.081 55.8209 111.064 55.8352 111.051 55.8464C111.046 55.8516 111.038 55.8584 111.032 55.8655C111.029 55.8681 111.022 55.876 111.016 55.887C111.013 55.8915 111.005 55.9055 111.002 55.9254C110.998 55.9477 110.999 55.995 111.042 56.0288C111.066 56.0477 111.092 56.0565 111.111 56.0611C111.131 56.066 111.151 56.0685 111.17 56.0697C111.207 56.0722 111.248 56.0706 111.286 56.0678C111.324 56.065 111.362 56.0608 111.393 56.0571L111.417 56.0542C111.437 56.0518 111.451 56.0501 111.459 56.0494C111.786 56.0239 112.1 55.9752 112.418 55.9253C112.428 55.9237 112.453 55.9226 112.499 55.9209C112.54 55.9193 112.591 55.9172 112.642 55.9125C112.68 55.909 112.721 55.9037 112.759 55.895C112.758 56.139 112.752 56.3803 112.726 56.6191C112.692 56.9237 112.617 57.2278 112.541 57.5349C112.52 57.6228 112.498 57.711 112.477 57.7995C112.351 58.3315 112.303 58.8912 112.257 59.4252L112.255 59.4482C112.178 60.3506 112.387 61.1668 112.683 61.9932C112.711 62.0716 112.735 62.1487 112.759 62.2283C112.773 62.2747 112.788 62.3226 112.804 62.3714C112.845 62.5005 112.894 62.6331 112.964 62.7598C112.998 62.821 113.047 62.8855 113.091 62.943L113.121 62.9831C113.175 63.0562 113.214 63.1154 113.23 63.1658C113.235 63.1836 113.245 63.199 113.257 63.2112C113.076 63.1688 112.895 63.1678 112.726 63.2282C112.55 63.2912 112.397 63.4168 112.274 63.6081C112.031 63.9848 111.893 64.6281 111.893 65.6156V65.638L111.902 65.6586C111.902 66.4006 112.091 67.2856 112.606 68.1686C112.863 68.6099 113.132 69.0275 113.395 69.3634C113.654 69.6957 113.756 69.9612 114.001 70.0822L116.593 71.0828L116.888 71.6776C118.203 74.9331 119.671 75.0846 123.085 76.5C124.36 76.8434 125.119 76.8516 126.5 76.5C129.985 74.9598 131.109 74.7695 132.6 71.6776L132.724 71.1245C133.577 70.8405 135.071 71.2662 136.31 69.2302C137.149 67.8511 137.461 65.4935 137.315 64.7751C137.17 64.0601 136.735 63.6308 136.457 63.3569L136.454 63.3541C136.438 63.3386 136.422 63.3245 136.405 63.3118C136.495 63.1794 136.591 63.0511 136.689 62.9206L136.761 62.8248C136.886 62.6561 137.012 62.4826 137.122 62.2977C137.27 62.0518 137.255 61.8129 137.241 61.5841C137.238 61.5318 137.235 61.4801 137.234 61.429C137.231 61.3158 137.212 61.2065 137.194 61.1059L137.191 61.0936C137.174 60.9954 137.157 60.9056 137.153 60.8152C137.142 60.6019 137.118 60.3918 137.08 60.1813C137.021 59.8598 137.015 59.5247 137.015 59.1874V58.036L137.015 57.9572C137.015 57.6858 137.016 57.3999 136.971 57.1212C136.954 57.0207 136.95 56.9188 136.946 56.8094L136.946 56.8082C136.941 56.7006 136.937 56.5855 136.917 56.4704C136.896 56.3482 136.899 56.2242 136.903 56.0905C136.904 56.04 136.905 55.9882 136.905 55.9345C136.905 55.8915 136.9 55.8497 136.895 55.8124L136.889 55.7726C136.885 55.7501 136.882 55.7297 136.88 55.7078C136.872 55.6424 136.875 55.5987 136.893 55.563C136.913 55.5242 136.907 55.4793 136.882 55.4471C136.933 55.4555 136.987 55.4613 137.041 55.4613C137.101 55.4613 137.158 55.4536 137.207 55.447L137.209 55.4468C137.261 55.4398 137.303 55.4343 137.344 55.4343C137.39 55.4343 137.555 55.4226 137.695 55.4011C137.764 55.3906 137.837 55.3763 137.889 55.3561C137.902 55.3508 137.918 55.3439 137.932 55.3349C137.945 55.3265 137.966 55.3117 137.981 55.2876C137.999 55.2594 138.007 55.2214 137.994 55.1821C137.983 55.1485 137.96 55.1273 137.945 55.1157C137.877 55.064 137.797 55.0371 137.737 55.017L137.713 55.009C137.645 54.9854 137.601 54.9652 137.569 54.9285C137.512 54.8654 137.441 54.8142 137.377 54.7708L137.332 54.7407C137.283 54.7079 137.239 54.6788 137.2 54.6469C137.119 54.5795 137.053 54.5026 136.985 54.4179L136.946 54.3685C136.891 54.299 136.832 54.2243 136.765 54.1542C136.691 54.0772 136.626 53.9859 136.559 53.8865L136.523 53.832C136.468 53.7503 136.411 53.6643 136.349 53.5856C136.301 53.5249 136.249 53.4656 136.196 53.4076C136.222 53.4066 136.249 53.396 136.27 53.3757C136.313 53.3331 136.313 53.2639 136.27 53.2213C136.264 53.216 136.259 53.2073 136.245 53.1751L136.243 53.1713C136.231 53.1443 136.211 53.0997 136.174 53.0614L136.155 53.0412C136.124 53.009 136.111 52.9957 136.104 52.976C136.08 52.9111 136.029 52.7845 135.966 52.6675C135.935 52.6092 135.899 52.5499 135.859 52.501C135.852 52.4921 135.844 52.4828 135.835 52.4736ZM127.229 46.3056C126.856 46.2319 126.469 46.2085 126.084 46.2221C126.032 46.2239 125.98 46.225 125.929 46.226C125.77 46.2293 125.614 46.2324 125.471 46.2579C125.215 46.3039 124.956 46.303 124.706 46.3021C124.62 46.3018 124.534 46.3015 124.45 46.3032C124.249 46.3072 124.053 46.3323 123.861 46.3848C123.838 46.3912 123.816 46.4058 123.773 46.4351L123.771 46.4365C123.739 46.4586 123.692 46.4902 123.635 46.5083C123.643 46.5302 123.643 46.5546 123.635 46.5783C123.616 46.6355 123.553 46.6664 123.495 46.6474C123.463 46.6367 123.429 46.632 123.383 46.6256L123.374 46.6243C123.327 46.6177 123.268 46.6089 123.208 46.5848C123.18 46.5736 123.153 46.5624 123.127 46.5516C122.991 46.4948 122.873 46.4458 122.744 46.4381C122.611 46.4302 122.48 46.4324 122.344 46.4346C122.279 46.4357 122.212 46.4368 122.145 46.4368H121.519C121.486 46.4368 121.463 46.4433 121.436 46.4546C121.43 46.4571 121.422 46.4609 121.412 46.4654C121.385 46.4774 121.348 46.4944 121.312 46.5063C121.205 46.5413 121.097 46.5788 120.987 46.6168C120.786 46.6862 120.581 46.757 120.377 46.8166C120.252 46.8529 120.136 46.9109 120.015 46.9774C119.989 46.9916 119.963 47.0063 119.936 47.0213C119.841 47.0746 119.74 47.131 119.636 47.1777L119.63 47.1803C119.542 47.2193 119.445 47.2623 119.391 47.3065C119.251 47.4199 119.098 47.5062 118.95 47.5851L118.869 47.6277C118.747 47.6917 118.632 47.7528 118.522 47.825C118.439 47.8794 118.361 47.9414 118.282 48.0076C118.26 48.0259 118.237 48.0448 118.215 48.0638C118.157 48.1124 118.098 48.1625 118.037 48.2099C117.977 48.2575 117.913 48.3004 117.853 48.3404L117.803 48.3741C117.728 48.4251 117.66 48.4744 117.601 48.5334C117.496 48.6369 117.401 48.7571 117.301 48.8847C117.263 48.9319 117.225 48.9803 117.186 49.0292C117.108 49.1252 117.024 49.2219 116.932 49.3093C117.142 49.2704 117.384 49.2818 117.576 49.3448C117.639 49.3654 117.702 49.3857 117.765 49.4061C118.094 49.5116 118.427 49.6187 118.748 49.7873C119.339 50.0974 119.879 50.4956 120.382 50.9206C120.448 50.9759 120.519 51.0318 120.594 51.0909L120.653 51.137C120.748 51.2125 120.848 51.2929 120.942 51.3787C121.13 51.5493 121.305 51.7498 121.388 51.9942C121.407 52.0515 121.376 52.1133 121.318 52.1324C121.26 52.1515 121.197 52.1205 121.178 52.0633C121.113 51.8711 120.97 51.7011 120.792 51.5393C120.704 51.4589 120.609 51.3826 120.514 51.3075L120.457 51.263C120.382 51.2036 120.307 51.1446 120.238 51.0864C119.742 50.6674 119.216 50.28 118.644 49.9801C118.342 49.8213 118.03 49.7209 117.701 49.6154C117.637 49.5946 117.571 49.5736 117.506 49.552C117.317 49.4899 117.054 49.4898 116.866 49.5507C116.749 49.5882 116.629 49.6109 116.516 49.6321L116.484 49.6381C116.359 49.6617 116.244 49.6853 116.137 49.726C115.925 49.8064 115.723 49.9622 115.53 50.1146C115.224 50.3563 114.928 50.5925 114.764 50.9158C114.575 51.2875 114.38 51.6561 114.158 52.0151C114.119 52.0785 114.085 52.1427 114.049 52.2104C114.037 52.234 114.024 52.258 114.011 52.2825C113.962 52.3751 113.906 52.4717 113.833 52.5621C113.815 52.5854 113.799 52.6095 113.779 52.6382C113.767 52.6568 113.753 52.6774 113.737 52.7009C113.701 52.7516 113.654 52.8129 113.59 52.8543L113.589 52.8549L113.588 52.856L113.59 52.8543L113.589 52.8549C113.587 52.8587 113.579 52.8719 113.57 52.9014C113.558 52.9412 113.548 52.9939 113.542 53.0529C113.533 53.1354 113.53 53.2213 113.529 53.2853C113.803 52.9459 114.067 52.6003 114.312 52.2383C114.346 52.1881 114.415 52.1745 114.466 52.208C114.517 52.2414 114.53 52.3092 114.496 52.3594C114.041 53.0335 113.518 53.6527 112.997 54.2691C112.884 54.4024 112.771 54.536 112.66 54.6695C112.348 55.0422 112.019 55.4052 111.608 55.6946L111.606 55.6963L111.6 55.7001L111.583 55.7126L111.53 55.7522C111.499 55.7757 111.461 55.804 111.423 55.8335L111.442 55.8316C111.758 55.8069 112.065 55.7596 112.383 55.7096C112.408 55.7057 112.446 55.7042 112.481 55.7029L112.49 55.7026C112.532 55.701 112.577 55.6991 112.622 55.695C112.667 55.6908 112.704 55.6847 112.731 55.6765C112.741 55.6736 112.747 55.6711 112.75 55.6695C112.753 55.6653 112.756 55.6615 112.759 55.6578L112.759 55.6367C112.759 55.578 112.759 55.5191 112.759 55.4601C112.759 55.3997 112.808 55.3508 112.87 55.3508C112.931 55.3508 112.98 55.3997 112.98 55.4601C112.98 55.5176 112.981 55.5754 112.981 55.6336C112.982 55.9655 112.983 56.3067 112.946 56.6427C112.911 56.963 112.831 57.2858 112.755 57.5951C112.733 57.6809 112.712 57.7656 112.693 57.849C112.571 58.3656 112.524 58.9118 112.477 59.4509L112.476 59.4667C112.402 60.3234 112.6 61.1051 112.892 61.9204C112.921 62.0028 112.948 62.0892 112.974 62.1727C112.987 62.2181 113.001 62.2627 113.015 62.3052C113.055 62.4297 113.099 62.5467 113.159 62.6549C113.184 62.7013 113.221 62.7493 113.263 62.8054L113.299 62.8539C113.352 62.925 113.413 63.0115 113.441 63.1015C113.459 63.1592 113.427 63.2203 113.368 63.2381L113.361 63.2398C113.71 63.3498 114.075 63.6033 114.415 63.9066C114.765 64.2189 115.098 64.5932 115.37 64.9445L114.652 61.758L115.776 60.6499L117.765 58.371L119.948 56.7587L129.468 56.6191L130.947 58.2447L133.711 60.6499L134.835 61.758L134.27 64.2682C134.542 64.0188 134.9 63.7279 135.252 63.5156C135.47 63.3834 135.694 63.2771 135.897 63.2341C136 63.2122 136.104 63.2057 136.2 63.2237C136.202 63.2184 136.205 63.2133 136.209 63.2083C136.306 63.0648 136.41 62.9258 136.512 62.7893L136.582 62.6955C136.707 62.5277 136.827 62.3616 136.932 62.1865C137.042 62.0029 137.033 61.8426 137.021 61.6222C137.017 61.5642 137.014 61.5019 137.012 61.434C137.01 61.3398 136.994 61.2461 136.976 61.1443L136.973 61.1278C136.955 61.0331 136.937 60.9307 136.932 60.8259C136.922 60.622 136.898 60.4212 136.862 60.2199C136.799 59.8775 136.793 59.5252 136.793 59.1874L136.793 57.9591C136.793 57.6845 136.794 57.4161 136.752 57.1555C136.733 57.0422 136.729 56.9293 136.725 56.8238L136.724 56.817C136.72 56.7074 136.715 56.6058 136.699 56.5064C136.674 56.362 136.678 56.2073 136.681 56.0674C136.682 56.0212 136.683 55.9766 136.683 55.9345C136.683 55.9071 136.68 55.8774 136.675 55.8429L136.67 55.8105C136.667 55.7856 136.662 55.758 136.659 55.7324C136.651 55.6553 136.648 55.5591 136.695 55.4653C136.705 55.4449 136.722 55.429 136.74 55.4187L136.696 55.4084L136.689 55.4069C136.653 55.3985 136.619 55.3906 136.586 55.384C136.574 55.3815 136.559 55.3788 136.542 55.3757C136.478 55.3642 136.387 55.3478 136.31 55.3201C136.218 55.2871 136.081 55.2141 136.081 55.0548C136.081 54.9945 136.13 54.9456 136.191 54.9456C136.253 54.9456 136.302 54.9945 136.302 55.0548C136.302 55.0612 136.304 55.0853 136.386 55.115C136.443 55.1355 136.506 55.147 136.568 55.1582C136.589 55.1621 136.61 55.1659 136.631 55.17C136.667 55.1774 136.704 55.1859 136.74 55.1942L136.746 55.1956C136.78 55.2036 136.813 55.2113 136.846 55.2182C136.917 55.2329 136.981 55.2428 137.041 55.2428C137.084 55.2428 137.128 55.2372 137.179 55.2303L137.184 55.2297C137.231 55.2233 137.287 55.2158 137.344 55.2158C137.37 55.2158 137.476 55.209 137.587 55.1955C137.526 55.1713 137.459 55.1359 137.402 55.0731C137.365 55.0318 137.314 54.9936 137.251 54.9508L137.213 54.9254C137.162 54.8916 137.106 54.8542 137.058 54.8144C136.958 54.7319 136.881 54.6404 136.811 54.553L136.768 54.4988C136.714 54.4301 136.663 54.3659 136.604 54.3043C136.516 54.2126 136.442 54.1078 136.375 54.0073L136.336 53.949C136.282 53.8678 136.23 53.7911 136.174 53.7201C136.073 53.5926 135.958 53.4748 135.839 53.3537C135.793 53.3069 135.747 53.2597 135.701 53.2111L135.653 53.1604C135.478 52.9758 135.322 52.8117 135.118 52.6743C135.067 52.6403 135.024 52.598 134.989 52.5638L134.975 52.5505C134.934 52.5113 134.902 52.483 134.866 52.4641C134.774 52.4155 134.673 52.3864 134.561 52.3542C134.532 52.3459 134.502 52.3374 134.472 52.3283C134.161 52.2349 133.871 52.1649 133.56 52.1649C133.499 52.1649 133.45 52.116 133.45 52.0557C133.45 51.9953 133.499 51.9464 133.56 51.9464C133.905 51.9464 134.22 52.0243 134.537 52.1193C134.561 52.1265 134.586 52.1338 134.613 52.1413C134.726 52.1739 134.856 52.211 134.971 52.2716C135.037 52.3065 135.088 52.3546 135.129 52.3941L135.144 52.408C135.181 52.4438 135.21 52.4716 135.243 52.4938C135.468 52.6455 135.64 52.8271 135.813 53.0092L135.863 53.0617C135.904 53.105 135.947 53.1492 135.991 53.1941C136.003 53.206 136.014 53.218 136.026 53.23C136.021 53.2213 136.018 53.2159 136.013 53.2114L136.001 53.1991C135.971 53.1689 135.92 53.118 135.895 53.0506C135.873 52.9902 135.827 52.8742 135.771 52.7698C135.742 52.7174 135.714 52.6714 135.686 52.6376C135.673 52.6207 135.661 52.6088 135.651 52.601C135.643 52.5947 135.638 52.5925 135.638 52.5925C135.585 52.5766 135.553 52.5242 135.561 52.4711C135.532 52.4428 135.504 52.4107 135.477 52.3784C135.42 52.3083 135.364 52.2266 135.338 52.1688C135.293 52.0685 135.247 51.9952 135.18 51.9C135.115 51.8062 135.044 51.7119 134.973 51.6161C134.822 51.4147 134.666 51.2068 134.544 50.9833L134.513 50.9268C134.36 50.6469 134.211 50.3727 134.031 50.1262C133.956 50.024 133.826 49.9464 133.668 49.8935C133.512 49.8412 133.341 49.8175 133.202 49.8143C133.14 49.8129 133.092 49.7628 133.093 49.7025C133.095 49.6537 133.128 49.6131 133.173 49.6001C133.164 49.4933 133.125 49.3969 133.074 49.2911C133.065 49.2718 133.055 49.252 133.045 49.2316C132.994 49.1277 132.935 49.0096 132.906 48.8776C132.881 48.769 132.829 48.667 132.769 48.5487L132.764 48.538C132.75 48.5098 132.736 48.4794 132.723 48.4508L132.72 48.4442C132.708 48.4171 132.697 48.3912 132.684 48.366C132.657 48.31 132.632 48.2685 132.605 48.2422C132.581 48.218 132.55 48.2098 132.494 48.2185C132.464 48.223 132.433 48.2314 132.396 48.242L132.378 48.2473C132.348 48.2561 132.315 48.266 132.283 48.2729L132.273 48.2788C132.264 48.2847 132.253 48.2932 132.238 48.3057L132.23 48.3125C132.206 48.3339 132.164 48.37 132.116 48.3891C132.082 48.4029 132.051 48.4149 132.021 48.4261C131.905 48.4705 131.82 48.5029 131.733 48.5826C131.552 48.7484 131.39 48.9359 131.241 49.1338C131.152 49.2507 131.057 49.3561 130.963 49.4574L130.901 49.5236C130.827 49.6021 130.755 49.679 130.685 49.7606C130.493 49.9847 130.291 50.1983 130.09 50.4105C129.996 50.5096 129.902 50.6086 129.81 50.7079C129.667 50.8625 129.535 51.0273 129.401 51.1957L129.389 51.2102C129.26 51.373 129.128 51.5391 128.984 51.6965C128.943 51.7414 128.873 51.745 128.827 51.7046C128.782 51.6643 128.778 51.5952 128.819 51.5504C128.958 51.3985 129.086 51.2375 129.217 51.0731L129.227 51.0608C129.36 50.8931 129.497 50.7221 129.646 50.5606C129.742 50.4573 129.838 50.3565 129.932 50.2564C130.131 50.0464 130.327 49.8395 130.516 49.6195C130.59 49.5339 130.666 49.4524 130.74 49.3733L130.8 49.3096C130.893 49.2095 130.982 49.1108 131.063 49.0034C131.218 48.798 131.389 48.5998 131.582 48.4227C131.703 48.3117 131.835 48.262 131.955 48.2166C131.982 48.2067 132.008 48.197 132.032 48.1869C132.044 48.1825 132.057 48.1713 132.094 48.1401L132.096 48.1382C132.123 48.1155 132.172 48.0735 132.235 48.0598C132.254 48.0556 132.274 48.05 132.297 48.0432C132.281 48.0166 132.267 47.9877 132.255 47.964L132.249 47.9524C132.234 47.9229 132.223 47.9009 132.21 47.8834C132.046 47.6585 131.814 47.534 131.538 47.3978C131.066 47.1655 130.573 46.9869 130.058 46.9436C129.696 46.9132 129.341 46.8367 128.994 46.7604L128.954 46.7517C128.619 46.6779 128.291 46.6057 127.958 46.5712L127.957 46.571C127.945 46.5725 127.933 46.5722 127.921 46.5698C127.788 46.5437 127.666 46.4848 127.558 46.4328L127.55 46.4292C127.436 46.3739 127.335 46.3264 127.229 46.3056ZM132.503 71.0968L134.593 61.8277L133.501 60.7514L130.74 58.371L129.401 56.8238L120.015 56.9634L117.973 58.4973L115.987 60.7514L114.895 61.8277L116.432 68.6477L117.009 71.2088L117.09 71.5681C118.446 74.7782 119.83 74.844 123.177 76.2816C124.596 76.6302 125.227 76.4929 126.408 76.2816C129.549 74.8904 130.88 74.9208 132.397 71.5681L132.503 71.0968ZM136.12 69.1178C134.968 71.0108 133.615 70.556 132.781 70.872L134.203 64.5654L134.238 64.6007C134.512 64.3312 134.948 63.9552 135.367 63.7019C135.578 63.5748 135.776 63.4831 135.944 63.4476C136.111 63.4121 136.224 63.4367 136.297 63.5085C136.574 63.7809 136.966 64.1703 137.098 64.8179C137.229 65.4648 136.942 67.7663 136.12 69.1178ZM116.217 68.7001L116.692 70.8082L114.261 69.8869C114.063 69.7895 113.827 69.5589 113.57 69.2302C113.316 68.905 113.053 68.4966 112.798 68.0596C112.294 67.1953 112.113 66.5583 112.115 65.5932C112.117 64.6281 112.255 64.0446 112.461 63.7252C112.563 63.5673 112.679 63.4773 112.801 63.4336C112.925 63.3895 113.066 63.3885 113.223 63.4278C113.543 63.5076 113.907 63.7477 114.267 64.0685C114.618 64.3821 114.955 64.7632 115.226 65.1185L116.217 68.7001Z" fill="black"/>
<path d="M126.084 46.2221C126.469 46.2085 126.856 46.2319 127.229 46.3056C127.335 46.3264 127.436 46.3739 127.55 46.4292L127.558 46.4328C127.666 46.4848 127.788 46.5437 127.921 46.5698C127.933 46.5722 127.945 46.5725 127.957 46.571L127.958 46.5712C128.291 46.6057 128.619 46.6779 128.954 46.7517L128.994 46.7604C129.341 46.8367 129.696 46.9132 130.058 46.9436C130.573 46.9869 131.066 47.1655 131.538 47.3978C131.814 47.534 132.046 47.6585 132.21 47.8834C132.223 47.9009 132.234 47.9229 132.249 47.9524L132.255 47.964C132.267 47.9877 132.281 48.0166 132.297 48.0432C132.274 48.05 132.254 48.0556 132.235 48.0598C132.172 48.0735 132.123 48.1155 132.096 48.1382L132.094 48.1401C132.057 48.1713 132.044 48.1825 132.032 48.1869C132.008 48.197 131.982 48.2067 131.955 48.2166C131.835 48.262 131.703 48.3117 131.582 48.4227C131.389 48.5998 131.218 48.798 131.063 49.0034C130.982 49.1108 130.893 49.2095 130.8 49.3096L130.74 49.3733C130.666 49.4524 130.59 49.5339 130.516 49.6195C130.327 49.8395 130.131 50.0464 129.932 50.2564C129.838 50.3565 129.742 50.4573 129.646 50.5606C129.497 50.7221 129.36 50.8931 129.227 51.0608L129.217 51.0731C129.086 51.2375 128.958 51.3985 128.819 51.5504C128.778 51.5952 128.782 51.6643 128.827 51.7046C128.873 51.745 128.943 51.7414 128.984 51.6965C129.128 51.5391 129.26 51.373 129.389 51.2102L129.401 51.1957C129.535 51.0273 129.667 50.8625 129.81 50.7079C129.902 50.6086 129.996 50.5096 130.09 50.4105C130.291 50.1983 130.493 49.9847 130.685 49.7606C130.755 49.679 130.827 49.6021 130.901 49.5236L130.963 49.4574C131.057 49.3561 131.152 49.2507 131.241 49.1338C131.39 48.9359 131.552 48.7484 131.733 48.5826C131.82 48.5029 131.905 48.4705 132.021 48.4261C132.051 48.4149 132.082 48.4029 132.116 48.3891C132.164 48.37 132.206 48.3339 132.23 48.3125L132.238 48.3057C132.253 48.2932 132.264 48.2847 132.273 48.2788L132.283 48.2729C132.315 48.266 132.348 48.2561 132.378 48.2473L132.396 48.242C132.433 48.2314 132.464 48.223 132.494 48.2185C132.55 48.2098 132.581 48.218 132.605 48.2422C132.632 48.2685 132.657 48.31 132.684 48.366C132.697 48.3912 132.708 48.4171 132.72 48.4442L132.723 48.4508C132.736 48.4794 132.75 48.5098 132.764 48.538L132.769 48.5487C132.829 48.667 132.881 48.769 132.906 48.8776C132.935 49.0096 132.994 49.1277 133.045 49.2316C133.055 49.252 133.065 49.2718 133.074 49.2911C133.125 49.3969 133.164 49.4933 133.173 49.6001C133.128 49.6131 133.095 49.6537 133.093 49.7025C133.092 49.7628 133.14 49.8129 133.202 49.8143C133.341 49.8175 133.512 49.8412 133.668 49.8935C133.826 49.9464 133.956 50.024 134.031 50.1262C134.211 50.3727 134.36 50.6469 134.513 50.9268L134.544 50.9833C134.666 51.2068 134.822 51.4147 134.973 51.6161C135.044 51.7119 135.115 51.8062 135.18 51.9C135.247 51.9952 135.293 52.0685 135.338 52.1688C135.364 52.2266 135.42 52.3083 135.477 52.3784C135.504 52.4107 135.532 52.4428 135.561 52.4711C135.553 52.5242 135.585 52.5766 135.638 52.5925C135.638 52.5925 135.643 52.5947 135.651 52.601C135.661 52.6088 135.673 52.6207 135.686 52.6376C135.714 52.6714 135.742 52.7174 135.771 52.7698C135.827 52.8742 135.873 52.9902 135.895 53.0506C135.92 53.118 135.971 53.1689 136.001 53.1991L136.013 53.2114C136.018 53.2159 136.021 53.2213 136.026 53.23L135.991 53.1941C135.947 53.1492 135.904 53.105 135.863 53.0617L135.813 53.0092C135.64 52.8271 135.468 52.6455 135.243 52.4938C135.21 52.4716 135.181 52.4438 135.144 52.408L135.129 52.3941C135.088 52.3546 135.037 52.3065 134.971 52.2716C134.856 52.211 134.726 52.1739 134.613 52.1413C134.586 52.1338 134.561 52.1265 134.537 52.1193C134.22 52.0243 133.905 51.9464 133.56 51.9464C133.499 51.9464 133.45 51.9953 133.45 52.0557C133.45 52.116 133.499 52.1649 133.56 52.1649C133.871 52.1649 134.161 52.2349 134.472 52.3283C134.502 52.3374 134.532 52.3459 134.561 52.3542C134.673 52.3864 134.774 52.4155 134.866 52.4641C134.902 52.483 134.934 52.5113 134.975 52.5505L134.989 52.5638C135.024 52.598 135.067 52.6403 135.118 52.6743C135.322 52.8117 135.478 52.9758 135.653 53.1604L135.701 53.2111C135.747 53.2597 135.793 53.3069 135.839 53.3537C135.958 53.4748 136.073 53.5926 136.174 53.7201C136.23 53.7911 136.282 53.8678 136.336 53.949L136.375 54.0073C136.442 54.1078 136.516 54.2126 136.604 54.3043C136.663 54.3659 136.714 54.4301 136.768 54.4988L136.811 54.553C136.881 54.6404 136.958 54.7319 137.058 54.8144C137.106 54.8542 137.162 54.8916 137.213 54.9254L137.251 54.9508C137.314 54.9936 137.365 55.0318 137.402 55.0731C137.459 55.1359 137.526 55.1713 137.587 55.1955C137.476 55.209 137.37 55.2158 137.344 55.2158C137.287 55.2158 137.231 55.2233 137.184 55.2297L137.179 55.2303C137.128 55.2372 137.084 55.2428 137.041 55.2428C136.981 55.2428 136.917 55.2329 136.846 55.2182C136.813 55.2113 136.78 55.2036 136.746 55.1956L136.74 55.1942C136.704 55.1859 136.667 55.1774 136.631 55.17C136.61 55.1659 136.589 55.1621 136.568 55.1582C136.506 55.147 136.443 55.1355 136.386 55.115C136.304 55.0853 136.302 55.0612 136.302 55.0548C136.302 54.9945 136.253 54.9456 136.191 54.9456C136.13 54.9456 136.081 54.9945 136.081 55.0548C136.081 55.2141 136.218 55.2871 136.31 55.3201C136.387 55.3478 136.478 55.3642 136.542 55.3757C136.559 55.3788 136.574 55.3815 136.586 55.384C136.619 55.3906 136.653 55.3985 136.689 55.4069L136.696 55.4084L136.74 55.4187C136.722 55.429 136.705 55.4449 136.695 55.4653C136.648 55.5591 136.651 55.6553 136.659 55.7324C136.662 55.758 136.667 55.7856 136.67 55.8105L136.675 55.8429C136.68 55.8774 136.683 55.9071 136.683 55.9345C136.683 55.9766 136.682 56.0212 136.681 56.0674C136.678 56.2073 136.674 56.362 136.699 56.5064C136.715 56.6058 136.72 56.7074 136.724 56.817L136.725 56.8238C136.729 56.9293 136.733 57.0422 136.752 57.1555C136.794 57.4161 136.793 57.6845 136.793 57.9591L136.793 59.1874C136.793 59.5252 136.799 59.8775 136.862 60.2199C136.898 60.4212 136.922 60.622 136.932 60.8259C136.937 60.9307 136.955 61.0331 136.973 61.1278L136.976 61.1443C136.994 61.2461 137.01 61.3398 137.012 61.434C137.014 61.5019 137.017 61.5642 137.021 61.6222C137.033 61.8426 137.042 62.0029 136.932 62.1865C136.827 62.3616 136.707 62.5277 136.582 62.6955L136.512 62.7893C136.41 62.9258 136.306 63.0648 136.209 63.2083C136.205 63.2133 136.202 63.2184 136.2 63.2237C136.104 63.2057 136 63.2122 135.897 63.2341C135.694 63.2771 135.47 63.3834 135.252 63.5156C134.9 63.7279 134.542 64.0188 134.27 64.2682L134.835 61.758L133.711 60.6499L130.947 58.2447L129.468 56.6191L119.948 56.7587L117.765 58.371L115.776 60.6499L114.652 61.758L115.37 64.9445C115.098 64.5932 114.765 64.2189 114.415 63.9066C114.075 63.6033 113.71 63.3498 113.361 63.2398L113.368 63.2381C113.427 63.2203 113.459 63.1592 113.441 63.1015C113.413 63.0115 113.352 62.925 113.299 62.8539L113.263 62.8054C113.221 62.7493 113.184 62.7013 113.159 62.6549C113.099 62.5467 113.055 62.4297 113.015 62.3052C113.001 62.2627 112.987 62.2181 112.974 62.1727C112.948 62.0892 112.921 62.0028 112.892 61.9204C112.6 61.1051 112.402 60.3234 112.476 59.4667L112.477 59.4509C112.524 58.9118 112.571 58.3656 112.693 57.849C112.712 57.7656 112.733 57.6809 112.755 57.5951C112.831 57.2858 112.911 56.963 112.946 56.6427C112.983 56.3067 112.982 55.9655 112.981 55.6336C112.981 55.5754 112.98 55.5176 112.98 55.4601C112.98 55.3997 112.931 55.3508 112.87 55.3508C112.808 55.3508 112.759 55.3997 112.759 55.4601C112.759 55.5191 112.759 55.578 112.759 55.6367L112.759 55.6578C112.756 55.6615 112.753 55.6653 112.75 55.6695C112.747 55.6711 112.741 55.6736 112.731 55.6765C112.704 55.6847 112.667 55.6908 112.622 55.695C112.577 55.6991 112.532 55.701 112.49 55.7026L112.481 55.7029C112.446 55.7042 112.408 55.7057 112.383 55.7096C112.065 55.7596 111.758 55.8069 111.442 55.8316L111.423 55.8335C111.461 55.804 111.499 55.7757 111.53 55.7522L111.583 55.7126L111.6 55.7001L111.606 55.6963L111.608 55.6946C112.019 55.4052 112.348 55.0422 112.66 54.6695C112.771 54.536 112.884 54.4024 112.997 54.2691C113.518 53.6527 114.041 53.0335 114.496 52.3594C114.53 52.3092 114.517 52.2414 114.466 52.208C114.415 52.1745 114.346 52.1881 114.312 52.2383C114.067 52.6003 113.803 52.9459 113.529 53.2853C113.53 53.2213 113.533 53.1354 113.542 53.0529C113.548 52.9939 113.558 52.9412 113.57 52.9014C113.579 52.8719 113.587 52.8587 113.589 52.8549L113.59 52.8543C113.654 52.8129 113.701 52.7516 113.737 52.7009C113.753 52.6774 113.767 52.6568 113.779 52.6382C113.799 52.6095 113.815 52.5854 113.833 52.5621C113.906 52.4717 113.962 52.3751 114.011 52.2825C114.024 52.258 114.037 52.234 114.049 52.2104C114.085 52.1427 114.119 52.0785 114.158 52.0151C114.38 51.6561 114.575 51.2875 114.764 50.9158C114.928 50.5925 115.224 50.3563 115.53 50.1146C115.723 49.9622 115.925 49.8064 116.137 49.726C116.244 49.6853 116.359 49.6617 116.484 49.6381L116.516 49.6321C116.629 49.6109 116.749 49.5882 116.866 49.5507C117.054 49.4898 117.317 49.4899 117.506 49.552C117.571 49.5736 117.637 49.5946 117.701 49.6154C118.03 49.7209 118.342 49.8213 118.644 49.9801C119.216 50.28 119.742 50.6674 120.238 51.0864C120.307 51.1446 120.382 51.2036 120.457 51.263L120.514 51.3075C120.609 51.3826 120.704 51.4589 120.792 51.5393C120.97 51.7011 121.113 51.8711 121.178 52.0633C121.197 52.1205 121.26 52.1515 121.318 52.1324C121.376 52.1133 121.407 52.0515 121.388 51.9942C121.305 51.7498 121.13 51.5493 120.942 51.3787C120.848 51.2929 120.748 51.2125 120.653 51.137L120.594 51.0909C120.519 51.0318 120.448 50.9759 120.382 50.9206C119.879 50.4956 119.339 50.0974 118.748 49.7873C118.427 49.6187 118.094 49.5116 117.765 49.4061C117.702 49.3857 117.639 49.3654 117.576 49.3448C117.384 49.2818 117.142 49.2704 116.932 49.3093C117.024 49.2219 117.108 49.1252 117.186 49.0292C117.225 48.9803 117.263 48.9319 117.301 48.8847C117.401 48.7571 117.496 48.6369 117.601 48.5334C117.66 48.4744 117.728 48.4251 117.803 48.3741L117.853 48.3404C117.913 48.3004 117.977 48.2575 118.037 48.2099C118.098 48.1625 118.157 48.1124 118.215 48.0638C118.237 48.0448 118.26 48.0259 118.282 48.0076C118.361 47.9414 118.439 47.8794 118.522 47.825C118.632 47.7528 118.747 47.6917 118.869 47.6277L118.95 47.5851C119.098 47.5062 119.251 47.4199 119.391 47.3065C119.445 47.2623 119.542 47.2193 119.63 47.1803L119.636 47.1777C119.74 47.131 119.841 47.0746 119.936 47.0213C119.963 47.0063 119.989 46.9916 120.015 46.9774C120.136 46.9109 120.252 46.8529 120.377 46.8166C120.581 46.757 120.786 46.6862 120.987 46.6168C121.097 46.5788 121.205 46.5413 121.312 46.5063C121.348 46.4944 121.385 46.4774 121.412 46.4654C121.422 46.4609 121.43 46.4571 121.436 46.4546C121.463 46.4433 121.486 46.4368 121.519 46.4368H122.145C122.212 46.4368 122.279 46.4357 122.344 46.4346C122.48 46.4324 122.611 46.4302 122.744 46.4381C122.873 46.4458 122.991 46.4948 123.127 46.5516C123.153 46.5624 123.18 46.5736 123.208 46.5848C123.268 46.6089 123.327 46.6177 123.374 46.6243L123.383 46.6256C123.429 46.632 123.463 46.6367 123.495 46.6474C123.553 46.6664 123.616 46.6355 123.635 46.5783C123.643 46.5546 123.643 46.5302 123.635 46.5083C123.692 46.4902 123.739 46.4586 123.771 46.4365L123.773 46.4351C123.816 46.4058 123.838 46.3912 123.861 46.3848C124.053 46.3323 124.249 46.3072 124.45 46.3032C124.534 46.3015 124.62 46.3018 124.706 46.3021C124.956 46.303 125.215 46.3039 125.471 46.2579C125.614 46.2324 125.77 46.2293 125.929 46.226C125.98 46.225 126.032 46.2239 126.084 46.2221Z" fill="black"/>
<path d="M132.503 71.0968L132.397 71.5681C130.88 74.9208 129.549 74.8904 126.408 76.2816C125.227 76.4929 124.596 76.6302 123.177 76.2816C119.83 74.844 118.446 74.7782 117.09 71.5681L117.009 71.2088L116.432 68.6477L114.895 61.8277L115.987 60.7514L117.973 58.4973L120.015 56.9634L129.401 56.8238L130.74 58.371L133.501 60.7514L134.593 61.8277L132.503 71.0968Z" fill="#FFE2E2"/>
<path d="M132.781 70.872C133.615 70.556 134.968 71.0108 136.12 69.1178C136.942 67.7663 137.229 65.4648 137.098 64.8179C136.966 64.1703 136.574 63.7809 136.297 63.5085C136.224 63.4367 136.111 63.4121 135.944 63.4476C135.776 63.4831 135.578 63.5748 135.367 63.7019C134.948 63.9552 134.512 64.3312 134.238 64.6007L134.203 64.5654L132.781 70.872Z" fill="#FFE2E2"/>
<path d="M116.692 70.8082L116.217 68.7001L115.226 65.1185C114.955 64.7632 114.618 64.3821 114.267 64.0685C113.907 63.7477 113.543 63.5076 113.223 63.4278C113.066 63.3885 112.925 63.3895 112.801 63.4336C112.679 63.4773 112.563 63.5673 112.461 63.7252C112.255 64.0446 112.117 64.6281 112.115 65.5932C112.113 66.5583 112.294 67.1953 112.798 68.0596C113.053 68.4966 113.316 68.905 113.57 69.2302C113.827 69.5589 114.063 69.7895 114.261 69.8869L116.692 70.8082Z" fill="url(#paint0_linear_157_294)"/>
<path d="M107.5 130H142.5L143 131.5L143 133H107V131.5L107.5 130Z" fill="#373E4D"/>
<path d="M107 132H143C143 140.284 136.284 147 128 147H122C113.716 147 107 140.284 107 132Z" fill="#081023"/>
<path d="M107 139.5C107 135.358 110.358 132 114.5 132C118.642 132 122 135.358 122 139.5V164H107V139.5Z" fill="#081023"/>
<rect x="107" y="164" width="15" height="2" fill="#373E4C"/>
<path d="M128 139.5C128 135.358 131.358 132 135.5 132C139.642 132 143 135.358 143 139.5V164H128V139.5Z" fill="#081023"/>
<rect x="128" y="164" width="15" height="2" fill="#373E4C"/>
<path d="M95.696 118.673C95.4107 115.589 97.6795 112.857 100.764 112.572C103.848 112.287 106.579 114.556 106.864 117.64L109.244 143.367C109.529 146.451 107.26 149.183 104.176 149.468C101.092 149.753 98.3609 147.485 98.0757 144.4L95.696 118.673Z" fill="#FFE2E2"/>
<rect x="97.3948" y="138.995" width="12" height="2" transform="rotate(-5.28458 97.3948 138.995)" fill="#8CA5E5"/>
<rect x="97.5789" y="140.986" width="12" height="2" transform="rotate(-5.28458 97.5789 140.986)" fill="#0045F5"/>
<path d="M154.043 118.673C154.328 115.589 152.059 112.857 148.975 112.572C145.891 112.287 143.16 114.556 142.875 117.64L140.495 143.367C140.21 146.451 142.479 149.183 145.563 149.468C148.647 149.753 151.378 147.485 151.663 144.4L154.043 118.673Z" fill="#FFE2E2"/>
<rect width="12" height="2" transform="matrix(-0.995749 -0.0921026 -0.0921026 0.995749 152.344 138.995)" fill="#8CA5E5"/>
<rect width="12" height="2" transform="matrix(-0.995749 -0.0921026 -0.0921026 0.995749 152.16 140.986)" fill="#0045F5"/>
<rect x="109.998" y="219.037" width="12" height="3" transform="rotate(-1.73964 109.998 219.037)" fill="#8CA5E5"/>
<path d="M105.276 228.282C105.157 224.364 108.237 221.092 112.154 220.973L122.053 220.672L122.387 231.667L109.296 232.065C107.141 232.13 105.342 230.436 105.276 228.282Z" fill="#E0E7F5"/>
<path d="M106.364 231.153L122.356 230.668L122.387 231.667L108.848 232.078C107.931 232.106 107.039 231.774 106.364 231.153Z" fill="#393939"/>
<rect x="109.937" y="217.038" width="12" height="2" transform="rotate(-1.73964 109.937 217.038)" fill="#0045F5"/>
<rect width="12" height="3" transform="matrix(-0.999539 -0.0303577 -0.0303577 0.999539 139.389 219.037)" fill="#8CA5E5"/>
<path d="M144.11 228.282C144.229 224.364 141.15 221.092 137.232 220.973L127.334 220.672L127 231.667L140.091 232.065C142.245 232.13 144.045 230.436 144.11 228.282Z" fill="#E0E7F5"/>
<path d="M143.023 231.153L127.03 230.668L127 231.667L140.539 232.078C141.456 232.106 142.347 231.774 143.023 231.153Z" fill="#393939"/>
<rect width="12" height="2" transform="matrix(-0.999539 -0.0303577 -0.0303577 0.999539 139.45 217.038)" fill="#0045F5"/>
<defs>
<linearGradient id="paint0_linear_157_294" x1="124.5" y1="46" x2="124.5" y2="76.7607" gradientUnits="userSpaceOnUse">
<stop offset="1" stop-color="#FFD6D6"/>
</linearGradient>
</defs>
</svg>
