<svg width="250" height="250" viewBox="0 0 250 250" fill="none" xmlns="http://www.w3.org/2000/svg">
<ellipse cx="125.5" cy="232.5" rx="43.5" ry="1.5" fill="black" fill-opacity="0.1"/>
<path d="M108 88.1118H142V108.112H108V88.1118Z" fill="#FFE2E2"/>
<path d="M108 88.6118C108 86.1265 110.015 84.1118 112.5 84.1118H137.5C139.985 84.1118 142 86.1265 142 88.6118C142 91.0971 139.985 93.1118 137.5 93.1118H112.5C110.015 93.1118 108 91.0971 108 88.6118Z" fill="#FFE2E2"/>
<rect x="102" y="84.1118" width="46" height="11" rx="5.5" fill="#FFE2E2"/>
<rect x="120" y="77.1118" width="10" height="18" fill="#FFE2E2"/>
<path d="M113 82.1118H118.5L121 87.1118H129L131.5 82.1118H136.5L136 93.1118L137.5 99.1118L142.5 103.612V109.112L142 112.112L142.5 117.112L142 124.612L142.5 126.112V133.112H107.5L107 126.112L107.5 121.112L107 116.612L107.5 103.612L112.5 99.1118L113.5 92.6118L113 82.1118Z" fill="#1A3474"/>
<path d="M145.247 152.777C144.495 149.773 141.45 147.946 138.445 148.698C135.441 149.45 133.615 152.495 134.366 155.499L140.637 180.564C141.389 183.569 144.434 185.395 147.439 184.644C150.443 183.892 152.269 180.847 151.518 177.842L145.247 152.777Z" fill="#FFE2E2"/>
<path d="M151.894 179.991C151.156 176.983 148.119 175.143 145.111 175.881C142.103 176.619 140.263 179.655 141.001 182.663L149.556 217.527C150.294 220.535 153.33 222.375 156.338 221.637C159.346 220.899 161.186 217.862 160.448 214.854L151.894 179.991Z" fill="#FFE2E2"/>
<rect width="12" height="4.84598" transform="matrix(-0.978066 0.208294 0.208294 0.978066 161.081 216.996)" fill="#8CA5E5"/>
<path d="M167 228.097C167 224.177 163.823 221 159.903 221H150V232H163.097C165.252 232 167 230.252 167 228.097Z" fill="#E0E7F5"/>
<path d="M166.012 231.001H150.012V232.001H163.556C164.474 232.001 165.355 231.642 166.012 231.001Z" fill="#393939"/>
<rect width="12" height="2.74166" transform="matrix(-0.978066 0.208294 0.208294 0.978066 160.516 214.343)" fill="#0045F5"/>
<path d="M105.751 152.781C106.506 149.778 109.553 147.955 112.557 148.71C115.56 149.465 117.383 152.512 116.628 155.516L110.33 180.574C109.574 183.577 106.527 185.4 103.524 184.645C100.52 183.89 98.697 180.843 99.452 177.839L105.751 152.781Z" fill="#FFE2E2"/>
<path d="M99.0736 179.987C99.815 176.98 102.854 175.143 105.861 175.885C108.868 176.626 110.705 179.665 109.963 182.672L101.37 217.526C100.629 220.533 97.5898 222.37 94.5826 221.629C91.5755 220.887 89.7388 217.848 90.4802 214.841L99.0736 179.987Z" fill="#FFE2E2"/>
<rect x="89.9462" y="216.511" width="12" height="5.077" transform="rotate(12.0861 89.9462 216.511)" fill="#8CA5E5"/>
<path d="M84 228.097C84 224.177 87.1773 221 91.0968 221H101V232H87.9032C85.7475 232 84 230.252 84 228.097Z" fill="#E0E7F5"/>
<path d="M84.9808 231.002H100.981V232.002H87.436C86.5184 232.002 85.6373 231.643 84.9808 231.002Z" fill="#393939"/>
<rect x="90.4132" y="214.33" width="12" height="2.89025" transform="rotate(12.0861 90.4132 214.33)" fill="#0045F5"/>
<path d="M107.5 133.112H142.5L143 134.612L143 136.112H107V134.612L107.5 133.112Z" fill="#373E4D"/>
<path d="M107 135.112H143C143 143.396 136.284 150.112 128 150.112H122C113.716 150.112 107 143.396 107 135.112Z" fill="#081023"/>
<path d="M106.859 141.356C107.931 137.355 112.043 134.981 116.044 136.053C120.045 137.125 122.42 141.238 121.348 145.239L115.006 168.904L100.518 165.021L106.859 141.356Z" fill="#081023"/>
<rect x="100.518" y="165.021" width="15" height="2" transform="rotate(15 100.518 165.021)" fill="#373E4C"/>
<path d="M128.941 145.239C127.869 141.238 130.243 137.125 134.244 136.053C138.245 134.981 142.358 137.355 143.43 141.356L149.771 165.021L135.282 168.904L128.941 145.239Z" fill="#081023"/>
<rect x="135.282" y="168.904" width="15" height="2" transform="rotate(-15 135.282 168.904)" fill="#373E4C"/>
<path fill-rule="evenodd" clip-rule="evenodd" d="M135.835 55.5854C135.841 55.5411 135.818 55.4963 135.775 55.4752C135.768 55.4716 135.751 55.4599 135.725 55.4356C135.701 55.4128 135.675 55.384 135.649 55.3528C135.596 55.2881 135.555 55.224 135.541 55.1927C135.488 55.0746 135.433 54.9886 135.363 54.8881C135.288 54.7808 135.212 54.6799 135.138 54.5812C134.993 54.3874 134.854 54.2017 134.739 53.9915L134.707 53.9322C134.556 53.6552 134.399 53.369 134.211 53.1103C134.098 52.956 133.918 52.8584 133.739 52.7985C133.626 52.7606 133.507 52.7359 133.396 52.722C133.388 52.5618 133.331 52.4281 133.274 52.3096C133.263 52.2861 133.252 52.2635 133.241 52.2415C133.19 52.138 133.146 52.0467 133.122 51.9421C133.091 51.8064 133.028 51.6823 132.972 51.571L132.962 51.5521C132.951 51.5294 132.939 51.5037 132.926 51.4745L132.923 51.4675C132.911 51.4411 132.898 51.412 132.884 51.3835C132.855 51.3229 132.816 51.2533 132.762 51.1995C132.72 51.158 132.674 51.1338 132.627 51.121C132.607 51.0997 132.578 51.0863 132.546 51.0863C132.53 51.0863 132.522 51.0824 132.517 51.079C132.51 51.0743 132.501 51.0649 132.488 51.045C132.477 51.0272 132.468 51.0075 132.455 50.9818L132.448 50.9682C132.433 50.9385 132.415 50.9016 132.39 50.8675C132.19 50.594 131.911 50.4493 131.637 50.3143C131.152 50.0755 130.63 49.8843 130.077 49.8378C129.732 49.8087 129.391 49.7357 129.042 49.659L128.998 49.6494C128.666 49.5763 128.327 49.5016 127.981 49.4657C127.973 49.4649 127.965 49.4649 127.957 49.4659C127.857 49.4449 127.76 49.3988 127.648 49.3447L127.644 49.3429C127.534 49.2902 127.409 49.2301 127.273 49.2032C126.88 49.1256 126.475 49.1016 126.076 49.1156C126.032 49.1172 125.986 49.1181 125.937 49.119C125.775 49.1223 125.593 49.1259 125.432 49.1548C125.197 49.1969 124.968 49.1961 124.724 49.1953C124.634 49.195 124.541 49.1947 124.446 49.1966C124.228 49.2009 124.014 49.2281 123.802 49.2861C123.74 49.3032 123.688 49.3387 123.653 49.3627L123.646 49.3675C123.606 49.3953 123.583 49.4088 123.56 49.414C123.506 49.4265 123.47 49.4767 123.475 49.5302C123.454 49.5266 123.435 49.524 123.417 49.5216L123.405 49.5199C123.358 49.5132 123.324 49.5072 123.292 49.4944C123.269 49.4853 123.246 49.4755 123.222 49.4653C123.086 49.4084 122.928 49.3421 122.757 49.3319C122.616 49.3235 122.47 49.3258 122.329 49.3281C122.266 49.3292 122.204 49.3302 122.145 49.3302H121.519C121.448 49.3302 121.396 49.3463 121.35 49.365C121.331 49.3732 121.316 49.38 121.303 49.386C121.283 49.3951 121.267 49.4026 121.242 49.4108C121.128 49.4482 121.017 49.4868 120.905 49.5252C120.708 49.5933 120.513 49.6607 120.314 49.7189C120.165 49.7624 120.031 49.8303 119.907 49.8984C119.878 49.9145 119.85 49.9304 119.822 49.9461C119.728 49.9986 119.639 50.0483 119.544 50.0904L119.528 50.0976C119.45 50.1324 119.328 50.1861 119.25 50.2497C119.128 50.3487 118.991 50.4267 118.844 50.5047L118.768 50.5451C118.646 50.6093 118.518 50.6763 118.399 50.755C118.305 50.8165 118.22 50.885 118.139 50.9526C118.114 50.9727 118.091 50.9926 118.068 51.0122C118.012 51.0597 117.957 51.1059 117.9 51.1507C117.846 51.1927 117.791 51.2295 117.733 51.2687L117.677 51.3061C117.6 51.3588 117.519 51.4173 117.444 51.4907C117.328 51.6048 117.221 51.7411 117.118 51.8722C117.082 51.9172 117.047 51.9619 117.013 52.0045C116.873 52.1767 116.733 52.3276 116.567 52.426C116.532 52.4469 116.513 52.4841 116.513 52.522L116.442 52.5354C116.318 52.5589 116.185 52.5854 116.058 52.6339C115.808 52.7286 115.58 52.9073 115.392 53.0558L115.385 53.061C115.088 53.2956 114.754 53.5591 114.566 53.9299C114.378 54.2997 114.186 54.6619 113.969 55.0132C113.925 55.0837 113.886 55.1575 113.85 55.227C113.838 55.2492 113.827 55.2712 113.815 55.2923C113.767 55.3819 113.72 55.4639 113.66 55.5379C113.636 55.5681 113.609 55.6079 113.586 55.643C113.574 55.6597 113.564 55.6753 113.555 55.6883C113.521 55.7367 113.493 55.768 113.467 55.7844C113.404 55.8245 113.375 55.8967 113.358 55.949C113.34 56.0078 113.329 56.076 113.322 56.1409C113.307 56.2714 113.307 56.4066 113.307 56.4646C113.307 56.5148 113.341 56.5571 113.388 56.5699C113.205 56.7935 113.017 57.0153 112.829 57.238L112.828 57.2391C112.715 57.3727 112.602 57.5074 112.489 57.6424C112.18 58.0121 111.865 58.3567 111.479 58.6287C111.464 58.6395 111.351 58.7233 111.246 58.8041C111.192 58.8448 111.14 58.8857 111.101 58.9172C111.081 58.9327 111.064 58.947 111.051 58.9582C111.046 58.9634 111.038 58.9702 111.032 58.9773C111.029 58.9799 111.022 58.9878 111.016 58.9988C111.013 59.0033 111.005 59.0173 111.002 59.0372C110.998 59.0595 110.999 59.1068 111.042 59.1406C111.066 59.1595 111.092 59.1683 111.111 59.1729C111.131 59.1778 111.151 59.1803 111.17 59.1815C111.207 59.184 111.248 59.1824 111.286 59.1796C111.324 59.1768 111.362 59.1726 111.393 59.1689L111.417 59.166C111.437 59.1636 111.451 59.1619 111.459 59.1612C111.786 59.1357 112.1 59.087 112.418 59.0371C112.428 59.0355 112.453 59.0344 112.499 59.0327C112.54 59.0311 112.591 59.0291 112.642 59.0243C112.68 59.0208 112.721 59.0155 112.759 59.0068C112.758 59.2508 112.752 59.4921 112.726 59.7309C112.692 60.0355 112.617 60.3396 112.541 60.6467C112.52 60.7346 112.498 60.8228 112.477 60.9113C112.351 61.4433 112.303 62.003 112.257 62.537L112.255 62.5601C112.178 63.4624 112.387 64.2787 112.683 65.105C112.711 65.1834 112.735 65.2605 112.759 65.3402C112.773 65.3865 112.788 65.4344 112.804 65.4833C112.845 65.6123 112.894 65.7449 112.964 65.8716C112.998 65.9328 113.047 65.9973 113.091 66.0548L113.121 66.0949C113.175 66.168 113.214 66.2272 113.23 66.2776C113.235 66.2954 113.245 66.3108 113.257 66.323C113.076 66.2806 112.895 66.2797 112.726 66.34C112.55 66.403 112.397 66.5286 112.274 66.7199C112.031 67.0967 111.893 67.7399 111.893 68.7274V68.7498L111.902 68.7704C111.902 69.5124 112.091 70.3974 112.606 71.2804C112.863 71.7217 113.132 72.1393 113.395 72.4752C113.654 72.8075 113.756 73.073 114.001 73.1941L116.593 74.1946L116.888 74.7894C118.203 78.0449 119.671 78.1964 123.085 79.6118C124.36 79.9553 125.119 79.9635 126.5 79.6118C129.985 78.0716 131.109 77.8813 132.6 74.7894L132.724 74.2363C133.577 73.9523 135.071 74.378 136.31 72.342C137.149 70.9629 137.461 68.6053 137.315 67.8869C137.17 67.1719 136.735 66.7426 136.457 66.4687L136.454 66.4659C136.438 66.4504 136.422 66.4363 136.405 66.4237C136.495 66.2912 136.591 66.1629 136.689 66.0324L136.761 65.9366C136.886 65.7679 137.012 65.5945 137.122 65.4095C137.27 65.1636 137.255 64.9247 137.241 64.6959C137.238 64.6437 137.235 64.592 137.234 64.5408C137.231 64.4276 137.212 64.3183 137.194 64.2177L137.191 64.2054C137.174 64.1072 137.157 64.0174 137.153 63.9271C137.142 63.7137 137.118 63.5036 137.08 63.2931C137.021 62.9716 137.015 62.6365 137.015 62.2992V61.1478L137.015 61.069C137.015 60.7976 137.016 60.5118 136.971 60.233C136.954 60.1325 136.95 60.0306 136.946 59.9212L136.946 59.92C136.941 59.8124 136.937 59.6973 136.917 59.5823C136.896 59.46 136.899 59.336 136.903 59.2023C136.904 59.1518 136.905 59.1 136.905 59.0463C136.905 59.0033 136.9 58.9615 136.895 58.9242L136.889 58.8845C136.885 58.862 136.882 58.8415 136.88 58.8196C136.872 58.7542 136.875 58.7105 136.893 58.6748C136.913 58.636 136.907 58.5911 136.882 58.5589C136.933 58.5673 136.987 58.5731 137.041 58.5731C137.101 58.5731 137.158 58.5654 137.207 58.5588L137.209 58.5586C137.261 58.5516 137.303 58.5461 137.344 58.5461C137.39 58.5461 137.555 58.5344 137.695 58.5129C137.764 58.5024 137.837 58.4881 137.889 58.4679C137.902 58.4626 137.918 58.4557 137.932 58.4467C137.945 58.4383 137.966 58.4235 137.981 58.3994C137.999 58.3712 138.007 58.3333 137.994 58.2939C137.983 58.2603 137.96 58.2391 137.945 58.2276C137.877 58.1758 137.797 58.1489 137.737 58.1288L137.713 58.1208C137.645 58.0972 137.601 58.077 137.569 58.0404C137.512 57.9772 137.441 57.926 137.377 57.8826L137.332 57.8525C137.283 57.8197 137.239 57.7906 137.2 57.7587C137.119 57.6913 137.053 57.6144 136.985 57.5297L136.946 57.4803C136.891 57.4108 136.832 57.3361 136.765 57.266C136.691 57.189 136.626 57.0978 136.559 56.9983L136.523 56.9438C136.468 56.8621 136.411 56.7761 136.349 56.6974C136.301 56.6368 136.249 56.5775 136.196 56.5195C136.222 56.5184 136.249 56.5078 136.27 56.4875C136.313 56.4449 136.313 56.3757 136.27 56.3331C136.264 56.3278 136.259 56.3191 136.245 56.2869L136.243 56.2831C136.231 56.2561 136.211 56.2116 136.174 56.1732L136.155 56.153C136.124 56.1208 136.111 56.1075 136.104 56.0878C136.08 56.0229 136.029 55.8963 135.966 55.7793C135.935 55.721 135.899 55.6617 135.859 55.6129C135.852 55.6039 135.844 55.5946 135.835 55.5854ZM127.229 49.4174C126.856 49.3437 126.469 49.3204 126.084 49.3339C126.032 49.3357 125.98 49.3368 125.929 49.3378C125.77 49.3411 125.614 49.3443 125.471 49.3697C125.215 49.4157 124.956 49.4148 124.706 49.414C124.62 49.4137 124.534 49.4134 124.45 49.415C124.249 49.419 124.053 49.4441 123.861 49.4966C123.838 49.5031 123.816 49.5176 123.773 49.5469L123.771 49.5483C123.739 49.5704 123.692 49.602 123.635 49.6201C123.643 49.642 123.643 49.6664 123.635 49.6901C123.616 49.7473 123.553 49.7783 123.495 49.7592C123.463 49.7485 123.429 49.7438 123.383 49.7374L123.374 49.7361C123.327 49.7295 123.268 49.7207 123.208 49.6966C123.18 49.6854 123.153 49.6742 123.127 49.6634C122.991 49.6066 122.873 49.5576 122.744 49.5499C122.611 49.542 122.48 49.5442 122.344 49.5464C122.279 49.5475 122.212 49.5486 122.145 49.5486H121.519C121.486 49.5486 121.463 49.5551 121.436 49.5664C121.43 49.5689 121.422 49.5727 121.412 49.5772C121.385 49.5892 121.348 49.6063 121.312 49.6181C121.205 49.6531 121.097 49.6906 120.987 49.7286C120.786 49.798 120.581 49.8689 120.377 49.9284C120.252 49.9647 120.136 50.0227 120.015 50.0892C119.989 50.1034 119.963 50.1181 119.936 50.1331C119.841 50.1864 119.74 50.2428 119.636 50.2895L119.63 50.2921C119.542 50.3311 119.445 50.3742 119.391 50.4184C119.251 50.5317 119.098 50.618 118.95 50.697L118.869 50.7395C118.747 50.8035 118.632 50.8646 118.522 50.9368C118.439 50.9912 118.361 51.0533 118.282 51.1194C118.26 51.1378 118.237 51.1566 118.215 51.1756C118.157 51.2242 118.098 51.2743 118.037 51.3217C117.977 51.3693 117.913 51.4122 117.853 51.4522L117.803 51.4859C117.728 51.5369 117.66 51.5862 117.601 51.6452C117.496 51.7487 117.401 51.8689 117.301 51.9965C117.263 52.0438 117.225 52.0922 117.186 52.141C117.108 52.237 117.024 52.3337 116.932 52.4211C117.142 52.3822 117.384 52.3936 117.576 52.4566C117.639 52.4773 117.702 52.4976 117.765 52.5179C118.094 52.6234 118.427 52.7305 118.748 52.8991C119.339 53.2092 119.879 53.6074 120.382 54.0324C120.448 54.0877 120.519 54.1436 120.594 54.2027L120.653 54.2488C120.748 54.3244 120.848 54.4047 120.942 54.4905C121.13 54.6611 121.305 54.8616 121.388 55.106C121.407 55.1633 121.376 55.2251 121.318 55.2442C121.26 55.2633 121.197 55.2323 121.178 55.1751C121.113 54.9829 120.97 54.8129 120.792 54.6511C120.704 54.5707 120.609 54.4944 120.514 54.4193L120.457 54.3748C120.382 54.3155 120.307 54.2564 120.238 54.1983C119.742 53.7792 119.216 53.3919 118.644 53.0919C118.342 52.9331 118.03 52.8327 117.701 52.7272C117.637 52.7064 117.571 52.6854 117.506 52.6638C117.317 52.6017 117.054 52.6017 116.866 52.6625C116.749 52.7 116.629 52.7227 116.516 52.7439L116.484 52.7499C116.359 52.7735 116.244 52.7971 116.137 52.8378C115.925 52.9182 115.723 53.074 115.53 53.2264C115.224 53.4681 114.928 53.7043 114.764 54.0276C114.575 54.3993 114.38 54.7679 114.158 55.1269C114.119 55.1903 114.085 55.2545 114.049 55.3222C114.037 55.3458 114.024 55.3698 114.011 55.3943C113.962 55.4869 113.906 55.5835 113.833 55.6739C113.815 55.6972 113.799 55.7214 113.779 55.75C113.767 55.7686 113.753 55.7892 113.737 55.8127C113.701 55.8634 113.654 55.9247 113.59 55.9661L113.589 55.9667L113.588 55.9678L113.59 55.9661L113.589 55.9667C113.587 55.9705 113.579 55.9837 113.57 56.0132C113.558 56.053 113.548 56.1058 113.542 56.1647C113.533 56.2472 113.53 56.3331 113.529 56.3971C113.803 56.0577 114.067 55.7121 114.312 55.3501C114.346 55.2999 114.415 55.2863 114.466 55.3198C114.517 55.3532 114.53 55.4211 114.496 55.4712C114.041 56.1453 113.518 56.7645 112.997 57.3809C112.884 57.5142 112.771 57.6478 112.66 57.7813C112.348 58.154 112.019 58.5171 111.608 58.8065L111.606 58.8081L111.6 58.812L111.583 58.8244L111.53 58.8641C111.499 58.8875 111.461 58.9159 111.423 58.9453L111.442 58.9434C111.758 58.9187 112.065 58.8714 112.383 58.8214C112.408 58.8175 112.446 58.816 112.481 58.8147L112.49 58.8144C112.532 58.8128 112.577 58.8109 112.622 58.8068C112.667 58.8026 112.704 58.7965 112.731 58.7883C112.741 58.7854 112.747 58.7829 112.75 58.7813C112.753 58.7772 112.756 58.7733 112.759 58.7697L112.759 58.7485C112.759 58.6898 112.759 58.6309 112.759 58.5719C112.759 58.5115 112.808 58.4626 112.87 58.4626C112.931 58.4626 112.98 58.5115 112.98 58.5719C112.98 58.6294 112.981 58.6873 112.981 58.7454C112.982 59.0773 112.983 59.4185 112.946 59.7545C112.911 60.0748 112.831 60.3976 112.755 60.7069C112.733 60.7927 112.712 60.8775 112.693 60.9609C112.571 61.4774 112.524 62.0237 112.477 62.5628L112.476 62.5785C112.402 63.4352 112.6 64.2169 112.892 65.0323C112.921 65.1146 112.948 65.201 112.974 65.2845C112.987 65.3299 113.001 65.3745 113.015 65.417C113.055 65.5415 113.099 65.6585 113.159 65.7668C113.184 65.8131 113.221 65.8612 113.263 65.9173L113.299 65.9657C113.352 66.0369 113.413 66.1233 113.441 66.2134C113.459 66.271 113.427 66.3321 113.368 66.3499L113.361 66.3517C113.71 66.4616 114.075 66.7151 114.415 67.0184C114.765 67.3307 115.098 67.705 115.37 68.0564L114.652 64.8698L115.776 63.7617L117.765 61.4828L119.948 59.8705L129.468 59.731L130.947 61.3565L133.711 63.7617L134.835 64.8698L134.27 67.3801C134.542 67.1306 134.9 66.8397 135.252 66.6275C135.47 66.4952 135.694 66.3889 135.897 66.3459C136 66.3241 136.104 66.3175 136.2 66.3355C136.202 66.3302 136.205 66.3251 136.209 66.3201C136.306 66.1766 136.41 66.0376 136.512 65.9011L136.582 65.8074C136.707 65.6395 136.827 65.4734 136.932 65.2984C137.042 65.1147 137.033 64.9544 137.021 64.7341C137.017 64.676 137.014 64.6137 137.012 64.5458C137.01 64.4516 136.994 64.3579 136.976 64.2561L136.973 64.2397C136.955 64.1449 136.937 64.0425 136.932 63.9377C136.922 63.7338 136.898 63.533 136.862 63.3317C136.799 62.9893 136.793 62.637 136.793 62.2992L136.793 61.0709C136.793 60.7963 136.794 60.5279 136.752 60.2673C136.733 60.154 136.729 60.0411 136.725 59.9356L136.724 59.9288C136.72 59.8192 136.715 59.7176 136.699 59.6182C136.674 59.4738 136.678 59.3191 136.681 59.1792C136.682 59.133 136.683 59.0884 136.683 59.0463C136.683 59.0189 136.68 58.9892 136.675 58.9547L136.67 58.9223C136.667 58.8974 136.662 58.8698 136.659 58.8442C136.651 58.7671 136.648 58.6709 136.695 58.5772C136.705 58.5567 136.722 58.5408 136.74 58.5305L136.696 58.5202L136.689 58.5187C136.653 58.5103 136.619 58.5025 136.586 58.4958C136.574 58.4933 136.559 58.4906 136.542 58.4875C136.478 58.476 136.387 58.4596 136.31 58.432C136.218 58.3989 136.081 58.3259 136.081 58.1667C136.081 58.1063 136.13 58.0574 136.191 58.0574C136.253 58.0574 136.302 58.1063 136.302 58.1667C136.302 58.1731 136.304 58.1971 136.386 58.2268C136.443 58.2474 136.506 58.2589 136.568 58.27C136.589 58.2739 136.61 58.2777 136.631 58.2818C136.667 58.2892 136.704 58.2977 136.74 58.3061L136.746 58.3074C136.78 58.3154 136.813 58.3231 136.846 58.33C136.917 58.3447 136.981 58.3547 137.041 58.3547C137.084 58.3547 137.128 58.349 137.179 58.3421L137.184 58.3415C137.231 58.3351 137.287 58.3276 137.344 58.3276C137.37 58.3276 137.476 58.3208 137.587 58.3073C137.526 58.2831 137.459 58.2478 137.402 58.1849C137.365 58.1437 137.314 58.1054 137.251 58.0627L137.213 58.0372C137.162 58.0034 137.106 57.966 137.058 57.9262C136.958 57.8438 136.881 57.7523 136.811 57.6649L136.768 57.6106C136.714 57.5419 136.663 57.4777 136.604 57.4161C136.516 57.3244 136.442 57.2196 136.375 57.1191L136.336 57.0608C136.282 56.9796 136.23 56.9029 136.174 56.8319C136.073 56.7044 135.958 56.5866 135.839 56.4655C135.793 56.4187 135.747 56.3715 135.701 56.323L135.653 56.2723C135.478 56.0876 135.322 55.9235 135.118 55.7861C135.067 55.7521 135.024 55.7099 134.989 55.6756L134.975 55.6623C134.934 55.6231 134.902 55.5948 134.866 55.5759C134.774 55.5273 134.673 55.4982 134.561 55.466C134.532 55.4577 134.502 55.4492 134.472 55.4401C134.161 55.3467 133.871 55.2767 133.56 55.2767C133.499 55.2767 133.45 55.2278 133.45 55.1675C133.45 55.1071 133.499 55.0582 133.56 55.0582C133.905 55.0582 134.22 55.1361 134.537 55.2311C134.561 55.2384 134.586 55.2456 134.613 55.2531C134.726 55.2857 134.856 55.3228 134.971 55.3835C135.037 55.4183 135.088 55.4664 135.129 55.5059L135.144 55.5198C135.181 55.5556 135.21 55.5834 135.243 55.6056C135.468 55.7573 135.64 55.9389 135.813 56.121L135.863 56.1736C135.904 56.2169 135.947 56.261 135.991 56.306C136.003 56.3178 136.014 56.3298 136.026 56.3418C136.021 56.3331 136.018 56.3277 136.013 56.3232L136.001 56.3109C135.971 56.2807 135.92 56.2298 135.895 56.1624C135.873 56.102 135.827 55.986 135.771 55.8816C135.742 55.8292 135.714 55.7832 135.686 55.7494C135.673 55.7326 135.661 55.7207 135.651 55.7129C135.643 55.7065 135.638 55.7043 135.638 55.7043C135.585 55.6884 135.553 55.636 135.561 55.5829C135.532 55.5546 135.504 55.5225 135.477 55.4902C135.42 55.4202 135.364 55.3384 135.338 55.2807C135.293 55.1803 135.247 55.1071 135.18 55.0118C135.115 54.918 135.044 54.8237 134.973 54.7279C134.822 54.5265 134.666 54.3186 134.544 54.0951L134.513 54.0386C134.36 53.7587 134.211 53.4845 134.031 53.238C133.956 53.1358 133.826 53.0582 133.668 53.0053C133.512 52.9531 133.341 52.9293 133.202 52.9261C133.14 52.9247 133.092 52.8747 133.093 52.8144C133.095 52.7655 133.128 52.7249 133.173 52.712C133.164 52.6051 133.125 52.5087 133.074 52.4029C133.065 52.3836 133.055 52.3638 133.045 52.3435C132.994 52.2396 132.935 52.1214 132.906 51.9894C132.881 51.8808 132.829 51.7788 132.769 51.6605L132.764 51.6498C132.75 51.6216 132.736 51.5912 132.723 51.5626L132.72 51.556C132.708 51.5289 132.697 51.503 132.684 51.4778C132.657 51.4219 132.632 51.3804 132.605 51.354C132.581 51.3299 132.55 51.3216 132.494 51.3303C132.464 51.3348 132.433 51.3432 132.396 51.3538L132.378 51.3591C132.348 51.3679 132.315 51.3778 132.283 51.3848L132.273 51.3906C132.264 51.3966 132.253 51.405 132.238 51.4175L132.23 51.4243C132.206 51.4458 132.164 51.4819 132.116 51.5009C132.082 51.5147 132.051 51.5267 132.021 51.5379C131.905 51.5823 131.82 51.6148 131.733 51.6944C131.552 51.8602 131.39 52.0477 131.241 52.2456C131.152 52.3625 131.057 52.4679 130.963 52.5692L130.901 52.6354C130.827 52.714 130.755 52.7908 130.685 52.8724C130.493 53.0965 130.291 53.3101 130.09 53.5223C129.996 53.6214 129.902 53.7204 129.81 53.8197C129.667 53.9743 129.535 54.1391 129.401 54.3075L129.389 54.322C129.26 54.4848 129.128 54.6509 128.984 54.8083C128.943 54.8532 128.873 54.8568 128.827 54.8165C128.782 54.7761 128.778 54.707 128.819 54.6622C128.958 54.5104 129.086 54.3493 129.217 54.1849L129.227 54.1726C129.36 54.0049 129.497 53.8339 129.646 53.6724C129.742 53.5691 129.838 53.4683 129.932 53.3682C130.131 53.1582 130.327 52.9513 130.516 52.7313C130.59 52.6457 130.666 52.5642 130.74 52.4851L130.8 52.4214C130.893 52.3213 130.982 52.2227 131.063 52.1152C131.218 51.9099 131.389 51.7116 131.582 51.5346C131.703 51.4235 131.835 51.3739 131.955 51.3284C131.982 51.3185 132.008 51.3088 132.032 51.2987C132.044 51.2943 132.057 51.2831 132.094 51.2519L132.096 51.25C132.123 51.2273 132.172 51.1853 132.235 51.1716C132.254 51.1674 132.274 51.1618 132.297 51.155C132.281 51.1284 132.267 51.0996 132.255 51.0758L132.249 51.0642C132.234 51.0347 132.223 51.0127 132.21 50.9952C132.046 50.7703 131.814 50.6458 131.538 50.5097C131.066 50.2773 130.573 50.0987 130.058 50.0555C129.696 50.025 129.341 49.9486 128.994 49.8722L128.954 49.8635C128.619 49.7897 128.291 49.7175 127.958 49.683L127.957 49.6828C127.945 49.6844 127.933 49.684 127.921 49.6816C127.788 49.6555 127.666 49.5966 127.558 49.5446L127.55 49.541C127.436 49.4858 127.335 49.4382 127.229 49.4174ZM132.503 74.2086L134.593 64.9395L133.501 63.8632L130.74 61.4828L129.401 59.9356L120.015 60.0752L117.973 61.6091L115.987 63.8632L114.895 64.9395L116.432 71.7595L117.009 74.3206L117.09 74.68C118.446 77.89 119.83 77.9558 123.177 79.3934C124.596 79.742 125.227 79.6047 126.408 79.3934C129.549 78.0023 130.88 78.0326 132.397 74.68L132.503 74.2086ZM136.12 72.2296C134.968 74.1226 133.615 73.6678 132.781 73.9838L134.203 67.6772L134.238 67.7126C134.512 67.443 134.948 67.067 135.367 66.8137C135.578 66.6866 135.776 66.5949 135.944 66.5594C136.111 66.5239 136.224 66.5485 136.297 66.6203C136.574 66.8927 136.966 67.2821 137.098 67.9298C137.229 68.5766 136.942 70.8782 136.12 72.2296ZM116.217 71.8119L116.692 73.92L114.261 72.9987C114.063 72.9013 113.827 72.6707 113.57 72.342C113.316 72.0169 113.053 71.6084 112.798 71.1715C112.294 70.3071 112.113 69.6701 112.115 68.705C112.117 67.7399 112.255 67.1564 112.461 66.8371C112.563 66.6791 112.679 66.5891 112.801 66.5454C112.925 66.5014 113.066 66.5003 113.223 66.5397C113.543 66.6194 113.907 66.8596 114.267 67.1804C114.618 67.4939 114.955 67.875 115.226 68.2303L116.217 71.8119Z" fill="black"/>
<path d="M126.084 49.3339C126.469 49.3204 126.856 49.3437 127.229 49.4174C127.335 49.4382 127.436 49.4858 127.55 49.541L127.558 49.5446C127.666 49.5966 127.788 49.6555 127.921 49.6816C127.933 49.684 127.945 49.6844 127.957 49.6828L127.958 49.683C128.291 49.7175 128.619 49.7897 128.954 49.8635L128.994 49.8722C129.341 49.9486 129.696 50.025 130.058 50.0555C130.573 50.0987 131.066 50.2773 131.538 50.5097C131.814 50.6458 132.046 50.7703 132.21 50.9952C132.223 51.0127 132.234 51.0347 132.249 51.0642L132.255 51.0758C132.267 51.0996 132.281 51.1284 132.297 51.155C132.274 51.1618 132.254 51.1674 132.235 51.1716C132.172 51.1853 132.123 51.2273 132.096 51.25L132.094 51.2519C132.057 51.2831 132.044 51.2943 132.032 51.2987C132.008 51.3088 131.982 51.3185 131.955 51.3284C131.835 51.3739 131.703 51.4235 131.582 51.5346C131.389 51.7116 131.218 51.9099 131.063 52.1152C130.982 52.2227 130.893 52.3213 130.8 52.4214L130.74 52.4851C130.666 52.5642 130.59 52.6457 130.516 52.7313C130.327 52.9513 130.131 53.1582 129.932 53.3682C129.838 53.4683 129.742 53.5691 129.646 53.6724C129.497 53.8339 129.36 54.0049 129.227 54.1726L129.217 54.1849C129.086 54.3493 128.958 54.5104 128.819 54.6622C128.778 54.707 128.782 54.7761 128.827 54.8165C128.873 54.8568 128.943 54.8532 128.984 54.8083C129.128 54.6509 129.26 54.4848 129.389 54.322L129.401 54.3075C129.535 54.1391 129.667 53.9743 129.81 53.8197C129.902 53.7204 129.996 53.6214 130.09 53.5223C130.291 53.3101 130.493 53.0965 130.685 52.8724C130.755 52.7908 130.827 52.714 130.901 52.6354L130.963 52.5692C131.057 52.4679 131.152 52.3625 131.241 52.2456C131.39 52.0477 131.552 51.8602 131.733 51.6944C131.82 51.6148 131.905 51.5823 132.021 51.5379C132.051 51.5267 132.082 51.5147 132.116 51.5009C132.164 51.4819 132.206 51.4458 132.23 51.4243L132.238 51.4175C132.253 51.405 132.264 51.3966 132.273 51.3906L132.283 51.3848C132.315 51.3778 132.348 51.3679 132.378 51.3591L132.396 51.3538C132.433 51.3432 132.464 51.3348 132.494 51.3303C132.55 51.3216 132.581 51.3299 132.605 51.354C132.632 51.3804 132.657 51.4219 132.684 51.4778C132.697 51.503 132.708 51.5289 132.72 51.556L132.723 51.5626C132.736 51.5912 132.75 51.6216 132.764 51.6498L132.769 51.6605C132.829 51.7788 132.881 51.8808 132.906 51.9894C132.935 52.1214 132.994 52.2396 133.045 52.3435C133.055 52.3638 133.065 52.3836 133.074 52.4029C133.125 52.5087 133.164 52.6051 133.173 52.712C133.128 52.7249 133.095 52.7655 133.093 52.8144C133.092 52.8747 133.14 52.9247 133.202 52.9261C133.341 52.9293 133.512 52.9531 133.668 53.0053C133.826 53.0582 133.956 53.1358 134.031 53.238C134.211 53.4845 134.36 53.7587 134.513 54.0386L134.544 54.0951C134.666 54.3186 134.822 54.5265 134.973 54.7279C135.044 54.8237 135.115 54.918 135.18 55.0118C135.247 55.1071 135.293 55.1803 135.338 55.2807C135.364 55.3384 135.42 55.4202 135.477 55.4902C135.504 55.5225 135.532 55.5546 135.561 55.5829C135.553 55.636 135.585 55.6884 135.638 55.7043C135.638 55.7043 135.643 55.7065 135.651 55.7129C135.661 55.7207 135.673 55.7326 135.686 55.7494C135.714 55.7832 135.742 55.8292 135.771 55.8816C135.827 55.986 135.873 56.102 135.895 56.1624C135.92 56.2298 135.971 56.2807 136.001 56.3109L136.013 56.3232C136.018 56.3277 136.021 56.3331 136.026 56.3418L135.991 56.306C135.947 56.261 135.904 56.2169 135.863 56.1736L135.813 56.121C135.64 55.9389 135.468 55.7573 135.243 55.6056C135.21 55.5834 135.181 55.5556 135.144 55.5198L135.129 55.5059C135.088 55.4664 135.037 55.4183 134.971 55.3835C134.856 55.3228 134.726 55.2857 134.613 55.2531C134.586 55.2456 134.561 55.2384 134.537 55.2311C134.22 55.1361 133.905 55.0582 133.56 55.0582C133.499 55.0582 133.45 55.1071 133.45 55.1675C133.45 55.2278 133.499 55.2767 133.56 55.2767C133.871 55.2767 134.161 55.3467 134.472 55.4401C134.502 55.4492 134.532 55.4577 134.561 55.466C134.673 55.4982 134.774 55.5273 134.866 55.5759C134.902 55.5948 134.934 55.6231 134.975 55.6623L134.989 55.6756C135.024 55.7099 135.067 55.7521 135.118 55.7861C135.322 55.9235 135.478 56.0876 135.653 56.2723L135.701 56.323C135.747 56.3715 135.793 56.4187 135.839 56.4655C135.958 56.5866 136.073 56.7044 136.174 56.8319C136.23 56.9029 136.282 56.9796 136.336 57.0608L136.375 57.1191C136.442 57.2196 136.516 57.3244 136.604 57.4161C136.663 57.4777 136.714 57.5419 136.768 57.6106L136.811 57.6649C136.881 57.7523 136.958 57.8438 137.058 57.9262C137.106 57.966 137.162 58.0034 137.213 58.0372L137.251 58.0627C137.314 58.1054 137.365 58.1437 137.402 58.1849C137.459 58.2478 137.526 58.2831 137.587 58.3073C137.476 58.3208 137.37 58.3276 137.344 58.3276C137.287 58.3276 137.231 58.3351 137.184 58.3415L137.179 58.3421C137.128 58.349 137.084 58.3547 137.041 58.3547C136.981 58.3547 136.917 58.3447 136.846 58.33C136.813 58.3231 136.78 58.3154 136.746 58.3074L136.74 58.3061C136.704 58.2977 136.667 58.2892 136.631 58.2818C136.61 58.2777 136.589 58.2739 136.568 58.27C136.506 58.2589 136.443 58.2474 136.386 58.2268C136.304 58.1971 136.302 58.1731 136.302 58.1667C136.302 58.1063 136.253 58.0574 136.191 58.0574C136.13 58.0574 136.081 58.1063 136.081 58.1667C136.081 58.3259 136.218 58.3989 136.31 58.432C136.387 58.4596 136.478 58.476 136.542 58.4875C136.559 58.4906 136.574 58.4933 136.586 58.4958C136.619 58.5025 136.653 58.5103 136.689 58.5187L136.696 58.5202L136.74 58.5305C136.722 58.5408 136.705 58.5567 136.695 58.5772C136.648 58.6709 136.651 58.7671 136.659 58.8442C136.662 58.8698 136.667 58.8974 136.67 58.9223L136.675 58.9547C136.68 58.9892 136.683 59.0189 136.683 59.0463C136.683 59.0884 136.682 59.133 136.681 59.1792C136.678 59.3191 136.674 59.4738 136.699 59.6182C136.715 59.7176 136.72 59.8192 136.724 59.9288L136.725 59.9356C136.729 60.0411 136.733 60.154 136.752 60.2673C136.794 60.5279 136.793 60.7963 136.793 61.0709L136.793 62.2992C136.793 62.637 136.799 62.9893 136.862 63.3317C136.898 63.533 136.922 63.7338 136.932 63.9377C136.937 64.0425 136.955 64.1449 136.973 64.2397L136.976 64.2561C136.994 64.3579 137.01 64.4516 137.012 64.5458C137.014 64.6137 137.017 64.676 137.021 64.7341C137.033 64.9544 137.042 65.1147 136.932 65.2984C136.827 65.4734 136.707 65.6395 136.582 65.8074L136.512 65.9011C136.41 66.0376 136.306 66.1766 136.209 66.3201C136.205 66.3251 136.202 66.3302 136.2 66.3355C136.104 66.3175 136 66.3241 135.897 66.3459C135.694 66.3889 135.47 66.4952 135.252 66.6275C134.9 66.8397 134.542 67.1306 134.27 67.3801L134.835 64.8698L133.711 63.7617L130.947 61.3565L129.468 59.731L119.948 59.8705L117.765 61.4828L115.776 63.7617L114.652 64.8698L115.37 68.0564C115.098 67.705 114.765 67.3307 114.415 67.0184C114.075 66.7151 113.71 66.4616 113.361 66.3517L113.368 66.3499C113.427 66.3321 113.459 66.271 113.441 66.2134C113.413 66.1233 113.352 66.0369 113.299 65.9657L113.263 65.9173C113.221 65.8612 113.184 65.8131 113.159 65.7668C113.099 65.6585 113.055 65.5415 113.015 65.417C113.001 65.3745 112.987 65.3299 112.974 65.2845C112.948 65.201 112.921 65.1146 112.892 65.0323C112.6 64.2169 112.402 63.4352 112.476 62.5785L112.477 62.5628C112.524 62.0237 112.571 61.4774 112.693 60.9609C112.712 60.8775 112.733 60.7927 112.755 60.7069C112.831 60.3976 112.911 60.0748 112.946 59.7545C112.983 59.4185 112.982 59.0773 112.981 58.7454C112.981 58.6873 112.98 58.6294 112.98 58.5719C112.98 58.5115 112.931 58.4626 112.87 58.4626C112.808 58.4626 112.759 58.5115 112.759 58.5719C112.759 58.6309 112.759 58.6898 112.759 58.7485L112.759 58.7697C112.756 58.7733 112.753 58.7772 112.75 58.7813C112.747 58.7829 112.741 58.7854 112.731 58.7883C112.704 58.7965 112.667 58.8026 112.622 58.8068C112.577 58.8109 112.532 58.8128 112.49 58.8144L112.481 58.8147C112.446 58.816 112.408 58.8175 112.383 58.8214C112.065 58.8714 111.758 58.9187 111.442 58.9434L111.423 58.9453C111.461 58.9159 111.499 58.8875 111.53 58.8641L111.583 58.8244L111.6 58.812L111.606 58.8081L111.608 58.8065C112.019 58.5171 112.348 58.154 112.66 57.7813C112.771 57.6478 112.884 57.5142 112.997 57.3809C113.518 56.7645 114.041 56.1453 114.496 55.4712C114.53 55.4211 114.517 55.3532 114.466 55.3198C114.415 55.2863 114.346 55.2999 114.312 55.3501C114.067 55.7121 113.803 56.0577 113.529 56.3971C113.53 56.3331 113.533 56.2472 113.542 56.1647C113.548 56.1058 113.558 56.053 113.57 56.0132C113.579 55.9837 113.587 55.9705 113.589 55.9667L113.59 55.9661C113.654 55.9247 113.701 55.8634 113.737 55.8127C113.753 55.7892 113.767 55.7686 113.779 55.75C113.799 55.7214 113.815 55.6972 113.833 55.6739C113.906 55.5835 113.962 55.4869 114.011 55.3943C114.024 55.3698 114.037 55.3458 114.049 55.3222C114.085 55.2545 114.119 55.1903 114.158 55.1269C114.38 54.7679 114.575 54.3993 114.764 54.0276C114.928 53.7043 115.224 53.4681 115.53 53.2264C115.723 53.074 115.925 52.9182 116.137 52.8378C116.244 52.7971 116.359 52.7735 116.484 52.7499L116.516 52.7439C116.629 52.7227 116.749 52.7 116.866 52.6625C117.054 52.6017 117.317 52.6017 117.506 52.6638C117.571 52.6854 117.637 52.7064 117.701 52.7272C118.03 52.8327 118.342 52.9331 118.644 53.0919C119.216 53.3919 119.742 53.7792 120.238 54.1983C120.307 54.2564 120.382 54.3155 120.457 54.3748L120.514 54.4193C120.609 54.4944 120.704 54.5707 120.792 54.6511C120.97 54.8129 121.113 54.9829 121.178 55.1751C121.197 55.2323 121.26 55.2633 121.318 55.2442C121.376 55.2251 121.407 55.1633 121.388 55.106C121.305 54.8616 121.13 54.6611 120.942 54.4905C120.848 54.4047 120.748 54.3244 120.653 54.2488L120.594 54.2027C120.519 54.1436 120.448 54.0877 120.382 54.0324C119.879 53.6074 119.339 53.2092 118.748 52.8991C118.427 52.7305 118.094 52.6234 117.765 52.5179C117.702 52.4976 117.639 52.4773 117.576 52.4566C117.384 52.3936 117.142 52.3822 116.932 52.4211C117.024 52.3337 117.108 52.237 117.186 52.141C117.225 52.0922 117.263 52.0438 117.301 51.9965C117.401 51.8689 117.496 51.7487 117.601 51.6452C117.66 51.5862 117.728 51.5369 117.803 51.4859L117.853 51.4522C117.913 51.4122 117.977 51.3693 118.037 51.3217C118.098 51.2743 118.157 51.2242 118.215 51.1756C118.237 51.1566 118.26 51.1378 118.282 51.1194C118.361 51.0533 118.439 50.9912 118.522 50.9368C118.632 50.8646 118.747 50.8035 118.869 50.7395L118.95 50.697C119.098 50.618 119.251 50.5317 119.391 50.4184C119.445 50.3742 119.542 50.3311 119.63 50.2921L119.636 50.2895C119.74 50.2428 119.841 50.1864 119.936 50.1331C119.963 50.1181 119.989 50.1034 120.015 50.0892C120.136 50.0227 120.252 49.9647 120.377 49.9284C120.581 49.8689 120.786 49.798 120.987 49.7286C121.097 49.6906 121.205 49.6531 121.312 49.6181C121.348 49.6063 121.385 49.5892 121.412 49.5772C121.422 49.5727 121.43 49.5689 121.436 49.5664C121.463 49.5551 121.486 49.5486 121.519 49.5486H122.145C122.212 49.5486 122.279 49.5475 122.344 49.5464C122.48 49.5442 122.611 49.542 122.744 49.5499C122.873 49.5576 122.991 49.6066 123.127 49.6634C123.153 49.6742 123.18 49.6854 123.208 49.6966C123.268 49.7207 123.327 49.7295 123.374 49.7361L123.383 49.7374C123.429 49.7438 123.463 49.7485 123.495 49.7592C123.553 49.7783 123.616 49.7473 123.635 49.6901C123.643 49.6664 123.643 49.642 123.635 49.6201C123.692 49.602 123.739 49.5704 123.771 49.5483L123.773 49.5469C123.816 49.5176 123.838 49.5031 123.861 49.4966C124.053 49.4441 124.249 49.419 124.45 49.415C124.534 49.4134 124.62 49.4137 124.706 49.414C124.956 49.4148 125.215 49.4157 125.471 49.3697C125.614 49.3443 125.77 49.3411 125.929 49.3378C125.98 49.3368 126.032 49.3357 126.084 49.3339Z" fill="black"/>
<path d="M132.503 74.2086L132.397 74.68C130.88 78.0326 129.549 78.0023 126.408 79.3934C125.227 79.6047 124.596 79.742 123.177 79.3934C119.83 77.9558 118.446 77.89 117.09 74.68L117.009 74.3206L116.432 71.7595L114.895 64.9395L115.987 63.8632L117.973 61.6091L120.015 60.0752L129.401 59.9356L130.74 61.4828L133.501 63.8632L134.593 64.9395L132.503 74.2086Z" fill="#FFE2E2"/>
<path d="M132.781 73.9838C133.615 73.6678 134.968 74.1226 136.12 72.2296C136.942 70.8782 137.229 68.5766 137.098 67.9298C136.966 67.2821 136.574 66.8927 136.297 66.6203C136.224 66.5485 136.111 66.5239 135.944 66.5594C135.776 66.5949 135.578 66.6866 135.367 66.8137C134.948 67.067 134.512 67.443 134.238 67.7126L134.203 67.6772L132.781 73.9838Z" fill="#FFE2E2"/>
<path d="M116.692 73.92L116.217 71.8119L115.226 68.2303C114.955 67.875 114.618 67.4939 114.267 67.1804C113.907 66.8596 113.543 66.6194 113.223 66.5397C113.066 66.5003 112.925 66.5014 112.801 66.5454C112.679 66.5891 112.563 66.6791 112.461 66.8371C112.255 67.1564 112.117 67.7399 112.115 68.705C112.113 69.6701 112.294 70.3071 112.798 71.1715C113.053 71.6084 113.316 72.0169 113.57 72.342C113.827 72.6707 114.063 72.9013 114.261 72.9987L116.692 73.92Z" fill="url(#paint0_linear_159_197)"/>
<path d="M93.5621 62.622C92.6993 59.6475 94.4113 56.5366 97.3858 55.6738C100.36 54.811 103.471 56.523 104.334 59.4975L111.532 84.3123C112.395 87.2869 110.683 90.3977 107.708 91.2605C104.734 92.1233 101.623 90.4114 100.76 87.4368L93.5621 62.622Z" fill="#FFE2E2"/>
<path d="M105.115 63.0555C102.829 65.1457 99.2823 64.9873 97.1921 62.7017C95.1019 60.4162 95.2603 56.869 97.5458 54.7788L116.613 37.342C118.898 35.2518 122.445 35.4102 124.535 37.6957C126.626 39.9813 126.467 43.5285 124.182 45.6187L105.115 63.0555Z" fill="#FFE2E2"/>
<rect x="120.285" y="49.4265" width="12" height="2" transform="rotate(-132.443 120.285 49.4265)" fill="#8CA5E5"/>
<rect x="121.761" y="48.0767" width="12" height="2" transform="rotate(-132.443 121.761 48.0767)" fill="#0045F5"/>
<path d="M138.563 84.3117C137.7 87.2862 139.411 90.3971 142.386 91.2602C145.36 92.1232 148.471 90.4116 149.334 87.4371L156.534 62.6229C157.397 59.6484 155.685 56.5374 152.711 55.6744C149.736 54.8113 146.625 56.523 145.762 59.4975L138.563 84.3117Z" fill="#FFE2E2"/>
<path d="M152.846 55.0599C155.076 57.2088 155.142 60.759 152.993 62.9893C150.844 65.2197 147.294 65.2856 145.064 63.1367L126.457 45.2093C124.227 43.0603 124.161 39.5102 126.31 37.2798C128.459 35.0495 132.009 34.9835 134.24 37.1325L152.846 55.0599Z" fill="#FFE2E2"/>
<rect x="138.286" y="40.7812" width="12" height="2" transform="rotate(133.936 138.286 40.7812)" fill="#8CA5E5"/>
<rect x="136.846" y="39.3936" width="12" height="2" transform="rotate(133.936 136.846 39.3936)" fill="#0045F5"/>
<defs>
<linearGradient id="paint0_linear_159_197" x1="124.5" y1="49.1118" x2="124.5" y2="79.8725" gradientUnits="userSpaceOnUse">
<stop offset="1" stop-color="#FFD6D6"/>
</linearGradient>
</defs>
</svg>
