<svg width="250" height="250" viewBox="0 0 250 250" fill="none" xmlns="http://www.w3.org/2000/svg">
<ellipse cx="124.5" cy="232.5" rx="45.5" ry="1.5" fill="black" fill-opacity="0.1"/>
<path d="M108 69H142V89H108V69Z" fill="#FFE2E2"/>
<path d="M108 69.5C108 67.0147 110.015 65 112.5 65H137.5C139.985 65 142 67.0147 142 69.5C142 71.9853 139.985 74 137.5 74H112.5C110.015 74 108 71.9853 108 69.5Z" fill="#FFE2E2"/>
<rect x="102" y="65" width="46" height="11" rx="5.5" fill="#FFE2E2"/>
<rect x="120" y="58" width="10" height="18" fill="#FFE2E2"/>
<path d="M113 63H118.5L121 68H129L131.5 63H136.5L136 74L137.5 80L142.5 84.5V90L142 93L142.5 98L142 105.5L142.5 107V114H107.5L107 107L107.5 102L107 97.5L107.5 84.5L112.5 80L113.5 73.5L113 63Z" fill="#1A3474"/>
<path d="M145.247 133.665C144.495 130.661 141.45 128.834 138.445 129.586C135.441 130.338 133.615 133.383 134.366 136.388L140.637 161.453C141.389 164.457 144.434 166.283 147.439 165.532C150.443 164.78 152.269 161.735 151.518 158.73L145.247 133.665Z" fill="#FFE2E2"/>
<path d="M151.894 160.879C151.156 157.871 148.119 156.031 145.111 156.769C142.103 157.507 140.263 160.544 141.001 163.552L149.556 198.415C150.294 201.423 153.33 203.263 156.338 202.525C159.346 201.787 161.186 198.75 160.448 195.742L151.894 160.879Z" fill="#FFE2E2"/>
<rect width="12" height="3" transform="matrix(-0.978066 0.208294 0.208294 0.978066 160.932 197.187)" fill="#8CA5E5"/>
<path d="M167.718 205.043C166.901 201.209 163.132 198.763 159.298 199.58L149.612 201.643L151.904 212.401L164.713 209.673C166.822 209.224 168.167 207.151 167.718 205.043Z" fill="#E0E7F5"/>
<path d="M167.344 208.091L151.695 211.423L151.904 212.401L165.151 209.58C166.049 209.389 166.836 208.854 167.344 208.091Z" fill="#393939"/>
<rect width="12" height="2" transform="matrix(-0.978066 0.208294 0.208294 0.978066 160.516 195.231)" fill="#0045F5"/>
<path d="M105.751 133.669C106.506 130.666 109.553 128.843 112.557 129.598C115.56 130.353 117.383 133.4 116.628 136.404L110.33 161.462C109.574 164.466 106.527 166.288 103.524 165.533C100.52 164.778 98.697 161.731 99.452 158.728L105.751 133.669Z" fill="#FFE2E2"/>
<path d="M99.0736 160.875C99.815 157.868 102.854 156.031 105.861 156.773C108.868 157.514 110.705 160.553 109.963 163.56L101.37 198.414C100.629 201.421 97.5898 203.258 94.5826 202.517C91.5755 201.775 89.7388 198.737 90.4802 195.729L99.0736 160.875Z" fill="#FFE2E2"/>
<rect x="89.9944" y="197.174" width="12" height="3" transform="rotate(12.0861 89.9944 197.174)" fill="#8CA5E5"/>
<path d="M83.2005 205.022C84.0211 201.189 87.7933 198.748 91.6259 199.568L101.31 201.642L99.0064 212.398L86.1999 209.656C84.092 209.204 82.7491 207.13 83.2005 205.022Z" fill="#E0E7F5"/>
<path d="M83.5704 208.07L99.2158 211.42L99.0064 212.398L85.7618 209.562C84.8646 209.37 84.0781 208.834 83.5704 208.07Z" fill="#393939"/>
<rect x="90.4132" y="195.218" width="12" height="2" transform="rotate(12.0861 90.4132 195.218)" fill="#0045F5"/>
<path d="M107.5 114H142.5L143 115.5L143 117H107V115.5L107.5 114Z" fill="#373E4D"/>
<path d="M107 116H143C143 124.284 136.284 131 128 131H122C113.716 131 107 124.284 107 116Z" fill="#081023"/>
<path d="M106.859 122.244C107.931 118.243 112.043 115.869 116.044 116.941C120.045 118.013 122.42 122.126 121.348 126.127L115.006 149.792L100.518 145.91L106.859 122.244Z" fill="#081023"/>
<rect x="100.518" y="145.91" width="15" height="2" transform="rotate(15 100.518 145.91)" fill="#373E4C"/>
<path d="M128.941 126.127C127.869 122.126 130.243 118.013 134.244 116.941C138.245 115.869 142.358 118.243 143.43 122.244L149.771 145.91L135.282 149.792L128.941 126.127Z" fill="#081023"/>
<rect x="135.282" y="149.792" width="15" height="2" transform="rotate(-15 135.282 149.792)" fill="#373E4C"/>
<path fill-rule="evenodd" clip-rule="evenodd" d="M135.835 36.4736C135.841 36.4293 135.818 36.3845 135.775 36.3634C135.767 36.3598 135.75 36.3481 135.725 36.3238C135.701 36.301 135.675 36.2722 135.649 36.2409C135.596 36.1762 135.554 36.1122 135.54 36.0809C135.488 35.9628 135.433 35.8768 135.363 35.7763C135.288 35.669 135.212 35.5681 135.138 35.4693C134.993 35.2756 134.854 35.0899 134.739 34.8797L134.706 34.8204C134.555 34.5434 134.399 34.2572 134.21 33.9985C134.098 33.8442 133.918 33.7466 133.739 33.6867C133.626 33.6487 133.507 33.6241 133.396 33.6101C133.388 33.45 133.331 33.3163 133.274 33.1977C133.263 33.1743 133.252 33.1517 133.241 33.1296C133.19 33.0262 133.145 32.9349 133.122 32.8302C133.091 32.6945 133.028 32.5705 132.972 32.4591L132.962 32.4403C132.951 32.4175 132.939 32.3919 132.926 32.3627L132.923 32.3557C132.911 32.3292 132.898 32.3002 132.884 32.2717C132.855 32.2111 132.816 32.1415 132.762 32.0877C132.72 32.0462 132.674 32.022 132.627 32.0092C132.607 31.9878 132.578 31.9745 132.546 31.9745C132.529 31.9745 132.522 31.9706 132.517 31.9672C132.51 31.9625 132.501 31.9531 132.488 31.9332C132.477 31.9154 132.467 31.8956 132.455 31.87L132.448 31.8564C132.433 31.8267 132.414 31.7898 132.39 31.7557C132.19 31.4822 131.911 31.3375 131.637 31.2025C131.152 30.9636 130.63 30.7725 130.077 30.726C129.731 30.6969 129.39 30.6238 129.042 30.5472L128.998 30.5376C128.666 30.4645 128.327 30.3898 127.981 30.3539C127.973 30.353 127.965 30.3531 127.957 30.3541C127.857 30.3331 127.76 30.287 127.647 30.2329L127.644 30.2311C127.534 30.1784 127.409 30.1183 127.273 30.0914C126.879 30.0138 126.475 29.9897 126.076 30.0038C126.032 30.0053 125.986 30.0063 125.937 30.0072C125.775 30.0105 125.593 30.0141 125.432 30.043C125.197 30.0851 124.968 30.0843 124.724 30.0835C124.634 30.0832 124.541 30.0829 124.446 30.0848C124.228 30.0891 124.014 30.1163 123.802 30.1743C123.739 30.1914 123.688 30.2269 123.653 30.2509L123.646 30.2557C123.606 30.2835 123.583 30.297 123.56 30.3022C123.505 30.3146 123.47 30.3648 123.475 30.4183C123.454 30.4148 123.435 30.4121 123.417 30.4097L123.405 30.408C123.358 30.4014 123.323 30.3954 123.292 30.3826C123.269 30.3735 123.246 30.3636 123.222 30.3535C123.086 30.2966 122.928 30.2302 122.757 30.2201C122.616 30.2116 122.47 30.214 122.329 30.2163C122.266 30.2173 122.204 30.2184 122.145 30.2184H121.519C121.448 30.2184 121.396 30.2344 121.35 30.2532C121.33 30.2614 121.316 30.2682 121.303 30.2741C121.283 30.2833 121.267 30.2908 121.242 30.299C121.128 30.3363 121.016 30.3749 120.905 30.4133C120.708 30.4814 120.513 30.5489 120.314 30.6071C120.165 30.6506 120.031 30.7185 119.907 30.7866C119.878 30.8026 119.85 30.8186 119.821 30.8343C119.728 30.8867 119.639 30.9365 119.544 30.9786L119.528 30.9858C119.45 31.0205 119.328 31.0743 119.25 31.1379C119.128 31.2369 118.991 31.3149 118.844 31.3929L118.768 31.4333C118.646 31.4974 118.518 31.5645 118.399 31.6432C118.305 31.7047 118.22 31.7732 118.138 31.8408C118.114 31.8609 118.091 31.8808 118.068 31.9004C118.011 31.9478 117.957 31.9941 117.899 32.0389C117.846 32.0809 117.791 32.1177 117.732 32.1569L117.677 32.1943C117.6 32.247 117.518 32.3055 117.444 32.3789C117.328 32.493 117.221 32.6293 117.118 32.7604C117.082 32.8053 117.047 32.8501 117.013 32.8927C116.873 33.0649 116.733 33.2158 116.567 33.3142C116.532 33.3351 116.512 33.3723 116.513 33.4102L116.442 33.4236C116.318 33.4471 116.185 33.4736 116.058 33.5221C115.808 33.6168 115.58 33.7955 115.392 33.944L115.385 33.9492C115.088 34.1838 114.754 34.4473 114.566 34.8181C114.378 35.1878 114.186 35.5501 113.969 35.9014C113.925 35.9719 113.886 36.0457 113.85 36.1152C113.838 36.1374 113.827 36.1594 113.815 36.1805C113.767 36.2701 113.72 36.3521 113.66 36.4261C113.635 36.4563 113.609 36.4961 113.585 36.5312C113.574 36.5478 113.564 36.5634 113.555 36.5764C113.521 36.6249 113.493 36.6562 113.467 36.6726C113.404 36.7126 113.375 36.7849 113.358 36.8372C113.34 36.896 113.329 36.9642 113.321 37.0291C113.307 37.1596 113.307 37.2947 113.307 37.3527C113.307 37.403 113.341 37.4453 113.388 37.458C113.204 37.6817 113.017 37.9034 112.829 38.1262L112.828 38.1273C112.715 38.2609 112.602 38.3955 112.489 38.5305C112.179 38.9002 111.865 39.2448 111.479 39.5169C111.464 39.5277 111.351 39.6114 111.245 39.6923C111.192 39.733 111.14 39.7739 111.1 39.8054C111.081 39.8209 111.064 39.8352 111.051 39.8464C111.045 39.8516 111.038 39.8584 111.032 39.8655C111.029 39.8681 111.022 39.876 111.015 39.887C111.013 39.8915 111.005 39.9055 111.001 39.9254C110.998 39.9477 110.999 39.995 111.042 40.0288C111.066 40.0477 111.092 40.0565 111.111 40.0611C111.131 40.066 111.151 40.0685 111.17 40.0697C111.207 40.0722 111.248 40.0706 111.286 40.0678C111.324 40.065 111.362 40.0608 111.393 40.0571L111.416 40.0542C111.437 40.0518 111.45 40.0501 111.459 40.0494C111.785 40.0239 112.1 39.9752 112.418 39.9253C112.428 39.9237 112.453 39.9226 112.499 39.9209C112.54 39.9193 112.591 39.9172 112.642 39.9125C112.68 39.909 112.721 39.9037 112.759 39.895C112.758 40.139 112.752 40.3803 112.726 40.6191C112.692 40.9237 112.617 41.2278 112.541 41.5349C112.52 41.6228 112.498 41.711 112.477 41.7995C112.351 42.3315 112.303 42.8912 112.257 43.4252L112.255 43.4482C112.177 44.3506 112.387 45.1668 112.683 45.9932C112.711 46.0716 112.735 46.1487 112.759 46.2283C112.773 46.2747 112.788 46.3226 112.804 46.3714C112.845 46.5005 112.894 46.6331 112.964 46.7598C112.998 46.821 113.047 46.8855 113.09 46.943L113.121 46.9831C113.175 47.0562 113.214 47.1154 113.229 47.1658C113.235 47.1836 113.245 47.199 113.257 47.2112C113.076 47.1688 112.895 47.1678 112.726 47.2282C112.55 47.2912 112.397 47.4168 112.274 47.6081C112.031 47.9848 111.893 48.6281 111.893 49.6156V49.638L111.902 49.6586C111.902 50.4006 112.091 51.2856 112.606 52.1686C112.863 52.6099 113.132 53.0275 113.394 53.3634C113.654 53.6957 113.755 53.9612 114.001 54.0822L116.593 55.0828L116.888 55.6776C118.203 58.9331 119.671 59.0846 123.085 60.5C124.36 60.8434 125.119 60.8516 126.5 60.5C129.985 58.9598 131.109 58.7695 132.599 55.6776L132.724 55.1245C133.577 54.8405 135.071 55.2662 136.31 53.2302C137.149 51.8511 137.461 49.4935 137.315 48.7751C137.17 48.0601 136.735 47.6308 136.457 47.3569L136.454 47.3541C136.438 47.3386 136.422 47.3245 136.405 47.3118C136.495 47.1794 136.591 47.0511 136.689 46.9206L136.76 46.8248C136.886 46.6561 137.012 46.4826 137.122 46.2977C137.27 46.0518 137.255 45.8129 137.241 45.5841C137.238 45.5318 137.235 45.4801 137.234 45.429C137.231 45.3158 137.212 45.2065 137.194 45.1059L137.191 45.0936C137.174 44.9954 137.157 44.9056 137.153 44.8152C137.142 44.6019 137.118 44.3918 137.08 44.1813C137.021 43.8598 137.014 43.5247 137.014 43.1874V42.036L137.015 41.9572C137.015 41.6858 137.015 41.3999 136.97 41.1212C136.954 41.0207 136.95 40.9188 136.946 40.8094L136.946 40.8082C136.941 40.7006 136.936 40.5855 136.917 40.4704C136.896 40.3482 136.899 40.2242 136.902 40.0905C136.904 40.04 136.905 39.9882 136.905 39.9345C136.905 39.8915 136.9 39.8497 136.895 39.8124L136.889 39.7726C136.885 39.7501 136.882 39.7297 136.879 39.7078C136.872 39.6424 136.875 39.5987 136.893 39.563C136.913 39.5242 136.907 39.4793 136.882 39.4471C136.933 39.4555 136.987 39.4613 137.041 39.4613C137.101 39.4613 137.158 39.4536 137.207 39.447L137.209 39.4468C137.261 39.4398 137.303 39.4343 137.344 39.4343C137.39 39.4343 137.555 39.4226 137.695 39.4011C137.764 39.3906 137.837 39.3763 137.889 39.3561C137.902 39.3508 137.918 39.3439 137.932 39.3349C137.945 39.3265 137.965 39.3117 137.981 39.2876C137.998 39.2594 138.007 39.2214 137.994 39.1821C137.982 39.1485 137.96 39.1273 137.945 39.1157C137.877 39.064 137.797 39.0371 137.737 39.017L137.713 39.009C137.645 38.9854 137.601 38.9652 137.568 38.9285C137.512 38.8654 137.44 38.8142 137.376 38.7708L137.332 38.7407C137.282 38.7079 137.239 38.6788 137.2 38.6469C137.119 38.5795 137.053 38.5026 136.985 38.4179L136.946 38.3685C136.891 38.299 136.832 38.2243 136.765 38.1542C136.691 38.0772 136.626 37.9859 136.559 37.8865L136.523 37.832C136.468 37.7503 136.411 37.6643 136.349 37.5856C136.3 37.5249 136.249 37.4656 136.195 37.4076C136.222 37.4066 136.249 37.396 136.269 37.3757C136.313 37.3331 136.313 37.2639 136.269 37.2213C136.264 37.216 136.259 37.2073 136.245 37.1751L136.243 37.1713C136.231 37.1443 136.211 37.0997 136.174 37.0614L136.155 37.0412C136.124 37.009 136.111 36.9957 136.103 36.976C136.079 36.9111 136.029 36.7845 135.966 36.6675C135.935 36.6092 135.899 36.5499 135.859 36.501C135.852 36.4921 135.844 36.4828 135.835 36.4736ZM127.229 30.3056C126.856 30.2319 126.469 30.2085 126.084 30.2221C126.032 30.2239 125.98 30.225 125.929 30.226C125.77 30.2293 125.613 30.2324 125.471 30.2579C125.215 30.3039 124.956 30.303 124.706 30.3021C124.62 30.3018 124.534 30.3015 124.45 30.3032C124.249 30.3072 124.053 30.3323 123.861 30.3848C123.838 30.3912 123.815 30.4058 123.773 30.4351L123.771 30.4365C123.738 30.4586 123.692 30.4902 123.635 30.5083C123.642 30.5302 123.643 30.5546 123.635 30.5783C123.616 30.6355 123.553 30.6664 123.495 30.6474C123.463 30.6367 123.429 30.632 123.383 30.6256L123.374 30.6243C123.327 30.6177 123.268 30.6089 123.208 30.5848C123.18 30.5736 123.153 30.5624 123.127 30.5516C122.991 30.4948 122.873 30.4458 122.744 30.4381C122.611 30.4302 122.48 30.4324 122.344 30.4346C122.279 30.4357 122.212 30.4368 122.145 30.4368H121.519C121.486 30.4368 121.463 30.4433 121.436 30.4546C121.43 30.4571 121.422 30.4609 121.412 30.4654C121.385 30.4774 121.348 30.4944 121.312 30.5063C121.205 30.5413 121.097 30.5788 120.987 30.6168C120.786 30.6862 120.581 30.757 120.376 30.8166C120.252 30.8529 120.136 30.9109 120.015 30.9774C119.989 30.9916 119.963 31.0063 119.936 31.0213C119.841 31.0746 119.74 31.131 119.635 31.1777L119.63 31.1803C119.542 31.2193 119.445 31.2623 119.391 31.3065C119.251 31.4199 119.098 31.5062 118.949 31.5851L118.869 31.6277C118.747 31.6917 118.631 31.7528 118.522 31.825C118.439 31.8794 118.361 31.9414 118.282 32.0076C118.26 32.0259 118.237 32.0448 118.215 32.0638C118.157 32.1124 118.098 32.1625 118.037 32.2099C117.977 32.2575 117.913 32.3004 117.853 32.3404L117.803 32.3741C117.728 32.4251 117.66 32.4744 117.601 32.5334C117.496 32.6369 117.401 32.7571 117.3 32.8847C117.263 32.9319 117.225 32.9803 117.186 33.0292C117.108 33.1252 117.024 33.2219 116.932 33.3093C117.141 33.2704 117.384 33.2818 117.576 33.3448C117.639 33.3654 117.702 33.3857 117.765 33.4061C118.094 33.5116 118.427 33.6187 118.748 33.7873C119.339 34.0974 119.879 34.4956 120.382 34.9206C120.448 34.9759 120.519 35.0318 120.594 35.0909L120.652 35.137C120.748 35.2125 120.848 35.2929 120.942 35.3787C121.13 35.5493 121.305 35.7498 121.388 35.9942C121.407 36.0515 121.376 36.1133 121.318 36.1324C121.26 36.1515 121.197 36.1205 121.178 36.0633C121.113 35.8711 120.97 35.7011 120.792 35.5393C120.704 35.4589 120.609 35.3826 120.514 35.3075L120.457 35.263C120.382 35.2036 120.307 35.1446 120.238 35.0864C119.742 34.6674 119.215 34.28 118.644 33.9801C118.342 33.8213 118.029 33.7209 117.701 33.6154C117.637 33.5946 117.571 33.5736 117.506 33.552C117.317 33.4899 117.054 33.4898 116.866 33.5507C116.749 33.5882 116.629 33.6109 116.516 33.6321L116.484 33.6381C116.359 33.6617 116.244 33.6853 116.137 33.726C115.925 33.8064 115.723 33.9622 115.53 34.1146C115.224 34.3563 114.928 34.5925 114.764 34.9158C114.575 35.2875 114.38 35.6561 114.158 36.0151C114.119 36.0785 114.085 36.1427 114.049 36.2104C114.037 36.234 114.024 36.258 114.011 36.2825C113.962 36.3751 113.906 36.4717 113.833 36.5621C113.814 36.5854 113.798 36.6095 113.779 36.6382C113.767 36.6568 113.753 36.6774 113.737 36.7009C113.701 36.7516 113.654 36.8129 113.59 36.8543L113.589 36.8549L113.587 36.856L113.59 36.8543L113.589 36.8549C113.587 36.8587 113.579 36.8719 113.57 36.9014C113.558 36.9412 113.548 36.9939 113.542 37.0529C113.533 37.1354 113.53 37.2213 113.529 37.2853C113.803 36.9459 114.067 36.6003 114.312 36.2383C114.346 36.1881 114.415 36.1745 114.466 36.208C114.517 36.2414 114.53 36.3092 114.496 36.3594C114.041 37.0335 113.517 37.6527 112.997 38.2691C112.884 38.4024 112.771 38.536 112.66 38.6695C112.348 39.0422 112.019 39.4052 111.608 39.6946L111.605 39.6963L111.6 39.7001L111.583 39.7126L111.53 39.7522C111.499 39.7757 111.461 39.804 111.423 39.8335L111.442 39.8316C111.758 39.8069 112.065 39.7596 112.383 39.7096C112.408 39.7057 112.446 39.7042 112.481 39.7029L112.49 39.7026C112.532 39.701 112.577 39.6991 112.621 39.695C112.667 39.6908 112.704 39.6847 112.731 39.6765C112.741 39.6736 112.747 39.6711 112.75 39.6695C112.753 39.6653 112.756 39.6615 112.759 39.6578L112.759 39.6367C112.759 39.578 112.759 39.5191 112.759 39.4601C112.759 39.3997 112.808 39.3508 112.869 39.3508C112.931 39.3508 112.98 39.3997 112.98 39.4601C112.98 39.5176 112.98 39.5754 112.981 39.6336C112.982 39.9655 112.983 40.3067 112.946 40.6427C112.911 40.963 112.831 41.2858 112.755 41.5951C112.733 41.6809 112.712 41.7656 112.693 41.849C112.571 42.3656 112.524 42.9118 112.477 43.4509L112.476 43.4667C112.402 44.3234 112.6 45.1051 112.892 45.9204C112.921 46.0028 112.948 46.0892 112.973 46.1727C112.987 46.2181 113.001 46.2627 113.015 46.3052C113.055 46.4297 113.098 46.5467 113.159 46.6549C113.184 46.7013 113.221 46.7493 113.263 46.8054L113.299 46.8539C113.352 46.925 113.413 47.0115 113.441 47.1015C113.459 47.1592 113.426 47.2203 113.368 47.2381L113.361 47.2398C113.71 47.3498 114.075 47.6033 114.415 47.9066C114.765 48.2189 115.098 48.5932 115.37 48.9445L114.652 45.758L115.776 44.6499L117.765 42.371L119.948 40.7587L129.468 40.6191L130.947 42.2447L133.711 44.6499L134.835 45.758L134.269 48.2682C134.542 48.0188 134.9 47.7279 135.251 47.5156C135.47 47.3834 135.694 47.2771 135.897 47.2341C136 47.2122 136.103 47.2057 136.2 47.2237C136.202 47.2184 136.205 47.2133 136.209 47.2083C136.306 47.0648 136.41 46.9258 136.512 46.7893L136.582 46.6955C136.707 46.5277 136.827 46.3616 136.932 46.1865C137.042 46.0029 137.033 45.8426 137.02 45.6222C137.017 45.5642 137.014 45.5019 137.012 45.434C137.01 45.3398 136.994 45.2461 136.975 45.1443L136.973 45.1278C136.955 45.0331 136.937 44.9307 136.932 44.8259C136.921 44.622 136.898 44.4212 136.862 44.2199C136.799 43.8775 136.793 43.5252 136.793 43.1874L136.793 41.9591C136.793 41.6845 136.794 41.4161 136.752 41.1555C136.733 41.0422 136.729 40.9293 136.724 40.8238L136.724 40.817C136.72 40.7074 136.715 40.6058 136.698 40.5064C136.674 40.362 136.678 40.2073 136.681 40.0674C136.682 40.0212 136.683 39.9766 136.683 39.9345C136.683 39.9071 136.68 39.8774 136.675 39.8429L136.67 39.8105C136.666 39.7856 136.662 39.758 136.659 39.7324C136.65 39.6553 136.647 39.5591 136.695 39.4653C136.705 39.4449 136.721 39.429 136.74 39.4187L136.696 39.4084L136.689 39.4069C136.653 39.3985 136.619 39.3906 136.586 39.384C136.574 39.3815 136.559 39.3788 136.542 39.3757C136.478 39.3642 136.387 39.3478 136.31 39.3201C136.218 39.2871 136.08 39.2141 136.08 39.0548C136.08 38.9945 136.13 38.9456 136.191 38.9456C136.252 38.9456 136.302 38.9945 136.302 39.0548C136.302 39.0612 136.304 39.0853 136.386 39.115C136.443 39.1355 136.506 39.147 136.568 39.1582C136.589 39.1621 136.61 39.1659 136.631 39.17C136.667 39.1774 136.704 39.1859 136.74 39.1942L136.746 39.1956C136.78 39.2036 136.813 39.2113 136.846 39.2182C136.917 39.2329 136.981 39.2428 137.041 39.2428C137.084 39.2428 137.128 39.2372 137.179 39.2303L137.183 39.2297C137.231 39.2233 137.287 39.2158 137.344 39.2158C137.37 39.2158 137.476 39.209 137.587 39.1955C137.526 39.1713 137.459 39.1359 137.402 39.0731C137.365 39.0318 137.314 38.9936 137.251 38.9508L137.213 38.9254C137.162 38.8916 137.106 38.8542 137.058 38.8144C136.958 38.7319 136.881 38.6404 136.811 38.553L136.768 38.4988C136.714 38.4301 136.663 38.3659 136.604 38.3043C136.516 38.2126 136.442 38.1078 136.375 38.0073L136.336 37.949C136.281 37.8678 136.23 37.7911 136.174 37.7201C136.073 37.5926 135.958 37.4748 135.839 37.3537C135.793 37.3069 135.747 37.2597 135.701 37.2111L135.653 37.1604C135.478 36.9758 135.322 36.8117 135.118 36.6743C135.067 36.6403 135.024 36.598 134.988 36.5638L134.975 36.5505C134.934 36.5113 134.902 36.483 134.866 36.4641C134.774 36.4155 134.673 36.3864 134.561 36.3542C134.532 36.3459 134.502 36.3374 134.472 36.3283C134.161 36.2349 133.871 36.1649 133.56 36.1649C133.499 36.1649 133.45 36.116 133.45 36.0557C133.45 35.9953 133.499 35.9464 133.56 35.9464C133.905 35.9464 134.22 36.0243 134.537 36.1193C134.561 36.1265 134.586 36.1338 134.612 36.1413C134.726 36.1739 134.856 36.211 134.971 36.2716C135.037 36.3065 135.088 36.3546 135.129 36.3941L135.144 36.408C135.181 36.4438 135.21 36.4716 135.243 36.4938C135.468 36.6455 135.64 36.8271 135.813 37.0092L135.862 37.0617C135.904 37.105 135.947 37.1492 135.991 37.1941C136.003 37.206 136.014 37.218 136.026 37.23C136.021 37.2213 136.017 37.2159 136.013 37.2114L136.001 37.1991C135.971 37.1689 135.92 37.118 135.895 37.0506C135.873 36.9902 135.827 36.8742 135.771 36.7698C135.742 36.7174 135.714 36.6714 135.686 36.6376C135.672 36.6207 135.661 36.6088 135.651 36.601C135.643 36.5947 135.638 36.5925 135.638 36.5925C135.585 36.5766 135.553 36.5242 135.561 36.4711C135.532 36.4428 135.504 36.4107 135.477 36.3784C135.42 36.3083 135.363 36.2266 135.338 36.1688C135.293 36.0685 135.247 35.9952 135.18 35.9C135.115 35.8062 135.044 35.7119 134.972 35.6161C134.822 35.4147 134.666 35.2068 134.544 34.9833L134.513 34.9268C134.36 34.6469 134.211 34.3727 134.031 34.1262C133.956 34.024 133.826 33.9464 133.668 33.8935C133.512 33.8412 133.341 33.8175 133.201 33.8143C133.14 33.8129 133.092 33.7628 133.093 33.7025C133.094 33.6537 133.128 33.6131 133.173 33.6001C133.164 33.4933 133.125 33.3969 133.074 33.2911C133.065 33.2718 133.055 33.252 133.045 33.2316C132.994 33.1277 132.935 33.0096 132.906 32.8776C132.881 32.769 132.829 32.667 132.769 32.5487L132.764 32.538C132.75 32.5098 132.736 32.4794 132.723 32.4508L132.72 32.4442C132.708 32.4171 132.697 32.3912 132.684 32.366C132.657 32.31 132.632 32.2685 132.605 32.2422C132.581 32.218 132.55 32.2098 132.493 32.2185C132.464 32.223 132.432 32.2314 132.396 32.242L132.378 32.2473C132.348 32.2561 132.315 32.266 132.283 32.2729L132.273 32.2788C132.264 32.2847 132.253 32.2932 132.238 32.3057L132.23 32.3125C132.205 32.3339 132.164 32.37 132.116 32.3891C132.082 32.4029 132.051 32.4149 132.021 32.4261C131.905 32.4705 131.819 32.5029 131.733 32.5826C131.552 32.7484 131.39 32.9359 131.241 33.1338C131.152 33.2507 131.057 33.3561 130.963 33.4574L130.901 33.5236C130.827 33.6021 130.755 33.679 130.685 33.7606C130.493 33.9847 130.291 34.1983 130.09 34.4105C129.996 34.5096 129.902 34.6086 129.81 34.7079C129.667 34.8625 129.535 35.0273 129.401 35.1957L129.389 35.2102C129.26 35.373 129.127 35.5391 128.984 35.6965C128.943 35.7414 128.873 35.745 128.827 35.7046C128.782 35.6643 128.778 35.5952 128.819 35.5504C128.958 35.3985 129.086 35.2375 129.217 35.0731L129.227 35.0608C129.36 34.8931 129.497 34.7221 129.646 34.5606C129.742 34.4573 129.838 34.3565 129.932 34.2564C130.131 34.0464 130.327 33.8395 130.516 33.6195C130.589 33.5339 130.666 33.4524 130.74 33.3733L130.8 33.3096C130.893 33.2095 130.982 33.1108 131.063 33.0034C131.218 32.798 131.389 32.5998 131.582 32.4227C131.703 32.3117 131.835 32.262 131.955 32.2166C131.982 32.2067 132.007 32.197 132.032 32.1869C132.043 32.1825 132.057 32.1713 132.094 32.1401L132.096 32.1382C132.123 32.1155 132.172 32.0735 132.234 32.0598C132.254 32.0556 132.274 32.05 132.297 32.0432C132.281 32.0166 132.266 31.9877 132.255 31.964L132.249 31.9524C132.234 31.9229 132.223 31.9009 132.21 31.8834C132.046 31.6585 131.814 31.534 131.538 31.3978C131.066 31.1655 130.573 30.9869 130.058 30.9436C129.696 30.9132 129.341 30.8367 128.994 30.7604L128.954 30.7517C128.619 30.6779 128.29 30.6057 127.958 30.5712L127.957 30.571C127.945 30.5725 127.933 30.5722 127.921 30.5698C127.788 30.5437 127.666 30.4848 127.558 30.4328L127.55 30.4292C127.435 30.3739 127.335 30.3264 127.229 30.3056ZM132.503 55.0968L134.593 45.8277L133.501 44.7514L130.74 42.371L129.401 40.8238L120.015 40.9634L117.972 42.4973L115.986 44.7514L114.895 45.8277L116.432 52.6477L117.009 55.2088L117.09 55.5681C118.446 58.7782 119.83 58.844 123.177 60.2816C124.596 60.6302 125.227 60.4929 126.408 60.2816C129.549 58.8904 130.88 58.9208 132.397 55.5681L132.503 55.0968ZM136.12 53.1178C134.968 55.0108 133.615 54.556 132.781 54.872L134.202 48.5654L134.238 48.6007C134.512 48.3312 134.948 47.9552 135.367 47.7019C135.578 47.5748 135.776 47.4831 135.944 47.4476C136.111 47.4121 136.224 47.4367 136.297 47.5085C136.573 47.7809 136.966 48.1703 137.098 48.8179C137.229 49.4648 136.942 51.7663 136.12 53.1178ZM116.217 52.7001L116.692 54.8082L114.261 53.8869C114.063 53.7895 113.827 53.5589 113.57 53.2302C113.316 52.905 113.053 52.4966 112.798 52.0596C112.293 51.1953 112.113 50.5583 112.115 49.5932C112.117 48.6281 112.255 48.0446 112.461 47.7252C112.563 47.5673 112.679 47.4773 112.801 47.4336C112.924 47.3895 113.065 47.3885 113.223 47.4278C113.542 47.5076 113.907 47.7477 114.266 48.0685C114.618 48.3821 114.954 48.7632 115.226 49.1185L116.217 52.7001Z" fill="black"/>
<path d="M126.084 30.2221C126.469 30.2085 126.856 30.2319 127.229 30.3056C127.335 30.3264 127.435 30.3739 127.55 30.4292L127.558 30.4328C127.666 30.4848 127.788 30.5437 127.921 30.5698C127.933 30.5722 127.945 30.5725 127.957 30.571L127.958 30.5712C128.29 30.6057 128.619 30.6779 128.954 30.7517L128.994 30.7604C129.341 30.8367 129.696 30.9132 130.058 30.9436C130.573 30.9869 131.066 31.1655 131.538 31.3978C131.814 31.534 132.046 31.6585 132.21 31.8834C132.223 31.9009 132.234 31.9229 132.249 31.9524L132.255 31.964C132.266 31.9877 132.281 32.0166 132.297 32.0432C132.274 32.05 132.254 32.0556 132.234 32.0598C132.172 32.0735 132.123 32.1155 132.096 32.1382L132.094 32.1401C132.057 32.1713 132.043 32.1825 132.032 32.1869C132.007 32.197 131.982 32.2067 131.955 32.2166C131.835 32.262 131.703 32.3117 131.582 32.4227C131.389 32.5998 131.218 32.798 131.063 33.0034C130.982 33.1108 130.893 33.2095 130.8 33.3096L130.74 33.3733C130.666 33.4524 130.589 33.5339 130.516 33.6195C130.327 33.8395 130.131 34.0464 129.932 34.2564C129.838 34.3565 129.742 34.4573 129.646 34.5606C129.497 34.7221 129.36 34.8931 129.227 35.0608L129.217 35.0731C129.086 35.2375 128.958 35.3985 128.819 35.5504C128.778 35.5952 128.782 35.6643 128.827 35.7046C128.873 35.745 128.943 35.7414 128.984 35.6965C129.127 35.5391 129.26 35.373 129.389 35.2102L129.401 35.1957C129.535 35.0273 129.667 34.8625 129.81 34.7079C129.902 34.6086 129.996 34.5096 130.09 34.4105C130.291 34.1983 130.493 33.9847 130.685 33.7606C130.755 33.679 130.827 33.6021 130.901 33.5236L130.963 33.4574C131.057 33.3561 131.152 33.2507 131.241 33.1338C131.39 32.9359 131.552 32.7484 131.733 32.5826C131.819 32.5029 131.905 32.4705 132.021 32.4261C132.051 32.4149 132.082 32.4029 132.116 32.3891C132.164 32.37 132.205 32.3339 132.23 32.3125L132.238 32.3057C132.253 32.2932 132.264 32.2847 132.273 32.2788L132.283 32.2729C132.315 32.266 132.348 32.2561 132.378 32.2473L132.396 32.242C132.432 32.2314 132.464 32.223 132.493 32.2185C132.55 32.2098 132.581 32.218 132.605 32.2422C132.632 32.2685 132.657 32.31 132.684 32.366C132.697 32.3912 132.708 32.4171 132.72 32.4442L132.723 32.4508C132.736 32.4794 132.75 32.5098 132.764 32.538L132.769 32.5487C132.829 32.667 132.881 32.769 132.906 32.8776C132.935 33.0096 132.994 33.1277 133.045 33.2316C133.055 33.252 133.065 33.2718 133.074 33.2911C133.125 33.3969 133.164 33.4933 133.173 33.6001C133.128 33.6131 133.094 33.6537 133.093 33.7025C133.092 33.7628 133.14 33.8129 133.201 33.8143C133.341 33.8175 133.512 33.8412 133.668 33.8935C133.826 33.9464 133.956 34.024 134.031 34.1262C134.211 34.3727 134.36 34.6469 134.513 34.9268L134.544 34.9833C134.666 35.2068 134.822 35.4147 134.972 35.6161C135.044 35.7119 135.115 35.8062 135.18 35.9C135.247 35.9952 135.293 36.0685 135.338 36.1688C135.363 36.2266 135.42 36.3083 135.477 36.3784C135.504 36.4107 135.532 36.4428 135.561 36.4711C135.553 36.5242 135.585 36.5766 135.638 36.5925C135.638 36.5925 135.643 36.5947 135.651 36.601C135.661 36.6088 135.672 36.6207 135.686 36.6376C135.714 36.6714 135.742 36.7174 135.771 36.7698C135.827 36.8742 135.873 36.9902 135.895 37.0506C135.92 37.118 135.971 37.1689 136.001 37.1991L136.013 37.2114C136.017 37.2159 136.021 37.2213 136.026 37.23L135.991 37.1941C135.947 37.1492 135.904 37.105 135.862 37.0617L135.813 37.0092C135.64 36.8271 135.468 36.6455 135.243 36.4938C135.21 36.4716 135.181 36.4438 135.144 36.408L135.129 36.3941C135.088 36.3546 135.037 36.3065 134.971 36.2716C134.856 36.211 134.726 36.1739 134.612 36.1413C134.586 36.1338 134.561 36.1265 134.537 36.1193C134.22 36.0243 133.905 35.9464 133.56 35.9464C133.499 35.9464 133.45 35.9953 133.45 36.0557C133.45 36.116 133.499 36.1649 133.56 36.1649C133.871 36.1649 134.161 36.2349 134.472 36.3283C134.502 36.3374 134.532 36.3459 134.561 36.3542C134.673 36.3864 134.774 36.4155 134.866 36.4641C134.902 36.483 134.934 36.5113 134.975 36.5505L134.988 36.5638C135.024 36.598 135.067 36.6403 135.118 36.6743C135.322 36.8117 135.478 36.9758 135.653 37.1604L135.701 37.2111C135.747 37.2597 135.793 37.3069 135.839 37.3537C135.958 37.4748 136.073 37.5926 136.174 37.7201C136.23 37.7911 136.281 37.8678 136.336 37.949L136.375 38.0073C136.442 38.1078 136.516 38.2126 136.604 38.3043C136.663 38.3659 136.714 38.4301 136.768 38.4988L136.811 38.553C136.881 38.6404 136.958 38.7319 137.058 38.8144C137.106 38.8542 137.162 38.8916 137.213 38.9254L137.251 38.9508C137.314 38.9936 137.365 39.0318 137.402 39.0731C137.459 39.1359 137.526 39.1713 137.587 39.1955C137.476 39.209 137.37 39.2158 137.344 39.2158C137.287 39.2158 137.231 39.2233 137.183 39.2297L137.179 39.2303C137.128 39.2372 137.084 39.2428 137.041 39.2428C136.981 39.2428 136.917 39.2329 136.846 39.2182C136.813 39.2113 136.78 39.2036 136.746 39.1956L136.74 39.1942C136.704 39.1859 136.667 39.1774 136.631 39.17C136.61 39.1659 136.589 39.1621 136.568 39.1582C136.506 39.147 136.443 39.1355 136.386 39.115C136.304 39.0853 136.302 39.0612 136.302 39.0548C136.302 38.9945 136.252 38.9456 136.191 38.9456C136.13 38.9456 136.08 38.9945 136.08 39.0548C136.08 39.2141 136.218 39.2871 136.31 39.3201C136.387 39.3478 136.478 39.3642 136.542 39.3757C136.559 39.3788 136.574 39.3815 136.586 39.384C136.619 39.3906 136.653 39.3985 136.689 39.4069L136.696 39.4084L136.74 39.4187C136.721 39.429 136.705 39.4449 136.695 39.4653C136.647 39.5591 136.65 39.6553 136.659 39.7324C136.662 39.758 136.666 39.7856 136.67 39.8105L136.675 39.8429C136.68 39.8774 136.683 39.9071 136.683 39.9345C136.683 39.9766 136.682 40.0212 136.681 40.0674C136.678 40.2073 136.674 40.362 136.698 40.5064C136.715 40.6058 136.72 40.7074 136.724 40.817L136.724 40.8238C136.729 40.9293 136.733 41.0422 136.752 41.1555C136.794 41.4161 136.793 41.6845 136.793 41.9591L136.793 43.1874C136.793 43.5252 136.799 43.8775 136.862 44.2199C136.898 44.4212 136.921 44.622 136.932 44.8259C136.937 44.9307 136.955 45.0331 136.973 45.1278L136.975 45.1443C136.994 45.2461 137.01 45.3398 137.012 45.434C137.014 45.5019 137.017 45.5642 137.02 45.6222C137.033 45.8426 137.042 46.0029 136.932 46.1865C136.827 46.3616 136.707 46.5277 136.582 46.6955L136.512 46.7893C136.41 46.9258 136.306 47.0648 136.209 47.2083C136.205 47.2133 136.202 47.2184 136.2 47.2237C136.103 47.2057 136 47.2122 135.897 47.2341C135.694 47.2771 135.47 47.3834 135.251 47.5156C134.9 47.7279 134.542 48.0188 134.269 48.2682L134.835 45.758L133.711 44.6499L130.947 42.2447L129.468 40.6191L119.948 40.7587L117.765 42.371L115.776 44.6499L114.652 45.758L115.37 48.9445C115.098 48.5932 114.765 48.2189 114.415 47.9066C114.075 47.6033 113.71 47.3498 113.361 47.2398L113.368 47.2381C113.426 47.2203 113.459 47.1592 113.441 47.1015C113.413 47.0115 113.352 46.925 113.299 46.8539L113.263 46.8054C113.221 46.7493 113.184 46.7013 113.159 46.6549C113.098 46.5467 113.055 46.4297 113.015 46.3052C113.001 46.2627 112.987 46.2181 112.973 46.1727C112.948 46.0892 112.921 46.0028 112.892 45.9204C112.6 45.1051 112.402 44.3234 112.476 43.4667L112.477 43.4509C112.524 42.9118 112.571 42.3656 112.693 41.849C112.712 41.7656 112.733 41.6809 112.755 41.5951C112.831 41.2858 112.911 40.963 112.946 40.6427C112.983 40.3067 112.982 39.9655 112.981 39.6336C112.98 39.5754 112.98 39.5176 112.98 39.4601C112.98 39.3997 112.931 39.3508 112.869 39.3508C112.808 39.3508 112.759 39.3997 112.759 39.4601C112.759 39.5191 112.759 39.578 112.759 39.6367L112.759 39.6578C112.756 39.6615 112.753 39.6653 112.75 39.6695C112.747 39.6711 112.741 39.6736 112.731 39.6765C112.704 39.6847 112.667 39.6908 112.621 39.695C112.577 39.6991 112.532 39.701 112.49 39.7026L112.481 39.7029C112.446 39.7042 112.408 39.7057 112.383 39.7096C112.065 39.7596 111.758 39.8069 111.442 39.8316L111.423 39.8335C111.461 39.804 111.499 39.7757 111.53 39.7522L111.583 39.7126L111.6 39.7001L111.605 39.6963L111.608 39.6946C112.019 39.4052 112.348 39.0422 112.66 38.6695C112.771 38.536 112.884 38.4024 112.997 38.2691C113.517 37.6527 114.041 37.0335 114.496 36.3594C114.53 36.3092 114.517 36.2414 114.466 36.208C114.415 36.1745 114.346 36.1881 114.312 36.2383C114.067 36.6003 113.803 36.9459 113.529 37.2853C113.53 37.2213 113.533 37.1354 113.542 37.0529C113.548 36.9939 113.558 36.9412 113.57 36.9014C113.579 36.8719 113.587 36.8587 113.589 36.8549L113.59 36.8543C113.654 36.8129 113.701 36.7516 113.737 36.7009C113.753 36.6774 113.767 36.6568 113.779 36.6382C113.798 36.6095 113.814 36.5854 113.833 36.5621C113.906 36.4717 113.962 36.3751 114.011 36.2825C114.024 36.258 114.037 36.234 114.049 36.2104C114.085 36.1427 114.119 36.0785 114.158 36.0151C114.38 35.6561 114.575 35.2875 114.764 34.9158C114.928 34.5925 115.224 34.3563 115.53 34.1146C115.723 33.9622 115.925 33.8064 116.137 33.726C116.244 33.6853 116.359 33.6617 116.484 33.6381L116.516 33.6321C116.629 33.6109 116.749 33.5882 116.866 33.5507C117.054 33.4898 117.317 33.4899 117.506 33.552C117.571 33.5736 117.637 33.5946 117.701 33.6154C118.029 33.7209 118.342 33.8213 118.644 33.9801C119.215 34.28 119.742 34.6674 120.238 35.0864C120.307 35.1446 120.382 35.2036 120.457 35.263L120.514 35.3075C120.609 35.3826 120.704 35.4589 120.792 35.5393C120.97 35.7011 121.113 35.8711 121.178 36.0633C121.197 36.1205 121.26 36.1515 121.318 36.1324C121.376 36.1133 121.407 36.0515 121.388 35.9942C121.305 35.7498 121.13 35.5493 120.942 35.3787C120.848 35.2929 120.748 35.2125 120.652 35.137L120.594 35.0909C120.519 35.0318 120.448 34.9759 120.382 34.9206C119.879 34.4956 119.339 34.0974 118.748 33.7873C118.427 33.6187 118.094 33.5116 117.765 33.4061C117.702 33.3857 117.639 33.3654 117.576 33.3448C117.384 33.2818 117.141 33.2704 116.932 33.3093C117.024 33.2219 117.108 33.1252 117.186 33.0292C117.225 32.9803 117.263 32.9319 117.3 32.8847C117.401 32.7571 117.496 32.6369 117.601 32.5334C117.66 32.4744 117.728 32.4251 117.803 32.3741L117.853 32.3404C117.913 32.3004 117.977 32.2575 118.037 32.2099C118.098 32.1625 118.157 32.1124 118.215 32.0638C118.237 32.0448 118.26 32.0259 118.282 32.0076C118.361 31.9414 118.439 31.8794 118.522 31.825C118.631 31.7528 118.747 31.6917 118.869 31.6277L118.949 31.5851C119.098 31.5062 119.251 31.4199 119.391 31.3065C119.445 31.2623 119.542 31.2193 119.63 31.1803L119.635 31.1777C119.74 31.131 119.841 31.0746 119.936 31.0213C119.963 31.0063 119.989 30.9916 120.015 30.9774C120.136 30.9109 120.252 30.8529 120.376 30.8166C120.581 30.757 120.786 30.6862 120.987 30.6168C121.097 30.5788 121.205 30.5413 121.312 30.5063C121.348 30.4944 121.385 30.4774 121.412 30.4654C121.422 30.4609 121.43 30.4571 121.436 30.4546C121.463 30.4433 121.486 30.4368 121.519 30.4368H122.145C122.212 30.4368 122.279 30.4357 122.344 30.4346C122.48 30.4324 122.611 30.4302 122.744 30.4381C122.873 30.4458 122.991 30.4948 123.127 30.5516C123.153 30.5624 123.18 30.5736 123.208 30.5848C123.268 30.6089 123.327 30.6177 123.374 30.6243L123.383 30.6256C123.429 30.632 123.463 30.6367 123.495 30.6474C123.553 30.6664 123.616 30.6355 123.635 30.5783C123.643 30.5546 123.642 30.5302 123.635 30.5083C123.692 30.4902 123.738 30.4586 123.771 30.4365L123.773 30.4351C123.815 30.4058 123.838 30.3912 123.861 30.3848C124.053 30.3323 124.249 30.3072 124.45 30.3032C124.534 30.3015 124.62 30.3018 124.706 30.3021C124.956 30.303 125.215 30.3039 125.471 30.2579C125.613 30.2324 125.77 30.2293 125.929 30.226C125.98 30.225 126.032 30.2239 126.084 30.2221Z" fill="black"/>
<path d="M132.503 55.0968L132.397 55.5681C130.88 58.9208 129.549 58.8904 126.408 60.2816C125.227 60.4929 124.596 60.6302 123.177 60.2816C119.83 58.844 118.446 58.7782 117.09 55.5681L117.009 55.2088L116.432 52.6477L114.895 45.8277L115.986 44.7514L117.972 42.4973L120.015 40.9634L129.401 40.8238L130.74 42.371L133.501 44.7514L134.593 45.8277L132.503 55.0968Z" fill="#FFE2E2"/>
<path d="M132.781 54.872C133.615 54.556 134.968 55.0108 136.12 53.1178C136.942 51.7663 137.229 49.4648 137.098 48.8179C136.966 48.1703 136.573 47.7809 136.297 47.5085C136.224 47.4367 136.111 47.4121 135.944 47.4476C135.776 47.4831 135.578 47.5748 135.367 47.7019C134.948 47.9552 134.512 48.3312 134.238 48.6007L134.202 48.5654L132.781 54.872Z" fill="#FFE2E2"/>
<path d="M116.692 54.8082L116.217 52.7001L115.226 49.1185C114.954 48.7632 114.618 48.3821 114.266 48.0685C113.907 47.7477 113.542 47.5076 113.223 47.4278C113.065 47.3885 112.924 47.3895 112.801 47.4336C112.679 47.4773 112.563 47.5673 112.461 47.7252C112.255 48.0446 112.117 48.6281 112.115 49.5932C112.113 50.5583 112.293 51.1953 112.798 52.0596C113.053 52.4966 113.316 52.905 113.57 53.2302C113.827 53.5589 114.063 53.7895 114.261 53.8869L116.692 54.8082Z" fill="url(#paint0_linear_160_93)"/>
<path d="M80.0408 62.8728C77.3005 61.4294 76.2492 58.0378 77.6926 55.2976C79.136 52.5573 82.5276 51.506 85.2679 52.9494L108.128 64.9907C110.868 66.4341 111.92 69.8257 110.476 72.566C109.033 75.3063 105.641 76.3576 102.901 74.9142L80.0408 62.8728Z" fill="#FFE2E2"/>
<path d="M83.8218 51.9608C86.4732 53.5616 87.3248 57.0088 85.724 59.6602C84.1232 62.3116 80.6761 63.1632 78.0247 61.5624L55.906 48.2079C53.2546 46.607 52.4029 43.1599 54.0037 40.5085C55.6046 37.8571 59.0517 37.0055 61.7031 38.6063L83.8218 51.9608Z" fill="#FFE2E2"/>
<rect x="66.458" y="41.2666" width="12" height="2" transform="rotate(121.122 66.458 41.2666)" fill="#8CA5E5"/>
<rect x="64.7458" y="40.2329" width="12" height="2" transform="rotate(121.122 64.7458 40.2329)" fill="#0045F5"/>
<path d="M170.873 62.8721C173.613 61.4286 174.665 58.0369 173.221 55.2967C171.777 52.5566 168.386 51.5055 165.646 52.949L142.786 64.9918C140.046 66.4353 138.995 69.827 140.438 72.5672C141.882 75.3073 145.274 76.3585 148.014 74.9149L170.873 62.8721Z" fill="#FFE2E2"/>
<path d="M167.092 51.9603C164.44 53.5613 163.589 57.0084 165.19 59.6597C166.791 62.311 170.238 63.1625 172.889 61.5615L195.007 48.2056C197.659 46.6046 198.51 43.1575 196.909 40.5062C195.308 37.8549 191.861 37.0034 189.21 38.6044L167.092 51.9603Z" fill="#FFE2E2"/>
<rect width="12" height="2" transform="matrix(0.516917 0.856036 0.856036 -0.516917 184.455 41.2649)" fill="#8CA5E5"/>
<rect width="12" height="2" transform="matrix(0.516917 0.856036 0.856036 -0.516917 186.167 40.2312)" fill="#0045F5"/>
<defs>
<linearGradient id="paint0_linear_160_93" x1="124.5" y1="30" x2="124.5" y2="60.7607" gradientUnits="userSpaceOnUse">
<stop offset="1" stop-color="#FFD6D6"/>
</linearGradient>
</defs>
</svg>
