<svg width="250" height="250" viewBox="0 0 250 250" fill="none" xmlns="http://www.w3.org/2000/svg">
<ellipse cx="123.5" cy="232.5" rx="28.5" ry="1.5" fill="black" fill-opacity="0.1"/>
<path d="M109.122 145.608C109.137 142.511 111.661 140.012 114.758 140.028C117.855 140.043 120.353 142.566 120.338 145.664L120.21 171.501C120.194 174.598 117.671 177.096 114.574 177.081C111.477 177.065 108.978 174.542 108.994 171.445L109.122 145.608Z" fill="#FFE2E2"/>
<path d="M138.265 145.608C138.25 142.511 135.726 140.012 132.629 140.028C129.532 140.043 127.034 142.566 127.049 145.664L127.177 171.501C127.193 174.598 129.716 177.096 132.813 177.081C135.91 177.065 138.408 174.542 138.393 171.445L138.265 145.608Z" fill="#FFE2E2"/>
<path d="M89.3401 99.2507C86.9052 101.165 83.3796 100.742 81.4656 98.3074C79.5516 95.8724 79.9739 92.3468 82.4089 90.4328L102.722 74.4657C105.157 72.5517 108.683 72.974 110.597 75.409C112.511 77.844 112.088 81.3695 109.653 83.2835L89.3401 99.2507Z" fill="#FFE2E2"/>
<path d="M159.722 99.2507C162.157 101.165 165.683 100.742 167.597 98.3074C169.511 95.8724 169.088 92.3468 166.653 90.4328L146.34 74.4657C143.905 72.5517 140.38 72.974 138.466 75.409C136.552 77.844 136.974 81.3695 139.409 83.2835L159.722 99.2507Z" fill="#FFE2E2"/>
<path d="M109.14 173.621C109.141 170.524 111.653 168.014 114.75 168.016C117.847 168.017 120.357 170.529 120.356 173.626L120.34 209.524C120.339 212.621 117.827 215.131 114.73 215.129C111.633 215.128 109.123 212.616 109.124 209.519L109.14 173.621Z" fill="#FFE2E2"/>
<path d="M138.247 173.621C138.246 170.524 135.734 168.014 132.637 168.016C129.54 168.017 127.03 170.529 127.031 173.626L127.047 209.524C127.048 212.621 129.56 215.131 132.657 215.129C135.754 215.128 138.264 212.616 138.263 209.519L138.247 173.621Z" fill="#FFE2E2"/>
<path d="M106.5 122H141.5L142 123.5L142 125H106V123.5L106.5 122Z" fill="#373E4D"/>
<path d="M106 124H142C142 132.284 135.284 139 127 139H121C112.716 139 106 132.284 106 124Z" fill="#081023"/>
<path d="M106 131.5C106 127.358 109.358 124 113.5 124C117.642 124 121 127.358 121 131.5V156H106V131.5Z" fill="#081023"/>
<rect x="106" y="156" width="15" height="2" fill="#373E4C"/>
<path d="M127 131.5C127 127.358 130.358 124 134.5 124C138.642 124 142 127.358 142 131.5V156H127V131.5Z" fill="#081023"/>
<rect x="127" y="156" width="15" height="2" fill="#373E4C"/>
<path d="M107 77H141V97H107V77Z" fill="#FFE2E2"/>
<path d="M107 77.5C107 75.0147 109.015 73 111.5 73H136.5C138.985 73 141 75.0147 141 77.5C141 79.9853 138.985 82 136.5 82H111.5C109.015 82 107 79.9853 107 77.5Z" fill="#FFE2E2"/>
<rect x="101" y="73" width="46" height="11" rx="5.5" fill="#FFE2E2"/>
<rect x="119" y="66" width="10" height="18" fill="#FFE2E2"/>
<path d="M112 71H117.5L120 76H128L130.5 71H135.5L135 82L136.5 88L141.5 92.5V98L141 101L141.5 106L141 113.5L141.5 115V122H106.5L106 115L106.5 110L106 105.5L106.5 92.5L111.5 88L112.5 81.5L112 71Z" fill="#1A3474"/>
<path fill-rule="evenodd" clip-rule="evenodd" d="M134.835 44.4736C134.841 44.4293 134.818 44.3845 134.775 44.3634C134.768 44.3598 134.751 44.3481 134.725 44.3238C134.701 44.301 134.675 44.2722 134.649 44.2409C134.596 44.1762 134.554 44.1122 134.54 44.0809C134.488 43.9628 134.433 43.8768 134.363 43.7763C134.288 43.669 134.212 43.5681 134.138 43.4693C133.993 43.2756 133.854 43.0899 133.739 42.8797L133.707 42.8204C133.555 42.5434 133.399 42.2572 133.211 41.9985C133.098 41.8442 132.918 41.7466 132.739 41.6867C132.626 41.6487 132.507 41.6241 132.396 41.6101C132.388 41.45 132.331 41.3163 132.274 41.1977C132.263 41.1743 132.252 41.1517 132.241 41.1296C132.19 41.0262 132.145 40.9349 132.122 40.8302C132.091 40.6945 132.028 40.5705 131.972 40.4591L131.962 40.4403C131.951 40.4175 131.939 40.3919 131.926 40.3627L131.923 40.3557C131.911 40.3292 131.898 40.3002 131.884 40.2717C131.855 40.2111 131.816 40.1415 131.762 40.0877C131.72 40.0462 131.674 40.022 131.627 40.0092C131.607 39.9878 131.578 39.9745 131.546 39.9745C131.53 39.9745 131.522 39.9706 131.517 39.9672C131.51 39.9625 131.501 39.9531 131.488 39.9332C131.477 39.9154 131.467 39.8956 131.455 39.87L131.448 39.8564C131.433 39.8267 131.415 39.7898 131.39 39.7557C131.19 39.4822 130.911 39.3375 130.637 39.2025C130.152 38.9636 129.63 38.7725 129.077 38.726C128.732 38.6969 128.39 38.6238 128.042 38.5472L127.998 38.5376C127.666 38.4645 127.327 38.3898 126.981 38.3539C126.973 38.353 126.965 38.3531 126.957 38.3541C126.857 38.3331 126.76 38.287 126.647 38.2329L126.644 38.2311C126.534 38.1784 126.409 38.1183 126.273 38.0914C125.879 38.0138 125.475 37.9897 125.076 38.0038C125.032 38.0053 124.986 38.0063 124.937 38.0072C124.775 38.0105 124.593 38.0141 124.432 38.043C124.197 38.0851 123.968 38.0843 123.724 38.0835C123.634 38.0832 123.541 38.0829 123.446 38.0848C123.228 38.0891 123.014 38.1163 122.802 38.1743C122.739 38.1914 122.688 38.2269 122.653 38.2509L122.646 38.2557C122.606 38.2835 122.583 38.297 122.56 38.3022C122.505 38.3146 122.47 38.3648 122.475 38.4183C122.454 38.4148 122.435 38.4121 122.417 38.4097L122.405 38.408C122.358 38.4014 122.323 38.3954 122.292 38.3826C122.269 38.3735 122.246 38.3636 122.222 38.3535C122.086 38.2966 121.928 38.2302 121.757 38.2201C121.616 38.2116 121.47 38.214 121.329 38.2163C121.266 38.2173 121.204 38.2184 121.145 38.2184H120.519C120.448 38.2184 120.396 38.2344 120.35 38.2532C120.331 38.2614 120.316 38.2682 120.303 38.2741C120.283 38.2833 120.267 38.2908 120.242 38.299C120.128 38.3363 120.016 38.3749 119.905 38.4133C119.708 38.4814 119.513 38.5489 119.314 38.6071C119.165 38.6506 119.031 38.7185 118.907 38.7866C118.878 38.8026 118.85 38.8186 118.822 38.8343C118.728 38.8867 118.639 38.9365 118.544 38.9786L118.528 38.9858C118.45 39.0205 118.328 39.0743 118.25 39.1379C118.128 39.2369 117.991 39.3149 117.844 39.3929L117.768 39.4333C117.646 39.4974 117.518 39.5645 117.399 39.6432C117.305 39.7047 117.22 39.7732 117.139 39.8408C117.114 39.8609 117.091 39.8808 117.068 39.9004C117.011 39.9478 116.957 39.9941 116.899 40.0389C116.846 40.0809 116.791 40.1177 116.733 40.1569L116.677 40.1943C116.6 40.247 116.518 40.3055 116.444 40.3789C116.328 40.493 116.221 40.6293 116.118 40.7604C116.082 40.8053 116.047 40.8501 116.013 40.8927C115.873 41.0649 115.733 41.2158 115.567 41.3142C115.532 41.3351 115.512 41.3723 115.513 41.4102L115.442 41.4236C115.318 41.4471 115.185 41.4736 115.058 41.5221C114.808 41.6168 114.58 41.7955 114.392 41.944L114.385 41.9492C114.088 42.1838 113.754 42.4473 113.566 42.8181C113.378 43.1878 113.186 43.5501 112.969 43.9014C112.925 43.9719 112.886 44.0457 112.85 44.1152C112.838 44.1374 112.827 44.1594 112.815 44.1805C112.767 44.2701 112.72 44.3521 112.66 44.4261C112.636 44.4563 112.609 44.4961 112.585 44.5312C112.574 44.5478 112.564 44.5634 112.555 44.5764C112.521 44.6249 112.493 44.6562 112.467 44.6726C112.404 44.7126 112.375 44.7849 112.358 44.8372C112.34 44.896 112.329 44.9642 112.322 45.0291C112.307 45.1596 112.307 45.2947 112.307 45.3527C112.307 45.403 112.341 45.4453 112.388 45.458C112.205 45.6817 112.017 45.9034 111.829 46.1262L111.828 46.1273C111.715 46.2609 111.602 46.3955 111.489 46.5305C111.18 46.9002 110.865 47.2448 110.479 47.5169C110.464 47.5277 110.351 47.6114 110.246 47.6923C110.192 47.733 110.14 47.7739 110.1 47.8054C110.081 47.8209 110.064 47.8352 110.051 47.8464C110.045 47.8516 110.038 47.8584 110.032 47.8655C110.029 47.8681 110.022 47.876 110.016 47.887C110.013 47.8915 110.005 47.9055 110.002 47.9254C109.998 47.9477 109.999 47.995 110.042 48.0288C110.066 48.0477 110.092 48.0565 110.111 48.0611C110.131 48.066 110.151 48.0685 110.17 48.0697C110.207 48.0722 110.248 48.0706 110.286 48.0678C110.324 48.065 110.362 48.0608 110.393 48.0571L110.416 48.0542C110.437 48.0518 110.451 48.0501 110.459 48.0494C110.785 48.0239 111.1 47.9752 111.418 47.9253C111.428 47.9237 111.453 47.9226 111.499 47.9209C111.54 47.9193 111.591 47.9172 111.642 47.9125C111.68 47.909 111.721 47.9037 111.759 47.895C111.758 48.139 111.752 48.3803 111.726 48.6191C111.692 48.9237 111.617 49.2278 111.541 49.5349C111.52 49.6228 111.498 49.711 111.477 49.7995C111.351 50.3315 111.303 50.8912 111.257 51.4252L111.255 51.4482C111.178 52.3506 111.387 53.1668 111.683 53.9932C111.711 54.0716 111.735 54.1487 111.759 54.2283C111.773 54.2747 111.788 54.3226 111.804 54.3714C111.845 54.5005 111.894 54.6331 111.964 54.7598C111.998 54.821 112.047 54.8855 112.091 54.943L112.121 54.9831C112.175 55.0562 112.214 55.1154 112.23 55.1658C112.235 55.1836 112.245 55.199 112.257 55.2112C112.076 55.1688 111.895 55.1678 111.726 55.2282C111.55 55.2912 111.397 55.4168 111.274 55.6081C111.031 55.9848 110.893 56.6281 110.893 57.6156V57.638L110.902 57.6586C110.902 58.4006 111.091 59.2856 111.606 60.1686C111.863 60.6099 112.132 61.0275 112.395 61.3634C112.654 61.6957 112.755 61.9612 113.001 62.0822L115.593 63.0828L115.888 63.6776C117.203 66.9331 118.671 67.0846 122.085 68.5C123.36 68.8434 124.119 68.8516 125.5 68.5C128.985 66.9598 130.109 66.7695 131.599 63.6776L131.724 63.1245C132.577 62.8405 134.071 63.2662 135.31 61.2302C136.149 59.8511 136.461 57.4935 136.315 56.7751C136.17 56.0601 135.735 55.6308 135.457 55.3569L135.454 55.3541C135.438 55.3386 135.422 55.3245 135.405 55.3118C135.495 55.1794 135.591 55.0511 135.689 54.9206L135.76 54.8248C135.886 54.6561 136.012 54.4826 136.122 54.2977C136.27 54.0518 136.255 53.8129 136.241 53.5841C136.238 53.5318 136.235 53.4801 136.234 53.429C136.231 53.3158 136.212 53.2065 136.194 53.1059L136.191 53.0936C136.174 52.9954 136.157 52.9056 136.153 52.8152C136.142 52.6019 136.118 52.3918 136.08 52.1813C136.021 51.8598 136.015 51.5247 136.015 51.1874V50.036L136.015 49.9572C136.015 49.6858 136.015 49.3999 135.97 49.1212C135.954 49.0207 135.95 48.9188 135.946 48.8094L135.946 48.8082C135.941 48.7006 135.937 48.5855 135.917 48.4704C135.896 48.3482 135.899 48.2242 135.902 48.0905C135.904 48.04 135.905 47.9882 135.905 47.9345C135.905 47.8915 135.9 47.8497 135.895 47.8124L135.889 47.7726C135.885 47.7501 135.882 47.7297 135.88 47.7078C135.872 47.6424 135.875 47.5987 135.893 47.563C135.913 47.5242 135.907 47.4793 135.882 47.4471C135.933 47.4555 135.987 47.4613 136.041 47.4613C136.101 47.4613 136.158 47.4536 136.207 47.447L136.209 47.4468C136.261 47.4398 136.303 47.4343 136.344 47.4343C136.39 47.4343 136.555 47.4226 136.695 47.4011C136.764 47.3906 136.837 47.3763 136.889 47.3561C136.902 47.3508 136.918 47.3439 136.932 47.3349C136.945 47.3265 136.966 47.3117 136.981 47.2876C136.998 47.2594 137.007 47.2214 136.994 47.1821C136.983 47.1485 136.96 47.1273 136.945 47.1157C136.877 47.064 136.797 47.0371 136.737 47.017L136.713 47.009C136.645 46.9854 136.601 46.9652 136.568 46.9285C136.512 46.8654 136.441 46.8142 136.377 46.7708L136.332 46.7407C136.282 46.7079 136.239 46.6788 136.2 46.6469C136.119 46.5795 136.053 46.5026 135.985 46.4179L135.946 46.3685C135.891 46.299 135.832 46.2243 135.765 46.1542C135.691 46.0772 135.626 45.9859 135.559 45.8865L135.523 45.832C135.468 45.7503 135.411 45.6643 135.349 45.5856C135.301 45.5249 135.249 45.4656 135.196 45.4076C135.222 45.4066 135.249 45.396 135.27 45.3757C135.313 45.3331 135.313 45.2639 135.27 45.2213C135.264 45.216 135.259 45.2073 135.245 45.1751L135.243 45.1713C135.231 45.1443 135.211 45.0997 135.174 45.0614L135.155 45.0412C135.124 45.009 135.111 44.9957 135.103 44.976C135.08 44.9111 135.029 44.7845 134.966 44.6675C134.935 44.6092 134.899 44.5499 134.859 44.501C134.852 44.4921 134.844 44.4828 134.835 44.4736ZM126.229 38.3056C125.856 38.2319 125.469 38.2085 125.084 38.2221C125.032 38.2239 124.98 38.225 124.929 38.226C124.77 38.2293 124.613 38.2324 124.471 38.2579C124.215 38.3039 123.956 38.303 123.706 38.3021C123.62 38.3018 123.534 38.3015 123.45 38.3032C123.249 38.3072 123.053 38.3323 122.861 38.3848C122.838 38.3912 122.815 38.4058 122.773 38.4351L122.771 38.4365C122.738 38.4586 122.692 38.4902 122.635 38.5083C122.643 38.5302 122.643 38.5546 122.635 38.5783C122.616 38.6355 122.553 38.6664 122.495 38.6474C122.463 38.6367 122.429 38.632 122.383 38.6256L122.374 38.6243C122.327 38.6177 122.268 38.6089 122.208 38.5848C122.18 38.5736 122.153 38.5624 122.127 38.5516C121.991 38.4948 121.873 38.4458 121.744 38.4381C121.611 38.4302 121.48 38.4324 121.344 38.4346C121.279 38.4357 121.212 38.4368 121.145 38.4368H120.519C120.486 38.4368 120.463 38.4433 120.436 38.4546C120.43 38.4571 120.422 38.4609 120.412 38.4654C120.385 38.4774 120.348 38.4944 120.312 38.5063C120.205 38.5413 120.097 38.5788 119.987 38.6168C119.786 38.6862 119.581 38.757 119.376 38.8166C119.252 38.8529 119.136 38.9109 119.015 38.9774C118.989 38.9916 118.963 39.0063 118.936 39.0213C118.841 39.0746 118.74 39.131 118.635 39.1777L118.63 39.1803C118.542 39.2193 118.445 39.2623 118.391 39.3065C118.251 39.4199 118.098 39.5062 117.949 39.5851L117.869 39.6277C117.747 39.6917 117.631 39.7528 117.522 39.825C117.439 39.8794 117.361 39.9414 117.282 40.0076C117.26 40.0259 117.237 40.0448 117.215 40.0638C117.157 40.1124 117.098 40.1625 117.037 40.2099C116.977 40.2575 116.913 40.3004 116.853 40.3404L116.803 40.3741C116.728 40.4251 116.66 40.4744 116.601 40.5334C116.496 40.6369 116.401 40.7571 116.301 40.8847C116.263 40.9319 116.225 40.9803 116.186 41.0292C116.108 41.1252 116.024 41.2219 115.932 41.3093C116.141 41.2704 116.384 41.2818 116.576 41.3448C116.639 41.3654 116.702 41.3857 116.765 41.4061C117.094 41.5116 117.427 41.6187 117.748 41.7873C118.339 42.0974 118.879 42.4956 119.382 42.9206C119.448 42.9759 119.519 43.0318 119.594 43.0909L119.652 43.137C119.748 43.2125 119.848 43.2929 119.942 43.3787C120.13 43.5493 120.305 43.7498 120.388 43.9942C120.407 44.0515 120.376 44.1133 120.318 44.1324C120.26 44.1515 120.197 44.1205 120.178 44.0633C120.113 43.8711 119.97 43.7011 119.792 43.5393C119.704 43.4589 119.609 43.3826 119.514 43.3075L119.457 43.263C119.382 43.2036 119.307 43.1446 119.238 43.0864C118.742 42.6674 118.216 42.28 117.644 41.9801C117.342 41.8213 117.029 41.7209 116.701 41.6154C116.637 41.5946 116.571 41.5736 116.506 41.552C116.317 41.4899 116.054 41.4898 115.866 41.5507C115.749 41.5882 115.629 41.6109 115.516 41.6321L115.484 41.6381C115.359 41.6617 115.244 41.6853 115.137 41.726C114.925 41.8064 114.723 41.9622 114.53 42.1146C114.224 42.3563 113.928 42.5925 113.764 42.9158C113.575 43.2875 113.38 43.6561 113.158 44.0151C113.119 44.0785 113.085 44.1427 113.049 44.2104C113.037 44.234 113.024 44.258 113.011 44.2825C112.962 44.3751 112.906 44.4717 112.833 44.5621C112.814 44.5854 112.798 44.6095 112.779 44.6382C112.767 44.6568 112.753 44.6774 112.737 44.7009C112.701 44.7516 112.654 44.8129 112.59 44.8543L112.589 44.8549L112.588 44.856L112.59 44.8543L112.589 44.8549C112.587 44.8587 112.579 44.8719 112.57 44.9014C112.558 44.9412 112.548 44.9939 112.542 45.0529C112.533 45.1354 112.53 45.2213 112.529 45.2853C112.803 44.9459 113.067 44.6003 113.312 44.2383C113.346 44.1881 113.415 44.1745 113.466 44.208C113.517 44.2414 113.53 44.3092 113.496 44.3594C113.041 45.0335 112.517 45.6527 111.997 46.2691C111.884 46.4024 111.771 46.536 111.66 46.6695C111.348 47.0422 111.019 47.4052 110.608 47.6946L110.606 47.6963L110.6 47.7001L110.583 47.7126L110.53 47.7522C110.499 47.7757 110.461 47.804 110.423 47.8335L110.442 47.8316C110.758 47.8069 111.065 47.7596 111.383 47.7096C111.408 47.7057 111.446 47.7042 111.481 47.7029L111.49 47.7026C111.532 47.701 111.577 47.6991 111.621 47.695C111.667 47.6908 111.704 47.6847 111.731 47.6765C111.741 47.6736 111.747 47.6711 111.75 47.6695C111.753 47.6653 111.756 47.6615 111.759 47.6578L111.759 47.6367C111.759 47.578 111.759 47.5191 111.759 47.4601C111.759 47.3997 111.808 47.3508 111.87 47.3508C111.931 47.3508 111.98 47.3997 111.98 47.4601C111.98 47.5176 111.981 47.5754 111.981 47.6336C111.982 47.9655 111.983 48.3067 111.946 48.6427C111.911 48.963 111.831 49.2858 111.755 49.5951C111.733 49.6809 111.712 49.7656 111.693 49.849C111.571 50.3656 111.524 50.9118 111.477 51.4509L111.476 51.4667C111.402 52.3234 111.6 53.1051 111.892 53.9204C111.921 54.0028 111.948 54.0892 111.973 54.1727C111.987 54.2181 112.001 54.2627 112.015 54.3052C112.055 54.4297 112.099 54.5467 112.159 54.6549C112.184 54.7013 112.221 54.7493 112.263 54.8054L112.299 54.8539C112.352 54.925 112.413 55.0115 112.441 55.1015C112.459 55.1592 112.426 55.2203 112.368 55.2381L112.361 55.2398C112.71 55.3498 113.075 55.6033 113.415 55.9066C113.765 56.2189 114.098 56.5932 114.37 56.9445L113.652 53.758L114.776 52.6499L116.765 50.371L118.948 48.7587L128.468 48.6191L129.947 50.2447L132.711 52.6499L133.835 53.758L133.269 56.2682C133.542 56.0188 133.9 55.7279 134.251 55.5156C134.47 55.3834 134.694 55.2771 134.897 55.2341C135 55.2122 135.104 55.2057 135.2 55.2237C135.202 55.2184 135.205 55.2133 135.209 55.2083C135.306 55.0648 135.41 54.9258 135.512 54.7893L135.582 54.6955C135.707 54.5277 135.827 54.3616 135.932 54.1865C136.042 54.0029 136.033 53.8426 136.021 53.6222C136.017 53.5642 136.014 53.5019 136.012 53.434C136.01 53.3398 135.994 53.2461 135.976 53.1443L135.973 53.1278C135.955 53.0331 135.937 52.9307 135.932 52.8259C135.922 52.622 135.898 52.4212 135.862 52.2199C135.799 51.8775 135.793 51.5252 135.793 51.1874L135.793 49.9591C135.793 49.6845 135.794 49.4161 135.752 49.1555C135.733 49.0422 135.729 48.9293 135.725 48.8238L135.724 48.817C135.72 48.7074 135.715 48.6058 135.699 48.5064C135.674 48.362 135.678 48.2073 135.681 48.0674C135.682 48.0212 135.683 47.9766 135.683 47.9345C135.683 47.9071 135.68 47.8774 135.675 47.8429L135.67 47.8105C135.667 47.7856 135.662 47.758 135.659 47.7324C135.651 47.6553 135.647 47.5591 135.695 47.4653C135.705 47.4449 135.721 47.429 135.74 47.4187L135.696 47.4084L135.689 47.4069C135.653 47.3985 135.619 47.3906 135.586 47.384C135.574 47.3815 135.559 47.3788 135.542 47.3757C135.478 47.3642 135.387 47.3478 135.31 47.3201C135.218 47.2871 135.08 47.2141 135.08 47.0548C135.08 46.9945 135.13 46.9456 135.191 46.9456C135.252 46.9456 135.302 46.9945 135.302 47.0548C135.302 47.0612 135.304 47.0853 135.386 47.115C135.443 47.1355 135.506 47.147 135.568 47.1582C135.589 47.1621 135.61 47.1659 135.631 47.17C135.667 47.1774 135.704 47.1859 135.74 47.1942L135.746 47.1956C135.78 47.2036 135.813 47.2113 135.846 47.2182C135.917 47.2329 135.981 47.2428 136.041 47.2428C136.084 47.2428 136.128 47.2372 136.179 47.2303L136.183 47.2297C136.231 47.2233 136.287 47.2158 136.344 47.2158C136.37 47.2158 136.476 47.209 136.587 47.1955C136.526 47.1713 136.459 47.1359 136.402 47.0731C136.365 47.0318 136.314 46.9936 136.251 46.9508L136.213 46.9254C136.162 46.8916 136.106 46.8542 136.058 46.8144C135.958 46.7319 135.881 46.6404 135.811 46.553L135.768 46.4988C135.714 46.4301 135.663 46.3659 135.604 46.3043C135.516 46.2126 135.442 46.1078 135.375 46.0073L135.336 45.949C135.282 45.8678 135.23 45.7911 135.174 45.7201C135.073 45.5926 134.958 45.4748 134.839 45.3537C134.793 45.3069 134.747 45.2597 134.701 45.2111L134.653 45.1604C134.478 44.9758 134.322 44.8117 134.118 44.6743C134.067 44.6403 134.024 44.598 133.988 44.5638L133.975 44.5505C133.934 44.5113 133.902 44.483 133.866 44.4641C133.774 44.4155 133.673 44.3864 133.561 44.3542C133.532 44.3459 133.502 44.3374 133.472 44.3283C133.161 44.2349 132.871 44.1649 132.56 44.1649C132.499 44.1649 132.45 44.116 132.45 44.0557C132.45 43.9953 132.499 43.9464 132.56 43.9464C132.905 43.9464 133.22 44.0243 133.537 44.1193C133.561 44.1265 133.586 44.1338 133.612 44.1413C133.726 44.1739 133.856 44.211 133.971 44.2716C134.037 44.3065 134.088 44.3546 134.129 44.3941L134.144 44.408C134.181 44.4438 134.21 44.4716 134.243 44.4938C134.468 44.6455 134.64 44.8271 134.813 45.0092L134.863 45.0617C134.904 45.105 134.947 45.1492 134.991 45.1941C135.003 45.206 135.014 45.218 135.026 45.23C135.021 45.2213 135.018 45.2159 135.013 45.2114L135.001 45.1991C134.971 45.1689 134.92 45.118 134.895 45.0506C134.873 44.9902 134.827 44.8742 134.771 44.7698C134.742 44.7174 134.714 44.6714 134.686 44.6376C134.672 44.6207 134.661 44.6088 134.651 44.601C134.643 44.5947 134.638 44.5925 134.638 44.5925C134.585 44.5766 134.553 44.5242 134.561 44.4711C134.532 44.4428 134.504 44.4107 134.477 44.3784C134.42 44.3083 134.363 44.2266 134.338 44.1688C134.293 44.0685 134.247 43.9952 134.18 43.9C134.115 43.8062 134.044 43.7119 133.973 43.6161C133.822 43.4147 133.666 43.2068 133.544 42.9833L133.513 42.9268C133.36 42.6469 133.211 42.3727 133.031 42.1262C132.956 42.024 132.826 41.9464 132.668 41.8935C132.512 41.8412 132.341 41.8175 132.201 41.8143C132.14 41.8129 132.092 41.7628 132.093 41.7025C132.094 41.6537 132.128 41.6131 132.173 41.6001C132.164 41.4933 132.125 41.3969 132.074 41.2911C132.065 41.2718 132.055 41.252 132.045 41.2316C131.994 41.1277 131.935 41.0096 131.906 40.8776C131.881 40.769 131.829 40.667 131.769 40.5487L131.764 40.538C131.75 40.5098 131.736 40.4794 131.723 40.4508L131.72 40.4442C131.708 40.4171 131.697 40.3912 131.684 40.366C131.657 40.31 131.632 40.2685 131.605 40.2422C131.581 40.218 131.55 40.2098 131.494 40.2185C131.464 40.223 131.433 40.2314 131.396 40.242L131.378 40.2473C131.348 40.2561 131.315 40.266 131.283 40.2729L131.273 40.2788C131.264 40.2847 131.253 40.2932 131.238 40.3057L131.23 40.3125C131.205 40.3339 131.164 40.37 131.116 40.3891C131.082 40.4029 131.051 40.4149 131.021 40.4261C130.905 40.4705 130.819 40.5029 130.733 40.5826C130.552 40.7484 130.39 40.9359 130.241 41.1338C130.152 41.2507 130.057 41.3561 129.963 41.4574L129.901 41.5236C129.827 41.6021 129.755 41.679 129.685 41.7606C129.493 41.9847 129.291 42.1983 129.09 42.4105C128.996 42.5096 128.902 42.6086 128.81 42.7079C128.667 42.8625 128.535 43.0273 128.401 43.1957L128.389 43.2102C128.26 43.373 128.128 43.5391 127.984 43.6965C127.943 43.7414 127.873 43.745 127.827 43.7046C127.782 43.6643 127.778 43.5952 127.819 43.5504C127.958 43.3985 128.086 43.2375 128.217 43.0731L128.227 43.0608C128.36 42.8931 128.497 42.7221 128.646 42.5606C128.742 42.4573 128.838 42.3565 128.932 42.2564C129.131 42.0464 129.327 41.8395 129.516 41.6195C129.589 41.5339 129.666 41.4524 129.74 41.3733L129.8 41.3096C129.893 41.2095 129.982 41.1108 130.063 41.0034C130.218 40.798 130.389 40.5998 130.582 40.4227C130.703 40.3117 130.835 40.262 130.955 40.2166C130.982 40.2067 131.007 40.197 131.032 40.1869C131.043 40.1825 131.057 40.1713 131.094 40.1401L131.096 40.1382C131.123 40.1155 131.172 40.0735 131.235 40.0598C131.254 40.0556 131.274 40.05 131.297 40.0432C131.281 40.0166 131.266 39.9877 131.255 39.964L131.249 39.9524C131.234 39.9229 131.223 39.9009 131.21 39.8834C131.046 39.6585 130.814 39.534 130.538 39.3978C130.066 39.1655 129.573 38.9869 129.058 38.9436C128.696 38.9132 128.341 38.8367 127.994 38.7604L127.954 38.7517C127.619 38.6779 127.291 38.6057 126.958 38.5712L126.957 38.571C126.945 38.5725 126.933 38.5722 126.921 38.5698C126.788 38.5437 126.666 38.4848 126.558 38.4328L126.55 38.4292C126.435 38.3739 126.335 38.3264 126.229 38.3056ZM131.503 63.0968L133.593 53.8277L132.501 52.7514L129.74 50.371L128.401 48.8238L119.015 48.9634L116.972 50.4973L114.987 52.7514L113.895 53.8277L115.432 60.6477L116.009 63.2088L116.09 63.5681C117.446 66.7782 118.83 66.844 122.177 68.2816C123.596 68.6302 124.227 68.4929 125.408 68.2816C128.549 66.8904 129.88 66.9208 131.397 63.5681L131.503 63.0968ZM135.12 61.1178C133.968 63.0108 132.615 62.556 131.781 62.872L133.202 56.5654L133.238 56.6007C133.512 56.3312 133.948 55.9552 134.367 55.7019C134.578 55.5748 134.776 55.4831 134.944 55.4476C135.111 55.4121 135.224 55.4367 135.297 55.5085C135.574 55.7809 135.966 56.1703 136.098 56.8179C136.229 57.4648 135.942 59.7663 135.12 61.1178ZM115.217 60.7001L115.692 62.8082L113.261 61.8869C113.063 61.7895 112.827 61.5589 112.57 61.2302C112.316 60.905 112.053 60.4966 111.798 60.0596C111.294 59.1953 111.113 58.5583 111.115 57.5932C111.117 56.6281 111.255 56.0446 111.461 55.7252C111.563 55.5673 111.679 55.4773 111.801 55.4336C111.925 55.3895 112.066 55.3885 112.223 55.4278C112.543 55.5076 112.907 55.7477 113.266 56.0685C113.618 56.3821 113.954 56.7632 114.226 57.1185L115.217 60.7001Z" fill="black"/>
<path d="M125.084 38.2221C125.469 38.2085 125.856 38.2319 126.229 38.3056C126.335 38.3264 126.435 38.3739 126.55 38.4292L126.558 38.4328C126.666 38.4848 126.788 38.5437 126.921 38.5698C126.933 38.5722 126.945 38.5725 126.957 38.571L126.958 38.5712C127.291 38.6057 127.619 38.6779 127.954 38.7517L127.994 38.7604C128.341 38.8367 128.696 38.9132 129.058 38.9436C129.573 38.9869 130.066 39.1655 130.538 39.3978C130.814 39.534 131.046 39.6585 131.21 39.8834C131.223 39.9009 131.234 39.9229 131.249 39.9524L131.255 39.964C131.266 39.9877 131.281 40.0166 131.297 40.0432C131.274 40.05 131.254 40.0556 131.235 40.0598C131.172 40.0735 131.123 40.1155 131.096 40.1382L131.094 40.1401C131.057 40.1713 131.043 40.1825 131.032 40.1869C131.007 40.197 130.982 40.2067 130.955 40.2166C130.835 40.262 130.703 40.3117 130.582 40.4227C130.389 40.5998 130.218 40.798 130.063 41.0034C129.982 41.1108 129.893 41.2095 129.8 41.3096L129.74 41.3733C129.666 41.4524 129.589 41.5339 129.516 41.6195C129.327 41.8395 129.131 42.0464 128.932 42.2564C128.838 42.3565 128.742 42.4573 128.646 42.5606C128.497 42.7221 128.36 42.8931 128.227 43.0608L128.217 43.0731C128.086 43.2375 127.958 43.3985 127.819 43.5504C127.778 43.5952 127.782 43.6643 127.827 43.7046C127.873 43.745 127.943 43.7414 127.984 43.6965C128.128 43.5391 128.26 43.373 128.389 43.2102L128.401 43.1957C128.535 43.0273 128.667 42.8625 128.81 42.7079C128.902 42.6086 128.996 42.5096 129.09 42.4105C129.291 42.1983 129.493 41.9847 129.685 41.7606C129.755 41.679 129.827 41.6021 129.901 41.5236L129.963 41.4574C130.057 41.3561 130.152 41.2507 130.241 41.1338C130.39 40.9359 130.552 40.7484 130.733 40.5826C130.819 40.5029 130.905 40.4705 131.021 40.4261C131.051 40.4149 131.082 40.4029 131.116 40.3891C131.164 40.37 131.205 40.3339 131.23 40.3125L131.238 40.3057C131.253 40.2932 131.264 40.2847 131.273 40.2788L131.283 40.2729C131.315 40.266 131.348 40.2561 131.378 40.2473L131.396 40.242C131.433 40.2314 131.464 40.223 131.494 40.2185C131.55 40.2098 131.581 40.218 131.605 40.2422C131.632 40.2685 131.657 40.31 131.684 40.366C131.697 40.3912 131.708 40.4171 131.72 40.4442L131.723 40.4508C131.736 40.4794 131.75 40.5098 131.764 40.538L131.769 40.5487C131.829 40.667 131.881 40.769 131.906 40.8776C131.935 41.0096 131.994 41.1277 132.045 41.2316C132.055 41.252 132.065 41.2718 132.074 41.2911C132.125 41.3969 132.164 41.4933 132.173 41.6001C132.128 41.6131 132.094 41.6537 132.093 41.7025C132.092 41.7628 132.14 41.8129 132.201 41.8143C132.341 41.8175 132.512 41.8412 132.668 41.8935C132.826 41.9464 132.956 42.024 133.031 42.1262C133.211 42.3727 133.36 42.6469 133.513 42.9268L133.544 42.9833C133.666 43.2068 133.822 43.4147 133.973 43.6161C134.044 43.7119 134.115 43.8062 134.18 43.9C134.247 43.9952 134.293 44.0685 134.338 44.1688C134.363 44.2266 134.42 44.3083 134.477 44.3784C134.504 44.4107 134.532 44.4428 134.561 44.4711C134.553 44.5242 134.585 44.5766 134.638 44.5925C134.638 44.5925 134.643 44.5947 134.651 44.601C134.661 44.6088 134.672 44.6207 134.686 44.6376C134.714 44.6714 134.742 44.7174 134.771 44.7698C134.827 44.8742 134.873 44.9902 134.895 45.0506C134.92 45.118 134.971 45.1689 135.001 45.1991L135.013 45.2114C135.018 45.2159 135.021 45.2213 135.026 45.23L134.991 45.1941C134.947 45.1492 134.904 45.105 134.863 45.0617L134.813 45.0092C134.64 44.8271 134.468 44.6455 134.243 44.4938C134.21 44.4716 134.181 44.4438 134.144 44.408L134.129 44.3941C134.088 44.3546 134.037 44.3065 133.971 44.2716C133.856 44.211 133.726 44.1739 133.612 44.1413C133.586 44.1338 133.561 44.1265 133.537 44.1193C133.22 44.0243 132.905 43.9464 132.56 43.9464C132.499 43.9464 132.45 43.9953 132.45 44.0557C132.45 44.116 132.499 44.1649 132.56 44.1649C132.871 44.1649 133.161 44.2349 133.472 44.3283C133.502 44.3374 133.532 44.3459 133.561 44.3542C133.673 44.3864 133.774 44.4155 133.866 44.4641C133.902 44.483 133.934 44.5113 133.975 44.5505L133.988 44.5638C134.024 44.598 134.067 44.6403 134.118 44.6743C134.322 44.8117 134.478 44.9758 134.653 45.1604L134.701 45.2111C134.747 45.2597 134.793 45.3069 134.839 45.3537C134.958 45.4748 135.073 45.5926 135.174 45.7201C135.23 45.7911 135.282 45.8678 135.336 45.949L135.375 46.0073C135.442 46.1078 135.516 46.2126 135.604 46.3043C135.663 46.3659 135.714 46.4301 135.768 46.4988L135.811 46.553C135.881 46.6404 135.958 46.7319 136.058 46.8144C136.106 46.8542 136.162 46.8916 136.213 46.9254L136.251 46.9508C136.314 46.9936 136.365 47.0318 136.402 47.0731C136.459 47.1359 136.526 47.1713 136.587 47.1955C136.476 47.209 136.37 47.2158 136.344 47.2158C136.287 47.2158 136.231 47.2233 136.183 47.2297L136.179 47.2303C136.128 47.2372 136.084 47.2428 136.041 47.2428C135.981 47.2428 135.917 47.2329 135.846 47.2182C135.813 47.2113 135.78 47.2036 135.746 47.1956L135.74 47.1942C135.704 47.1859 135.667 47.1774 135.631 47.17C135.61 47.1659 135.589 47.1621 135.568 47.1582C135.506 47.147 135.443 47.1355 135.386 47.115C135.304 47.0853 135.302 47.0612 135.302 47.0548C135.302 46.9945 135.252 46.9456 135.191 46.9456C135.13 46.9456 135.08 46.9945 135.08 47.0548C135.08 47.2141 135.218 47.2871 135.31 47.3201C135.387 47.3478 135.478 47.3642 135.542 47.3757C135.559 47.3788 135.574 47.3815 135.586 47.384C135.619 47.3906 135.653 47.3985 135.689 47.4069L135.696 47.4084L135.74 47.4187C135.721 47.429 135.705 47.4449 135.695 47.4653C135.647 47.5591 135.651 47.6553 135.659 47.7324C135.662 47.758 135.667 47.7856 135.67 47.8105L135.675 47.8429C135.68 47.8774 135.683 47.9071 135.683 47.9345C135.683 47.9766 135.682 48.0212 135.681 48.0674C135.678 48.2073 135.674 48.362 135.699 48.5064C135.715 48.6058 135.72 48.7074 135.724 48.817L135.725 48.8238C135.729 48.9293 135.733 49.0422 135.752 49.1555C135.794 49.4161 135.793 49.6845 135.793 49.9591L135.793 51.1874C135.793 51.5252 135.799 51.8775 135.862 52.2199C135.898 52.4212 135.922 52.622 135.932 52.8259C135.937 52.9307 135.955 53.0331 135.973 53.1278L135.976 53.1443C135.994 53.2461 136.01 53.3398 136.012 53.434C136.014 53.5019 136.017 53.5642 136.021 53.6222C136.033 53.8426 136.042 54.0029 135.932 54.1865C135.827 54.3616 135.707 54.5277 135.582 54.6955L135.512 54.7893C135.41 54.9258 135.306 55.0648 135.209 55.2083C135.205 55.2133 135.202 55.2184 135.2 55.2237C135.104 55.2057 135 55.2122 134.897 55.2341C134.694 55.2771 134.47 55.3834 134.251 55.5156C133.9 55.7279 133.542 56.0188 133.269 56.2682L133.835 53.758L132.711 52.6499L129.947 50.2447L128.468 48.6191L118.948 48.7587L116.765 50.371L114.776 52.6499L113.652 53.758L114.37 56.9445C114.098 56.5932 113.765 56.2189 113.415 55.9066C113.075 55.6033 112.71 55.3498 112.361 55.2398L112.368 55.2381C112.426 55.2203 112.459 55.1592 112.441 55.1015C112.413 55.0115 112.352 54.925 112.299 54.8539L112.263 54.8054C112.221 54.7493 112.184 54.7013 112.159 54.6549C112.099 54.5467 112.055 54.4297 112.015 54.3052C112.001 54.2627 111.987 54.2181 111.973 54.1727C111.948 54.0892 111.921 54.0028 111.892 53.9204C111.6 53.1051 111.402 52.3234 111.476 51.4667L111.477 51.4509C111.524 50.9118 111.571 50.3656 111.693 49.849C111.712 49.7656 111.733 49.6809 111.755 49.5951C111.831 49.2858 111.911 48.963 111.946 48.6427C111.983 48.3067 111.982 47.9655 111.981 47.6336C111.981 47.5754 111.98 47.5176 111.98 47.4601C111.98 47.3997 111.931 47.3508 111.87 47.3508C111.808 47.3508 111.759 47.3997 111.759 47.4601C111.759 47.5191 111.759 47.578 111.759 47.6367L111.759 47.6578C111.756 47.6615 111.753 47.6653 111.75 47.6695C111.747 47.6711 111.741 47.6736 111.731 47.6765C111.704 47.6847 111.667 47.6908 111.621 47.695C111.577 47.6991 111.532 47.701 111.49 47.7026L111.481 47.7029C111.446 47.7042 111.408 47.7057 111.383 47.7096C111.065 47.7596 110.758 47.8069 110.442 47.8316L110.423 47.8335C110.461 47.804 110.499 47.7757 110.53 47.7522L110.583 47.7126L110.6 47.7001L110.606 47.6963L110.608 47.6946C111.019 47.4052 111.348 47.0422 111.66 46.6695C111.771 46.536 111.884 46.4024 111.997 46.2691C112.517 45.6527 113.041 45.0335 113.496 44.3594C113.53 44.3092 113.517 44.2414 113.466 44.208C113.415 44.1745 113.346 44.1881 113.312 44.2383C113.067 44.6003 112.803 44.9459 112.529 45.2853C112.53 45.2213 112.533 45.1354 112.542 45.0529C112.548 44.9939 112.558 44.9412 112.57 44.9014C112.579 44.8719 112.587 44.8587 112.589 44.8549L112.59 44.8543C112.654 44.8129 112.701 44.7516 112.737 44.7009C112.753 44.6774 112.767 44.6568 112.779 44.6382C112.798 44.6095 112.814 44.5854 112.833 44.5621C112.906 44.4717 112.962 44.3751 113.011 44.2825C113.024 44.258 113.037 44.234 113.049 44.2104C113.085 44.1427 113.119 44.0785 113.158 44.0151C113.38 43.6561 113.575 43.2875 113.764 42.9158C113.928 42.5925 114.224 42.3563 114.53 42.1146C114.723 41.9622 114.925 41.8064 115.137 41.726C115.244 41.6853 115.359 41.6617 115.484 41.6381L115.516 41.6321C115.629 41.6109 115.749 41.5882 115.866 41.5507C116.054 41.4898 116.317 41.4899 116.506 41.552C116.571 41.5736 116.637 41.5946 116.701 41.6154C117.029 41.7209 117.342 41.8213 117.644 41.9801C118.216 42.28 118.742 42.6674 119.238 43.0864C119.307 43.1446 119.382 43.2036 119.457 43.263L119.514 43.3075C119.609 43.3826 119.704 43.4589 119.792 43.5393C119.97 43.7011 120.113 43.8711 120.178 44.0633C120.197 44.1205 120.26 44.1515 120.318 44.1324C120.376 44.1133 120.407 44.0515 120.388 43.9942C120.305 43.7498 120.13 43.5493 119.942 43.3787C119.848 43.2929 119.748 43.2125 119.652 43.137L119.594 43.0909C119.519 43.0318 119.448 42.9759 119.382 42.9206C118.879 42.4956 118.339 42.0974 117.748 41.7873C117.427 41.6187 117.094 41.5116 116.765 41.4061C116.702 41.3857 116.639 41.3654 116.576 41.3448C116.384 41.2818 116.141 41.2704 115.932 41.3093C116.024 41.2219 116.108 41.1252 116.186 41.0292C116.225 40.9803 116.263 40.9319 116.301 40.8847C116.401 40.7571 116.496 40.6369 116.601 40.5334C116.66 40.4744 116.728 40.4251 116.803 40.3741L116.853 40.3404C116.913 40.3004 116.977 40.2575 117.037 40.2099C117.098 40.1625 117.157 40.1124 117.215 40.0638C117.237 40.0448 117.26 40.0259 117.282 40.0076C117.361 39.9414 117.439 39.8794 117.522 39.825C117.631 39.7528 117.747 39.6917 117.869 39.6277L117.949 39.5851C118.098 39.5062 118.251 39.4199 118.391 39.3065C118.445 39.2623 118.542 39.2193 118.63 39.1803L118.635 39.1777C118.74 39.131 118.841 39.0746 118.936 39.0213C118.963 39.0063 118.989 38.9916 119.015 38.9774C119.136 38.9109 119.252 38.8529 119.376 38.8166C119.581 38.757 119.786 38.6862 119.987 38.6168C120.097 38.5788 120.205 38.5413 120.312 38.5063C120.348 38.4944 120.385 38.4774 120.412 38.4654C120.422 38.4609 120.43 38.4571 120.436 38.4546C120.463 38.4433 120.486 38.4368 120.519 38.4368H121.145C121.212 38.4368 121.279 38.4357 121.344 38.4346C121.48 38.4324 121.611 38.4302 121.744 38.4381C121.873 38.4458 121.991 38.4948 122.127 38.5516C122.153 38.5624 122.18 38.5736 122.208 38.5848C122.268 38.6089 122.327 38.6177 122.374 38.6243L122.383 38.6256C122.429 38.632 122.463 38.6367 122.495 38.6474C122.553 38.6664 122.616 38.6355 122.635 38.5783C122.643 38.5546 122.643 38.5302 122.635 38.5083C122.692 38.4902 122.738 38.4586 122.771 38.4365L122.773 38.4351C122.815 38.4058 122.838 38.3912 122.861 38.3848C123.053 38.3323 123.249 38.3072 123.45 38.3032C123.534 38.3015 123.62 38.3018 123.706 38.3021C123.956 38.303 124.215 38.3039 124.471 38.2579C124.613 38.2324 124.77 38.2293 124.929 38.226C124.98 38.225 125.032 38.2239 125.084 38.2221Z" fill="black"/>
<path d="M131.503 63.0968L131.397 63.5681C129.88 66.9208 128.549 66.8904 125.408 68.2816C124.227 68.4929 123.596 68.6302 122.177 68.2816C118.83 66.844 117.446 66.7782 116.09 63.5681L116.009 63.2088L115.432 60.6477L113.895 53.8277L114.987 52.7514L116.972 50.4973L119.015 48.9634L128.401 48.8238L129.74 50.371L132.501 52.7514L133.593 53.8277L131.503 63.0968Z" fill="#FFE2E2"/>
<path d="M131.781 62.872C132.615 62.556 133.968 63.0108 135.12 61.1178C135.942 59.7663 136.229 57.4648 136.098 56.8179C135.966 56.1703 135.574 55.7809 135.297 55.5085C135.224 55.4367 135.111 55.4121 134.944 55.4476C134.776 55.4831 134.578 55.5748 134.367 55.7019C133.948 55.9552 133.512 56.3312 133.238 56.6007L133.202 56.5654L131.781 62.872Z" fill="#FFE2E2"/>
<path d="M115.692 62.8082L115.217 60.7001L114.226 57.1185C113.954 56.7632 113.618 56.3821 113.266 56.0685C112.907 55.7477 112.543 55.5076 112.223 55.4278C112.066 55.3885 111.925 55.3895 111.801 55.4336C111.679 55.4773 111.563 55.5673 111.461 55.7252C111.255 56.0446 111.117 56.6281 111.115 57.5932C111.113 58.5583 111.294 59.1953 111.798 60.0596C112.053 60.4966 112.316 60.905 112.57 61.2302C112.827 61.5589 113.063 61.7895 113.261 61.8869L115.692 62.8082Z" fill="url(#paint0_linear_160_140)"/>
<path d="M80.9167 91.3504C83.4592 89.5818 86.9541 90.2091 88.7228 92.7516C90.4914 95.2941 89.8641 98.789 87.3216 100.558L66.1114 115.313C63.5689 117.081 60.074 116.454 58.3053 113.911C56.5366 111.369 57.1639 107.874 59.7064 106.105L80.9167 91.3504Z" fill="#FFE2E2"/>
<rect x="64.0739" y="102.848" width="12" height="2" transform="rotate(55.1757 64.0739 102.848)" fill="#8CA5E5"/>
<rect x="62.432" y="103.99" width="12" height="2" transform="rotate(55.1757 62.432 103.99)" fill="#0045F5"/>
<path d="M168.146 91.3504C165.603 89.5818 162.108 90.2091 160.34 92.7516C158.571 95.2941 159.198 98.789 161.741 100.558L182.951 115.313C185.493 117.081 188.988 116.454 190.757 113.911C192.526 111.369 191.898 107.874 189.356 106.105L168.146 91.3504Z" fill="#FFE2E2"/>
<rect width="12" height="2" transform="matrix(-0.571062 0.820907 0.820907 0.571062 184.988 102.848)" fill="#8CA5E5"/>
<rect width="12" height="2" transform="matrix(-0.571062 0.820907 0.820907 0.571062 186.63 103.99)" fill="#0045F5"/>
<rect x="108.998" y="211.037" width="12" height="3" transform="rotate(-1.73964 108.998 211.037)" fill="#8CA5E5"/>
<path d="M104.276 220.282C104.157 216.364 107.237 213.092 111.154 212.973L121.053 212.672L121.387 223.667L108.296 224.065C106.141 224.13 104.342 222.436 104.276 220.282Z" fill="#E0E7F5"/>
<path d="M105.364 223.153L121.356 222.668L121.387 223.667L107.848 224.078C106.931 224.106 106.039 223.774 105.364 223.153Z" fill="#393939"/>
<rect x="108.937" y="209.038" width="12" height="2" transform="rotate(-1.73964 108.937 209.038)" fill="#0045F5"/>
<rect width="12" height="3" transform="matrix(-0.999539 -0.0303577 -0.0303577 0.999539 138.389 211.037)" fill="#8CA5E5"/>
<path d="M143.111 220.282C143.23 216.364 140.15 213.092 136.233 212.973L126.334 212.672L126 223.667L139.091 224.065C141.245 224.13 143.045 222.436 143.111 220.282Z" fill="#E0E7F5"/>
<path d="M142.023 223.153L126.03 222.668L126 223.667L139.539 224.078C140.456 224.106 141.347 223.774 142.023 223.153Z" fill="#393939"/>
<rect width="12" height="2" transform="matrix(-0.999539 -0.0303577 -0.0303577 0.999539 138.45 209.038)" fill="#0045F5"/>
<defs>
<linearGradient id="paint0_linear_160_140" x1="123.5" y1="38" x2="123.5" y2="68.7607" gradientUnits="userSpaceOnUse">
<stop offset="1" stop-color="#FFD6D6"/>
</linearGradient>
</defs>
</svg>
