<svg width="513" height="512" viewBox="0 0 513 512" fill="none" xmlns="http://www.w3.org/2000/svg">
<g clip-path="url(#clip0_391_254)">
<rect x="15.8428" y="66" width="429" height="408" rx="30" fill="#081023" stroke="#E0E7F5" stroke-width="30"/>
<rect x="204.843" y="206" width="51" height="40" rx="10" fill="#0A50FF"/>
<rect x="306.843" y="206" width="51" height="40" rx="10" fill="#0A50FF"/>
<rect x="102.843" y="288" width="51" height="40" rx="10" fill="#0A50FF"/>
<rect x="102.843" y="369" width="51" height="40" rx="10" fill="#0A50FF"/>
<rect x="204.843" y="287" width="51" height="40" rx="10" fill="#0A50FF"/>
<rect x="204.843" y="368" width="51" height="40" rx="10" fill="#0A50FF"/>
<rect x="306.843" y="287" width="51" height="40" rx="10" fill="#0A50FF"/>
<rect x="306.843" y="368" width="51" height="40" rx="10" fill="#0A50FF"/>
<rect x="23.8428" y="66" width="414" height="93" fill="#E0E7F5"/>
<rect x="79.8428" y="9" width="30" height="57" rx="15" fill="#E0E7F5"/>
<rect x="357.843" y="9" width="30" height="57" rx="15" fill="#E0E7F5"/>
<path d="M72.0928 449C72.0928 449.276 72.3166 449.5 72.5928 449.5C72.8689 449.5 73.0928 449.276 73.0928 449H72.0928ZM73.0928 449V446.5H72.0928V449H73.0928ZM73.0928 441.5V436.5H72.0928V441.5H73.0928ZM73.0928 431.5V426.5H72.0928V431.5H73.0928ZM73.0928 421.5V416.5H72.0928V421.5H73.0928ZM73.0928 411.5V406.5H72.0928V411.5H73.0928ZM73.0928 401.5V396.499H72.0928V401.5H73.0928ZM73.0928 391.499V386.499H72.0928V391.499H73.0928ZM73.0928 381.499V376.499H72.0928V381.499H73.0928ZM73.0928 371.499V366.499H72.0928V371.499H73.0928ZM73.0928 361.499V356.499H72.0928V361.499H73.0928ZM73.0928 351.499V346.499H72.0928V351.499H73.0928ZM73.0928 341.499V336.499H72.0928V341.499H73.0928ZM73.0928 331.498V326.498H72.0928V331.498H73.0928ZM73.0928 321.498V316.498H72.0928V321.498H73.0928ZM73.0928 311.498V306.498H72.0928V311.498H73.0928ZM73.0928 301.498V296.498H72.0928V301.498H73.0928ZM73.0928 291.498V286.498H72.0928V291.498H73.0928ZM73.0928 281.498V276.498H72.0928V281.498H73.0928ZM73.0928 271.498V266.498H72.0928V271.498H73.0928ZM73.0928 261.497V256.497H72.0928V261.497H73.0928ZM73.0928 251.497V246.497H72.0928V251.497H73.0928ZM73.0928 241.497V236.497H72.0928V241.497H73.0928ZM73.0928 231.497V226.497H72.0928V231.497H73.0928ZM73.0928 221.497V216.497H72.0928V221.497H73.0928ZM73.0928 211.497V206.497H72.0928V211.497H73.0928ZM73.0928 201.497V196.496H72.0928V201.497H73.0928ZM73.0928 191.496V186.496H72.0928V191.496H73.0928ZM73.0928 181.496V176.496H72.0928V181.496H73.0928ZM73.0928 171.496V168.996H72.0928V171.496H73.0928Z" fill="url(#paint0_linear_391_254)"/>
<path d="M423.093 263.504C423.369 263.504 423.593 263.28 423.593 263.004C423.593 262.728 423.369 262.504 423.093 262.504L423.093 263.504ZM423.093 262.504L420.628 262.504L420.628 263.504L423.093 263.504L423.093 262.504ZM415.698 262.504L410.767 262.504L410.767 263.504L415.698 263.504L415.698 262.504ZM405.837 262.504L400.907 262.504L400.907 263.504L405.837 263.504L405.837 262.504ZM395.977 262.504L391.047 262.504L391.047 263.504L395.977 263.504L395.977 262.504ZM386.117 262.503L381.187 262.503L381.187 263.503L386.117 263.503L386.117 262.503ZM376.256 262.503L371.326 262.503L371.326 263.503L376.256 263.503L376.256 262.503ZM366.396 262.503L361.466 262.503L361.466 263.503L366.396 263.503L366.396 262.503ZM356.536 262.503L351.606 262.503L351.606 263.503L356.536 263.503L356.536 262.503ZM346.676 262.503L341.745 262.503L341.745 263.503L346.675 263.503L346.676 262.503ZM336.815 262.503L331.885 262.503L331.885 263.503L336.815 263.503L336.815 262.503ZM326.955 262.503L322.025 262.503L322.025 263.503L326.955 263.503L326.955 262.503ZM317.095 262.503L312.164 262.503L312.164 263.503L317.095 263.503L317.095 262.503ZM307.234 262.503L302.304 262.503L302.304 263.503L307.234 263.503L307.234 262.503ZM297.374 262.502L292.444 262.502L292.444 263.502L297.374 263.502L297.374 262.502ZM287.514 262.502L282.584 262.502L282.584 263.502L287.514 263.502L287.514 262.502ZM277.653 262.502L272.723 262.502L272.723 263.502L277.653 263.502L277.653 262.502ZM267.793 262.502L262.863 262.502L262.863 263.502L267.793 263.502L267.793 262.502ZM257.933 262.502L253.003 262.502L253.003 263.502L257.933 263.502L257.933 262.502ZM248.073 262.502L243.142 262.502L243.142 263.502L248.073 263.502L248.073 262.502ZM238.212 262.502L233.282 262.502L233.282 263.502L238.212 263.502L238.212 262.502ZM228.352 262.502L223.422 262.502L223.422 263.502L228.352 263.502L228.352 262.502ZM218.492 262.502L213.562 262.501L213.562 263.501L218.492 263.502L218.492 262.502ZM208.631 262.501L203.701 262.501L203.701 263.501L208.631 263.501L208.631 262.501ZM198.771 262.501L193.841 262.501L193.841 263.501L198.771 263.501L198.771 262.501ZM188.911 262.501L183.981 262.501L183.981 263.501L188.911 263.501L188.911 262.501ZM179.051 262.501L174.12 262.501L174.12 263.501L179.051 263.501L179.051 262.501ZM169.19 262.501L164.26 262.501L164.26 263.501L169.19 263.501L169.19 262.501ZM159.33 262.501L154.4 262.501L154.4 263.501L159.33 263.501L159.33 262.501ZM149.47 262.501L144.54 262.501L144.54 263.501L149.47 263.501L149.47 262.501ZM139.609 262.501L134.679 262.501L134.679 263.501L139.609 263.501L139.609 262.501ZM129.749 262.501L124.819 262.5L124.819 263.5L129.749 263.501L129.749 262.501ZM119.889 262.5L114.959 262.5L114.959 263.5L119.889 263.5L119.889 262.5ZM110.029 262.5L105.098 262.5L105.098 263.5L110.029 263.5L110.029 262.5ZM100.168 262.5L95.2381 262.5L95.2381 263.5L100.168 263.5L100.168 262.5ZM90.3079 262.5L87.8428 262.5L87.8428 263.5L90.3079 263.5L90.3079 262.5Z" fill="url(#paint1_linear_391_254)"/>
<path d="M359.093 351.504C359.369 351.504 359.593 351.28 359.593 351.004C359.593 350.728 359.369 350.504 359.093 350.504L359.093 351.504ZM359.093 350.504L356.628 350.504L356.628 351.504L359.093 351.504L359.093 350.504ZM351.698 350.504L346.767 350.504L346.767 351.504L351.698 351.504L351.698 350.504ZM341.837 350.504L336.907 350.504L336.907 351.504L341.837 351.504L341.837 350.504ZM331.977 350.504L327.047 350.504L327.047 351.504L331.977 351.504L331.977 350.504ZM322.117 350.503L317.187 350.503L317.187 351.503L322.117 351.503L322.117 350.503ZM312.256 350.503L307.326 350.503L307.326 351.503L312.256 351.503L312.256 350.503ZM302.396 350.503L297.466 350.503L297.466 351.503L302.396 351.503L302.396 350.503ZM292.536 350.503L287.606 350.503L287.606 351.503L292.536 351.503L292.536 350.503ZM282.676 350.503L277.745 350.503L277.745 351.503L282.675 351.503L282.676 350.503ZM272.815 350.503L267.885 350.503L267.885 351.503L272.815 351.503L272.815 350.503ZM262.955 350.503L258.025 350.503L258.025 351.503L262.955 351.503L262.955 350.503ZM253.095 350.503L248.164 350.503L248.164 351.503L253.095 351.503L253.095 350.503ZM243.234 350.503L238.304 350.503L238.304 351.503L243.234 351.503L243.234 350.503ZM233.374 350.502L228.444 350.502L228.444 351.502L233.374 351.502L233.374 350.502ZM223.514 350.502L218.584 350.502L218.584 351.502L223.514 351.502L223.514 350.502ZM213.653 350.502L208.723 350.502L208.723 351.502L213.653 351.502L213.653 350.502ZM203.793 350.502L198.863 350.502L198.863 351.502L203.793 351.502L203.793 350.502ZM193.933 350.502L189.003 350.502L189.003 351.502L193.933 351.502L193.933 350.502ZM184.073 350.502L179.142 350.502L179.142 351.502L184.073 351.502L184.073 350.502ZM174.212 350.502L169.282 350.502L169.282 351.502L174.212 351.502L174.212 350.502ZM164.352 350.502L159.422 350.502L159.422 351.502L164.352 351.502L164.352 350.502ZM154.492 350.502L149.562 350.501L149.562 351.501L154.492 351.502L154.492 350.502ZM144.631 350.501L139.701 350.501L139.701 351.501L144.631 351.501L144.631 350.501ZM134.771 350.501L129.841 350.501L129.841 351.501L134.771 351.501L134.771 350.501ZM124.911 350.501L119.981 350.501L119.981 351.501L124.911 351.501L124.911 350.501ZM115.051 350.501L110.12 350.501L110.12 351.501L115.051 351.501L115.051 350.501ZM105.19 350.501L100.26 350.501L100.26 351.501L105.19 351.501L105.19 350.501ZM95.33 350.501L90.3998 350.501L90.3998 351.501L95.33 351.501L95.33 350.501ZM85.4697 350.501L80.5396 350.501L80.5395 351.501L85.4697 351.501L85.4697 350.501ZM75.6094 350.501L70.6792 350.501L70.6792 351.501L75.6094 351.501L75.6094 350.501ZM65.7491 350.501L60.819 350.5L60.819 351.5L65.7491 351.501L65.7491 350.501ZM55.8888 350.5L50.9587 350.5L50.9587 351.5L55.8888 351.5L55.8888 350.5ZM46.0285 350.5L41.0984 350.5L41.0984 351.5L46.0285 351.5L46.0285 350.5ZM36.1682 350.5L31.2381 350.5L31.2381 351.5L36.1682 351.5L36.1682 350.5ZM26.3079 350.5L23.8428 350.5L23.8428 351.5L26.3079 351.5L26.3079 350.5Z" fill="url(#paint2_linear_391_254)"/>
<path d="M179.843 455.251C179.843 455.527 180.067 455.751 180.343 455.751C180.619 455.751 180.843 455.527 180.843 455.251H179.843ZM180.843 455.251V452.726H179.843V455.251H180.843ZM180.843 447.674V442.623H179.843V447.674H180.843ZM180.843 437.572V432.521H179.843V437.572H180.843ZM180.843 427.47V422.419H179.843V427.47H180.843ZM180.843 417.367L180.843 412.316H179.843L179.843 417.367H180.843ZM180.843 407.265V402.214H179.843V407.265H180.843ZM180.843 397.163V392.111H179.843V397.163H180.843ZM180.843 387.06V382.009H179.843V387.06H180.843ZM180.843 376.958V371.907H179.843V376.958H180.843ZM180.843 366.855V361.804H179.843V366.855H180.843ZM180.843 356.753V351.702H179.843V356.753H180.843ZM180.843 346.651V341.6H179.843V346.651H180.843ZM180.843 336.548V331.497H179.843V336.548H180.843ZM180.843 326.446V321.395H179.843V326.446H180.843ZM180.843 316.344V311.292H179.843V316.344H180.843ZM180.843 306.241V301.19H179.843V306.241H180.843ZM180.843 296.139V291.088H179.843V296.139H180.843ZM180.843 286.036V280.985H179.843V286.036H180.843ZM180.843 275.934V270.883H179.843V275.934H180.843ZM180.843 265.832V260.78H179.843V265.832H180.843ZM180.843 255.729V250.678H179.843V255.729H180.843ZM180.843 245.627V240.576H179.843L179.843 245.627H180.843ZM180.843 235.524V232.999H179.843V235.524H180.843Z" fill="url(#paint3_linear_391_254)"/>
<path d="M280.343 391.252C280.343 391.528 280.567 391.752 280.843 391.752C281.119 391.752 281.343 391.528 281.343 391.252H280.343ZM281.343 391.252V388.727H280.343V391.252H281.343ZM281.343 383.675V378.624H280.343V383.675H281.343ZM281.343 373.573V368.522H280.343V373.573H281.343ZM281.343 363.471V358.419H280.343V363.471H281.343ZM281.343 353.368V348.317H280.343V353.368H281.343ZM281.343 343.266V338.215H280.343V343.266H281.343ZM281.343 333.164V328.112H280.343V333.164H281.343ZM281.343 323.061V318.01H280.343V323.061H281.343ZM281.343 312.959V307.908H280.343V312.959H281.343ZM281.343 302.856V297.805H280.343V302.856H281.343ZM281.343 292.754V287.703H280.343V292.754H281.343ZM281.343 282.652V277.601H280.343V282.652H281.343ZM281.343 272.549V267.498H280.343V272.549H281.343ZM281.343 262.447V257.396H280.343V262.447H281.343ZM281.343 252.345V247.293H280.343V252.345H281.343ZM281.343 242.242V237.191H280.343V242.242H281.343ZM281.343 232.14V227.089H280.343V232.14H281.343ZM281.343 222.037V216.986H280.343V222.037H281.343ZM281.343 211.935V206.884H280.343V211.935H281.343ZM281.343 201.833V196.781H280.343V201.833H281.343ZM281.343 191.73V186.679H280.343V191.73H281.343ZM281.343 181.628V176.577H280.343V181.628H281.343ZM281.343 171.525V169H280.343V171.525H281.343Z" fill="url(#paint4_linear_391_254)"/>
<circle cx="412.843" cy="412" r="85" fill="#2046A7" stroke="#E0E7F5" stroke-width="30"/>
<circle cx="412.843" cy="412" r="10" fill="#E0E7F5"/>
<ellipse cx="412.843" cy="379.5" rx="5" ry="28.5" fill="#E0E7F5"/>
<ellipse cx="437.843" cy="412" rx="5" ry="20" transform="rotate(90 437.843 412)" fill="#E0E7F5"/>
</g>
<defs>
<linearGradient id="paint0_linear_391_254" x1="73.0928" y1="168.996" x2="73.0928" y2="449" gradientUnits="userSpaceOnUse">
<stop stop-color="#081023"/>
<stop offset="0.5" stop-color="#A7A7A7"/>
<stop offset="1" stop-color="#081023"/>
</linearGradient>
<linearGradient id="paint1_linear_391_254" x1="87.8428" y1="262.5" x2="423.093" y2="262.504" gradientUnits="userSpaceOnUse">
<stop stop-color="#081023"/>
<stop offset="0.5" stop-color="#A7A7A7"/>
<stop offset="1" stop-color="#081023"/>
</linearGradient>
<linearGradient id="paint2_linear_391_254" x1="23.8428" y1="350.5" x2="359.093" y2="350.504" gradientUnits="userSpaceOnUse">
<stop stop-color="#081023"/>
<stop offset="0.5" stop-color="#A7A7A7"/>
<stop offset="1" stop-color="#081023"/>
</linearGradient>
<linearGradient id="paint3_linear_391_254" x1="180.843" y1="232.999" x2="180.843" y2="455.251" gradientUnits="userSpaceOnUse">
<stop stop-color="#081023"/>
<stop offset="0.5" stop-color="#A7A7A7"/>
<stop offset="1" stop-color="#081023"/>
</linearGradient>
<linearGradient id="paint4_linear_391_254" x1="281.343" y1="169" x2="281.343" y2="391.252" gradientUnits="userSpaceOnUse">
<stop stop-color="#081023"/>
<stop offset="0.5" stop-color="#A7A7A7"/>
<stop offset="1" stop-color="#081023"/>
</linearGradient>
<clipPath id="clip0_391_254">
<rect width="512" height="512" fill="white" transform="translate(0.842773)"/>
</clipPath>
</defs>
</svg>
