<svg width="512" height="512" viewBox="0 0 512 512" fill="none" xmlns="http://www.w3.org/2000/svg">
<g clip-path="url(#clip0_170_145)">
<path d="M40 15H200C213.807 15 225 26.1929 225 40V228C225 241.807 213.807 253 200 253H40C26.1929 253 15 241.807 15 228V40C15 26.1929 26.1929 15 40 15ZM40 326H200C213.807 326 225 337.193 225 351V472C225 485.807 213.807 497 200 497H40C26.1929 497 15 485.807 15 472V351C15 337.193 26.1929 326 40 326ZM314 247H472C485.807 247 497 258.193 497 272V472C497 485.807 485.807 497 472 497H314C300.193 497 289 485.807 289 472V272C289 258.193 300.193 247 314 247ZM314 15H472C485.807 15 497 26.1929 497 40V143C497 156.807 485.807 168 472 168H314C300.193 168 289 156.807 289 143V40C289 26.1929 300.193 15 314 15Z" stroke="black" stroke-width="30"/>
</g>
<defs>
<clipPath id="clip0_170_145">
<rect width="512" height="512" fill="white"/>
</clipPath>
</defs>
</svg>
