<svg width="512" height="512" viewBox="0 0 512 512" fill="none" xmlns="http://www.w3.org/2000/svg">
<path d="M189.593 116C201.993 51.2 252.093 17 275.593 8C275.593 21.3333 278.693 54.5 291.093 80.5C303.493 106.5 354.593 164.333 378.593 190C393.593 204.667 424.893 245 430.093 289C436.593 344 430.093 392 409.593 426C389.833 458.773 352.593 489 320.093 497.5C287.593 506 232.093 508.5 189.093 493C146.093 477.5 105.865 430.109 95.0931 406C84.5934 382.5 77.0931 347 81.0931 289C84.2931 242.6 119.093 190.667 136.093 170.5C146.093 217.3 188.926 246 209.093 254.5C197.427 235.333 177.193 180.8 189.593 116Z" fill="#FF3C00"/>
<path d="M134 424C122.513 399.75 110 378 122 313.5C126.689 288.299 143 264.5 143 264.5C133.001 337 328.5 358.5 261.5 165.5C272.333 174.667 342.5 196.5 356.5 325C361.667 317 374.5 296.5 363 241.5C363 241.5 380.792 261.894 386 275C391.208 288.106 395.329 304.394 397 316C405.566 375.5 393.241 420 374.5 443C352.5 470 310.555 493.5 253.5 493.5C199.5 493.5 143 443 134 424Z" fill="#FF9500"/>
<path d="M210 457C159.6 437.8 157 381.5 167 344C195.4 351.6 238.833 390.833 257 409.5C262.6 379.5 294 361.667 309 356.5C310.2 371.7 307.5 397.167 306 408C309.6 396.8 340.5 387.333 355.5 384C353.5 458 273 481 210 457Z" fill="#FFFF56"/>
</svg>
