<svg width="512" height="512" viewBox="0 0 512 512" fill="none" xmlns="http://www.w3.org/2000/svg">
<g clip-path="url(#clip0_191_127)">
<path fill-rule="evenodd" clip-rule="evenodd" d="M130 135.245H189V292.791H130V135.245ZM209 292.791V135.245H261V184.946V214.946V292.791H209ZM261 322.791H209V481.669H261V322.791ZM497 484.081H498.04C505.75 484.081 512 490.331 512 498.041C512 505.75 505.75 512 498.04 512H490.134H21.8661H13.9596C6.24994 512 0 505.75 0 498.041C0 490.331 6.24994 484.081 13.9596 484.081H21.8661H34V481.669V322.791H15C6.71573 322.791 0 316.075 0 307.791C0 299.507 6.71573 292.791 15 292.791H34V135.245V105.245H64H261H291V135.245V184.946H467H497V214.946V482V484.081ZM291 482H309V477.777V389.785C309 373.217 322.431 359.785 339 359.785H418C434.569 359.785 448 373.217 448 389.785V477.777V482H467V214.946H291V481.669V482ZM110 135.245H64V292.791H110V135.245ZM131 322.791H189V481.669H131V322.791ZM111 322.791H64V481.669H111V322.791ZM349.27 317.99C349.702 318.626 350.037 319.359 350.276 320.189H357.776C357.537 318.461 356.997 316.882 356.156 315.45C355.315 314.007 354.23 312.763 352.901 311.717C351.582 310.672 350.071 309.865 348.366 309.297C346.662 308.717 344.821 308.427 342.844 308.427C340.537 308.427 338.395 308.831 336.418 309.638C334.44 310.444 332.707 311.621 331.219 313.166C329.73 314.711 328.571 316.598 327.741 318.825C326.923 321.041 326.514 323.564 326.514 326.393C326.514 330.075 327.202 333.257 328.577 335.939C329.963 338.609 331.895 340.672 334.372 342.126C336.849 343.569 339.724 344.291 342.997 344.291C345.929 344.291 348.531 343.7 350.804 342.518C353.077 341.325 354.861 339.632 356.156 337.439C357.452 335.234 358.099 332.598 358.099 329.53V325.132H343.491V330.689H350.989C350.959 332.084 350.642 333.3 350.037 334.336C349.412 335.427 348.503 336.274 347.31 336.876C346.128 337.467 344.702 337.763 343.031 337.763C341.19 337.763 339.594 337.319 338.241 336.433C336.889 335.535 335.844 334.234 335.105 332.53C334.366 330.825 333.997 328.757 333.997 326.325C333.997 323.893 334.372 321.836 335.122 320.155C335.872 318.461 336.918 317.172 338.259 316.285C339.611 315.399 341.179 314.956 342.963 314.956C343.918 314.956 344.787 315.075 345.571 315.314C346.366 315.552 347.071 315.899 347.685 316.354C348.31 316.797 348.838 317.342 349.27 317.99ZM368.459 308.905H360.192L372.925 331.473V343.814H380.254V331.473L392.987 308.905H384.72L376.76 323.939H376.419L368.459 308.905ZM406.121 308.905H397.018V343.814H404.178V321.007H404.467L413.501 343.643H418.376L427.411 321.092H427.7V343.814H434.859V308.905H425.757L416.143 332.359H415.734L406.121 308.905ZM384 379.785H418C423.523 379.785 428 384.262 428 389.785V477.777H384V379.785ZM374 379.785H339C333.477 379.785 329 384.262 329 389.785V477.777H374V379.785ZM350 415.479C350 414.098 351.119 412.979 352.5 412.979H363C364.381 412.979 365.5 414.098 365.5 415.479C365.5 416.86 364.381 417.979 363 417.979H355V440.101H363C364.381 440.101 365.5 441.22 365.5 442.601C365.5 443.981 364.381 445.101 363 445.101H352.5C351.119 445.101 350 443.981 350 442.601V415.479ZM405.5 412.979C406.881 412.979 408 414.098 408 415.479V442.601C408 443.981 406.881 445.101 405.5 445.101H395C393.619 445.101 392.5 443.981 392.5 442.601C392.5 441.22 393.619 440.101 395 440.101H403V417.979H395C393.619 417.979 392.5 416.86 392.5 415.479C392.5 414.098 393.619 412.979 395 412.979H405.5Z" fill="black"/>
<path fill-rule="evenodd" clip-rule="evenodd" d="M341 247.964C338.239 247.964 336 250.202 336 252.964V282.848C336 285.61 338.239 287.848 341 287.848H349C351.761 287.848 354 285.61 354 282.848V252.964C354 250.202 351.761 247.964 349 247.964H341ZM408 262.322H357V265.513H408V262.322ZM357 267.906H408V274.288H357V267.906ZM424 247.964C426.761 247.964 429 250.202 429 252.964V282.848C429 285.61 426.761 287.848 424 287.848H416C413.239 287.848 411 285.61 411 282.848V252.964C411 250.202 413.239 247.964 416 247.964H424ZM320 260.143C320 257.382 322.239 255.143 325 255.143H328C330.761 255.143 333 257.382 333 260.143V275.669C333 278.431 330.761 280.669 328 280.669H325C322.239 280.669 320 278.431 320 275.669V260.143ZM440 255.143C442.761 255.143 445 257.382 445 260.143V275.669C445 278.431 442.761 280.669 440 280.669H437C434.239 280.669 432 278.431 432 275.669V260.143C432 257.382 434.239 255.143 437 255.143H440Z" fill="black"/>
<rect x="13" y="60" width="290" height="60" rx="25" stroke="black" stroke-width="30"/>
<rect x="277" y="140" width="220" height="60" rx="25" stroke="black" stroke-width="30"/>
</g>
<defs>
<clipPath id="clip0_191_127">
<rect width="512" height="512" fill="white"/>
</clipPath>
</defs>
</svg>
