<svg width="512" height="512" viewBox="0 0 512 512" fill="none" xmlns="http://www.w3.org/2000/svg">
<rect x="8.75" y="485.75" width="494.5" height="17.5" rx="8.75" stroke="black" stroke-width="17.5"/>
<path fill-rule="evenodd" clip-rule="evenodd" d="M156 127.349L231.094 60.0534C238.787 53.1592 249.572 50.4344 259.679 51.9406C267.438 52.3398 275.064 55.1709 280.906 60.4068L500.011 256.758C512.349 267.816 512.062 285.411 499.368 296.059L479.63 312.616C473.842 317.471 466.474 320.043 459 320.357V481.999V511.999H429H81H51V481.999V319.865C44.2223 319.212 37.6412 316.684 32.3703 312.262L12.6325 295.706C-0.0615217 285.058 -0.34938 267.462 11.9895 256.405L72 202.626V201V102H66C57.7157 102 51 95.2843 51 87C51 78.7157 57.7157 72 66 72H72H102H126H156H160C168.284 72 175 78.7157 175 87C175 95.2843 168.284 102 160 102H156V127.349ZM102 175.741V102H126V154.234L102 175.741ZM221.005 183.094L255.803 151.91L255.81 151.916L256 151.745L418.813 297.594H418.369L429 307.121V481.999H317V352C317 335.431 303.569 322 287 322H224C207.432 322 194 335.431 194 352V481.999H81V308.56L93.2365 297.594H93.1873L221.005 183.094ZM214 481.999H297V352C297 346.477 292.523 342 287 342H224C218.477 342 214 346.477 214 352V481.999ZM32.5806 275.607L255.505 75.832L276.718 94.8424L276.717 94.8433L480.552 277.511L459.339 296.521L255.504 113.854L53.7938 294.617L32.5806 275.607Z" fill="black"/>
</svg>
