<svg width="513" height="512" viewBox="0 0 513 512" fill="none" xmlns="http://www.w3.org/2000/svg">
<g clip-path="url(#clip0_391_210)">
<rect x="15.6846" y="66" width="429" height="408" rx="30" fill="#E3E8FB" stroke="#0A101E" stroke-width="30"/>
<rect x="204.685" y="206" width="51" height="40" rx="10" fill="#0045F5"/>
<rect x="306.685" y="206" width="51" height="40" rx="10" fill="#0045F5"/>
<rect x="102.685" y="288" width="51" height="40" rx="10" fill="#0045F5"/>
<rect x="102.685" y="369" width="51" height="40" rx="10" fill="#0045F5"/>
<rect x="204.685" y="287" width="51" height="40" rx="10" fill="#0045F5"/>
<rect x="204.685" y="368" width="51" height="40" rx="10" fill="#0045F5"/>
<rect x="306.685" y="287" width="51" height="40" rx="10" fill="#0045F5"/>
<rect x="306.685" y="368" width="51" height="40" rx="10" fill="#0045F5"/>
<rect x="23.6846" y="66" width="414" height="93" fill="#0A101E"/>
<rect x="79.6846" y="9" width="30" height="57" rx="15" fill="#0A101E"/>
<rect x="357.685" y="9" width="30" height="57" rx="15" fill="#0A101E"/>
<path d="M71.9346 449C71.9346 449.276 72.1584 449.5 72.4346 449.5C72.7107 449.5 72.9346 449.276 72.9346 449H71.9346ZM72.9346 449V446.5H71.9346V449H72.9346ZM72.9346 441.5V436.5H71.9346V441.5H72.9346ZM72.9346 431.5V426.5H71.9346V431.5H72.9346ZM72.9346 421.5V416.5H71.9346V421.5H72.9346ZM72.9346 411.5V406.5H71.9346V411.5H72.9346ZM72.9346 401.5V396.499H71.9346V401.5H72.9346ZM72.9346 391.499V386.499H71.9346V391.499H72.9346ZM72.9346 381.499V376.499H71.9346V381.499H72.9346ZM72.9346 371.499V366.499H71.9346V371.499H72.9346ZM72.9346 361.499V356.499H71.9346V361.499H72.9346ZM72.9346 351.499V346.499H71.9346V351.499H72.9346ZM72.9346 341.499V336.499H71.9346V341.499H72.9346ZM72.9346 331.498V326.498H71.9346V331.498H72.9346ZM72.9346 321.498V316.498H71.9346V321.498H72.9346ZM72.9346 311.498V306.498H71.9346V311.498H72.9346ZM72.9346 301.498V296.498H71.9346V301.498H72.9346ZM72.9346 291.498V286.498H71.9346V291.498H72.9346ZM72.9346 281.498V276.498H71.9346V281.498H72.9346ZM72.9346 271.498V266.498H71.9346V271.498H72.9346ZM72.9346 261.497V256.497H71.9346V261.497H72.9346ZM72.9346 251.497V246.497H71.9346V251.497H72.9346ZM72.9346 241.497V236.497H71.9346V241.497H72.9346ZM72.9346 231.497V226.497H71.9346V231.497H72.9346ZM72.9346 221.497V216.497H71.9346V221.497H72.9346ZM72.9346 211.497V206.497H71.9346V211.497H72.9346ZM72.9346 201.497V196.496H71.9346V201.497H72.9346ZM72.9346 191.496V186.496H71.9346V191.496H72.9346ZM72.9346 181.496V176.496H71.9346V181.496H72.9346ZM72.9346 171.496V168.996H71.9346V171.496H72.9346Z" fill="url(#paint0_linear_391_210)"/>
<path d="M422.935 263.504C423.211 263.504 423.435 263.28 423.435 263.004C423.435 262.728 423.211 262.504 422.935 262.504L422.935 263.504ZM422.935 262.504L420.47 262.504L420.469 263.504L422.935 263.504L422.935 262.504ZM415.539 262.504L410.609 262.504L410.609 263.504L415.539 263.504L415.539 262.504ZM405.679 262.504L400.749 262.504L400.749 263.504L405.679 263.504L405.679 262.504ZM395.819 262.504L390.889 262.504L390.889 263.504L395.819 263.504L395.819 262.504ZM385.958 262.503L381.028 262.503L381.028 263.503L385.958 263.503L385.958 262.503ZM376.098 262.503L371.168 262.503L371.168 263.503L376.098 263.503L376.098 262.503ZM366.238 262.503L361.308 262.503L361.308 263.503L366.238 263.503L366.238 262.503ZM356.378 262.503L351.447 262.503L351.447 263.503L356.378 263.503L356.378 262.503ZM346.517 262.503L341.587 262.503L341.587 263.503L346.517 263.503L346.517 262.503ZM336.657 262.503L331.727 262.503L331.727 263.503L336.657 263.503L336.657 262.503ZM326.797 262.503L321.867 262.503L321.867 263.503L326.797 263.503L326.797 262.503ZM316.936 262.503L312.006 262.503L312.006 263.503L316.936 263.503L316.936 262.503ZM307.076 262.503L302.146 262.503L302.146 263.503L307.076 263.503L307.076 262.503ZM297.216 262.502L292.286 262.502L292.286 263.502L297.216 263.502L297.216 262.502ZM287.356 262.502L282.425 262.502L282.425 263.502L287.356 263.502L287.356 262.502ZM277.495 262.502L272.565 262.502L272.565 263.502L277.495 263.502L277.495 262.502ZM267.635 262.502L262.705 262.502L262.705 263.502L267.635 263.502L267.635 262.502ZM257.775 262.502L252.845 262.502L252.845 263.502L257.775 263.502L257.775 262.502ZM247.914 262.502L242.984 262.502L242.984 263.502L247.914 263.502L247.914 262.502ZM238.054 262.502L233.124 262.502L233.124 263.502L238.054 263.502L238.054 262.502ZM228.194 262.502L223.264 262.502L223.264 263.502L228.194 263.502L228.194 262.502ZM218.334 262.502L213.403 262.501L213.403 263.501L218.334 263.502L218.334 262.502ZM208.473 262.501L203.543 262.501L203.543 263.501L208.473 263.501L208.473 262.501ZM198.613 262.501L193.683 262.501L193.683 263.501L198.613 263.501L198.613 262.501ZM188.753 262.501L183.823 262.501L183.822 263.501L188.753 263.501L188.753 262.501ZM178.892 262.501L173.962 262.501L173.962 263.501L178.892 263.501L178.892 262.501ZM169.032 262.501L164.102 262.501L164.102 263.501L169.032 263.501L169.032 262.501ZM159.172 262.501L154.242 262.501L154.242 263.501L159.172 263.501L159.172 262.501ZM149.311 262.501L144.381 262.501L144.381 263.501L149.311 263.501L149.311 262.501ZM139.451 262.501L134.521 262.501L134.521 263.501L139.451 263.501L139.451 262.501ZM129.591 262.501L124.661 262.5L124.661 263.5L129.591 263.501L129.591 262.501ZM119.731 262.5L114.8 262.5L114.8 263.5L119.731 263.5L119.731 262.5ZM109.87 262.5L104.94 262.5L104.94 263.5L109.87 263.5L109.87 262.5ZM100.01 262.5L95.0799 262.5L95.0799 263.5L100.01 263.5L100.01 262.5ZM90.1497 262.5L87.6846 262.5L87.6846 263.5L90.1497 263.5L90.1497 262.5Z" fill="url(#paint1_linear_391_210)"/>
<path d="M358.933 351.504C359.209 351.505 359.434 351.282 359.435 351.005C359.435 350.729 359.212 350.505 358.936 350.504L358.933 351.504ZM358.936 350.504L356.437 350.496L356.434 351.496L358.933 351.504L358.936 350.504ZM351.438 350.481L346.439 350.465L346.436 351.465L351.435 351.481L351.438 350.481ZM341.44 350.45L336.441 350.434L336.438 351.434L341.437 351.45L341.44 350.45ZM331.442 350.419L326.443 350.403L326.44 351.403L331.439 351.419L331.442 350.419ZM321.444 350.388L316.445 350.372L316.442 351.372L321.441 351.388L321.444 350.388ZM311.446 350.357L306.447 350.341L306.444 351.341L311.443 351.357L311.446 350.357ZM301.448 350.326L296.449 350.31L296.446 351.31L301.445 351.326L301.448 350.326ZM291.45 350.295L286.451 350.279L286.448 351.279L291.447 351.295L291.45 350.295ZM281.452 350.264L276.453 350.248L276.45 351.248L281.449 351.264L281.452 350.264ZM271.454 350.233L266.455 350.217L266.452 351.217L271.451 351.233L271.454 350.233ZM261.456 350.202L256.457 350.186L256.454 351.186L261.453 351.202L261.456 350.202ZM251.458 350.171L246.459 350.155L246.456 351.155L251.455 351.171L251.458 350.171ZM241.46 350.14L236.461 350.124L236.458 351.124L241.457 351.14L241.46 350.14ZM231.462 350.109L226.463 350.093L226.46 351.093L231.459 351.109L231.462 350.109ZM221.464 350.078L216.465 350.062L216.462 351.062L221.461 351.078L221.464 350.078ZM211.466 350.047L206.467 350.031L206.464 351.031L211.463 351.047L211.466 350.047ZM201.468 350.016L196.469 350L196.466 351L201.465 351.016L201.468 350.016ZM191.47 349.985L186.471 349.969L186.468 350.969L191.467 350.985L191.47 349.985ZM181.472 349.954L176.473 349.938L176.47 350.938L181.469 350.954L181.472 349.954ZM171.474 349.923L166.475 349.907L166.472 350.907L171.471 350.923L171.474 349.923ZM161.476 349.892L156.477 349.876L156.474 350.876L161.473 350.892L161.476 349.892ZM151.478 349.861L146.479 349.845L146.476 350.845L151.475 350.861L151.478 349.861ZM141.48 349.83L136.482 349.814L136.478 350.814L141.477 350.83L141.48 349.83ZM131.483 349.799L126.484 349.784L126.48 350.784L131.479 350.799L131.483 349.799ZM121.485 349.768L116.486 349.753L116.482 350.753L121.481 350.768L121.485 349.768ZM111.487 349.737L106.488 349.722L106.485 350.722L111.483 350.737L111.487 349.737ZM101.489 349.706L96.4897 349.691L96.4866 350.691L101.486 350.706L101.489 349.706ZM91.4907 349.675L86.4917 349.66L86.4886 350.66L91.4876 350.675L91.4907 349.675ZM81.4928 349.644L76.4938 349.629L76.4907 350.629L81.4897 350.644L81.4928 349.644ZM71.4948 349.613L66.4958 349.598L66.4927 350.598L71.4917 350.613L71.4948 349.613ZM61.4969 349.582L56.4979 349.567L56.4948 350.567L61.4938 350.582L61.4969 349.582ZM51.4989 349.551L46.5 349.536L46.4969 350.536L51.4958 350.551L51.4989 349.551ZM41.501 349.52L39.0015 349.512L38.9984 350.512L41.4979 350.52L41.501 349.52Z" fill="url(#paint2_linear_391_210)"/>
<path d="M179.685 455.251C179.685 455.527 179.908 455.751 180.185 455.751C180.461 455.751 180.685 455.527 180.685 455.251H179.685ZM180.685 455.251V452.726H179.685V455.251H180.685ZM180.685 447.674V442.623H179.685V447.674H180.685ZM180.685 437.572V432.521H179.685V437.572H180.685ZM180.685 427.47V422.419H179.685V427.47H180.685ZM180.685 417.367L180.685 412.316H179.685L179.685 417.367H180.685ZM180.685 407.265V402.214H179.685V407.265H180.685ZM180.685 397.163V392.111H179.685V397.163H180.685ZM180.685 387.06V382.009H179.685V387.06H180.685ZM180.685 376.958V371.907H179.685V376.958H180.685ZM180.685 366.855V361.804H179.685V366.855H180.685ZM180.685 356.753V351.702H179.685V356.753H180.685ZM180.685 346.651V341.6H179.685V346.651H180.685ZM180.685 336.548V331.497H179.685V336.548H180.685ZM180.685 326.446V321.395H179.685V326.446H180.685ZM180.685 316.344V311.292H179.685V316.344H180.685ZM180.685 306.241V301.19H179.685V306.241H180.685ZM180.685 296.139V291.088H179.685V296.139H180.685ZM180.685 286.036V280.985H179.685V286.036H180.685ZM180.685 275.934V270.883H179.685V275.934H180.685ZM180.685 265.832V260.78H179.685V265.832H180.685ZM180.685 255.729V250.678H179.685V255.729H180.685ZM180.685 245.627V240.576H179.685L179.685 245.627H180.685ZM180.685 235.524V232.999H179.685V235.524H180.685Z" fill="url(#paint3_linear_391_210)"/>
<path d="M280.185 391.252C280.185 391.528 280.408 391.752 280.685 391.752C280.961 391.752 281.185 391.528 281.185 391.252H280.185ZM281.185 391.252V388.727H280.185V391.252H281.185ZM281.185 383.675V378.624H280.185V383.675H281.185ZM281.185 373.573V368.522H280.185V373.573H281.185ZM281.185 363.471V358.419H280.185V363.471H281.185ZM281.185 353.368V348.317H280.185V353.368H281.185ZM281.185 343.266V338.215H280.185V343.266H281.185ZM281.185 333.164V328.112H280.185V333.164H281.185ZM281.185 323.061V318.01H280.185V323.061H281.185ZM281.185 312.959V307.908H280.185V312.959H281.185ZM281.185 302.856V297.805H280.185V302.856H281.185ZM281.185 292.754V287.703H280.185V292.754H281.185ZM281.185 282.652V277.601H280.185V282.652H281.185ZM281.185 272.549V267.498H280.185V272.549H281.185ZM281.185 262.447V257.396H280.185V262.447H281.185ZM281.185 252.345V247.293H280.185V252.345H281.185ZM281.185 242.242V237.191H280.185V242.242H281.185ZM281.185 232.14V227.089H280.185V232.14H281.185ZM281.185 222.037V216.986H280.185V222.037H281.185ZM281.185 211.935V206.884H280.185V211.935H281.185ZM281.185 201.833V196.781H280.185V201.833H281.185ZM281.185 191.73V186.679H280.185V191.73H281.185ZM281.185 181.628V176.577H280.185V181.628H281.185ZM281.185 171.525V169H280.185V171.525H281.185Z" fill="url(#paint4_linear_391_210)"/>
<circle cx="412.685" cy="412" r="85" fill="#567DDF" stroke="#0A101E" stroke-width="30"/>
<circle cx="412.685" cy="412" r="10" fill="#0A101E"/>
<ellipse cx="412.685" cy="379.5" rx="5" ry="28.5" fill="#0A101E"/>
<ellipse cx="437.685" cy="412" rx="5" ry="20" transform="rotate(90 437.685 412)" fill="#0A101E"/>
</g>
<defs>
<linearGradient id="paint0_linear_391_210" x1="72.9346" y1="168.996" x2="72.9346" y2="449" gradientUnits="userSpaceOnUse">
<stop stop-color="#D9D9D9"/>
<stop offset="0.5" stop-color="#A7A7A7"/>
<stop offset="1" stop-color="#D9D9D9"/>
</linearGradient>
<linearGradient id="paint1_linear_391_210" x1="87.6846" y1="262.5" x2="422.935" y2="262.504" gradientUnits="userSpaceOnUse">
<stop stop-color="#D9D9D9"/>
<stop offset="0.5" stop-color="#A7A7A7"/>
<stop offset="1" stop-color="#D9D9D9"/>
</linearGradient>
<linearGradient id="paint2_linear_391_210" x1="39.0015" y1="349.512" x2="358.936" y2="350.504" gradientUnits="userSpaceOnUse">
<stop stop-color="#D9D9D9"/>
<stop offset="0.5" stop-color="#A7A7A7"/>
<stop offset="1" stop-color="#D9D9D9"/>
</linearGradient>
<linearGradient id="paint3_linear_391_210" x1="180.685" y1="232.999" x2="180.685" y2="455.251" gradientUnits="userSpaceOnUse">
<stop stop-color="#D9D9D9"/>
<stop offset="0.5" stop-color="#A7A7A7"/>
<stop offset="1" stop-color="#D9D9D9"/>
</linearGradient>
<linearGradient id="paint4_linear_391_210" x1="281.185" y1="169" x2="281.185" y2="391.252" gradientUnits="userSpaceOnUse">
<stop stop-color="#D9D9D9"/>
<stop offset="0.5" stop-color="#A7A7A7"/>
<stop offset="1" stop-color="#D9D9D9"/>
</linearGradient>
<clipPath id="clip0_391_210">
<rect width="512" height="512" fill="white" transform="translate(0.68457)"/>
</clipPath>
</defs>
</svg>
