<svg width="512" height="512" viewBox="0 0 512 512" fill="none" xmlns="http://www.w3.org/2000/svg">
<path d="M224.718 65.5331C222.775 65.9196 221.082 66.3257 219.713 66.7381C201.194 72.3177 158.551 92.2012 138.131 131.157C117.71 170.113 118.611 193.547 118.611 201.663L118.111 276.226C116.609 315.283 93.5859 372.093 60.0521 395.933C52.5446 401.271 45.037 426.875 71.5637 434.991H194.187M224.718 65.5331C232.724 63.9407 244.973 62.6802 256.25 62.6802C270.264 62.6802 288.282 66.3999 294.288 67.7526C312.807 73.3321 354.449 92.2005 374.869 131.156C395.29 170.112 394.389 193.546 394.389 201.662L394.889 276.225C396.391 315.282 419.414 372.093 452.948 395.933C460.455 401.27 467.963 426.874 441.436 434.99H256.25M224.718 65.5331V27.681C224.718 17.5362 233.339 15 256.25 15C277.771 15 288.282 19.0579 288.282 27.681V65.5331M194.187 434.991H256.75M194.187 434.991C194.187 517.67 318.312 517.67 318.312 434.991" stroke="black" stroke-width="30" stroke-linecap="round"/>
</svg>
