<svg width="512" height="512" viewBox="0 0 512 512" fill="none" xmlns="http://www.w3.org/2000/svg">
<g clip-path="url(#clip0_192_164)">
<rect x="8.75" y="485.75" width="494.5" height="17.5" rx="8.75" stroke="black" stroke-width="17.5"/>
<path fill-rule="evenodd" clip-rule="evenodd" d="M358 54C363.523 54 368 58.4772 368 64V79V94C368 99.5229 363.523 104 358 104C352.477 104 348 99.5229 348 94V79V64C348 58.4772 352.477 54 358 54ZM358 175C369.046 175 378 166.046 378 155C378 143.954 369.046 135 358 135C346.954 135 338 143.954 338 155C338 166.046 346.954 175 358 175ZM358 195C380.091 195 398 177.091 398 155C398 132.909 380.091 115 358 115C335.909 115 318 132.909 318 155C318 177.091 335.909 195 358 195ZM267 165C261.477 165 257 160.523 257 155C257 149.477 261.477 145 267 145H282H297C302.523 145 307 149.477 307 155C307 160.523 302.523 165 297 165H282H267ZM286.581 226.416C290.486 230.321 296.817 230.322 300.723 226.416L311.33 215.81L321.936 205.204C325.842 201.299 325.842 194.967 321.937 191.062C318.032 187.156 311.7 187.156 307.795 191.061L297.188 201.668L286.581 212.274C282.676 216.179 282.675 222.511 286.581 226.416ZM367.996 246C367.996 251.523 363.518 256 357.996 256C352.473 256 347.996 251.522 347.996 246L347.997 231L347.998 216C347.998 210.477 352.475 206 357.998 206C363.521 206 367.998 210.478 367.998 216L367.997 231L367.996 246ZM429.413 226.423C433.319 222.518 433.319 216.186 429.414 212.281L418.809 201.673L408.203 191.066C404.298 187.16 397.966 187.16 394.061 191.065C390.155 194.97 390.155 201.301 394.06 205.207L404.665 215.814L415.271 226.422C419.176 230.327 425.508 230.328 429.413 226.423ZM419 165C413.477 165 409 160.523 409 155C409 149.477 413.477 145 419 145H434H449C454.523 145 459 149.477 459 155C459 160.523 454.523 165 449 165H434H419ZM394.064 118.938C397.969 122.844 404.3 122.844 408.206 118.939L418.813 108.332L429.419 97.726C433.325 93.8208 433.325 87.4892 429.42 83.5839C425.515 79.6785 419.183 79.6784 415.278 83.5835L404.671 94.1898L394.064 104.796C390.159 108.701 390.158 115.033 394.064 118.938ZM321.942 104.792C325.847 108.698 325.846 115.03 321.941 118.935C318.035 122.84 311.703 122.839 307.799 118.934L297.193 108.326L286.587 97.7188C282.682 93.8133 282.682 87.4816 286.588 83.5767C290.493 79.6717 296.825 79.6722 300.73 83.5777L311.336 94.1851L321.942 104.792Z" fill="black"/>
<g clip-path="url(#clip1_192_164)">
<path d="M297.877 296.826C300.149 298.78 301.365 301.362 301.657 304.328C301.719 306.947 301.664 308.974 299.831 311.008C299.623 311.18 299.415 311.351 299.199 311.527C298.995 311.702 298.79 311.877 298.575 312.056C297.004 313.123 295.393 313.408 293.531 313.656C293.03 313.725 292.53 313.795 292.03 313.864C291.77 313.901 291.511 313.934 291.241 313.97C276.766 315.979 263.092 320.72 252.223 330.793C251.898 331.092 251.569 331.392 251.233 331.702C247.887 334.92 244.743 338.638 242.727 342.846C243.084 343.127 243.084 343.127 243.45 343.412C247.69 346.787 251.153 350.041 253.684 354.898C254.392 356.173 255.13 357.152 256.182 358.16C256.456 358.427 256.73 358.69 257.011 358.963C257.299 359.241 257.588 359.519 257.884 359.807C260.638 362.517 263.125 365.267 265.371 368.412C265.528 368.628 265.682 368.843 265.842 369.062C270.641 375.724 275.276 384.811 274.502 393.248C273.892 395.998 272.851 398.219 270.484 399.822C266.47 401.48 262.004 402.072 257.756 402.865C256.989 403.011 256.218 403.153 255.451 403.299C253.848 403.602 252.245 403.902 250.638 404.201C248.592 404.585 246.547 404.972 244.502 405.363C242.916 405.662 241.331 405.962 239.746 406.258C238.994 406.396 238.238 406.539 237.485 406.685C229.954 408.12 229.954 408.12 226.291 407.857C226.492 408.993 226.737 409.987 227.226 411.031C227.401 411.407 227.401 411.407 227.58 411.791C227.704 412.061 227.832 412.328 227.964 412.605C228.095 412.89 228.227 413.175 228.366 413.467C228.65 414.081 228.935 414.691 229.22 415.301C229.98 416.922 230.732 418.544 231.488 420.166C231.638 420.491 231.788 420.812 231.945 421.148C233.205 423.866 234.436 426.598 235.648 429.337C239.019 436.904 242.588 444.381 246.174 451.846C246.35 452.211 246.525 452.577 246.704 452.953C247.369 454.33 248.03 455.71 248.698 457.087C249.158 458.041 249.619 458.994 250.075 459.947C250.21 460.225 250.345 460.499 250.484 460.78C252.223 464.421 253.055 468.278 251.697 472.208C249.907 476.043 246.967 478.289 243.092 479.809C240.407 480.645 237.686 480.411 235.155 479.246C232.507 477.54 231.145 475.707 229.761 472.891C229.578 472.529 229.392 472.168 229.206 471.792C228.592 470.572 227.989 469.348 227.387 468.121C227.168 467.675 226.948 467.23 226.729 466.788C223.439 460.097 220.272 453.347 217.16 446.572C216.926 446.065 216.696 445.561 216.463 445.053C214.257 440.254 212.058 435.454 209.903 430.633C209.79 430.385 209.68 430.137 209.567 429.881C209.037 428.701 208.515 427.525 207.993 426.346C207.81 425.933 207.624 425.524 207.438 425.1C207.277 424.738 207.116 424.381 206.952 424.008C206.638 423.226 206.638 423.226 206.203 422.832C199.315 438.004 193.351 453.534 187.89 469.272C187.664 469.922 187.434 470.575 187.207 471.226C186.948 471.963 186.696 472.701 186.448 473.439C185.22 476.956 183.526 479.589 180.315 481.543C177.412 482.683 173.865 482.354 171.002 481.269C167.444 479.56 165.293 477.259 163.836 473.6C162.543 469.724 163.679 465.637 165.023 461.956C165.191 461.485 165.355 461.01 165.52 460.535C165.958 459.29 166.404 458.052 166.856 456.81C167.203 455.849 167.543 454.885 167.883 453.921C172.076 442.062 176.623 430.305 181.732 418.814C181.941 418.343 182.149 417.872 182.357 417.401C184.957 411.539 187.686 405.761 190.597 400.049C192.478 396.345 194.132 392.602 195.659 388.741C197.313 384.566 199.172 380.505 201.09 376.447C201.28 376.042 201.473 375.636 201.671 375.22C204.019 370.26 206.415 365.337 209.026 360.508C209.519 359.592 210.009 358.675 210.498 357.755C214.315 350.632 218.409 343.653 223.004 337.002C223.271 336.611 223.541 336.224 223.815 335.822C224.355 335.044 224.896 334.266 225.436 333.488C226.05 332.608 226.653 331.717 227.248 330.826C229.421 327.586 231.729 324.573 234.326 321.662C234.491 321.472 234.659 321.286 234.83 321.092C243.979 310.716 255.97 303.44 269.023 299.018C269.283 298.93 269.538 298.839 269.805 298.747C276.916 296.351 291.2 291.629 297.877 296.826ZM244.429 375.099C244.246 375.322 244.06 375.545 243.87 375.775C243.662 376.024 243.453 376.276 243.238 376.531C243.019 376.805 242.796 377.079 242.566 377.36C242.339 377.638 242.113 377.915 241.879 378.2C240.334 380.114 238.873 382.072 237.474 384.095C237.219 384.468 237.219 384.468 236.956 384.848C236.083 386.02 236.083 386.02 235.787 387.404C238 387.181 240.166 386.867 242.35 386.444C242.796 386.36 242.796 386.36 243.245 386.272C244.177 386.097 245.108 385.918 246.036 385.739C246.671 385.615 247.31 385.494 247.946 385.374C249.494 385.078 251.039 384.782 252.588 384.482C251.149 380.757 248.552 377.346 245.648 374.621C244.892 374.537 244.892 374.537 244.429 375.099Z" fill="#010002"/>
<path d="M275.228 332.007C278.361 335.002 280.359 338.742 280.458 343.11C280.498 348.22 279.479 351.839 275.969 355.725C272.528 358.834 268.573 360.521 263.916 360.473C259.201 360.178 255.019 358.161 251.863 354.63C251.016 353.461 250.319 352.267 249.672 350.977C249.552 350.747 249.431 350.513 249.31 350.276C247.583 346.408 247.966 341.737 249.307 337.829C251.593 333.187 254.873 330.532 259.603 328.585C265.246 327.204 270.731 328.238 275.228 332.007Z" fill="#010002"/>
</g>
<path fill-rule="evenodd" clip-rule="evenodd" d="M294 362C294 356.477 298.477 352 304 352H441C446.523 352 451 356.477 451 362V372C451 375.349 449.353 378.314 446.825 380.129C446.94 380.735 447 381.361 447 382V384C447 384.639 446.94 385.265 446.825 385.871C449.353 387.686 451 390.651 451 394V401C451 404.349 449.353 407.314 446.825 409.129C446.94 409.735 447 410.361 447 411V418L448 418C453.523 418 458 422.477 458 428V433C458 438.523 453.523 443 448 443H447V477C447 482.523 442.523 487 437 487C431.477 487 427 482.523 427 477V443.5H318V476C318 481.523 313.523 486 308 486C302.477 486 298 481.523 298 476V443H297C291.477 443 287 438.523 287 433V428C287 422.477 291.477 418 297 418H298L298 411C298 410.361 298.06 409.735 298.175 409.129C295.647 407.314 294 404.349 294 401V394C294 390.651 295.647 387.686 298.175 385.871C298.06 385.265 298 384.639 298 384V382C298 381.361 298.06 380.735 298.175 380.129C295.647 378.314 294 375.349 294 372V362ZM427 418V411L318 411L318 418L427 418ZM427 384V382H318V384H427Z" fill="black"/>
<path fill-rule="evenodd" clip-rule="evenodd" d="M162.962 233.766C162.998 233.533 163.031 233.3 163.061 233.067C162.951 231.619 162.895 230.196 162.895 228.811C162.895 217.654 155.029 206.674 141.183 200.858C134.952 198.24 131.209 192.864 129.13 188.351C126.979 183.681 125.874 178.4 125.874 173.703C125.874 168.099 119.925 160.9 109.033 160.9C98.1414 160.9 92.1922 168.099 92.1922 173.703C92.1922 180.393 88.9746 188.566 81.3434 192.547C72.3746 197.226 66.2769 206.608 66.2769 217.409C66.2769 224.617 63.6556 231.862 58.5855 237.366C53.4627 242.928 50.5427 249.875 50.5427 257.314C50.5427 266.063 46.5211 275.264 38.5199 280.656C28.8703 287.159 23.7022 296.136 23.7022 305.296C23.7022 321.597 41.3694 338.526 68.3093 338.526C77.0482 338.526 85.1129 336.633 91.9005 333.441C92.6815 333.074 93.4744 332.728 94.2779 332.404L94.3722 323.225C94.1074 323.112 93.8514 322.978 93.6072 322.824L59.6072 301.301C57.274 299.824 56.9015 296.983 58.7753 294.954C60.6491 292.926 64.0596 292.479 66.3928 293.956L94.4901 311.742L94.9507 266.89C95.0357 258.606 101.82 251.94 110.104 252C118.388 252.061 125.035 258.825 124.95 267.109L124.489 311.95L151.607 294.784C153.94 293.307 157.351 293.754 159.225 295.782C161.098 297.81 160.726 300.652 158.393 302.129L124.393 323.652L124.369 323.667L124.303 330.08C126.49 330.587 128.636 331.247 130.716 332.063C136.584 334.366 143.19 335.676 150.22 335.676C176.751 335.676 195.289 317.801 195.289 299.12C195.289 289.17 190.31 279.767 181.497 272.854C179.195 271.048 177.148 268.938 175.336 266.642C164.24 259.331 160.889 245.265 162.854 234.41C162.892 234.195 162.929 233.981 162.962 233.766ZM124.044 355.311C132.265 356.798 140.743 357.355 149.172 356.907C169.325 355.835 188.263 349.046 201.501 337.153C214.937 325.081 221.418 308.585 218.182 291.417C215.19 275.545 204.389 261.668 189.343 251.825C188.155 249.916 187.04 247.655 186.065 245.086C184.556 241.11 183.583 236.914 183.152 233.11C184.146 219.595 179.105 206.545 169.516 195.901C163.678 189.421 156.35 184.026 148.103 179.843C148.084 157.831 131.094 139 108.948 139C88.4555 139 72.3777 155.124 70.0765 174.972C67.3033 176.427 64.6774 178.119 62.2346 180.054C50.0536 189.703 44.0081 204.078 44.7454 219.93C44.7622 220.291 44.7825 220.653 44.8063 221.014C35.2838 231.064 29.0317 245.042 26.2956 260.552C7.99095 275.037 -3.7073 296.222 1.0471 318.221C4.85046 335.82 18.1489 348.541 34.7152 355.483C51.2958 362.431 71.9203 364.031 92.7902 359.277C93.1963 359.185 93.6012 359.09 94.0049 358.994L92.7787 478.401C92.6937 486.685 99.3402 493.449 107.624 493.51C115.908 493.57 122.693 486.904 122.778 478.62L124.044 355.311Z" fill="black"/>
</g>
<defs>
<clipPath id="clip0_192_164">
<rect width="512" height="512" fill="white"/>
</clipPath>
<clipPath id="clip1_192_164">
<rect width="187" height="187" fill="white" transform="translate(139 295)"/>
</clipPath>
</defs>
</svg>
