<svg width="250" height="250" viewBox="0 0 250 250" fill="none" xmlns="http://www.w3.org/2000/svg">
<ellipse cx="125.5" cy="232.5" rx="22.5" ry="1.5" fill="black" fill-opacity="0.1"/>
<path d="M110.122 153.608C110.137 150.511 112.661 148.012 115.758 148.028V148.028C118.855 148.043 121.353 150.566 121.338 153.664L121.21 179.501C121.194 182.598 118.671 185.096 115.574 185.081V185.081C112.477 185.065 109.978 182.542 109.994 179.445L110.122 153.608Z" fill="#FFE2E2"/>
<path d="M139.265 153.608C139.25 150.511 136.726 148.012 133.629 148.028V148.028C130.532 148.043 128.034 150.566 128.049 153.664L128.177 179.501C128.193 182.598 130.716 185.096 133.813 185.081V185.081C136.91 185.065 139.408 182.542 139.393 179.445L139.265 153.608Z" fill="#FFE2E2"/>
<path d="M105.531 107.209C104.796 110.218 101.761 112.061 98.7523 111.326V111.326C95.7436 110.591 93.9005 107.556 94.6355 104.547L100.767 79.4478C101.503 76.4391 104.537 74.5959 107.546 75.331V75.331C110.555 76.066 112.398 79.1009 111.663 82.1096L105.531 107.209Z" fill="#FFE2E2"/>
<path d="M144.547 108.31C145.388 111.291 148.487 113.025 151.468 112.183V112.183C154.448 111.341 156.182 108.242 155.34 105.262L148.318 80.3969C147.476 77.4163 144.377 75.6824 141.397 76.5242V76.5242C138.416 77.366 136.682 80.4646 137.524 83.4452L144.547 108.31Z" fill="#FFE2E2"/>
<path d="M110.14 181.621C110.141 178.524 112.653 176.014 115.75 176.016V176.016C118.847 176.017 121.357 178.529 121.356 181.626L121.34 217.524C121.339 220.621 118.827 223.131 115.73 223.129V223.129C112.633 223.128 110.123 220.616 110.124 217.519L110.14 181.621Z" fill="#FFE2E2"/>
<path d="M139.247 181.621C139.246 178.524 136.734 176.014 133.637 176.016V176.016C130.54 176.017 128.03 178.529 128.031 181.626L128.047 217.524C128.048 220.621 130.56 223.131 133.657 223.129V223.129C136.754 223.128 139.264 220.616 139.263 217.519L139.247 181.621Z" fill="#FFE2E2"/>
<path d="M108 79.375H142V101.875H108V79.375Z" fill="#FFE2E2"/>
<path d="M108 79.9375C108 77.1416 110.267 74.875 113.063 74.875H136.938C139.734 74.875 142 77.1416 142 79.9375V79.9375C142 82.7334 139.734 85 136.938 85H113.063C110.267 85 108 82.7334 108 79.9375V79.9375Z" fill="#FFE2E2"/>
<rect x="102" y="74.875" width="46" height="12.375" rx="6.1875" fill="#FFE2E2"/>
<rect x="120" y="67" width="10" height="20.25" fill="#FFE2E2"/>
<path d="M113 72.625H118.5L121 78.25H129L131.5 72.625H136.5L136 85L137.5 91.75L142.5 96.8125V103L142 106.375L142.5 112L142 120.438L142.5 122.125V130H107.5L107 122.125L107.5 116.5L107 111.438L107.5 96.8125L112.5 91.75L113.5 84.4375L113 72.625Z" fill="#1A3474"/>
<path fill-rule="evenodd" clip-rule="evenodd" d="M135.835 48.4736C135.841 48.4293 135.818 48.3845 135.775 48.3634C135.768 48.3598 135.751 48.3481 135.725 48.3238C135.701 48.301 135.675 48.2722 135.649 48.2409C135.596 48.1762 135.555 48.1122 135.541 48.0809C135.488 47.9628 135.433 47.8768 135.363 47.7763C135.288 47.669 135.212 47.5681 135.138 47.4693C134.993 47.2756 134.854 47.0899 134.739 46.8797L134.707 46.8204C134.556 46.5434 134.399 46.2572 134.211 45.9985C134.098 45.8442 133.918 45.7466 133.739 45.6867C133.626 45.6487 133.507 45.6241 133.396 45.6101C133.388 45.45 133.331 45.3163 133.274 45.1977C133.263 45.1743 133.252 45.1517 133.241 45.1296C133.19 45.0262 133.146 44.9349 133.122 44.8302C133.091 44.6945 133.028 44.5705 132.972 44.4591L132.962 44.4403C132.951 44.4175 132.939 44.3919 132.926 44.3627L132.923 44.3557C132.911 44.3292 132.898 44.3002 132.884 44.2717C132.855 44.2111 132.816 44.1415 132.762 44.0877C132.72 44.0462 132.674 44.022 132.627 44.0092C132.607 43.9878 132.578 43.9745 132.546 43.9745C132.53 43.9745 132.522 43.9706 132.517 43.9672C132.51 43.9625 132.501 43.9531 132.488 43.9332C132.477 43.9154 132.468 43.8956 132.455 43.87L132.448 43.8564C132.433 43.8267 132.415 43.7898 132.39 43.7557C132.19 43.4822 131.911 43.3375 131.637 43.2025C131.152 42.9636 130.63 42.7725 130.077 42.726C129.732 42.6969 129.391 42.6238 129.042 42.5472L128.998 42.5376C128.666 42.4645 128.327 42.3898 127.981 42.3539C127.973 42.353 127.965 42.3531 127.957 42.3541C127.857 42.3331 127.76 42.287 127.648 42.2329L127.644 42.2311C127.534 42.1784 127.409 42.1183 127.273 42.0914C126.88 42.0138 126.475 41.9897 126.076 42.0038C126.032 42.0053 125.986 42.0063 125.937 42.0072C125.775 42.0105 125.593 42.0141 125.432 42.043C125.197 42.0851 124.968 42.0843 124.724 42.0835C124.634 42.0832 124.541 42.0829 124.446 42.0848C124.228 42.0891 124.014 42.1163 123.802 42.1743C123.74 42.1914 123.688 42.2269 123.653 42.2509L123.646 42.2557C123.606 42.2835 123.583 42.297 123.56 42.3022C123.506 42.3146 123.47 42.3648 123.475 42.4183C123.454 42.4148 123.435 42.4121 123.417 42.4097L123.405 42.408C123.358 42.4014 123.324 42.3954 123.292 42.3826C123.269 42.3735 123.246 42.3636 123.222 42.3535C123.086 42.2966 122.928 42.2302 122.757 42.2201C122.616 42.2116 122.47 42.214 122.329 42.2163C122.266 42.2173 122.204 42.2184 122.145 42.2184H121.519C121.448 42.2184 121.396 42.2344 121.35 42.2532C121.331 42.2614 121.316 42.2682 121.303 42.2741C121.283 42.2833 121.267 42.2908 121.242 42.299C121.128 42.3363 121.017 42.3749 120.905 42.4133C120.708 42.4814 120.513 42.5489 120.314 42.6071C120.165 42.6506 120.031 42.7185 119.907 42.7866C119.878 42.8026 119.85 42.8186 119.822 42.8343C119.728 42.8867 119.639 42.9365 119.544 42.9786L119.528 42.9858C119.45 43.0205 119.328 43.0743 119.25 43.1379C119.128 43.2369 118.991 43.3149 118.844 43.3929L118.768 43.4333C118.646 43.4974 118.518 43.5645 118.399 43.6432C118.305 43.7047 118.22 43.7732 118.139 43.8408C118.114 43.8609 118.091 43.8808 118.068 43.9004C118.012 43.9478 117.957 43.9941 117.9 44.0389C117.846 44.0809 117.791 44.1177 117.733 44.1569L117.677 44.1943C117.6 44.247 117.519 44.3055 117.444 44.3789C117.328 44.493 117.221 44.6293 117.118 44.7604C117.082 44.8053 117.047 44.8501 117.013 44.8927C116.873 45.0649 116.733 45.2158 116.567 45.3142C116.532 45.3351 116.513 45.3723 116.513 45.4102L116.442 45.4236C116.318 45.4471 116.185 45.4736 116.058 45.5221C115.808 45.6168 115.58 45.7955 115.392 45.944L115.385 45.9492C115.088 46.1838 114.754 46.4473 114.566 46.8181C114.378 47.1878 114.186 47.5501 113.969 47.9014C113.925 47.9719 113.886 48.0457 113.85 48.1152C113.838 48.1374 113.827 48.1594 113.815 48.1805C113.767 48.2701 113.72 48.3521 113.66 48.4261C113.636 48.4563 113.609 48.4961 113.586 48.5312C113.574 48.5478 113.564 48.5634 113.555 48.5764C113.521 48.6249 113.493 48.6562 113.467 48.6726C113.404 48.7126 113.375 48.7849 113.358 48.8372C113.34 48.896 113.329 48.9642 113.322 49.0291C113.307 49.1596 113.307 49.2947 113.307 49.3527C113.307 49.403 113.341 49.4453 113.388 49.458C113.205 49.6817 113.017 49.9034 112.829 50.1262L112.828 50.1273C112.715 50.2609 112.602 50.3955 112.489 50.5305C112.18 50.9002 111.865 51.2448 111.479 51.5169C111.464 51.5277 111.351 51.6114 111.246 51.6923C111.192 51.733 111.14 51.7739 111.101 51.8054C111.081 51.8209 111.064 51.8352 111.051 51.8464C111.046 51.8516 111.038 51.8584 111.032 51.8655C111.029 51.8681 111.022 51.876 111.016 51.887C111.013 51.8915 111.005 51.9055 111.002 51.9254C110.998 51.9477 110.999 51.995 111.042 52.0288C111.066 52.0477 111.092 52.0565 111.111 52.0611C111.131 52.066 111.151 52.0685 111.17 52.0697C111.207 52.0722 111.248 52.0706 111.286 52.0678C111.324 52.065 111.362 52.0608 111.393 52.0571L111.417 52.0542C111.437 52.0518 111.451 52.0501 111.459 52.0494C111.786 52.0239 112.1 51.9752 112.418 51.9253C112.428 51.9237 112.453 51.9226 112.499 51.9209C112.54 51.9193 112.591 51.9172 112.642 51.9125C112.68 51.909 112.721 51.9037 112.759 51.895C112.758 52.139 112.752 52.3803 112.726 52.6191C112.692 52.9237 112.617 53.2278 112.541 53.5349C112.52 53.6228 112.498 53.711 112.477 53.7995C112.351 54.3315 112.303 54.8912 112.257 55.4252L112.255 55.4482C112.178 56.3506 112.387 57.1668 112.683 57.9932C112.711 58.0716 112.735 58.1487 112.759 58.2283C112.773 58.2747 112.788 58.3226 112.804 58.3714C112.845 58.5005 112.894 58.6331 112.964 58.7598C112.998 58.821 113.047 58.8855 113.091 58.943L113.121 58.9831C113.175 59.0562 113.214 59.1154 113.23 59.1658C113.235 59.1836 113.245 59.199 113.257 59.2112C113.076 59.1688 112.895 59.1678 112.726 59.2282C112.55 59.2912 112.397 59.4168 112.274 59.6081C112.031 59.9848 111.893 60.6281 111.893 61.6156V61.638L111.902 61.6586C111.902 62.4006 112.091 63.2856 112.606 64.1686C112.863 64.6099 113.132 65.0275 113.395 65.3634C113.654 65.6957 113.756 65.9612 114.001 66.0822L116.593 67.0828L116.888 67.6776C118.203 70.9331 119.671 71.0846 123.085 72.5C124.36 72.8434 125.119 72.8516 126.5 72.5C129.985 70.9598 131.109 70.7695 132.6 67.6776L132.724 67.1245C133.577 66.8405 135.071 67.2662 136.31 65.2302C137.149 63.8511 137.461 61.4935 137.315 60.7751C137.17 60.0601 136.735 59.6308 136.457 59.3569L136.454 59.3541C136.438 59.3386 136.422 59.3245 136.405 59.3118C136.495 59.1794 136.591 59.0511 136.689 58.9206L136.761 58.8248C136.886 58.6561 137.012 58.4826 137.122 58.2977C137.27 58.0518 137.255 57.8129 137.241 57.5841C137.238 57.5318 137.235 57.4801 137.234 57.429C137.231 57.3158 137.212 57.2065 137.194 57.1059L137.191 57.0936C137.174 56.9954 137.157 56.9056 137.153 56.8152C137.142 56.6019 137.118 56.3918 137.08 56.1813C137.021 55.8598 137.015 55.5247 137.015 55.1874V54.036L137.015 53.9572C137.015 53.6858 137.016 53.3999 136.971 53.1212C136.954 53.0207 136.95 52.9188 136.946 52.8094L136.946 52.8082C136.941 52.7006 136.937 52.5855 136.917 52.4704C136.896 52.3482 136.899 52.2242 136.903 52.0905C136.904 52.04 136.905 51.9882 136.905 51.9345C136.905 51.8915 136.9 51.8497 136.895 51.8124L136.889 51.7726C136.885 51.7501 136.882 51.7297 136.88 51.7078C136.872 51.6424 136.875 51.5987 136.893 51.563C136.913 51.5242 136.907 51.4793 136.882 51.4471C136.933 51.4555 136.987 51.4613 137.041 51.4613C137.101 51.4613 137.158 51.4536 137.207 51.447L137.209 51.4468C137.261 51.4398 137.303 51.4343 137.344 51.4343C137.39 51.4343 137.555 51.4226 137.695 51.4011C137.764 51.3906 137.837 51.3763 137.889 51.3561C137.902 51.3508 137.918 51.3439 137.932 51.3349C137.945 51.3265 137.966 51.3117 137.981 51.2876C137.999 51.2594 138.007 51.2214 137.994 51.1821C137.983 51.1485 137.96 51.1273 137.945 51.1157C137.877 51.064 137.797 51.0371 137.737 51.017L137.713 51.009C137.645 50.9854 137.601 50.9652 137.569 50.9285C137.512 50.8654 137.441 50.8142 137.377 50.7708L137.332 50.7407C137.283 50.7079 137.239 50.6788 137.2 50.6469C137.119 50.5795 137.053 50.5026 136.985 50.4179L136.946 50.3685C136.891 50.299 136.832 50.2243 136.765 50.1542C136.691 50.0772 136.626 49.9859 136.559 49.8865L136.523 49.832C136.468 49.7503 136.411 49.6643 136.349 49.5856C136.301 49.5249 136.249 49.4656 136.196 49.4076C136.222 49.4066 136.249 49.396 136.27 49.3757C136.313 49.3331 136.313 49.2639 136.27 49.2213C136.264 49.216 136.259 49.2073 136.245 49.1751L136.243 49.1713C136.231 49.1443 136.211 49.0997 136.174 49.0614L136.155 49.0412C136.124 49.009 136.111 48.9957 136.104 48.976C136.08 48.9111 136.029 48.7845 135.966 48.6675C135.935 48.6092 135.899 48.5499 135.859 48.501C135.852 48.4921 135.844 48.4828 135.835 48.4736ZM127.229 42.3056C126.856 42.2319 126.469 42.2085 126.084 42.2221C126.032 42.2239 125.98 42.225 125.929 42.226C125.77 42.2293 125.614 42.2324 125.471 42.2579C125.215 42.3039 124.956 42.303 124.706 42.3021C124.62 42.3018 124.534 42.3015 124.45 42.3032C124.249 42.3072 124.053 42.3323 123.861 42.3848C123.838 42.3912 123.816 42.4058 123.773 42.4351L123.771 42.4365C123.739 42.4586 123.692 42.4902 123.635 42.5083C123.643 42.5302 123.643 42.5546 123.635 42.5783C123.616 42.6355 123.553 42.6664 123.495 42.6474C123.463 42.6367 123.429 42.632 123.383 42.6256L123.374 42.6243C123.327 42.6177 123.268 42.6089 123.208 42.5848C123.18 42.5736 123.153 42.5624 123.127 42.5516C122.991 42.4948 122.873 42.4458 122.744 42.4381C122.611 42.4302 122.48 42.4324 122.344 42.4346C122.279 42.4357 122.212 42.4368 122.145 42.4368H121.519C121.486 42.4368 121.463 42.4433 121.436 42.4546C121.43 42.4571 121.422 42.4609 121.412 42.4654C121.385 42.4774 121.348 42.4944 121.312 42.5063C121.205 42.5413 121.097 42.5788 120.987 42.6168C120.786 42.6862 120.581 42.757 120.377 42.8166C120.252 42.8529 120.136 42.9109 120.015 42.9774C119.989 42.9916 119.963 43.0063 119.936 43.0213C119.841 43.0746 119.74 43.131 119.636 43.1777L119.63 43.1803C119.542 43.2193 119.445 43.2623 119.391 43.3065C119.251 43.4199 119.098 43.5062 118.95 43.5851L118.869 43.6277C118.747 43.6917 118.632 43.7528 118.522 43.825C118.439 43.8794 118.361 43.9414 118.282 44.0076C118.26 44.0259 118.237 44.0448 118.215 44.0638C118.157 44.1124 118.098 44.1625 118.037 44.2099C117.977 44.2575 117.913 44.3004 117.853 44.3404L117.803 44.3741C117.728 44.4251 117.66 44.4744 117.601 44.5334C117.496 44.6369 117.401 44.7571 117.301 44.8847C117.263 44.9319 117.225 44.9803 117.186 45.0292C117.108 45.1252 117.024 45.2219 116.932 45.3093C117.142 45.2704 117.384 45.2818 117.576 45.3448C117.639 45.3654 117.702 45.3857 117.765 45.4061C118.094 45.5116 118.427 45.6187 118.748 45.7873C119.339 46.0974 119.879 46.4956 120.382 46.9206C120.448 46.9759 120.519 47.0318 120.594 47.0909L120.653 47.137C120.748 47.2125 120.848 47.2929 120.942 47.3787C121.13 47.5493 121.305 47.7498 121.388 47.9942C121.407 48.0515 121.376 48.1133 121.318 48.1324C121.26 48.1515 121.197 48.1205 121.178 48.0633C121.113 47.8711 120.97 47.7011 120.792 47.5393C120.704 47.4589 120.609 47.3826 120.514 47.3075L120.457 47.263C120.382 47.2036 120.307 47.1446 120.238 47.0864C119.742 46.6674 119.216 46.28 118.644 45.9801C118.342 45.8213 118.03 45.7209 117.701 45.6154C117.637 45.5946 117.571 45.5736 117.506 45.552C117.317 45.4899 117.054 45.4898 116.866 45.5507C116.749 45.5882 116.629 45.6109 116.516 45.6321L116.484 45.6381C116.359 45.6617 116.244 45.6853 116.137 45.726C115.925 45.8064 115.723 45.9622 115.53 46.1146C115.224 46.3563 114.928 46.5925 114.764 46.9158C114.575 47.2875 114.38 47.6561 114.158 48.0151C114.119 48.0785 114.085 48.1427 114.049 48.2104C114.037 48.234 114.024 48.258 114.011 48.2825C113.962 48.3751 113.906 48.4717 113.833 48.5621C113.815 48.5854 113.799 48.6095 113.779 48.6382C113.767 48.6568 113.753 48.6774 113.737 48.7009C113.701 48.7516 113.654 48.8129 113.59 48.8543L113.589 48.8549L113.588 48.856L113.59 48.8543L113.589 48.8549C113.587 48.8587 113.579 48.8719 113.57 48.9014C113.558 48.9412 113.548 48.9939 113.542 49.0529C113.533 49.1354 113.53 49.2213 113.529 49.2853C113.803 48.9459 114.067 48.6003 114.312 48.2383C114.346 48.1881 114.415 48.1745 114.466 48.208C114.517 48.2414 114.53 48.3092 114.496 48.3594C114.041 49.0335 113.518 49.6527 112.997 50.2691C112.884 50.4024 112.771 50.536 112.66 50.6695C112.348 51.0422 112.019 51.4052 111.608 51.6946L111.606 51.6963L111.6 51.7001L111.583 51.7126L111.53 51.7522C111.499 51.7757 111.461 51.804 111.423 51.8335L111.442 51.8316C111.758 51.8069 112.065 51.7596 112.383 51.7096C112.408 51.7057 112.446 51.7042 112.481 51.7029L112.49 51.7026C112.532 51.701 112.577 51.6991 112.622 51.695C112.667 51.6908 112.704 51.6847 112.731 51.6765C112.741 51.6736 112.747 51.6711 112.75 51.6695C112.753 51.6653 112.756 51.6615 112.759 51.6578L112.759 51.6367C112.759 51.578 112.759 51.5191 112.759 51.4601C112.759 51.3997 112.808 51.3508 112.87 51.3508C112.931 51.3508 112.98 51.3997 112.98 51.4601C112.98 51.5176 112.981 51.5754 112.981 51.6336C112.982 51.9655 112.983 52.3067 112.946 52.6427C112.911 52.963 112.831 53.2858 112.755 53.5951C112.733 53.6809 112.712 53.7657 112.693 53.849C112.571 54.3656 112.524 54.9118 112.477 55.4509L112.476 55.4667C112.402 56.3234 112.6 57.1051 112.892 57.9204C112.921 58.0028 112.948 58.0892 112.974 58.1727C112.987 58.2181 113.001 58.2627 113.015 58.3052C113.055 58.4297 113.099 58.5467 113.159 58.6549C113.184 58.7013 113.221 58.7493 113.263 58.8054L113.299 58.8539C113.352 58.925 113.413 59.0115 113.441 59.1015C113.459 59.1592 113.427 59.2203 113.368 59.2381L113.361 59.2398C113.71 59.3498 114.075 59.6033 114.415 59.9066C114.765 60.2189 115.098 60.5932 115.37 60.9445L114.652 57.758L115.776 56.6499L117.765 54.371L119.948 52.7587L129.468 52.6191L130.947 54.2447L133.711 56.6499L134.835 57.758L134.27 60.2682C134.542 60.0188 134.9 59.7279 135.252 59.5156C135.47 59.3834 135.694 59.2771 135.897 59.2341C136 59.2122 136.104 59.2057 136.2 59.2237C136.202 59.2184 136.205 59.2133 136.209 59.2083C136.306 59.0648 136.41 58.9258 136.512 58.7893L136.582 58.6955C136.707 58.5277 136.827 58.3616 136.932 58.1865C137.042 58.0029 137.033 57.8426 137.021 57.6222C137.017 57.5642 137.014 57.5019 137.012 57.434C137.01 57.3398 136.994 57.2461 136.976 57.1443L136.973 57.1278C136.955 57.0331 136.937 56.9307 136.932 56.8259C136.922 56.622 136.898 56.4212 136.862 56.2199C136.799 55.8775 136.793 55.5252 136.793 55.1874L136.793 53.9591C136.793 53.6845 136.794 53.4161 136.752 53.1555C136.733 53.0422 136.729 52.9293 136.725 52.8238L136.724 52.817C136.72 52.7074 136.715 52.6058 136.699 52.5064C136.674 52.362 136.678 52.2073 136.681 52.0674C136.682 52.0212 136.683 51.9766 136.683 51.9345C136.683 51.9071 136.68 51.8774 136.675 51.8429L136.67 51.8105C136.667 51.7856 136.662 51.758 136.659 51.7324C136.651 51.6553 136.648 51.5591 136.695 51.4653C136.705 51.4449 136.722 51.429 136.74 51.4187L136.696 51.4084L136.689 51.4069C136.653 51.3985 136.619 51.3906 136.586 51.384C136.574 51.3815 136.559 51.3788 136.542 51.3757C136.478 51.3642 136.387 51.3478 136.31 51.3201C136.218 51.2871 136.081 51.2141 136.081 51.0548C136.081 50.9945 136.13 50.9456 136.191 50.9456C136.253 50.9456 136.302 50.9945 136.302 51.0548C136.302 51.0612 136.304 51.0853 136.386 51.115C136.443 51.1355 136.506 51.147 136.568 51.1582C136.589 51.1621 136.61 51.1659 136.631 51.17C136.667 51.1774 136.704 51.1859 136.74 51.1942L136.746 51.1956C136.78 51.2036 136.813 51.2113 136.846 51.2182C136.917 51.2329 136.981 51.2428 137.041 51.2428C137.084 51.2428 137.128 51.2372 137.179 51.2303L137.184 51.2297C137.231 51.2233 137.287 51.2158 137.344 51.2158C137.37 51.2158 137.476 51.209 137.587 51.1955C137.526 51.1713 137.459 51.1359 137.402 51.0731C137.365 51.0318 137.314 50.9936 137.251 50.9508L137.213 50.9254C137.162 50.8916 137.106 50.8542 137.058 50.8144C136.958 50.7319 136.881 50.6404 136.811 50.553L136.768 50.4988C136.714 50.4301 136.663 50.3659 136.604 50.3043C136.516 50.2126 136.442 50.1078 136.375 50.0073L136.336 49.949C136.282 49.8678 136.23 49.7911 136.174 49.7201C136.073 49.5926 135.958 49.4748 135.839 49.3537C135.793 49.3069 135.747 49.2597 135.701 49.2111L135.653 49.1604C135.478 48.9758 135.322 48.8117 135.118 48.6743C135.067 48.6403 135.024 48.598 134.989 48.5638L134.975 48.5505C134.934 48.5113 134.902 48.483 134.866 48.4641C134.774 48.4155 134.673 48.3864 134.561 48.3542C134.532 48.3459 134.502 48.3374 134.472 48.3283C134.161 48.2349 133.871 48.1649 133.56 48.1649C133.499 48.1649 133.45 48.116 133.45 48.0557C133.45 47.9953 133.499 47.9464 133.56 47.9464C133.905 47.9464 134.22 48.0243 134.537 48.1193C134.561 48.1265 134.586 48.1338 134.613 48.1413C134.726 48.1739 134.856 48.211 134.971 48.2716C135.037 48.3065 135.088 48.3546 135.129 48.3941L135.144 48.408C135.181 48.4438 135.21 48.4716 135.243 48.4938C135.468 48.6455 135.64 48.8271 135.813 49.0092L135.863 49.0617C135.904 49.105 135.947 49.1492 135.991 49.1941C136.003 49.206 136.014 49.218 136.026 49.23C136.021 49.2213 136.018 49.2159 136.013 49.2114L136.001 49.1991C135.971 49.1689 135.92 49.118 135.895 49.0506C135.873 48.9902 135.827 48.8742 135.771 48.7698C135.742 48.7174 135.714 48.6714 135.686 48.6376C135.673 48.6207 135.661 48.6088 135.651 48.601C135.643 48.5947 135.638 48.5925 135.638 48.5925C135.585 48.5766 135.553 48.5242 135.561 48.4711C135.532 48.4428 135.504 48.4107 135.477 48.3784C135.42 48.3083 135.364 48.2266 135.338 48.1688C135.293 48.0685 135.247 47.9952 135.18 47.9C135.115 47.8062 135.044 47.7119 134.973 47.6161C134.822 47.4147 134.666 47.2068 134.544 46.9833L134.513 46.9268C134.36 46.6469 134.211 46.3727 134.031 46.1262C133.956 46.024 133.826 45.9464 133.668 45.8935C133.512 45.8412 133.341 45.8175 133.202 45.8143C133.14 45.8129 133.092 45.7628 133.093 45.7025C133.095 45.6537 133.128 45.6131 133.173 45.6001C133.164 45.4933 133.125 45.3969 133.074 45.2911C133.065 45.2718 133.055 45.252 133.045 45.2316C132.994 45.1277 132.935 45.0096 132.906 44.8776C132.881 44.769 132.829 44.667 132.769 44.5487L132.764 44.538C132.75 44.5098 132.736 44.4794 132.723 44.4508L132.72 44.4442C132.708 44.4171 132.697 44.3912 132.684 44.366C132.657 44.31 132.632 44.2685 132.605 44.2422C132.581 44.218 132.55 44.2098 132.494 44.2185C132.464 44.223 132.433 44.2314 132.396 44.242L132.378 44.2473C132.348 44.2561 132.315 44.266 132.283 44.2729L132.273 44.2788C132.264 44.2847 132.253 44.2932 132.238 44.3057L132.23 44.3125C132.206 44.3339 132.164 44.37 132.116 44.3891C132.082 44.4029 132.051 44.4149 132.021 44.4261C131.905 44.4705 131.82 44.5029 131.733 44.5826C131.552 44.7484 131.39 44.9359 131.241 45.1338C131.152 45.2507 131.057 45.3561 130.963 45.4574L130.901 45.5236C130.827 45.6021 130.755 45.679 130.685 45.7606C130.493 45.9847 130.291 46.1983 130.09 46.4105C129.996 46.5096 129.902 46.6086 129.81 46.7079C129.667 46.8625 129.535 47.0273 129.401 47.1957L129.389 47.2102C129.26 47.373 129.128 47.5391 128.984 47.6965C128.943 47.7414 128.873 47.745 128.827 47.7046C128.782 47.6643 128.778 47.5952 128.819 47.5504C128.958 47.3985 129.086 47.2375 129.217 47.0731L129.227 47.0608C129.36 46.8931 129.497 46.7221 129.646 46.5606C129.742 46.4573 129.838 46.3565 129.932 46.2564C130.131 46.0464 130.327 45.8395 130.516 45.6195C130.59 45.5339 130.666 45.4524 130.74 45.3733L130.8 45.3096C130.893 45.2095 130.982 45.1108 131.063 45.0034C131.218 44.798 131.389 44.5998 131.582 44.4227C131.703 44.3117 131.835 44.262 131.955 44.2166C131.982 44.2067 132.008 44.197 132.032 44.1869C132.044 44.1825 132.057 44.1713 132.094 44.1401L132.096 44.1382C132.123 44.1155 132.172 44.0735 132.235 44.0598C132.254 44.0556 132.274 44.05 132.297 44.0432C132.281 44.0166 132.267 43.9877 132.255 43.964L132.249 43.9524C132.234 43.9229 132.223 43.9009 132.21 43.8834C132.046 43.6585 131.814 43.534 131.538 43.3978C131.066 43.1655 130.573 42.9869 130.058 42.9436C129.696 42.9132 129.341 42.8367 128.994 42.7604L128.954 42.7517C128.619 42.6779 128.291 42.6057 127.958 42.5712L127.957 42.571C127.945 42.5725 127.933 42.5722 127.921 42.5698C127.788 42.5437 127.666 42.4848 127.558 42.4328L127.55 42.4292C127.436 42.3739 127.335 42.3264 127.229 42.3056ZM132.503 67.0968L134.593 57.8277L133.501 56.7514L130.74 54.371L129.401 52.8238L120.015 52.9634L117.973 54.4973L115.987 56.7514L114.895 57.8277L116.432 64.6477L117.009 67.2088L117.09 67.5681C118.446 70.7782 119.83 70.844 123.177 72.2816C124.596 72.6302 125.227 72.4929 126.408 72.2816C129.549 70.8905 130.88 70.9208 132.397 67.5681L132.503 67.0968ZM136.12 65.1178C134.968 67.0108 133.615 66.556 132.781 66.872L134.203 60.5654L134.238 60.6007C134.512 60.3312 134.948 59.9552 135.367 59.7019C135.578 59.5748 135.776 59.4831 135.944 59.4476C136.111 59.4121 136.224 59.4367 136.297 59.5085C136.574 59.7809 136.966 60.1703 137.098 60.8179C137.229 61.4648 136.942 63.7663 136.12 65.1178ZM116.217 64.7001L116.692 66.8082L114.261 65.8869C114.063 65.7895 113.827 65.5589 113.57 65.2302C113.316 64.905 113.053 64.4966 112.798 64.0596C112.294 63.1953 112.113 62.5583 112.115 61.5932C112.117 60.6281 112.255 60.0446 112.461 59.7252C112.563 59.5673 112.679 59.4773 112.801 59.4336C112.925 59.3895 113.066 59.3885 113.223 59.4278C113.543 59.5076 113.907 59.7477 114.267 60.0685C114.618 60.3821 114.955 60.7632 115.226 61.1185L116.217 64.7001Z" fill="black"/>
<path d="M126.084 42.2221C126.469 42.2085 126.856 42.2319 127.229 42.3056C127.335 42.3264 127.436 42.3739 127.55 42.4292L127.558 42.4328C127.666 42.4848 127.788 42.5437 127.921 42.5698C127.933 42.5722 127.945 42.5725 127.957 42.571L127.958 42.5712C128.291 42.6057 128.619 42.6779 128.954 42.7517L128.994 42.7604C129.341 42.8367 129.696 42.9132 130.058 42.9436C130.573 42.9869 131.066 43.1655 131.538 43.3978C131.814 43.534 132.046 43.6585 132.21 43.8834C132.223 43.9009 132.234 43.9229 132.249 43.9524L132.255 43.964C132.267 43.9877 132.281 44.0166 132.297 44.0432C132.274 44.05 132.254 44.0556 132.235 44.0598C132.172 44.0735 132.123 44.1155 132.096 44.1382L132.094 44.1401C132.057 44.1713 132.044 44.1825 132.032 44.1869C132.008 44.197 131.982 44.2067 131.955 44.2166C131.835 44.262 131.703 44.3117 131.582 44.4227C131.389 44.5998 131.218 44.798 131.063 45.0034C130.982 45.1108 130.893 45.2095 130.8 45.3096L130.74 45.3733C130.666 45.4524 130.59 45.5339 130.516 45.6195C130.327 45.8395 130.131 46.0464 129.932 46.2564C129.838 46.3565 129.742 46.4573 129.646 46.5606C129.497 46.7221 129.36 46.8931 129.227 47.0608L129.217 47.0731C129.086 47.2375 128.958 47.3985 128.819 47.5504C128.778 47.5952 128.782 47.6643 128.827 47.7046C128.873 47.745 128.943 47.7414 128.984 47.6965C129.128 47.5391 129.26 47.373 129.389 47.2102L129.401 47.1957C129.535 47.0273 129.667 46.8625 129.81 46.7079C129.902 46.6086 129.996 46.5096 130.09 46.4105C130.291 46.1983 130.493 45.9847 130.685 45.7606C130.755 45.679 130.827 45.6021 130.901 45.5236L130.963 45.4574C131.057 45.3561 131.152 45.2507 131.241 45.1338C131.39 44.9359 131.552 44.7484 131.733 44.5826C131.82 44.5029 131.905 44.4705 132.021 44.4261C132.051 44.4149 132.082 44.4029 132.116 44.3891C132.164 44.37 132.206 44.3339 132.23 44.3125L132.238 44.3057C132.253 44.2932 132.264 44.2847 132.273 44.2788L132.283 44.2729C132.315 44.266 132.348 44.2561 132.378 44.2473L132.396 44.242C132.433 44.2314 132.464 44.223 132.494 44.2185C132.55 44.2098 132.581 44.218 132.605 44.2422C132.632 44.2685 132.657 44.31 132.684 44.366C132.697 44.3912 132.708 44.4171 132.72 44.4442L132.723 44.4508C132.736 44.4794 132.75 44.5098 132.764 44.538L132.769 44.5487C132.829 44.667 132.881 44.769 132.906 44.8776C132.935 45.0096 132.994 45.1277 133.045 45.2316C133.055 45.252 133.065 45.2718 133.074 45.2911C133.125 45.3969 133.164 45.4933 133.173 45.6001C133.128 45.6131 133.095 45.6537 133.093 45.7025C133.092 45.7628 133.14 45.8129 133.202 45.8143C133.341 45.8175 133.512 45.8412 133.668 45.8935C133.826 45.9464 133.956 46.024 134.031 46.1262C134.211 46.3727 134.36 46.6469 134.513 46.9268L134.544 46.9833C134.666 47.2068 134.822 47.4147 134.973 47.6161C135.044 47.7119 135.115 47.8062 135.18 47.9C135.247 47.9952 135.293 48.0685 135.338 48.1688C135.364 48.2266 135.42 48.3083 135.477 48.3784C135.504 48.4107 135.532 48.4428 135.561 48.4711C135.553 48.5242 135.585 48.5766 135.638 48.5925C135.638 48.5925 135.643 48.5947 135.651 48.601C135.661 48.6088 135.673 48.6207 135.686 48.6376C135.714 48.6714 135.742 48.7174 135.771 48.7698C135.827 48.8742 135.873 48.9902 135.895 49.0506C135.92 49.118 135.971 49.1689 136.001 49.1991L136.013 49.2114C136.018 49.2159 136.021 49.2213 136.026 49.23L135.991 49.1941C135.947 49.1492 135.904 49.105 135.863 49.0617L135.813 49.0092C135.64 48.8271 135.468 48.6455 135.243 48.4938C135.21 48.4716 135.181 48.4438 135.144 48.408L135.129 48.3941C135.088 48.3546 135.037 48.3065 134.971 48.2716C134.856 48.211 134.726 48.1739 134.613 48.1413C134.586 48.1338 134.561 48.1265 134.537 48.1193C134.22 48.0243 133.905 47.9464 133.56 47.9464C133.499 47.9464 133.45 47.9953 133.45 48.0557C133.45 48.116 133.499 48.1649 133.56 48.1649C133.871 48.1649 134.161 48.2349 134.472 48.3283C134.502 48.3374 134.532 48.3459 134.561 48.3542C134.673 48.3864 134.774 48.4155 134.866 48.4641C134.902 48.483 134.934 48.5113 134.975 48.5505L134.989 48.5638C135.024 48.598 135.067 48.6403 135.118 48.6743C135.322 48.8117 135.478 48.9758 135.653 49.1604L135.701 49.2111C135.747 49.2597 135.793 49.3069 135.839 49.3537C135.958 49.4748 136.073 49.5926 136.174 49.7201C136.23 49.7911 136.282 49.8678 136.336 49.949L136.375 50.0073C136.442 50.1078 136.516 50.2126 136.604 50.3043C136.663 50.3659 136.714 50.4301 136.768 50.4988L136.811 50.553C136.881 50.6404 136.958 50.7319 137.058 50.8144C137.106 50.8542 137.162 50.8916 137.213 50.9254L137.251 50.9508C137.314 50.9936 137.365 51.0318 137.402 51.0731C137.459 51.1359 137.526 51.1713 137.587 51.1955C137.476 51.209 137.37 51.2158 137.344 51.2158C137.287 51.2158 137.231 51.2233 137.184 51.2297L137.179 51.2303C137.128 51.2372 137.084 51.2428 137.041 51.2428C136.981 51.2428 136.917 51.2329 136.846 51.2182C136.813 51.2113 136.78 51.2036 136.746 51.1956L136.74 51.1942C136.704 51.1859 136.667 51.1774 136.631 51.17C136.61 51.1659 136.589 51.1621 136.568 51.1582C136.506 51.147 136.443 51.1355 136.386 51.115C136.304 51.0853 136.302 51.0612 136.302 51.0548C136.302 50.9945 136.253 50.9456 136.191 50.9456C136.13 50.9456 136.081 50.9945 136.081 51.0548C136.081 51.2141 136.218 51.2871 136.31 51.3201C136.387 51.3478 136.478 51.3642 136.542 51.3757C136.559 51.3788 136.574 51.3815 136.586 51.384C136.619 51.3906 136.653 51.3985 136.689 51.4069L136.696 51.4084L136.74 51.4187C136.722 51.429 136.705 51.4449 136.695 51.4653C136.648 51.5591 136.651 51.6553 136.659 51.7324C136.662 51.758 136.667 51.7856 136.67 51.8105L136.675 51.8429C136.68 51.8774 136.683 51.9071 136.683 51.9345C136.683 51.9766 136.682 52.0212 136.681 52.0674C136.678 52.2073 136.674 52.362 136.699 52.5064C136.715 52.6058 136.72 52.7074 136.724 52.817L136.725 52.8238C136.729 52.9293 136.733 53.0422 136.752 53.1555C136.794 53.4161 136.793 53.6845 136.793 53.9591L136.793 55.1874C136.793 55.5252 136.799 55.8775 136.862 56.2199C136.898 56.4212 136.922 56.622 136.932 56.8259C136.937 56.9307 136.955 57.0331 136.973 57.1278L136.976 57.1443C136.994 57.2461 137.01 57.3398 137.012 57.434C137.014 57.5019 137.017 57.5642 137.021 57.6222C137.033 57.8426 137.042 58.0029 136.932 58.1865C136.827 58.3616 136.707 58.5277 136.582 58.6955L136.512 58.7893C136.41 58.9258 136.306 59.0648 136.209 59.2083C136.205 59.2133 136.202 59.2184 136.2 59.2237C136.104 59.2057 136 59.2122 135.897 59.2341C135.694 59.2771 135.47 59.3834 135.252 59.5156C134.9 59.7279 134.542 60.0188 134.27 60.2682L134.835 57.758L133.711 56.6499L130.947 54.2447L129.468 52.6191L119.948 52.7587L117.765 54.371L115.776 56.6499L114.652 57.758L115.37 60.9445C115.098 60.5932 114.765 60.2189 114.415 59.9066C114.075 59.6033 113.71 59.3498 113.361 59.2398L113.368 59.2381C113.427 59.2203 113.459 59.1592 113.441 59.1015C113.413 59.0115 113.352 58.925 113.299 58.8539L113.263 58.8054C113.221 58.7493 113.184 58.7013 113.159 58.6549C113.099 58.5467 113.055 58.4297 113.015 58.3052C113.001 58.2627 112.987 58.2181 112.974 58.1727C112.948 58.0892 112.921 58.0028 112.892 57.9204C112.6 57.1051 112.402 56.3234 112.476 55.4667L112.477 55.4509C112.524 54.9118 112.571 54.3656 112.693 53.849C112.712 53.7657 112.733 53.6809 112.755 53.5951C112.831 53.2858 112.911 52.963 112.946 52.6427C112.983 52.3067 112.982 51.9655 112.981 51.6336C112.981 51.5754 112.98 51.5176 112.98 51.4601C112.98 51.3997 112.931 51.3508 112.87 51.3508C112.808 51.3508 112.759 51.3997 112.759 51.4601C112.759 51.5191 112.759 51.578 112.759 51.6367L112.759 51.6578C112.756 51.6615 112.753 51.6653 112.75 51.6695C112.747 51.6711 112.741 51.6736 112.731 51.6765C112.704 51.6847 112.667 51.6908 112.622 51.695C112.577 51.6991 112.532 51.701 112.49 51.7026L112.481 51.7029C112.446 51.7042 112.408 51.7057 112.383 51.7096C112.065 51.7596 111.758 51.8069 111.442 51.8316L111.423 51.8335C111.461 51.804 111.499 51.7757 111.53 51.7522L111.583 51.7126L111.6 51.7001L111.606 51.6963L111.608 51.6946C112.019 51.4052 112.348 51.0422 112.66 50.6695C112.771 50.536 112.884 50.4024 112.997 50.2691C113.518 49.6527 114.041 49.0335 114.496 48.3594C114.53 48.3092 114.517 48.2414 114.466 48.208C114.415 48.1745 114.346 48.1881 114.312 48.2383C114.067 48.6003 113.803 48.9459 113.529 49.2853C113.53 49.2213 113.533 49.1354 113.542 49.0529C113.548 48.9939 113.558 48.9412 113.57 48.9014C113.579 48.8719 113.587 48.8587 113.589 48.8549L113.59 48.8543C113.654 48.8129 113.701 48.7516 113.737 48.7009C113.753 48.6774 113.767 48.6568 113.779 48.6382C113.799 48.6095 113.815 48.5854 113.833 48.5621C113.906 48.4717 113.962 48.3751 114.011 48.2825C114.024 48.258 114.037 48.234 114.049 48.2104C114.085 48.1427 114.119 48.0785 114.158 48.0151C114.38 47.6561 114.575 47.2875 114.764 46.9158C114.928 46.5925 115.224 46.3563 115.53 46.1146C115.723 45.9622 115.925 45.8064 116.137 45.726C116.244 45.6853 116.359 45.6617 116.484 45.6381L116.516 45.6321C116.629 45.6109 116.749 45.5882 116.866 45.5507C117.054 45.4898 117.317 45.4899 117.506 45.552C117.571 45.5736 117.637 45.5946 117.701 45.6154C118.03 45.7209 118.342 45.8213 118.644 45.9801C119.216 46.28 119.742 46.6674 120.238 47.0864C120.307 47.1446 120.382 47.2036 120.457 47.263L120.514 47.3075C120.609 47.3826 120.704 47.4589 120.792 47.5393C120.97 47.7011 121.113 47.8711 121.178 48.0633C121.197 48.1205 121.26 48.1515 121.318 48.1324C121.376 48.1133 121.407 48.0515 121.388 47.9942C121.305 47.7498 121.13 47.5493 120.942 47.3787C120.848 47.2929 120.748 47.2125 120.653 47.137L120.594 47.0909C120.519 47.0318 120.448 46.9759 120.382 46.9206C119.879 46.4956 119.339 46.0974 118.748 45.7873C118.427 45.6187 118.094 45.5116 117.765 45.4061C117.702 45.3857 117.639 45.3654 117.576 45.3448C117.384 45.2818 117.142 45.2704 116.932 45.3093C117.024 45.2219 117.108 45.1252 117.186 45.0292C117.225 44.9803 117.263 44.9319 117.301 44.8847C117.401 44.7571 117.496 44.6369 117.601 44.5334C117.66 44.4744 117.728 44.4251 117.803 44.3741L117.853 44.3404C117.913 44.3004 117.977 44.2575 118.037 44.2099C118.098 44.1625 118.157 44.1124 118.215 44.0638C118.237 44.0448 118.26 44.0259 118.282 44.0076C118.361 43.9414 118.439 43.8794 118.522 43.825C118.632 43.7528 118.747 43.6917 118.869 43.6277L118.95 43.5851C119.098 43.5062 119.251 43.4199 119.391 43.3065C119.445 43.2623 119.542 43.2193 119.63 43.1803L119.636 43.1777C119.74 43.131 119.841 43.0746 119.936 43.0213C119.963 43.0063 119.989 42.9916 120.015 42.9774C120.136 42.9109 120.252 42.8529 120.377 42.8166C120.581 42.757 120.786 42.6862 120.987 42.6168C121.097 42.5788 121.205 42.5413 121.312 42.5063C121.348 42.4944 121.385 42.4774 121.412 42.4654C121.422 42.4609 121.43 42.4571 121.436 42.4546C121.463 42.4433 121.486 42.4368 121.519 42.4368H122.145C122.212 42.4368 122.279 42.4357 122.344 42.4346C122.48 42.4324 122.611 42.4302 122.744 42.4381C122.873 42.4458 122.991 42.4948 123.127 42.5516C123.153 42.5624 123.18 42.5736 123.208 42.5848C123.268 42.6089 123.327 42.6177 123.374 42.6243L123.383 42.6256C123.429 42.632 123.463 42.6367 123.495 42.6474C123.553 42.6664 123.616 42.6355 123.635 42.5783C123.643 42.5546 123.643 42.5302 123.635 42.5083C123.692 42.4902 123.739 42.4586 123.771 42.4365L123.773 42.4351C123.816 42.4058 123.838 42.3912 123.861 42.3848C124.053 42.3323 124.249 42.3072 124.45 42.3032C124.534 42.3015 124.62 42.3018 124.706 42.3021C124.956 42.303 125.215 42.3039 125.471 42.2579C125.614 42.2324 125.77 42.2293 125.929 42.226C125.98 42.225 126.032 42.2239 126.084 42.2221Z" fill="black"/>
<path d="M132.503 67.0968L132.397 67.5681C130.88 70.9208 129.549 70.8905 126.408 72.2816C125.227 72.4929 124.596 72.6302 123.177 72.2816C119.83 70.844 118.446 70.7782 117.09 67.5681L117.009 67.2088L116.432 64.6477L114.895 57.8277L115.987 56.7514L117.973 54.4973L120.015 52.9634L129.401 52.8238L130.74 54.371L133.501 56.7514L134.593 57.8277L132.503 67.0968Z" fill="#FFE2E2"/>
<path d="M132.781 66.872C133.615 66.556 134.968 67.0108 136.12 65.1178C136.942 63.7663 137.229 61.4648 137.098 60.8179C136.966 60.1703 136.574 59.7809 136.297 59.5085C136.224 59.4367 136.111 59.4121 135.944 59.4476C135.776 59.4831 135.578 59.5748 135.367 59.7019C134.948 59.9552 134.512 60.3312 134.238 60.6007L134.203 60.5654L132.781 66.872Z" fill="#FFE2E2"/>
<path d="M116.692 66.8082L116.217 64.7001L115.226 61.1185C114.955 60.7632 114.618 60.3821 114.267 60.0685C113.907 59.7477 113.543 59.5076 113.223 59.4278C113.066 59.3885 112.925 59.3895 112.801 59.4336C112.679 59.4773 112.563 59.5673 112.461 59.7252C112.255 60.0446 112.117 60.6281 112.115 61.5932C112.113 62.5583 112.294 63.1953 112.798 64.0596C113.053 64.4966 113.316 64.905 113.57 65.2302C113.827 65.5589 114.063 65.7895 114.261 65.8869L116.692 66.8082Z" fill="url(#paint0_linear_388_492)"/>
<path d="M107.5 130H142.5L143 131.5L143 133H107V131.5L107.5 130Z" fill="#373E4D"/>
<path d="M107 132H143V132C143 140.284 136.284 147 128 147H122C113.716 147 107 140.284 107 132V132Z" fill="#081023"/>
<path d="M107 139.5C107 135.358 110.358 132 114.5 132V132C118.642 132 122 135.358 122 139.5V164H107V139.5Z" fill="#081023"/>
<rect x="107" y="164" width="15" height="2" fill="#373E4C"/>
<path d="M128 139.5C128 135.358 131.358 132 135.5 132V132C139.642 132 143 135.358 143 139.5V164H128V139.5Z" fill="#081023"/>
<rect x="128" y="164" width="15" height="2" fill="#373E4C"/>
<path d="M93.8919 110.976C93.962 107.879 96.5289 105.426 99.6253 105.496V105.496C102.722 105.566 105.175 108.133 105.105 111.23L104.52 137.061C104.45 140.157 101.883 142.61 98.7866 142.54V142.54C95.6902 142.47 93.2369 139.903 93.307 136.807L93.8919 110.976Z" fill="#FFE2E2"/>
<rect x="93.2502" y="131.359" width="12" height="2" transform="rotate(1.29707 93.2502 131.359)" fill="#8CA5E5"/>
<rect x="93.205" y="133.358" width="12" height="2" transform="rotate(1.29707 93.205 133.358)" fill="#0045F5"/>
<path d="M156.313 111.66C156.132 108.568 153.479 106.208 150.388 106.388V106.388C147.296 106.568 144.935 109.221 145.116 112.313L146.621 138.107C146.801 141.199 149.454 143.559 152.546 143.379V143.379C155.638 143.198 157.998 140.545 157.817 137.454L156.313 111.66Z" fill="#FFE2E2"/>
<rect width="12" height="2" transform="matrix(-0.998302 0.058244 0.058244 0.998302 157.68 132.007)" fill="#8CA5E5"/>
<rect width="12" height="2" transform="matrix(-0.998302 0.058244 0.058244 0.998302 157.797 134.003)" fill="#0045F5"/>
<rect x="109.998" y="219.037" width="12" height="3" transform="rotate(-1.73964 109.998 219.037)" fill="#8CA5E5"/>
<path d="M105.276 228.282C105.157 224.364 108.237 221.092 112.154 220.973L122.053 220.672L122.387 231.667L109.296 232.065C107.141 232.13 105.342 230.436 105.276 228.282V228.282Z" fill="#E0E7F5"/>
<path d="M106.364 231.153L122.357 230.668L122.387 231.667L108.848 232.078C107.931 232.106 107.039 231.774 106.364 231.153V231.153Z" fill="#393939"/>
<rect x="109.937" y="217.038" width="12" height="2" transform="rotate(-1.73964 109.937 217.038)" fill="#0045F5"/>
<rect width="12" height="3" transform="matrix(-0.999539 -0.0303577 -0.0303577 0.999539 139.389 219.037)" fill="#8CA5E5"/>
<path d="M144.111 228.282C144.23 224.364 141.15 221.092 137.233 220.973L127.334 220.672L127 231.667L140.091 232.065C142.246 232.13 144.045 230.436 144.111 228.282V228.282Z" fill="#E0E7F5"/>
<path d="M143.023 231.153L127.03 230.668L127 231.667L140.539 232.078C141.456 232.106 142.347 231.774 143.023 231.153V231.153Z" fill="#393939"/>
<rect width="12" height="2" transform="matrix(-0.999539 -0.0303577 -0.0303577 0.999539 139.45 217.038)" fill="#0045F5"/>
<ellipse cx="125.5" cy="232.5" rx="22.5" ry="1.5" fill="black" fill-opacity="0.1"/>
<defs>
<linearGradient id="paint0_linear_388_492" x1="124.5" y1="42" x2="124.5" y2="72.7607" gradientUnits="userSpaceOnUse">
<stop offset="1" stop-color="#FFD6D6"/>
</linearGradient>
</defs>
</svg>
