<svg width="250" height="250" viewBox="0 0 250 250" fill="none" xmlns="http://www.w3.org/2000/svg">
<ellipse cx="125.5" cy="232.5" rx="22.5" ry="1.5" fill="black" fill-opacity="0.1"/>
<path d="M110.122 153.608C110.137 150.511 112.661 148.012 115.758 148.028V148.028C118.855 148.043 121.353 150.566 121.338 153.664L121.21 179.501C121.194 182.598 118.671 185.096 115.574 185.081V185.081C112.477 185.065 109.978 182.542 109.994 179.445L110.122 153.608Z" fill="#FFE2E2"/>
<path d="M139.265 153.608C139.25 150.511 136.726 148.012 133.629 148.028V148.028C130.532 148.043 128.034 150.566 128.049 153.664L128.177 179.501C128.193 182.598 130.716 185.096 133.813 185.081V185.081C136.91 185.065 139.408 182.542 139.393 179.445L139.265 153.608Z" fill="#FFE2E2"/>
<path d="M104.531 114.209C103.796 117.218 100.761 119.061 97.7523 118.326V118.326C94.7436 117.591 92.9005 114.556 93.6355 111.547L99.7675 86.4478C100.503 83.4391 103.537 81.5959 106.546 82.331V82.331C109.555 83.066 111.398 86.1009 110.663 89.1096L104.531 114.209Z" fill="#FFE2E2"/>
<path d="M145.547 114.31C146.388 117.291 149.487 119.025 152.468 118.183V118.183C155.448 117.341 157.182 114.242 156.34 111.262L149.318 86.3969C148.476 83.4163 145.377 81.6824 142.397 82.5242V82.5242C139.416 83.366 137.682 86.4646 138.524 89.4452L145.547 114.31Z" fill="#FFE2E2"/>
<path d="M110.14 181.621C110.141 178.524 112.653 176.014 115.75 176.016V176.016C118.847 176.017 121.357 178.529 121.356 181.626L121.34 217.524C121.339 220.621 118.827 223.131 115.73 223.129V223.129C112.633 223.128 110.123 220.616 110.124 217.519L110.14 181.621Z" fill="#FFE2E2"/>
<path d="M139.247 181.621C139.246 178.524 136.734 176.014 133.637 176.016V176.016C130.54 176.017 128.03 178.529 128.031 181.626L128.047 217.524C128.048 220.621 130.56 223.131 133.657 223.129V223.129C136.754 223.128 139.264 220.616 139.263 217.519L139.247 181.621Z" fill="#FFE2E2"/>
<path d="M108 83.3928H142V104.107H108V83.3928Z" fill="#FFE2E2"/>
<path d="M108 83.9107C108 81.3367 110.087 79.25 112.661 79.25H137.34C139.914 79.25 142 81.3367 142 83.9107V83.9107C142 86.4848 139.914 88.5714 137.34 88.5714H112.661C110.087 88.5714 108 86.4848 108 83.9107V83.9107Z" fill="#FFE2E2"/>
<rect x="102" y="79.25" width="46" height="11.3929" rx="5.69643" fill="#FFE2E2"/>
<rect x="120" y="72" width="10" height="18.6429" fill="#FFE2E2"/>
<path d="M113 77.1786H118.5L121 82.3572H129L131.5 77.1786H136.5L136 88.5714L137.5 94.7857L142.5 99.4464V105.143L142 108.25L142.5 113.429L142 121.196L142.5 122.75V130H107.5L107 122.75L107.5 117.571L107 112.911L107.5 99.4464L112.5 94.7857L113.5 88.0536L113 77.1786Z" fill="#1A3474"/>
<path fill-rule="evenodd" clip-rule="evenodd" d="M135.835 51.4736C135.841 51.4293 135.818 51.3845 135.775 51.3634C135.768 51.3598 135.751 51.3481 135.725 51.3238C135.701 51.301 135.675 51.2722 135.649 51.2409C135.596 51.1762 135.555 51.1122 135.541 51.0809C135.488 50.9628 135.433 50.8768 135.363 50.7763C135.288 50.669 135.212 50.5681 135.138 50.4693C134.993 50.2756 134.854 50.0899 134.739 49.8797L134.707 49.8204C134.556 49.5434 134.399 49.2572 134.211 48.9985C134.098 48.8442 133.918 48.7466 133.739 48.6867C133.626 48.6487 133.507 48.6241 133.396 48.6101C133.388 48.45 133.331 48.3163 133.274 48.1977C133.263 48.1743 133.252 48.1517 133.241 48.1296C133.19 48.0262 133.146 47.9349 133.122 47.8302C133.091 47.6945 133.028 47.5705 132.972 47.4591L132.962 47.4403C132.951 47.4175 132.939 47.3919 132.926 47.3627L132.923 47.3557C132.911 47.3292 132.898 47.3002 132.884 47.2717C132.855 47.2111 132.816 47.1415 132.762 47.0877C132.72 47.0462 132.674 47.022 132.627 47.0092C132.607 46.9878 132.578 46.9745 132.546 46.9745C132.53 46.9745 132.522 46.9706 132.517 46.9672C132.51 46.9625 132.501 46.9531 132.488 46.9332C132.477 46.9154 132.468 46.8956 132.455 46.87L132.448 46.8564C132.433 46.8267 132.415 46.7898 132.39 46.7557C132.19 46.4822 131.911 46.3375 131.637 46.2025C131.152 45.9636 130.63 45.7725 130.077 45.726C129.732 45.6969 129.391 45.6238 129.042 45.5472L128.998 45.5376C128.666 45.4645 128.327 45.3898 127.981 45.3539C127.973 45.353 127.965 45.3531 127.957 45.3541C127.857 45.3331 127.76 45.287 127.648 45.2329L127.644 45.2311C127.534 45.1784 127.409 45.1183 127.273 45.0914C126.88 45.0138 126.475 44.9897 126.076 45.0038C126.032 45.0053 125.986 45.0063 125.937 45.0072C125.775 45.0105 125.593 45.0141 125.432 45.043C125.197 45.0851 124.968 45.0843 124.724 45.0835C124.634 45.0832 124.541 45.0829 124.446 45.0848C124.228 45.0891 124.014 45.1163 123.802 45.1743C123.74 45.1914 123.688 45.2269 123.653 45.2509L123.646 45.2557C123.606 45.2835 123.583 45.297 123.56 45.3022C123.506 45.3146 123.47 45.3648 123.475 45.4183C123.454 45.4148 123.435 45.4121 123.417 45.4097L123.405 45.408C123.358 45.4014 123.324 45.3954 123.292 45.3826C123.269 45.3735 123.246 45.3636 123.222 45.3535C123.086 45.2966 122.928 45.2302 122.757 45.2201C122.616 45.2116 122.47 45.214 122.329 45.2163C122.266 45.2173 122.204 45.2184 122.145 45.2184H121.519C121.448 45.2184 121.396 45.2344 121.35 45.2532C121.331 45.2614 121.316 45.2682 121.303 45.2741C121.283 45.2833 121.267 45.2908 121.242 45.299C121.128 45.3363 121.017 45.3749 120.905 45.4133C120.708 45.4814 120.513 45.5489 120.314 45.6071C120.165 45.6506 120.031 45.7185 119.907 45.7866C119.878 45.8026 119.85 45.8186 119.822 45.8343C119.728 45.8867 119.639 45.9365 119.544 45.9786L119.528 45.9858C119.45 46.0205 119.328 46.0743 119.25 46.1379C119.128 46.2369 118.991 46.3149 118.844 46.3929L118.768 46.4333C118.646 46.4974 118.518 46.5645 118.399 46.6432C118.305 46.7047 118.22 46.7732 118.139 46.8408C118.114 46.8609 118.091 46.8808 118.068 46.9004C118.012 46.9478 117.957 46.9941 117.9 47.0389C117.846 47.0809 117.791 47.1177 117.733 47.1569L117.677 47.1943C117.6 47.247 117.519 47.3055 117.444 47.3789C117.328 47.493 117.221 47.6293 117.118 47.7604C117.082 47.8053 117.047 47.8501 117.013 47.8927C116.873 48.0649 116.733 48.2158 116.567 48.3142C116.532 48.3351 116.513 48.3723 116.513 48.4102L116.442 48.4236C116.318 48.4471 116.185 48.4736 116.058 48.5221C115.808 48.6168 115.58 48.7955 115.392 48.944L115.385 48.9492C115.088 49.1838 114.754 49.4473 114.566 49.8181C114.378 50.1878 114.186 50.5501 113.969 50.9014C113.925 50.9719 113.886 51.0457 113.85 51.1152C113.838 51.1374 113.827 51.1594 113.815 51.1805C113.767 51.2701 113.72 51.3521 113.66 51.4261C113.636 51.4563 113.609 51.4961 113.586 51.5312C113.574 51.5478 113.564 51.5634 113.555 51.5764C113.521 51.6249 113.493 51.6562 113.467 51.6726C113.404 51.7126 113.375 51.7849 113.358 51.8372C113.34 51.896 113.329 51.9642 113.322 52.0291C113.307 52.1596 113.307 52.2947 113.307 52.3527C113.307 52.403 113.341 52.4453 113.388 52.458C113.205 52.6817 113.017 52.9034 112.829 53.1262L112.828 53.1273C112.715 53.2609 112.602 53.3955 112.489 53.5305C112.18 53.9002 111.865 54.2448 111.479 54.5169C111.464 54.5277 111.351 54.6114 111.246 54.6923C111.192 54.733 111.14 54.7739 111.101 54.8054C111.081 54.8209 111.064 54.8352 111.051 54.8464C111.046 54.8516 111.038 54.8584 111.032 54.8655C111.029 54.8681 111.022 54.876 111.016 54.887C111.013 54.8915 111.005 54.9055 111.002 54.9254C110.998 54.9477 110.999 54.995 111.042 55.0288C111.066 55.0477 111.092 55.0565 111.111 55.0611C111.131 55.066 111.151 55.0685 111.17 55.0697C111.207 55.0722 111.248 55.0706 111.286 55.0678C111.324 55.065 111.362 55.0608 111.393 55.0571L111.417 55.0542C111.437 55.0518 111.451 55.0501 111.459 55.0494C111.786 55.0239 112.1 54.9752 112.418 54.9253C112.428 54.9237 112.453 54.9226 112.499 54.9209C112.54 54.9193 112.591 54.9172 112.642 54.9125C112.68 54.909 112.721 54.9037 112.759 54.895C112.758 55.139 112.752 55.3803 112.726 55.6191C112.692 55.9237 112.617 56.2278 112.541 56.5349C112.52 56.6228 112.498 56.711 112.477 56.7995C112.351 57.3315 112.303 57.8912 112.257 58.4252L112.255 58.4482C112.178 59.3506 112.387 60.1668 112.683 60.9932C112.711 61.0716 112.735 61.1487 112.759 61.2283C112.773 61.2747 112.788 61.3226 112.804 61.3714C112.845 61.5005 112.894 61.6331 112.964 61.7598C112.998 61.821 113.047 61.8855 113.091 61.943L113.121 61.9831C113.175 62.0562 113.214 62.1154 113.23 62.1658C113.235 62.1836 113.245 62.199 113.257 62.2112C113.076 62.1688 112.895 62.1678 112.726 62.2282C112.55 62.2912 112.397 62.4168 112.274 62.6081C112.031 62.9848 111.893 63.6281 111.893 64.6156V64.638L111.902 64.6586C111.902 65.4006 112.091 66.2856 112.606 67.1686C112.863 67.6099 113.132 68.0275 113.395 68.3634C113.654 68.6957 113.756 68.9612 114.001 69.0822L116.593 70.0828L116.888 70.6776C118.203 73.9331 119.671 74.0846 123.085 75.5C124.36 75.8434 125.119 75.8516 126.5 75.5C129.985 73.9598 131.109 73.7695 132.6 70.6776L132.724 70.1245C133.577 69.8405 135.071 70.2662 136.31 68.2302C137.149 66.8511 137.461 64.4935 137.315 63.7751C137.17 63.0601 136.735 62.6308 136.457 62.3569L136.454 62.3541C136.438 62.3386 136.422 62.3245 136.405 62.3118C136.495 62.1794 136.591 62.0511 136.689 61.9206L136.761 61.8248C136.886 61.6561 137.012 61.4826 137.122 61.2977C137.27 61.0518 137.255 60.8129 137.241 60.5841C137.238 60.5318 137.235 60.4801 137.234 60.429C137.231 60.3158 137.212 60.2065 137.194 60.1059L137.191 60.0936C137.174 59.9954 137.157 59.9056 137.153 59.8152C137.142 59.6019 137.118 59.3918 137.08 59.1813C137.021 58.8598 137.015 58.5247 137.015 58.1874V57.036L137.015 56.9572C137.015 56.6858 137.016 56.3999 136.971 56.1212C136.954 56.0207 136.95 55.9188 136.946 55.8094L136.946 55.8082C136.941 55.7006 136.937 55.5855 136.917 55.4704C136.896 55.3482 136.899 55.2242 136.903 55.0905C136.904 55.04 136.905 54.9882 136.905 54.9345C136.905 54.8915 136.9 54.8497 136.895 54.8124L136.889 54.7726C136.885 54.7501 136.882 54.7297 136.88 54.7078C136.872 54.6424 136.875 54.5987 136.893 54.563C136.913 54.5242 136.907 54.4793 136.882 54.4471C136.933 54.4555 136.987 54.4613 137.041 54.4613C137.101 54.4613 137.158 54.4536 137.207 54.447L137.209 54.4468C137.261 54.4398 137.303 54.4343 137.344 54.4343C137.39 54.4343 137.555 54.4226 137.695 54.4011C137.764 54.3906 137.837 54.3763 137.889 54.3561C137.902 54.3508 137.918 54.3439 137.932 54.3349C137.945 54.3265 137.966 54.3117 137.981 54.2876C137.999 54.2594 138.007 54.2214 137.994 54.1821C137.983 54.1485 137.96 54.1273 137.945 54.1157C137.877 54.064 137.797 54.0371 137.737 54.017L137.713 54.009C137.645 53.9854 137.601 53.9652 137.569 53.9285C137.512 53.8654 137.441 53.8142 137.377 53.7708L137.332 53.7407C137.283 53.7079 137.239 53.6788 137.2 53.6469C137.119 53.5795 137.053 53.5026 136.985 53.4179L136.946 53.3685C136.891 53.299 136.832 53.2243 136.765 53.1542C136.691 53.0772 136.626 52.9859 136.559 52.8865L136.523 52.832C136.468 52.7503 136.411 52.6643 136.349 52.5856C136.301 52.5249 136.249 52.4656 136.196 52.4076C136.222 52.4066 136.249 52.396 136.27 52.3757C136.313 52.3331 136.313 52.2639 136.27 52.2213C136.264 52.216 136.259 52.2073 136.245 52.1751L136.243 52.1713C136.231 52.1443 136.211 52.0997 136.174 52.0614L136.155 52.0412C136.124 52.009 136.111 51.9957 136.104 51.976C136.08 51.9111 136.029 51.7845 135.966 51.6675C135.935 51.6092 135.899 51.5499 135.859 51.501C135.852 51.4921 135.844 51.4828 135.835 51.4736ZM127.229 45.3056C126.856 45.2319 126.469 45.2085 126.084 45.2221C126.032 45.2239 125.98 45.225 125.929 45.226C125.77 45.2293 125.614 45.2324 125.471 45.2579C125.215 45.3039 124.956 45.303 124.706 45.3021C124.62 45.3018 124.534 45.3015 124.45 45.3032C124.249 45.3072 124.053 45.3323 123.861 45.3848C123.838 45.3912 123.816 45.4058 123.773 45.4351L123.771 45.4365C123.739 45.4586 123.692 45.4902 123.635 45.5083C123.643 45.5302 123.643 45.5546 123.635 45.5783C123.616 45.6355 123.553 45.6664 123.495 45.6474C123.463 45.6367 123.429 45.632 123.383 45.6256L123.374 45.6243C123.327 45.6177 123.268 45.6089 123.208 45.5848C123.18 45.5736 123.153 45.5624 123.127 45.5516C122.991 45.4948 122.873 45.4458 122.744 45.4381C122.611 45.4302 122.48 45.4324 122.344 45.4346C122.279 45.4357 122.212 45.4368 122.145 45.4368H121.519C121.486 45.4368 121.463 45.4433 121.436 45.4546C121.43 45.4571 121.422 45.4609 121.412 45.4654C121.385 45.4774 121.348 45.4944 121.312 45.5063C121.205 45.5413 121.097 45.5788 120.987 45.6168C120.786 45.6862 120.581 45.757 120.377 45.8166C120.252 45.8529 120.136 45.9109 120.015 45.9774C119.989 45.9916 119.963 46.0063 119.936 46.0213C119.841 46.0746 119.74 46.131 119.636 46.1777L119.63 46.1803C119.542 46.2193 119.445 46.2623 119.391 46.3065C119.251 46.4199 119.098 46.5062 118.95 46.5851L118.869 46.6277C118.747 46.6917 118.632 46.7528 118.522 46.825C118.439 46.8794 118.361 46.9414 118.282 47.0076C118.26 47.0259 118.237 47.0448 118.215 47.0638C118.157 47.1124 118.098 47.1625 118.037 47.2099C117.977 47.2575 117.913 47.3004 117.853 47.3404L117.803 47.3741C117.728 47.4251 117.66 47.4744 117.601 47.5334C117.496 47.6369 117.401 47.7571 117.301 47.8847C117.263 47.9319 117.225 47.9803 117.186 48.0292C117.108 48.1252 117.024 48.2219 116.932 48.3093C117.142 48.2704 117.384 48.2818 117.576 48.3448C117.639 48.3654 117.702 48.3857 117.765 48.4061C118.094 48.5116 118.427 48.6187 118.748 48.7873C119.339 49.0974 119.879 49.4956 120.382 49.9206C120.448 49.9759 120.519 50.0318 120.594 50.0909L120.653 50.137C120.748 50.2125 120.848 50.2929 120.942 50.3787C121.13 50.5493 121.305 50.7498 121.388 50.9942C121.407 51.0515 121.376 51.1133 121.318 51.1324C121.26 51.1515 121.197 51.1205 121.178 51.0633C121.113 50.8711 120.97 50.7011 120.792 50.5393C120.704 50.4589 120.609 50.3826 120.514 50.3075L120.457 50.263C120.382 50.2036 120.307 50.1446 120.238 50.0864C119.742 49.6674 119.216 49.28 118.644 48.9801C118.342 48.8213 118.03 48.7209 117.701 48.6154C117.637 48.5946 117.571 48.5736 117.506 48.552C117.317 48.4899 117.054 48.4898 116.866 48.5507C116.749 48.5882 116.629 48.6109 116.516 48.6321L116.484 48.6381C116.359 48.6617 116.244 48.6853 116.137 48.726C115.925 48.8064 115.723 48.9622 115.53 49.1146C115.224 49.3563 114.928 49.5925 114.764 49.9158C114.575 50.2875 114.38 50.6561 114.158 51.0151C114.119 51.0785 114.085 51.1427 114.049 51.2104C114.037 51.234 114.024 51.258 114.011 51.2825C113.962 51.3751 113.906 51.4717 113.833 51.5621C113.815 51.5854 113.799 51.6095 113.779 51.6382C113.767 51.6568 113.753 51.6774 113.737 51.7009C113.701 51.7516 113.654 51.8129 113.59 51.8543L113.589 51.8549L113.588 51.856L113.59 51.8543L113.589 51.8549C113.587 51.8587 113.579 51.8719 113.57 51.9014C113.558 51.9412 113.548 51.9939 113.542 52.0529C113.533 52.1354 113.53 52.2213 113.529 52.2853C113.803 51.9459 114.067 51.6003 114.312 51.2383C114.346 51.1881 114.415 51.1745 114.466 51.208C114.517 51.2414 114.53 51.3092 114.496 51.3594C114.041 52.0335 113.518 52.6527 112.997 53.2691C112.884 53.4024 112.771 53.536 112.66 53.6695C112.348 54.0422 112.019 54.4052 111.608 54.6946L111.606 54.6963L111.6 54.7001L111.583 54.7126L111.53 54.7522C111.499 54.7757 111.461 54.804 111.423 54.8335L111.442 54.8316C111.758 54.8069 112.065 54.7596 112.383 54.7096C112.408 54.7057 112.446 54.7042 112.481 54.7029L112.49 54.7026C112.532 54.701 112.577 54.6991 112.622 54.695C112.667 54.6908 112.704 54.6847 112.731 54.6765C112.741 54.6736 112.747 54.6711 112.75 54.6695C112.753 54.6653 112.756 54.6615 112.759 54.6578L112.759 54.6367C112.759 54.578 112.759 54.5191 112.759 54.4601C112.759 54.3997 112.808 54.3508 112.87 54.3508C112.931 54.3508 112.98 54.3997 112.98 54.4601C112.98 54.5176 112.981 54.5754 112.981 54.6336C112.982 54.9655 112.983 55.3067 112.946 55.6427C112.911 55.963 112.831 56.2858 112.755 56.5951C112.733 56.6809 112.712 56.7657 112.693 56.849C112.571 57.3656 112.524 57.9118 112.477 58.4509L112.476 58.4667C112.402 59.3234 112.6 60.1051 112.892 60.9204C112.921 61.0028 112.948 61.0892 112.974 61.1727C112.987 61.2181 113.001 61.2627 113.015 61.3052C113.055 61.4297 113.099 61.5467 113.159 61.6549C113.184 61.7013 113.221 61.7493 113.263 61.8054L113.299 61.8539C113.352 61.925 113.413 62.0115 113.441 62.1015C113.459 62.1592 113.427 62.2203 113.368 62.2381L113.361 62.2398C113.71 62.3498 114.075 62.6033 114.415 62.9066C114.765 63.2189 115.098 63.5932 115.37 63.9445L114.652 60.758L115.776 59.6499L117.765 57.371L119.948 55.7587L129.468 55.6191L130.947 57.2447L133.711 59.6499L134.835 60.758L134.27 63.2682C134.542 63.0188 134.9 62.7279 135.252 62.5156C135.47 62.3834 135.694 62.2771 135.897 62.2341C136 62.2122 136.104 62.2057 136.2 62.2237C136.202 62.2184 136.205 62.2133 136.209 62.2083C136.306 62.0648 136.41 61.9258 136.512 61.7893L136.582 61.6955C136.707 61.5277 136.827 61.3616 136.932 61.1865C137.042 61.0029 137.033 60.8426 137.021 60.6222C137.017 60.5642 137.014 60.5019 137.012 60.434C137.01 60.3398 136.994 60.2461 136.976 60.1443L136.973 60.1278C136.955 60.0331 136.937 59.9307 136.932 59.8259C136.922 59.622 136.898 59.4212 136.862 59.2199C136.799 58.8775 136.793 58.5252 136.793 58.1874L136.793 56.9591C136.793 56.6845 136.794 56.4161 136.752 56.1555C136.733 56.0422 136.729 55.9293 136.725 55.8238L136.724 55.817C136.72 55.7074 136.715 55.6058 136.699 55.5064C136.674 55.362 136.678 55.2073 136.681 55.0674C136.682 55.0212 136.683 54.9766 136.683 54.9345C136.683 54.9071 136.68 54.8774 136.675 54.8429L136.67 54.8105C136.667 54.7856 136.662 54.758 136.659 54.7324C136.651 54.6553 136.648 54.5591 136.695 54.4653C136.705 54.4449 136.722 54.429 136.74 54.4187L136.696 54.4084L136.689 54.4069C136.653 54.3985 136.619 54.3906 136.586 54.384C136.574 54.3815 136.559 54.3788 136.542 54.3757C136.478 54.3642 136.387 54.3478 136.31 54.3201C136.218 54.2871 136.081 54.2141 136.081 54.0548C136.081 53.9945 136.13 53.9456 136.191 53.9456C136.253 53.9456 136.302 53.9945 136.302 54.0548C136.302 54.0612 136.304 54.0853 136.386 54.115C136.443 54.1355 136.506 54.147 136.568 54.1582C136.589 54.1621 136.61 54.1659 136.631 54.17C136.667 54.1774 136.704 54.1859 136.74 54.1942L136.746 54.1956C136.78 54.2036 136.813 54.2113 136.846 54.2182C136.917 54.2329 136.981 54.2428 137.041 54.2428C137.084 54.2428 137.128 54.2372 137.179 54.2303L137.184 54.2297C137.231 54.2233 137.287 54.2158 137.344 54.2158C137.37 54.2158 137.476 54.209 137.587 54.1955C137.526 54.1713 137.459 54.1359 137.402 54.0731C137.365 54.0318 137.314 53.9936 137.251 53.9508L137.213 53.9254C137.162 53.8916 137.106 53.8542 137.058 53.8144C136.958 53.7319 136.881 53.6404 136.811 53.553L136.768 53.4988C136.714 53.4301 136.663 53.3659 136.604 53.3043C136.516 53.2126 136.442 53.1078 136.375 53.0073L136.336 52.949C136.282 52.8678 136.23 52.7911 136.174 52.7201C136.073 52.5926 135.958 52.4748 135.839 52.3537C135.793 52.3069 135.747 52.2597 135.701 52.2111L135.653 52.1604C135.478 51.9758 135.322 51.8117 135.118 51.6743C135.067 51.6403 135.024 51.598 134.989 51.5638L134.975 51.5505C134.934 51.5113 134.902 51.483 134.866 51.4641C134.774 51.4155 134.673 51.3864 134.561 51.3542C134.532 51.3459 134.502 51.3374 134.472 51.3283C134.161 51.2349 133.871 51.1649 133.56 51.1649C133.499 51.1649 133.45 51.116 133.45 51.0557C133.45 50.9953 133.499 50.9464 133.56 50.9464C133.905 50.9464 134.22 51.0243 134.537 51.1193C134.561 51.1265 134.586 51.1338 134.613 51.1413C134.726 51.1739 134.856 51.211 134.971 51.2716C135.037 51.3065 135.088 51.3546 135.129 51.3941L135.144 51.408C135.181 51.4438 135.21 51.4716 135.243 51.4938C135.468 51.6455 135.64 51.8271 135.813 52.0092L135.863 52.0617C135.904 52.105 135.947 52.1492 135.991 52.1941C136.003 52.206 136.014 52.218 136.026 52.23C136.021 52.2213 136.018 52.2159 136.013 52.2114L136.001 52.1991C135.971 52.1689 135.92 52.118 135.895 52.0506C135.873 51.9902 135.827 51.8742 135.771 51.7698C135.742 51.7174 135.714 51.6714 135.686 51.6376C135.673 51.6207 135.661 51.6088 135.651 51.601C135.643 51.5947 135.638 51.5925 135.638 51.5925C135.585 51.5766 135.553 51.5242 135.561 51.4711C135.532 51.4428 135.504 51.4107 135.477 51.3784C135.42 51.3083 135.364 51.2266 135.338 51.1688C135.293 51.0685 135.247 50.9952 135.18 50.9C135.115 50.8062 135.044 50.7119 134.973 50.6161C134.822 50.4147 134.666 50.2068 134.544 49.9833L134.513 49.9268C134.36 49.6469 134.211 49.3727 134.031 49.1262C133.956 49.024 133.826 48.9464 133.668 48.8935C133.512 48.8412 133.341 48.8175 133.202 48.8143C133.14 48.8129 133.092 48.7628 133.093 48.7025C133.095 48.6537 133.128 48.6131 133.173 48.6001C133.164 48.4933 133.125 48.3969 133.074 48.2911C133.065 48.2718 133.055 48.252 133.045 48.2316C132.994 48.1277 132.935 48.0096 132.906 47.8776C132.881 47.769 132.829 47.667 132.769 47.5487L132.764 47.538C132.75 47.5098 132.736 47.4794 132.723 47.4508L132.72 47.4442C132.708 47.4171 132.697 47.3912 132.684 47.366C132.657 47.31 132.632 47.2685 132.605 47.2422C132.581 47.218 132.55 47.2098 132.494 47.2185C132.464 47.223 132.433 47.2314 132.396 47.242L132.378 47.2473C132.348 47.2561 132.315 47.266 132.283 47.2729L132.273 47.2788C132.264 47.2847 132.253 47.2932 132.238 47.3057L132.23 47.3125C132.206 47.3339 132.164 47.37 132.116 47.3891C132.082 47.4029 132.051 47.4149 132.021 47.4261C131.905 47.4705 131.82 47.5029 131.733 47.5826C131.552 47.7484 131.39 47.9359 131.241 48.1338C131.152 48.2507 131.057 48.3561 130.963 48.4574L130.901 48.5236C130.827 48.6021 130.755 48.679 130.685 48.7606C130.493 48.9847 130.291 49.1983 130.09 49.4105C129.996 49.5096 129.902 49.6086 129.81 49.7079C129.667 49.8625 129.535 50.0273 129.401 50.1957L129.389 50.2102C129.26 50.373 129.128 50.5391 128.984 50.6965C128.943 50.7414 128.873 50.745 128.827 50.7046C128.782 50.6643 128.778 50.5952 128.819 50.5504C128.958 50.3985 129.086 50.2375 129.217 50.0731L129.227 50.0608C129.36 49.8931 129.497 49.7221 129.646 49.5606C129.742 49.4573 129.838 49.3565 129.932 49.2564C130.131 49.0464 130.327 48.8395 130.516 48.6195C130.59 48.5339 130.666 48.4524 130.74 48.3733L130.8 48.3096C130.893 48.2095 130.982 48.1108 131.063 48.0034C131.218 47.798 131.389 47.5998 131.582 47.4227C131.703 47.3117 131.835 47.262 131.955 47.2166C131.982 47.2067 132.008 47.197 132.032 47.1869C132.044 47.1825 132.057 47.1713 132.094 47.1401L132.096 47.1382C132.123 47.1155 132.172 47.0735 132.235 47.0598C132.254 47.0556 132.274 47.05 132.297 47.0432C132.281 47.0166 132.267 46.9877 132.255 46.964L132.249 46.9524C132.234 46.9229 132.223 46.9009 132.21 46.8834C132.046 46.6585 131.814 46.534 131.538 46.3978C131.066 46.1655 130.573 45.9869 130.058 45.9436C129.696 45.9132 129.341 45.8367 128.994 45.7604L128.954 45.7517C128.619 45.6779 128.291 45.6057 127.958 45.5712L127.957 45.571C127.945 45.5725 127.933 45.5722 127.921 45.5698C127.788 45.5437 127.666 45.4848 127.558 45.4328L127.55 45.4292C127.436 45.3739 127.335 45.3264 127.229 45.3056ZM132.503 70.0968L134.593 60.8277L133.501 59.7514L130.74 57.371L129.401 55.8238L120.015 55.9634L117.973 57.4973L115.987 59.7514L114.895 60.8277L116.432 67.6477L117.009 70.2088L117.09 70.5681C118.446 73.7782 119.83 73.844 123.177 75.2816C124.596 75.6302 125.227 75.4929 126.408 75.2816C129.549 73.8905 130.88 73.9208 132.397 70.5681L132.503 70.0968ZM136.12 68.1178C134.968 70.0108 133.615 69.556 132.781 69.872L134.203 63.5654L134.238 63.6007C134.512 63.3312 134.948 62.9552 135.367 62.7019C135.578 62.5748 135.776 62.4831 135.944 62.4476C136.111 62.4121 136.224 62.4367 136.297 62.5085C136.574 62.7809 136.966 63.1703 137.098 63.8179C137.229 64.4648 136.942 66.7663 136.12 68.1178ZM116.217 67.7001L116.692 69.8082L114.261 68.8869C114.063 68.7895 113.827 68.5589 113.57 68.2302C113.316 67.905 113.053 67.4966 112.798 67.0596C112.294 66.1953 112.113 65.5583 112.115 64.5932C112.117 63.6281 112.255 63.0446 112.461 62.7252C112.563 62.5673 112.679 62.4773 112.801 62.4336C112.925 62.3895 113.066 62.3885 113.223 62.4278C113.543 62.5076 113.907 62.7477 114.267 63.0685C114.618 63.3821 114.955 63.7632 115.226 64.1185L116.217 67.7001Z" fill="black"/>
<path d="M126.084 45.2221C126.469 45.2085 126.856 45.2319 127.229 45.3056C127.335 45.3264 127.436 45.3739 127.55 45.4292L127.558 45.4328C127.666 45.4848 127.788 45.5437 127.921 45.5698C127.933 45.5722 127.945 45.5725 127.957 45.571L127.958 45.5712C128.291 45.6057 128.619 45.6779 128.954 45.7517L128.994 45.7604C129.341 45.8367 129.696 45.9132 130.058 45.9436C130.573 45.9869 131.066 46.1655 131.538 46.3978C131.814 46.534 132.046 46.6585 132.21 46.8834C132.223 46.9009 132.234 46.9229 132.249 46.9524L132.255 46.964C132.267 46.9877 132.281 47.0166 132.297 47.0432C132.274 47.05 132.254 47.0556 132.235 47.0598C132.172 47.0735 132.123 47.1155 132.096 47.1382L132.094 47.1401C132.057 47.1713 132.044 47.1825 132.032 47.1869C132.008 47.197 131.982 47.2067 131.955 47.2166C131.835 47.262 131.703 47.3117 131.582 47.4227C131.389 47.5998 131.218 47.798 131.063 48.0034C130.982 48.1108 130.893 48.2095 130.8 48.3096L130.74 48.3733C130.666 48.4524 130.59 48.5339 130.516 48.6195C130.327 48.8395 130.131 49.0464 129.932 49.2564C129.838 49.3565 129.742 49.4573 129.646 49.5606C129.497 49.7221 129.36 49.8931 129.227 50.0608L129.217 50.0731C129.086 50.2375 128.958 50.3985 128.819 50.5504C128.778 50.5952 128.782 50.6643 128.827 50.7046C128.873 50.745 128.943 50.7414 128.984 50.6965C129.128 50.5391 129.26 50.373 129.389 50.2102L129.401 50.1957C129.535 50.0273 129.667 49.8625 129.81 49.7079C129.902 49.6086 129.996 49.5096 130.09 49.4105C130.291 49.1983 130.493 48.9847 130.685 48.7606C130.755 48.679 130.827 48.6021 130.901 48.5236L130.963 48.4574C131.057 48.3561 131.152 48.2507 131.241 48.1338C131.39 47.9359 131.552 47.7484 131.733 47.5826C131.82 47.5029 131.905 47.4705 132.021 47.4261C132.051 47.4149 132.082 47.4029 132.116 47.3891C132.164 47.37 132.206 47.3339 132.23 47.3125L132.238 47.3057C132.253 47.2932 132.264 47.2847 132.273 47.2788L132.283 47.2729C132.315 47.266 132.348 47.2561 132.378 47.2473L132.396 47.242C132.433 47.2314 132.464 47.223 132.494 47.2185C132.55 47.2098 132.581 47.218 132.605 47.2422C132.632 47.2685 132.657 47.31 132.684 47.366C132.697 47.3912 132.708 47.4171 132.72 47.4442L132.723 47.4508C132.736 47.4794 132.75 47.5098 132.764 47.538L132.769 47.5487C132.829 47.667 132.881 47.769 132.906 47.8776C132.935 48.0096 132.994 48.1277 133.045 48.2316C133.055 48.252 133.065 48.2718 133.074 48.2911C133.125 48.3969 133.164 48.4933 133.173 48.6001C133.128 48.6131 133.095 48.6537 133.093 48.7025C133.092 48.7628 133.14 48.8129 133.202 48.8143C133.341 48.8175 133.512 48.8412 133.668 48.8935C133.826 48.9464 133.956 49.024 134.031 49.1262C134.211 49.3727 134.36 49.6469 134.513 49.9268L134.544 49.9833C134.666 50.2068 134.822 50.4147 134.973 50.6161C135.044 50.7119 135.115 50.8062 135.18 50.9C135.247 50.9952 135.293 51.0685 135.338 51.1688C135.364 51.2266 135.42 51.3083 135.477 51.3784C135.504 51.4107 135.532 51.4428 135.561 51.4711C135.553 51.5242 135.585 51.5766 135.638 51.5925C135.638 51.5925 135.643 51.5947 135.651 51.601C135.661 51.6088 135.673 51.6207 135.686 51.6376C135.714 51.6714 135.742 51.7174 135.771 51.7698C135.827 51.8742 135.873 51.9902 135.895 52.0506C135.92 52.118 135.971 52.1689 136.001 52.1991L136.013 52.2114C136.018 52.2159 136.021 52.2213 136.026 52.23L135.991 52.1941C135.947 52.1492 135.904 52.105 135.863 52.0617L135.813 52.0092C135.64 51.8271 135.468 51.6455 135.243 51.4938C135.21 51.4716 135.181 51.4438 135.144 51.408L135.129 51.3941C135.088 51.3546 135.037 51.3065 134.971 51.2716C134.856 51.211 134.726 51.1739 134.613 51.1413C134.586 51.1338 134.561 51.1265 134.537 51.1193C134.22 51.0243 133.905 50.9464 133.56 50.9464C133.499 50.9464 133.45 50.9953 133.45 51.0557C133.45 51.116 133.499 51.1649 133.56 51.1649C133.871 51.1649 134.161 51.2349 134.472 51.3283C134.502 51.3374 134.532 51.3459 134.561 51.3542C134.673 51.3864 134.774 51.4155 134.866 51.4641C134.902 51.483 134.934 51.5113 134.975 51.5505L134.989 51.5638C135.024 51.598 135.067 51.6403 135.118 51.6743C135.322 51.8117 135.478 51.9758 135.653 52.1604L135.701 52.2111C135.747 52.2597 135.793 52.3069 135.839 52.3537C135.958 52.4748 136.073 52.5926 136.174 52.7201C136.23 52.7911 136.282 52.8678 136.336 52.949L136.375 53.0073C136.442 53.1078 136.516 53.2126 136.604 53.3043C136.663 53.3659 136.714 53.4301 136.768 53.4988L136.811 53.553C136.881 53.6404 136.958 53.7319 137.058 53.8144C137.106 53.8542 137.162 53.8916 137.213 53.9254L137.251 53.9508C137.314 53.9936 137.365 54.0318 137.402 54.0731C137.459 54.1359 137.526 54.1713 137.587 54.1955C137.476 54.209 137.37 54.2158 137.344 54.2158C137.287 54.2158 137.231 54.2233 137.184 54.2297L137.179 54.2303C137.128 54.2372 137.084 54.2428 137.041 54.2428C136.981 54.2428 136.917 54.2329 136.846 54.2182C136.813 54.2113 136.78 54.2036 136.746 54.1956L136.74 54.1942C136.704 54.1859 136.667 54.1774 136.631 54.17C136.61 54.1659 136.589 54.1621 136.568 54.1582C136.506 54.147 136.443 54.1355 136.386 54.115C136.304 54.0853 136.302 54.0612 136.302 54.0548C136.302 53.9945 136.253 53.9456 136.191 53.9456C136.13 53.9456 136.081 53.9945 136.081 54.0548C136.081 54.2141 136.218 54.2871 136.31 54.3201C136.387 54.3478 136.478 54.3642 136.542 54.3757C136.559 54.3788 136.574 54.3815 136.586 54.384C136.619 54.3906 136.653 54.3985 136.689 54.4069L136.696 54.4084L136.74 54.4187C136.722 54.429 136.705 54.4449 136.695 54.4653C136.648 54.5591 136.651 54.6553 136.659 54.7324C136.662 54.758 136.667 54.7856 136.67 54.8105L136.675 54.8429C136.68 54.8774 136.683 54.9071 136.683 54.9345C136.683 54.9766 136.682 55.0212 136.681 55.0674C136.678 55.2073 136.674 55.362 136.699 55.5064C136.715 55.6058 136.72 55.7074 136.724 55.817L136.725 55.8238C136.729 55.9293 136.733 56.0422 136.752 56.1555C136.794 56.4161 136.793 56.6845 136.793 56.9591L136.793 58.1874C136.793 58.5252 136.799 58.8775 136.862 59.2199C136.898 59.4212 136.922 59.622 136.932 59.8259C136.937 59.9307 136.955 60.0331 136.973 60.1278L136.976 60.1443C136.994 60.2461 137.01 60.3398 137.012 60.434C137.014 60.5019 137.017 60.5642 137.021 60.6222C137.033 60.8426 137.042 61.0029 136.932 61.1865C136.827 61.3616 136.707 61.5277 136.582 61.6955L136.512 61.7893C136.41 61.9258 136.306 62.0648 136.209 62.2083C136.205 62.2133 136.202 62.2184 136.2 62.2237C136.104 62.2057 136 62.2122 135.897 62.2341C135.694 62.2771 135.47 62.3834 135.252 62.5156C134.9 62.7279 134.542 63.0188 134.27 63.2682L134.835 60.758L133.711 59.6499L130.947 57.2447L129.468 55.6191L119.948 55.7587L117.765 57.371L115.776 59.6499L114.652 60.758L115.37 63.9445C115.098 63.5932 114.765 63.2189 114.415 62.9066C114.075 62.6033 113.71 62.3498 113.361 62.2398L113.368 62.2381C113.427 62.2203 113.459 62.1592 113.441 62.1015C113.413 62.0115 113.352 61.925 113.299 61.8539L113.263 61.8054C113.221 61.7493 113.184 61.7013 113.159 61.6549C113.099 61.5467 113.055 61.4297 113.015 61.3052C113.001 61.2627 112.987 61.2181 112.974 61.1727C112.948 61.0892 112.921 61.0028 112.892 60.9204C112.6 60.1051 112.402 59.3234 112.476 58.4667L112.477 58.4509C112.524 57.9118 112.571 57.3656 112.693 56.849C112.712 56.7657 112.733 56.6809 112.755 56.5951C112.831 56.2858 112.911 55.963 112.946 55.6427C112.983 55.3067 112.982 54.9655 112.981 54.6336C112.981 54.5754 112.98 54.5176 112.98 54.4601C112.98 54.3997 112.931 54.3508 112.87 54.3508C112.808 54.3508 112.759 54.3997 112.759 54.4601C112.759 54.5191 112.759 54.578 112.759 54.6367L112.759 54.6578C112.756 54.6615 112.753 54.6653 112.75 54.6695C112.747 54.6711 112.741 54.6736 112.731 54.6765C112.704 54.6847 112.667 54.6908 112.622 54.695C112.577 54.6991 112.532 54.701 112.49 54.7026L112.481 54.7029C112.446 54.7042 112.408 54.7057 112.383 54.7096C112.065 54.7596 111.758 54.8069 111.442 54.8316L111.423 54.8335C111.461 54.804 111.499 54.7757 111.53 54.7522L111.583 54.7126L111.6 54.7001L111.606 54.6963L111.608 54.6946C112.019 54.4052 112.348 54.0422 112.66 53.6695C112.771 53.536 112.884 53.4024 112.997 53.2691C113.518 52.6527 114.041 52.0335 114.496 51.3594C114.53 51.3092 114.517 51.2414 114.466 51.208C114.415 51.1745 114.346 51.1881 114.312 51.2383C114.067 51.6003 113.803 51.9459 113.529 52.2853C113.53 52.2213 113.533 52.1354 113.542 52.0529C113.548 51.9939 113.558 51.9412 113.57 51.9014C113.579 51.8719 113.587 51.8587 113.589 51.8549L113.59 51.8543C113.654 51.8129 113.701 51.7516 113.737 51.7009C113.753 51.6774 113.767 51.6568 113.779 51.6382C113.799 51.6095 113.815 51.5854 113.833 51.5621C113.906 51.4717 113.962 51.3751 114.011 51.2825C114.024 51.258 114.037 51.234 114.049 51.2104C114.085 51.1427 114.119 51.0785 114.158 51.0151C114.38 50.6561 114.575 50.2875 114.764 49.9158C114.928 49.5925 115.224 49.3563 115.53 49.1146C115.723 48.9622 115.925 48.8064 116.137 48.726C116.244 48.6853 116.359 48.6617 116.484 48.6381L116.516 48.6321C116.629 48.6109 116.749 48.5882 116.866 48.5507C117.054 48.4898 117.317 48.4899 117.506 48.552C117.571 48.5736 117.637 48.5946 117.701 48.6154C118.03 48.7209 118.342 48.8213 118.644 48.9801C119.216 49.28 119.742 49.6674 120.238 50.0864C120.307 50.1446 120.382 50.2036 120.457 50.263L120.514 50.3075C120.609 50.3826 120.704 50.4589 120.792 50.5393C120.97 50.7011 121.113 50.8711 121.178 51.0633C121.197 51.1205 121.26 51.1515 121.318 51.1324C121.376 51.1133 121.407 51.0515 121.388 50.9942C121.305 50.7498 121.13 50.5493 120.942 50.3787C120.848 50.2929 120.748 50.2125 120.653 50.137L120.594 50.0909C120.519 50.0318 120.448 49.9759 120.382 49.9206C119.879 49.4956 119.339 49.0974 118.748 48.7873C118.427 48.6187 118.094 48.5116 117.765 48.4061C117.702 48.3857 117.639 48.3654 117.576 48.3448C117.384 48.2818 117.142 48.2704 116.932 48.3093C117.024 48.2219 117.108 48.1252 117.186 48.0292C117.225 47.9803 117.263 47.9319 117.301 47.8847C117.401 47.7571 117.496 47.6369 117.601 47.5334C117.66 47.4744 117.728 47.4251 117.803 47.3741L117.853 47.3404C117.913 47.3004 117.977 47.2575 118.037 47.2099C118.098 47.1625 118.157 47.1124 118.215 47.0638C118.237 47.0448 118.26 47.0259 118.282 47.0076C118.361 46.9414 118.439 46.8794 118.522 46.825C118.632 46.7528 118.747 46.6917 118.869 46.6277L118.95 46.5851C119.098 46.5062 119.251 46.4199 119.391 46.3065C119.445 46.2623 119.542 46.2193 119.63 46.1803L119.636 46.1777C119.74 46.131 119.841 46.0746 119.936 46.0213C119.963 46.0063 119.989 45.9916 120.015 45.9774C120.136 45.9109 120.252 45.8529 120.377 45.8166C120.581 45.757 120.786 45.6862 120.987 45.6168C121.097 45.5788 121.205 45.5413 121.312 45.5063C121.348 45.4944 121.385 45.4774 121.412 45.4654C121.422 45.4609 121.43 45.4571 121.436 45.4546C121.463 45.4433 121.486 45.4368 121.519 45.4368H122.145C122.212 45.4368 122.279 45.4357 122.344 45.4346C122.48 45.4324 122.611 45.4302 122.744 45.4381C122.873 45.4458 122.991 45.4948 123.127 45.5516C123.153 45.5624 123.18 45.5736 123.208 45.5848C123.268 45.6089 123.327 45.6177 123.374 45.6243L123.383 45.6256C123.429 45.632 123.463 45.6367 123.495 45.6474C123.553 45.6664 123.616 45.6355 123.635 45.5783C123.643 45.5546 123.643 45.5302 123.635 45.5083C123.692 45.4902 123.739 45.4586 123.771 45.4365L123.773 45.4351C123.816 45.4058 123.838 45.3912 123.861 45.3848C124.053 45.3323 124.249 45.3072 124.45 45.3032C124.534 45.3015 124.62 45.3018 124.706 45.3021C124.956 45.303 125.215 45.3039 125.471 45.2579C125.614 45.2324 125.77 45.2293 125.929 45.226C125.98 45.225 126.032 45.2239 126.084 45.2221Z" fill="black"/>
<path d="M132.503 70.0968L132.397 70.5681C130.88 73.9208 129.549 73.8905 126.408 75.2816C125.227 75.4929 124.596 75.6302 123.177 75.2816C119.83 73.844 118.446 73.7782 117.09 70.5681L117.009 70.2088L116.432 67.6477L114.895 60.8277L115.987 59.7514L117.973 57.4973L120.015 55.9634L129.401 55.8238L130.74 57.371L133.501 59.7514L134.593 60.8277L132.503 70.0968Z" fill="#FFE2E2"/>
<path d="M132.781 69.872C133.615 69.556 134.968 70.0108 136.12 68.1178C136.942 66.7663 137.229 64.4648 137.098 63.8179C136.966 63.1703 136.574 62.7809 136.297 62.5085C136.224 62.4367 136.111 62.4121 135.944 62.4476C135.776 62.4831 135.578 62.5748 135.367 62.7019C134.948 62.9552 134.512 63.3312 134.238 63.6007L134.203 63.5654L132.781 69.872Z" fill="#FFE2E2"/>
<path d="M116.692 69.8082L116.217 67.7001L115.226 64.1185C114.955 63.7632 114.618 63.3821 114.267 63.0685C113.907 62.7477 113.543 62.5076 113.223 62.4278C113.066 62.3885 112.925 62.3895 112.801 62.4336C112.679 62.4773 112.563 62.5673 112.461 62.7252C112.255 63.0446 112.117 63.6281 112.115 64.5932C112.113 65.5583 112.294 66.1953 112.798 67.0596C113.053 67.4966 113.316 67.905 113.57 68.2302C113.827 68.5589 114.063 68.7895 114.261 68.8869L116.692 69.8082Z" fill="url(#paint0_linear_388_398)"/>
<path d="M107.5 130H142.5L143 131.5L143 133H107V131.5L107.5 130Z" fill="#373E4D"/>
<path d="M107 132H143V132C143 140.284 136.284 147 128 147H122C113.716 147 107 140.284 107 132V132Z" fill="#081023"/>
<path d="M107 139.5C107 135.358 110.358 132 114.5 132V132C118.642 132 122 135.358 122 139.5V164H107V139.5Z" fill="#081023"/>
<rect x="107" y="164" width="15" height="2" fill="#373E4C"/>
<path d="M128 139.5C128 135.358 131.358 132 135.5 132V132C139.642 132 143 135.358 143 139.5V164H128V139.5Z" fill="#081023"/>
<rect x="128" y="164" width="15" height="2" fill="#373E4C"/>
<path d="M92.8919 117.976C92.962 114.879 95.5289 112.426 98.6253 112.496V112.496C101.722 112.566 104.175 115.133 104.105 118.23L103.52 144.061C103.45 147.157 100.883 149.61 97.7866 149.54V149.54C94.6902 149.47 92.2369 146.903 92.307 143.807L92.8919 117.976Z" fill="#FFE2E2"/>
<rect x="92.2502" y="138.359" width="12" height="2" transform="rotate(1.29707 92.2502 138.359)" fill="#8CA5E5"/>
<rect x="92.205" y="140.358" width="12" height="2" transform="rotate(1.29707 92.205 140.358)" fill="#0045F5"/>
<path d="M157.313 117.66C157.132 114.568 154.479 112.208 151.388 112.388V112.388C148.296 112.568 145.935 115.221 146.116 118.313L147.621 144.107C147.801 147.199 150.454 149.559 153.546 149.379V149.379C156.638 149.198 158.998 146.545 158.817 143.454L157.313 117.66Z" fill="#FFE2E2"/>
<rect width="12" height="2" transform="matrix(-0.998302 0.058244 0.058244 0.998302 158.68 138.007)" fill="#8CA5E5"/>
<rect width="12" height="2" transform="matrix(-0.998302 0.058244 0.058244 0.998302 158.797 140.003)" fill="#0045F5"/>
<rect x="109.998" y="219.037" width="12" height="3" transform="rotate(-1.73964 109.998 219.037)" fill="#8CA5E5"/>
<path d="M105.276 228.282C105.157 224.364 108.237 221.092 112.154 220.973L122.053 220.672L122.387 231.667L109.296 232.065C107.141 232.13 105.342 230.436 105.276 228.282V228.282Z" fill="#E0E7F5"/>
<path d="M106.364 231.153L122.357 230.668L122.387 231.667L108.848 232.078C107.931 232.106 107.039 231.774 106.364 231.153V231.153Z" fill="#393939"/>
<rect x="109.937" y="217.038" width="12" height="2" transform="rotate(-1.73964 109.937 217.038)" fill="#0045F5"/>
<rect width="12" height="3" transform="matrix(-0.999539 -0.0303577 -0.0303577 0.999539 139.389 219.037)" fill="#8CA5E5"/>
<path d="M144.111 228.282C144.23 224.364 141.15 221.092 137.233 220.973L127.334 220.672L127 231.667L140.091 232.065C142.246 232.13 144.045 230.436 144.111 228.282V228.282Z" fill="#E0E7F5"/>
<path d="M143.023 231.153L127.03 230.668L127 231.667L140.539 232.078C141.456 232.106 142.347 231.774 143.023 231.153V231.153Z" fill="#393939"/>
<rect width="12" height="2" transform="matrix(-0.999539 -0.0303577 -0.0303577 0.999539 139.45 217.038)" fill="#0045F5"/>
<ellipse cx="125.5" cy="232.5" rx="22.5" ry="1.5" fill="black" fill-opacity="0.1"/>
<defs>
<linearGradient id="paint0_linear_388_398" x1="124.5" y1="45" x2="124.5" y2="75.7607" gradientUnits="userSpaceOnUse">
<stop offset="1" stop-color="#FFD6D6"/>
</linearGradient>
</defs>
</svg>
