<svg width="250" height="250" viewBox="0 0 250 250" fill="none" xmlns="http://www.w3.org/2000/svg">
<ellipse cx="125.5" cy="232.5" rx="22.5" ry="1.5" fill="black" fill-opacity="0.1"/>
<path d="M110.122 153.608C110.137 150.511 112.661 148.012 115.758 148.028V148.028C118.855 148.043 121.353 150.566 121.338 153.664L121.21 179.501C121.194 182.598 118.671 185.096 115.574 185.081V185.081C112.477 185.065 109.978 182.542 109.994 179.445L110.122 153.608Z" fill="#FFE2E2"/>
<path d="M139.265 153.608C139.25 150.511 136.726 148.012 133.629 148.028V148.028C130.532 148.043 128.034 150.566 128.049 153.664L128.177 179.501C128.193 182.598 130.716 185.096 133.813 185.081V185.081C136.91 185.065 139.408 182.542 139.393 179.445L139.265 153.608Z" fill="#FFE2E2"/>
<path d="M106.531 110.209C105.796 113.218 102.761 115.061 99.7523 114.326V114.326C96.7436 113.591 94.9005 110.556 95.6355 107.547L101.767 82.4478C102.503 79.4391 105.537 77.5959 108.546 78.331V78.331C111.555 79.066 113.398 82.1009 112.663 85.1096L106.531 110.209Z" fill="#FFE2E2"/>
<path d="M144.547 110.31C145.388 113.291 148.487 115.025 151.468 114.183V114.183C154.448 113.341 156.182 110.242 155.34 107.262L148.318 82.3969C147.476 79.4163 144.377 77.6824 141.397 78.5242V78.5242C138.416 79.366 136.682 82.4646 137.524 85.4452L144.547 110.31Z" fill="#FFE2E2"/>
<path d="M110.14 181.621C110.141 178.524 112.653 176.014 115.75 176.016V176.016C118.847 176.017 121.357 178.529 121.356 181.626L121.34 217.524C121.339 220.621 118.827 223.131 115.73 223.129V223.129C112.633 223.128 110.123 220.616 110.124 217.519L110.14 181.621Z" fill="#FFE2E2"/>
<path d="M139.247 181.621C139.246 178.524 136.734 176.014 133.637 176.016V176.016C130.54 176.017 128.03 178.529 128.031 181.626L128.047 217.524C128.048 220.621 130.56 223.131 133.657 223.129V223.129C136.754 223.128 139.264 220.616 139.263 217.519L139.247 181.621Z" fill="#FFE2E2"/>
<path d="M108 81.7858H142V103.214H108V81.7858Z" fill="#FFE2E2"/>
<path d="M108 82.3214C108 79.6586 110.159 77.5 112.821 77.5H137.179C139.841 77.5 142 79.6586 142 82.3214V82.3214C142 84.9842 139.841 87.1429 137.179 87.1429H112.821C110.159 87.1429 108 84.9842 108 82.3214V82.3214Z" fill="#FFE2E2"/>
<rect x="102" y="77.5" width="46" height="11.7857" rx="5.89286" fill="#FFE2E2"/>
<rect x="120" y="70" width="10" height="19.2857" fill="#FFE2E2"/>
<path d="M113 75.3572H118.5L121 80.7143H129L131.5 75.3572H136.5L136 87.1429L137.5 93.5715L142.5 98.3929V104.286L142 107.5L142.5 112.857L142 120.893L142.5 122.5V130H107.5L107 122.5L107.5 117.143L107 112.321L107.5 98.3929L112.5 93.5715L113.5 86.6072L113 75.3572Z" fill="#1A3474"/>
<path fill-rule="evenodd" clip-rule="evenodd" d="M135.835 50.4736C135.841 50.4293 135.818 50.3845 135.775 50.3634C135.768 50.3598 135.751 50.3481 135.725 50.3238C135.701 50.301 135.675 50.2722 135.649 50.2409C135.596 50.1762 135.555 50.1122 135.541 50.0809C135.488 49.9628 135.433 49.8768 135.363 49.7763C135.288 49.669 135.212 49.5681 135.138 49.4693C134.993 49.2756 134.854 49.0899 134.739 48.8797L134.707 48.8204C134.556 48.5434 134.399 48.2572 134.211 47.9985C134.098 47.8442 133.918 47.7466 133.739 47.6867C133.626 47.6487 133.507 47.6241 133.396 47.6101C133.388 47.45 133.331 47.3163 133.274 47.1977C133.263 47.1743 133.252 47.1517 133.241 47.1296C133.19 47.0262 133.146 46.9349 133.122 46.8302C133.091 46.6945 133.028 46.5705 132.972 46.4591L132.962 46.4403C132.951 46.4175 132.939 46.3919 132.926 46.3627L132.923 46.3557C132.911 46.3292 132.898 46.3002 132.884 46.2717C132.855 46.2111 132.816 46.1415 132.762 46.0877C132.72 46.0462 132.674 46.022 132.627 46.0092C132.607 45.9878 132.578 45.9745 132.546 45.9745C132.53 45.9745 132.522 45.9706 132.517 45.9672C132.51 45.9625 132.501 45.9531 132.488 45.9332C132.477 45.9154 132.468 45.8956 132.455 45.87L132.448 45.8564C132.433 45.8267 132.415 45.7898 132.39 45.7557C132.19 45.4822 131.911 45.3375 131.637 45.2025C131.152 44.9636 130.63 44.7725 130.077 44.726C129.732 44.6969 129.391 44.6238 129.042 44.5472L128.998 44.5376C128.666 44.4645 128.327 44.3898 127.981 44.3539C127.973 44.353 127.965 44.3531 127.957 44.3541C127.857 44.3331 127.76 44.287 127.648 44.2329L127.644 44.2311C127.534 44.1784 127.409 44.1183 127.273 44.0914C126.88 44.0138 126.475 43.9897 126.076 44.0038C126.032 44.0053 125.986 44.0063 125.937 44.0072C125.775 44.0105 125.593 44.0141 125.432 44.043C125.197 44.0851 124.968 44.0843 124.724 44.0835C124.634 44.0832 124.541 44.0829 124.446 44.0848C124.228 44.0891 124.014 44.1163 123.802 44.1743C123.74 44.1914 123.688 44.2269 123.653 44.2509L123.646 44.2557C123.606 44.2835 123.583 44.297 123.56 44.3022C123.506 44.3146 123.47 44.3648 123.475 44.4183C123.454 44.4148 123.435 44.4121 123.417 44.4097L123.405 44.408C123.358 44.4014 123.324 44.3954 123.292 44.3826C123.269 44.3735 123.246 44.3636 123.222 44.3535C123.086 44.2966 122.928 44.2302 122.757 44.2201C122.616 44.2116 122.47 44.214 122.329 44.2163C122.266 44.2173 122.204 44.2184 122.145 44.2184H121.519C121.448 44.2184 121.396 44.2344 121.35 44.2532C121.331 44.2614 121.316 44.2682 121.303 44.2741C121.283 44.2833 121.267 44.2908 121.242 44.299C121.128 44.3363 121.017 44.3749 120.905 44.4133C120.708 44.4814 120.513 44.5489 120.314 44.6071C120.165 44.6506 120.031 44.7185 119.907 44.7866C119.878 44.8026 119.85 44.8186 119.822 44.8343C119.728 44.8867 119.639 44.9365 119.544 44.9786L119.528 44.9858C119.45 45.0205 119.328 45.0743 119.25 45.1379C119.128 45.2369 118.991 45.3149 118.844 45.3929L118.768 45.4333C118.646 45.4974 118.518 45.5645 118.399 45.6432C118.305 45.7047 118.22 45.7732 118.139 45.8408C118.114 45.8609 118.091 45.8808 118.068 45.9004C118.012 45.9478 117.957 45.9941 117.9 46.0389C117.846 46.0809 117.791 46.1177 117.733 46.1569L117.677 46.1943C117.6 46.247 117.519 46.3055 117.444 46.3789C117.328 46.493 117.221 46.6293 117.118 46.7604C117.082 46.8053 117.047 46.8501 117.013 46.8927C116.873 47.0649 116.733 47.2158 116.567 47.3142C116.532 47.3351 116.513 47.3723 116.513 47.4102L116.442 47.4236C116.318 47.4471 116.185 47.4736 116.058 47.5221C115.808 47.6168 115.58 47.7955 115.392 47.944L115.385 47.9492C115.088 48.1838 114.754 48.4473 114.566 48.8181C114.378 49.1878 114.186 49.5501 113.969 49.9014C113.925 49.9719 113.886 50.0457 113.85 50.1152C113.838 50.1374 113.827 50.1594 113.815 50.1805C113.767 50.2701 113.72 50.3521 113.66 50.4261C113.636 50.4563 113.609 50.4961 113.586 50.5312C113.574 50.5478 113.564 50.5634 113.555 50.5764C113.521 50.6249 113.493 50.6562 113.467 50.6726C113.404 50.7126 113.375 50.7849 113.358 50.8372C113.34 50.896 113.329 50.9642 113.322 51.0291C113.307 51.1596 113.307 51.2947 113.307 51.3527C113.307 51.403 113.341 51.4453 113.388 51.458C113.205 51.6817 113.017 51.9034 112.829 52.1262L112.828 52.1273C112.715 52.2609 112.602 52.3955 112.489 52.5305C112.18 52.9002 111.865 53.2448 111.479 53.5169C111.464 53.5277 111.351 53.6114 111.246 53.6923C111.192 53.733 111.14 53.7739 111.101 53.8054C111.081 53.8209 111.064 53.8352 111.051 53.8464C111.046 53.8516 111.038 53.8584 111.032 53.8655C111.029 53.8681 111.022 53.876 111.016 53.887C111.013 53.8915 111.005 53.9055 111.002 53.9254C110.998 53.9477 110.999 53.995 111.042 54.0288C111.066 54.0477 111.092 54.0565 111.111 54.0611C111.131 54.066 111.151 54.0685 111.17 54.0697C111.207 54.0722 111.248 54.0706 111.286 54.0678C111.324 54.065 111.362 54.0608 111.393 54.0571L111.417 54.0542C111.437 54.0518 111.451 54.0501 111.459 54.0494C111.786 54.0239 112.1 53.9752 112.418 53.9253C112.428 53.9237 112.453 53.9226 112.499 53.9209C112.54 53.9193 112.591 53.9172 112.642 53.9125C112.68 53.909 112.721 53.9037 112.759 53.895C112.758 54.139 112.752 54.3803 112.726 54.6191C112.692 54.9237 112.617 55.2278 112.541 55.5349C112.52 55.6228 112.498 55.711 112.477 55.7995C112.351 56.3315 112.303 56.8912 112.257 57.4252L112.255 57.4482C112.178 58.3506 112.387 59.1668 112.683 59.9932C112.711 60.0716 112.735 60.1487 112.759 60.2283C112.773 60.2747 112.788 60.3226 112.804 60.3714C112.845 60.5005 112.894 60.6331 112.964 60.7598C112.998 60.821 113.047 60.8855 113.091 60.943L113.121 60.9831C113.175 61.0562 113.214 61.1154 113.23 61.1658C113.235 61.1836 113.245 61.199 113.257 61.2112C113.076 61.1688 112.895 61.1678 112.726 61.2282C112.55 61.2912 112.397 61.4168 112.274 61.6081C112.031 61.9848 111.893 62.6281 111.893 63.6156V63.638L111.902 63.6586C111.902 64.4006 112.091 65.2856 112.606 66.1686C112.863 66.6099 113.132 67.0275 113.395 67.3634C113.654 67.6957 113.756 67.9612 114.001 68.0822L116.593 69.0828L116.888 69.6776C118.203 72.9331 119.671 73.0846 123.085 74.5C124.36 74.8434 125.119 74.8516 126.5 74.5C129.985 72.9598 131.109 72.7695 132.6 69.6776L132.724 69.1245C133.577 68.8405 135.071 69.2662 136.31 67.2302C137.149 65.8511 137.461 63.4935 137.315 62.7751C137.17 62.0601 136.735 61.6308 136.457 61.3569L136.454 61.3541C136.438 61.3386 136.422 61.3245 136.405 61.3118C136.495 61.1794 136.591 61.0511 136.689 60.9206L136.761 60.8248C136.886 60.6561 137.012 60.4826 137.122 60.2977C137.27 60.0518 137.255 59.8129 137.241 59.5841C137.238 59.5318 137.235 59.4801 137.234 59.429C137.231 59.3158 137.212 59.2065 137.194 59.1059L137.191 59.0936C137.174 58.9954 137.157 58.9056 137.153 58.8152C137.142 58.6019 137.118 58.3918 137.08 58.1813C137.021 57.8598 137.015 57.5247 137.015 57.1874V56.036L137.015 55.9572C137.015 55.6858 137.016 55.3999 136.971 55.1212C136.954 55.0207 136.95 54.9188 136.946 54.8094L136.946 54.8082C136.941 54.7006 136.937 54.5855 136.917 54.4704C136.896 54.3482 136.899 54.2242 136.903 54.0905C136.904 54.04 136.905 53.9882 136.905 53.9345C136.905 53.8915 136.9 53.8497 136.895 53.8124L136.889 53.7726C136.885 53.7501 136.882 53.7297 136.88 53.7078C136.872 53.6424 136.875 53.5987 136.893 53.563C136.913 53.5242 136.907 53.4793 136.882 53.4471C136.933 53.4555 136.987 53.4613 137.041 53.4613C137.101 53.4613 137.158 53.4536 137.207 53.447L137.209 53.4468C137.261 53.4398 137.303 53.4343 137.344 53.4343C137.39 53.4343 137.555 53.4226 137.695 53.4011C137.764 53.3906 137.837 53.3763 137.889 53.3561C137.902 53.3508 137.918 53.3439 137.932 53.3349C137.945 53.3265 137.966 53.3117 137.981 53.2876C137.999 53.2594 138.007 53.2214 137.994 53.1821C137.983 53.1485 137.96 53.1273 137.945 53.1157C137.877 53.064 137.797 53.0371 137.737 53.017L137.713 53.009C137.645 52.9854 137.601 52.9652 137.569 52.9285C137.512 52.8654 137.441 52.8142 137.377 52.7708L137.332 52.7407C137.283 52.7079 137.239 52.6788 137.2 52.6469C137.119 52.5795 137.053 52.5026 136.985 52.4179L136.946 52.3685C136.891 52.299 136.832 52.2243 136.765 52.1542C136.691 52.0772 136.626 51.9859 136.559 51.8865L136.523 51.832C136.468 51.7503 136.411 51.6643 136.349 51.5856C136.301 51.5249 136.249 51.4656 136.196 51.4076C136.222 51.4066 136.249 51.396 136.27 51.3757C136.313 51.3331 136.313 51.2639 136.27 51.2213C136.264 51.216 136.259 51.2073 136.245 51.1751L136.243 51.1713C136.231 51.1443 136.211 51.0997 136.174 51.0614L136.155 51.0412C136.124 51.009 136.111 50.9957 136.104 50.976C136.08 50.9111 136.029 50.7845 135.966 50.6675C135.935 50.6092 135.899 50.5499 135.859 50.501C135.852 50.4921 135.844 50.4828 135.835 50.4736ZM127.229 44.3056C126.856 44.2319 126.469 44.2085 126.084 44.2221C126.032 44.2239 125.98 44.225 125.929 44.226C125.77 44.2293 125.614 44.2324 125.471 44.2579C125.215 44.3039 124.956 44.303 124.706 44.3021C124.62 44.3018 124.534 44.3015 124.45 44.3032C124.249 44.3072 124.053 44.3323 123.861 44.3848C123.838 44.3912 123.816 44.4058 123.773 44.4351L123.771 44.4365C123.739 44.4586 123.692 44.4902 123.635 44.5083C123.643 44.5302 123.643 44.5546 123.635 44.5783C123.616 44.6355 123.553 44.6664 123.495 44.6474C123.463 44.6367 123.429 44.632 123.383 44.6256L123.374 44.6243C123.327 44.6177 123.268 44.6089 123.208 44.5848C123.18 44.5736 123.153 44.5624 123.127 44.5516C122.991 44.4948 122.873 44.4458 122.744 44.4381C122.611 44.4302 122.48 44.4324 122.344 44.4346C122.279 44.4357 122.212 44.4368 122.145 44.4368H121.519C121.486 44.4368 121.463 44.4433 121.436 44.4546C121.43 44.4571 121.422 44.4609 121.412 44.4654C121.385 44.4774 121.348 44.4944 121.312 44.5063C121.205 44.5413 121.097 44.5788 120.987 44.6168C120.786 44.6862 120.581 44.757 120.377 44.8166C120.252 44.8529 120.136 44.9109 120.015 44.9774C119.989 44.9916 119.963 45.0063 119.936 45.0213C119.841 45.0746 119.74 45.131 119.636 45.1777L119.63 45.1803C119.542 45.2193 119.445 45.2623 119.391 45.3065C119.251 45.4199 119.098 45.5062 118.95 45.5851L118.869 45.6277C118.747 45.6917 118.632 45.7528 118.522 45.825C118.439 45.8794 118.361 45.9414 118.282 46.0076C118.26 46.0259 118.237 46.0448 118.215 46.0638C118.157 46.1124 118.098 46.1625 118.037 46.2099C117.977 46.2575 117.913 46.3004 117.853 46.3404L117.803 46.3741C117.728 46.4251 117.66 46.4744 117.601 46.5334C117.496 46.6369 117.401 46.7571 117.301 46.8847C117.263 46.9319 117.225 46.9803 117.186 47.0292C117.108 47.1252 117.024 47.2219 116.932 47.3093C117.142 47.2704 117.384 47.2818 117.576 47.3448C117.639 47.3654 117.702 47.3857 117.765 47.4061C118.094 47.5116 118.427 47.6187 118.748 47.7873C119.339 48.0974 119.879 48.4956 120.382 48.9206C120.448 48.9759 120.519 49.0318 120.594 49.0909L120.653 49.137C120.748 49.2125 120.848 49.2929 120.942 49.3787C121.13 49.5493 121.305 49.7498 121.388 49.9942C121.407 50.0515 121.376 50.1133 121.318 50.1324C121.26 50.1515 121.197 50.1205 121.178 50.0633C121.113 49.8711 120.97 49.7011 120.792 49.5393C120.704 49.4589 120.609 49.3826 120.514 49.3075L120.457 49.263C120.382 49.2036 120.307 49.1446 120.238 49.0864C119.742 48.6674 119.216 48.28 118.644 47.9801C118.342 47.8213 118.03 47.7209 117.701 47.6154C117.637 47.5946 117.571 47.5736 117.506 47.552C117.317 47.4899 117.054 47.4898 116.866 47.5507C116.749 47.5882 116.629 47.6109 116.516 47.6321L116.484 47.6381C116.359 47.6617 116.244 47.6853 116.137 47.726C115.925 47.8064 115.723 47.9622 115.53 48.1146C115.224 48.3563 114.928 48.5925 114.764 48.9158C114.575 49.2875 114.38 49.6561 114.158 50.0151C114.119 50.0785 114.085 50.1427 114.049 50.2104C114.037 50.234 114.024 50.258 114.011 50.2825C113.962 50.3751 113.906 50.4717 113.833 50.5621C113.815 50.5854 113.799 50.6095 113.779 50.6382C113.767 50.6568 113.753 50.6774 113.737 50.7009C113.701 50.7516 113.654 50.8129 113.59 50.8543L113.589 50.8549L113.588 50.856L113.59 50.8543L113.589 50.8549C113.587 50.8587 113.579 50.8719 113.57 50.9014C113.558 50.9412 113.548 50.9939 113.542 51.0529C113.533 51.1354 113.53 51.2213 113.529 51.2853C113.803 50.9459 114.067 50.6003 114.312 50.2383C114.346 50.1881 114.415 50.1745 114.466 50.208C114.517 50.2414 114.53 50.3092 114.496 50.3594C114.041 51.0335 113.518 51.6527 112.997 52.2691C112.884 52.4024 112.771 52.536 112.66 52.6695C112.348 53.0422 112.019 53.4052 111.608 53.6946L111.606 53.6963L111.6 53.7001L111.583 53.7126L111.53 53.7522C111.499 53.7757 111.461 53.804 111.423 53.8335L111.442 53.8316C111.758 53.8069 112.065 53.7596 112.383 53.7096C112.408 53.7057 112.446 53.7042 112.481 53.7029L112.49 53.7026C112.532 53.701 112.577 53.6991 112.622 53.695C112.667 53.6908 112.704 53.6847 112.731 53.6765C112.741 53.6736 112.747 53.6711 112.75 53.6695C112.753 53.6653 112.756 53.6615 112.759 53.6578L112.759 53.6367C112.759 53.578 112.759 53.5191 112.759 53.4601C112.759 53.3997 112.808 53.3508 112.87 53.3508C112.931 53.3508 112.98 53.3997 112.98 53.4601C112.98 53.5176 112.981 53.5754 112.981 53.6336C112.982 53.9655 112.983 54.3067 112.946 54.6427C112.911 54.963 112.831 55.2858 112.755 55.5951C112.733 55.6809 112.712 55.7657 112.693 55.849C112.571 56.3656 112.524 56.9118 112.477 57.4509L112.476 57.4667C112.402 58.3234 112.6 59.1051 112.892 59.9204C112.921 60.0028 112.948 60.0892 112.974 60.1727C112.987 60.2181 113.001 60.2627 113.015 60.3052C113.055 60.4297 113.099 60.5467 113.159 60.6549C113.184 60.7013 113.221 60.7493 113.263 60.8054L113.299 60.8539C113.352 60.925 113.413 61.0115 113.441 61.1015C113.459 61.1592 113.427 61.2203 113.368 61.2381L113.361 61.2398C113.71 61.3498 114.075 61.6033 114.415 61.9066C114.765 62.2189 115.098 62.5932 115.37 62.9445L114.652 59.758L115.776 58.6499L117.765 56.371L119.948 54.7587L129.468 54.6191L130.947 56.2447L133.711 58.6499L134.835 59.758L134.27 62.2682C134.542 62.0188 134.9 61.7279 135.252 61.5156C135.47 61.3834 135.694 61.2771 135.897 61.2341C136 61.2122 136.104 61.2057 136.2 61.2237C136.202 61.2184 136.205 61.2133 136.209 61.2083C136.306 61.0648 136.41 60.9258 136.512 60.7893L136.582 60.6955C136.707 60.5277 136.827 60.3616 136.932 60.1865C137.042 60.0029 137.033 59.8426 137.021 59.6222C137.017 59.5642 137.014 59.5019 137.012 59.434C137.01 59.3398 136.994 59.2461 136.976 59.1443L136.973 59.1278C136.955 59.0331 136.937 58.9307 136.932 58.8259C136.922 58.622 136.898 58.4212 136.862 58.2199C136.799 57.8775 136.793 57.5252 136.793 57.1874L136.793 55.9591C136.793 55.6845 136.794 55.4161 136.752 55.1555C136.733 55.0422 136.729 54.9293 136.725 54.8238L136.724 54.817C136.72 54.7074 136.715 54.6058 136.699 54.5064C136.674 54.362 136.678 54.2073 136.681 54.0674C136.682 54.0212 136.683 53.9766 136.683 53.9345C136.683 53.9071 136.68 53.8774 136.675 53.8429L136.67 53.8105C136.667 53.7856 136.662 53.758 136.659 53.7324C136.651 53.6553 136.648 53.5591 136.695 53.4653C136.705 53.4449 136.722 53.429 136.74 53.4187L136.696 53.4084L136.689 53.4069C136.653 53.3985 136.619 53.3906 136.586 53.384C136.574 53.3815 136.559 53.3788 136.542 53.3757C136.478 53.3642 136.387 53.3478 136.31 53.3201C136.218 53.2871 136.081 53.2141 136.081 53.0548C136.081 52.9945 136.13 52.9456 136.191 52.9456C136.253 52.9456 136.302 52.9945 136.302 53.0548C136.302 53.0612 136.304 53.0853 136.386 53.115C136.443 53.1355 136.506 53.147 136.568 53.1582C136.589 53.1621 136.61 53.1659 136.631 53.17C136.667 53.1774 136.704 53.1859 136.74 53.1942L136.746 53.1956C136.78 53.2036 136.813 53.2113 136.846 53.2182C136.917 53.2329 136.981 53.2428 137.041 53.2428C137.084 53.2428 137.128 53.2372 137.179 53.2303L137.184 53.2297C137.231 53.2233 137.287 53.2158 137.344 53.2158C137.37 53.2158 137.476 53.209 137.587 53.1955C137.526 53.1713 137.459 53.1359 137.402 53.0731C137.365 53.0318 137.314 52.9936 137.251 52.9508L137.213 52.9254C137.162 52.8916 137.106 52.8542 137.058 52.8144C136.958 52.7319 136.881 52.6404 136.811 52.553L136.768 52.4988C136.714 52.4301 136.663 52.3659 136.604 52.3043C136.516 52.2126 136.442 52.1078 136.375 52.0073L136.336 51.949C136.282 51.8678 136.23 51.7911 136.174 51.7201C136.073 51.5926 135.958 51.4748 135.839 51.3537C135.793 51.3069 135.747 51.2597 135.701 51.2111L135.653 51.1604C135.478 50.9758 135.322 50.8117 135.118 50.6743C135.067 50.6403 135.024 50.598 134.989 50.5638L134.975 50.5505C134.934 50.5113 134.902 50.483 134.866 50.4641C134.774 50.4155 134.673 50.3864 134.561 50.3542C134.532 50.3459 134.502 50.3374 134.472 50.3283C134.161 50.2349 133.871 50.1649 133.56 50.1649C133.499 50.1649 133.45 50.116 133.45 50.0557C133.45 49.9953 133.499 49.9464 133.56 49.9464C133.905 49.9464 134.22 50.0243 134.537 50.1193C134.561 50.1265 134.586 50.1338 134.613 50.1413C134.726 50.1739 134.856 50.211 134.971 50.2716C135.037 50.3065 135.088 50.3546 135.129 50.3941L135.144 50.408C135.181 50.4438 135.21 50.4716 135.243 50.4938C135.468 50.6455 135.64 50.8271 135.813 51.0092L135.863 51.0617C135.904 51.105 135.947 51.1492 135.991 51.1941C136.003 51.206 136.014 51.218 136.026 51.23C136.021 51.2213 136.018 51.2159 136.013 51.2114L136.001 51.1991C135.971 51.1689 135.92 51.118 135.895 51.0506C135.873 50.9902 135.827 50.8742 135.771 50.7698C135.742 50.7174 135.714 50.6714 135.686 50.6376C135.673 50.6207 135.661 50.6088 135.651 50.601C135.643 50.5947 135.638 50.5925 135.638 50.5925C135.585 50.5766 135.553 50.5242 135.561 50.4711C135.532 50.4428 135.504 50.4107 135.477 50.3784C135.42 50.3083 135.364 50.2266 135.338 50.1688C135.293 50.0685 135.247 49.9952 135.18 49.9C135.115 49.8062 135.044 49.7119 134.973 49.6161C134.822 49.4147 134.666 49.2068 134.544 48.9833L134.513 48.9268C134.36 48.6469 134.211 48.3727 134.031 48.1262C133.956 48.024 133.826 47.9464 133.668 47.8935C133.512 47.8412 133.341 47.8175 133.202 47.8143C133.14 47.8129 133.092 47.7628 133.093 47.7025C133.095 47.6537 133.128 47.6131 133.173 47.6001C133.164 47.4933 133.125 47.3969 133.074 47.2911C133.065 47.2718 133.055 47.252 133.045 47.2316C132.994 47.1277 132.935 47.0096 132.906 46.8776C132.881 46.769 132.829 46.667 132.769 46.5487L132.764 46.538C132.75 46.5098 132.736 46.4794 132.723 46.4508L132.72 46.4442C132.708 46.4171 132.697 46.3912 132.684 46.366C132.657 46.31 132.632 46.2685 132.605 46.2422C132.581 46.218 132.55 46.2098 132.494 46.2185C132.464 46.223 132.433 46.2314 132.396 46.242L132.378 46.2473C132.348 46.2561 132.315 46.266 132.283 46.2729L132.273 46.2788C132.264 46.2847 132.253 46.2932 132.238 46.3057L132.23 46.3125C132.206 46.3339 132.164 46.37 132.116 46.3891C132.082 46.4029 132.051 46.4149 132.021 46.4261C131.905 46.4705 131.82 46.5029 131.733 46.5826C131.552 46.7484 131.39 46.9359 131.241 47.1338C131.152 47.2507 131.057 47.3561 130.963 47.4574L130.901 47.5236C130.827 47.6021 130.755 47.679 130.685 47.7606C130.493 47.9847 130.291 48.1983 130.09 48.4105C129.996 48.5096 129.902 48.6086 129.81 48.7079C129.667 48.8625 129.535 49.0273 129.401 49.1957L129.389 49.2102C129.26 49.373 129.128 49.5391 128.984 49.6965C128.943 49.7414 128.873 49.745 128.827 49.7046C128.782 49.6643 128.778 49.5952 128.819 49.5504C128.958 49.3985 129.086 49.2375 129.217 49.0731L129.227 49.0608C129.36 48.8931 129.497 48.7221 129.646 48.5606C129.742 48.4573 129.838 48.3565 129.932 48.2564C130.131 48.0464 130.327 47.8395 130.516 47.6195C130.59 47.5339 130.666 47.4524 130.74 47.3733L130.8 47.3096C130.893 47.2095 130.982 47.1108 131.063 47.0034C131.218 46.798 131.389 46.5998 131.582 46.4227C131.703 46.3117 131.835 46.262 131.955 46.2166C131.982 46.2067 132.008 46.197 132.032 46.1869C132.044 46.1825 132.057 46.1713 132.094 46.1401L132.096 46.1382C132.123 46.1155 132.172 46.0735 132.235 46.0598C132.254 46.0556 132.274 46.05 132.297 46.0432C132.281 46.0166 132.267 45.9877 132.255 45.964L132.249 45.9524C132.234 45.9229 132.223 45.9009 132.21 45.8834C132.046 45.6585 131.814 45.534 131.538 45.3978C131.066 45.1655 130.573 44.9869 130.058 44.9436C129.696 44.9132 129.341 44.8367 128.994 44.7604L128.954 44.7517C128.619 44.6779 128.291 44.6057 127.958 44.5712L127.957 44.571C127.945 44.5725 127.933 44.5722 127.921 44.5698C127.788 44.5437 127.666 44.4848 127.558 44.4328L127.55 44.4292C127.436 44.3739 127.335 44.3264 127.229 44.3056ZM132.503 69.0968L134.593 59.8277L133.501 58.7514L130.74 56.371L129.401 54.8238L120.015 54.9634L117.973 56.4973L115.987 58.7514L114.895 59.8277L116.432 66.6477L117.009 69.2088L117.09 69.5681C118.446 72.7782 119.83 72.844 123.177 74.2816C124.596 74.6302 125.227 74.4929 126.408 74.2816C129.549 72.8905 130.88 72.9208 132.397 69.5681L132.503 69.0968ZM136.12 67.1178C134.968 69.0108 133.615 68.556 132.781 68.872L134.203 62.5654L134.238 62.6007C134.512 62.3312 134.948 61.9552 135.367 61.7019C135.578 61.5748 135.776 61.4831 135.944 61.4476C136.111 61.4121 136.224 61.4367 136.297 61.5085C136.574 61.7809 136.966 62.1703 137.098 62.8179C137.229 63.4648 136.942 65.7663 136.12 67.1178ZM116.217 66.7001L116.692 68.8082L114.261 67.8869C114.063 67.7895 113.827 67.5589 113.57 67.2302C113.316 66.905 113.053 66.4966 112.798 66.0596C112.294 65.1953 112.113 64.5583 112.115 63.5932C112.117 62.6281 112.255 62.0446 112.461 61.7252C112.563 61.5673 112.679 61.4773 112.801 61.4336C112.925 61.3895 113.066 61.3885 113.223 61.4278C113.543 61.5076 113.907 61.7477 114.267 62.0685C114.618 62.3821 114.955 62.7632 115.226 63.1185L116.217 66.7001Z" fill="black"/>
<path d="M126.084 44.2221C126.469 44.2085 126.856 44.2319 127.229 44.3056C127.335 44.3264 127.436 44.3739 127.55 44.4292L127.558 44.4328C127.666 44.4848 127.788 44.5437 127.921 44.5698C127.933 44.5722 127.945 44.5725 127.957 44.571L127.958 44.5712C128.291 44.6057 128.619 44.6779 128.954 44.7517L128.994 44.7604C129.341 44.8367 129.696 44.9132 130.058 44.9436C130.573 44.9869 131.066 45.1655 131.538 45.3978C131.814 45.534 132.046 45.6585 132.21 45.8834C132.223 45.9009 132.234 45.9229 132.249 45.9524L132.255 45.964C132.267 45.9877 132.281 46.0166 132.297 46.0432C132.274 46.05 132.254 46.0556 132.235 46.0598C132.172 46.0735 132.123 46.1155 132.096 46.1382L132.094 46.1401C132.057 46.1713 132.044 46.1825 132.032 46.1869C132.008 46.197 131.982 46.2067 131.955 46.2166C131.835 46.262 131.703 46.3117 131.582 46.4227C131.389 46.5998 131.218 46.798 131.063 47.0034C130.982 47.1108 130.893 47.2095 130.8 47.3096L130.74 47.3733C130.666 47.4524 130.59 47.5339 130.516 47.6195C130.327 47.8395 130.131 48.0464 129.932 48.2564C129.838 48.3565 129.742 48.4573 129.646 48.5606C129.497 48.7221 129.36 48.8931 129.227 49.0608L129.217 49.0731C129.086 49.2375 128.958 49.3985 128.819 49.5504C128.778 49.5952 128.782 49.6643 128.827 49.7046C128.873 49.745 128.943 49.7414 128.984 49.6965C129.128 49.5391 129.26 49.373 129.389 49.2102L129.401 49.1957C129.535 49.0273 129.667 48.8625 129.81 48.7079C129.902 48.6086 129.996 48.5096 130.09 48.4105C130.291 48.1983 130.493 47.9847 130.685 47.7606C130.755 47.679 130.827 47.6021 130.901 47.5236L130.963 47.4574C131.057 47.3561 131.152 47.2507 131.241 47.1338C131.39 46.9359 131.552 46.7484 131.733 46.5826C131.82 46.5029 131.905 46.4705 132.021 46.4261C132.051 46.4149 132.082 46.4029 132.116 46.3891C132.164 46.37 132.206 46.3339 132.23 46.3125L132.238 46.3057C132.253 46.2932 132.264 46.2847 132.273 46.2788L132.283 46.2729C132.315 46.266 132.348 46.2561 132.378 46.2473L132.396 46.242C132.433 46.2314 132.464 46.223 132.494 46.2185C132.55 46.2098 132.581 46.218 132.605 46.2422C132.632 46.2685 132.657 46.31 132.684 46.366C132.697 46.3912 132.708 46.4171 132.72 46.4442L132.723 46.4508C132.736 46.4794 132.75 46.5098 132.764 46.538L132.769 46.5487C132.829 46.667 132.881 46.769 132.906 46.8776C132.935 47.0096 132.994 47.1277 133.045 47.2316C133.055 47.252 133.065 47.2718 133.074 47.2911C133.125 47.3969 133.164 47.4933 133.173 47.6001C133.128 47.6131 133.095 47.6537 133.093 47.7025C133.092 47.7628 133.14 47.8129 133.202 47.8143C133.341 47.8175 133.512 47.8412 133.668 47.8935C133.826 47.9464 133.956 48.024 134.031 48.1262C134.211 48.3727 134.36 48.6469 134.513 48.9268L134.544 48.9833C134.666 49.2068 134.822 49.4147 134.973 49.6161C135.044 49.7119 135.115 49.8062 135.18 49.9C135.247 49.9952 135.293 50.0685 135.338 50.1688C135.364 50.2266 135.42 50.3083 135.477 50.3784C135.504 50.4107 135.532 50.4428 135.561 50.4711C135.553 50.5242 135.585 50.5766 135.638 50.5925C135.638 50.5925 135.643 50.5947 135.651 50.601C135.661 50.6088 135.673 50.6207 135.686 50.6376C135.714 50.6714 135.742 50.7174 135.771 50.7698C135.827 50.8742 135.873 50.9902 135.895 51.0506C135.92 51.118 135.971 51.1689 136.001 51.1991L136.013 51.2114C136.018 51.2159 136.021 51.2213 136.026 51.23L135.991 51.1941C135.947 51.1492 135.904 51.105 135.863 51.0617L135.813 51.0092C135.64 50.8271 135.468 50.6455 135.243 50.4938C135.21 50.4716 135.181 50.4438 135.144 50.408L135.129 50.3941C135.088 50.3546 135.037 50.3065 134.971 50.2716C134.856 50.211 134.726 50.1739 134.613 50.1413C134.586 50.1338 134.561 50.1265 134.537 50.1193C134.22 50.0243 133.905 49.9464 133.56 49.9464C133.499 49.9464 133.45 49.9953 133.45 50.0557C133.45 50.116 133.499 50.1649 133.56 50.1649C133.871 50.1649 134.161 50.2349 134.472 50.3283C134.502 50.3374 134.532 50.3459 134.561 50.3542C134.673 50.3864 134.774 50.4155 134.866 50.4641C134.902 50.483 134.934 50.5113 134.975 50.5505L134.989 50.5638C135.024 50.598 135.067 50.6403 135.118 50.6743C135.322 50.8117 135.478 50.9758 135.653 51.1604L135.701 51.2111C135.747 51.2597 135.793 51.3069 135.839 51.3537C135.958 51.4748 136.073 51.5926 136.174 51.7201C136.23 51.7911 136.282 51.8678 136.336 51.949L136.375 52.0073C136.442 52.1078 136.516 52.2126 136.604 52.3043C136.663 52.3659 136.714 52.4301 136.768 52.4988L136.811 52.553C136.881 52.6404 136.958 52.7319 137.058 52.8144C137.106 52.8542 137.162 52.8916 137.213 52.9254L137.251 52.9508C137.314 52.9936 137.365 53.0318 137.402 53.0731C137.459 53.1359 137.526 53.1713 137.587 53.1955C137.476 53.209 137.37 53.2158 137.344 53.2158C137.287 53.2158 137.231 53.2233 137.184 53.2297L137.179 53.2303C137.128 53.2372 137.084 53.2428 137.041 53.2428C136.981 53.2428 136.917 53.2329 136.846 53.2182C136.813 53.2113 136.78 53.2036 136.746 53.1956L136.74 53.1942C136.704 53.1859 136.667 53.1774 136.631 53.17C136.61 53.1659 136.589 53.1621 136.568 53.1582C136.506 53.147 136.443 53.1355 136.386 53.115C136.304 53.0853 136.302 53.0612 136.302 53.0548C136.302 52.9945 136.253 52.9456 136.191 52.9456C136.13 52.9456 136.081 52.9945 136.081 53.0548C136.081 53.2141 136.218 53.2871 136.31 53.3201C136.387 53.3478 136.478 53.3642 136.542 53.3757C136.559 53.3788 136.574 53.3815 136.586 53.384C136.619 53.3906 136.653 53.3985 136.689 53.4069L136.696 53.4084L136.74 53.4187C136.722 53.429 136.705 53.4449 136.695 53.4653C136.648 53.5591 136.651 53.6553 136.659 53.7324C136.662 53.758 136.667 53.7856 136.67 53.8105L136.675 53.8429C136.68 53.8774 136.683 53.9071 136.683 53.9345C136.683 53.9766 136.682 54.0212 136.681 54.0674C136.678 54.2073 136.674 54.362 136.699 54.5064C136.715 54.6058 136.72 54.7074 136.724 54.817L136.725 54.8238C136.729 54.9293 136.733 55.0422 136.752 55.1555C136.794 55.4161 136.793 55.6845 136.793 55.9591L136.793 57.1874C136.793 57.5252 136.799 57.8775 136.862 58.2199C136.898 58.4212 136.922 58.622 136.932 58.8259C136.937 58.9307 136.955 59.0331 136.973 59.1278L136.976 59.1443C136.994 59.2461 137.01 59.3398 137.012 59.434C137.014 59.5019 137.017 59.5642 137.021 59.6222C137.033 59.8426 137.042 60.0029 136.932 60.1865C136.827 60.3616 136.707 60.5277 136.582 60.6955L136.512 60.7893C136.41 60.9258 136.306 61.0648 136.209 61.2083C136.205 61.2133 136.202 61.2184 136.2 61.2237C136.104 61.2057 136 61.2122 135.897 61.2341C135.694 61.2771 135.47 61.3834 135.252 61.5156C134.9 61.7279 134.542 62.0188 134.27 62.2682L134.835 59.758L133.711 58.6499L130.947 56.2447L129.468 54.6191L119.948 54.7587L117.765 56.371L115.776 58.6499L114.652 59.758L115.37 62.9445C115.098 62.5932 114.765 62.2189 114.415 61.9066C114.075 61.6033 113.71 61.3498 113.361 61.2398L113.368 61.2381C113.427 61.2203 113.459 61.1592 113.441 61.1015C113.413 61.0115 113.352 60.925 113.299 60.8539L113.263 60.8054C113.221 60.7493 113.184 60.7013 113.159 60.6549C113.099 60.5467 113.055 60.4297 113.015 60.3052C113.001 60.2627 112.987 60.2181 112.974 60.1727C112.948 60.0892 112.921 60.0028 112.892 59.9204C112.6 59.1051 112.402 58.3234 112.476 57.4667L112.477 57.4509C112.524 56.9118 112.571 56.3656 112.693 55.849C112.712 55.7657 112.733 55.6809 112.755 55.5951C112.831 55.2858 112.911 54.963 112.946 54.6427C112.983 54.3067 112.982 53.9655 112.981 53.6336C112.981 53.5754 112.98 53.5176 112.98 53.4601C112.98 53.3997 112.931 53.3508 112.87 53.3508C112.808 53.3508 112.759 53.3997 112.759 53.4601C112.759 53.5191 112.759 53.578 112.759 53.6367L112.759 53.6578C112.756 53.6615 112.753 53.6653 112.75 53.6695C112.747 53.6711 112.741 53.6736 112.731 53.6765C112.704 53.6847 112.667 53.6908 112.622 53.695C112.577 53.6991 112.532 53.701 112.49 53.7026L112.481 53.7029C112.446 53.7042 112.408 53.7057 112.383 53.7096C112.065 53.7596 111.758 53.8069 111.442 53.8316L111.423 53.8335C111.461 53.804 111.499 53.7757 111.53 53.7522L111.583 53.7126L111.6 53.7001L111.606 53.6963L111.608 53.6946C112.019 53.4052 112.348 53.0422 112.66 52.6695C112.771 52.536 112.884 52.4024 112.997 52.2691C113.518 51.6527 114.041 51.0335 114.496 50.3594C114.53 50.3092 114.517 50.2414 114.466 50.208C114.415 50.1745 114.346 50.1881 114.312 50.2383C114.067 50.6003 113.803 50.9459 113.529 51.2853C113.53 51.2213 113.533 51.1354 113.542 51.0529C113.548 50.9939 113.558 50.9412 113.57 50.9014C113.579 50.8719 113.587 50.8587 113.589 50.8549L113.59 50.8543C113.654 50.8129 113.701 50.7516 113.737 50.7009C113.753 50.6774 113.767 50.6568 113.779 50.6382C113.799 50.6095 113.815 50.5854 113.833 50.5621C113.906 50.4717 113.962 50.3751 114.011 50.2825C114.024 50.258 114.037 50.234 114.049 50.2104C114.085 50.1427 114.119 50.0785 114.158 50.0151C114.38 49.6561 114.575 49.2875 114.764 48.9158C114.928 48.5925 115.224 48.3563 115.53 48.1146C115.723 47.9622 115.925 47.8064 116.137 47.726C116.244 47.6853 116.359 47.6617 116.484 47.6381L116.516 47.6321C116.629 47.6109 116.749 47.5882 116.866 47.5507C117.054 47.4898 117.317 47.4899 117.506 47.552C117.571 47.5736 117.637 47.5946 117.701 47.6154C118.03 47.7209 118.342 47.8213 118.644 47.9801C119.216 48.28 119.742 48.6674 120.238 49.0864C120.307 49.1446 120.382 49.2036 120.457 49.263L120.514 49.3075C120.609 49.3826 120.704 49.4589 120.792 49.5393C120.97 49.7011 121.113 49.8711 121.178 50.0633C121.197 50.1205 121.26 50.1515 121.318 50.1324C121.376 50.1133 121.407 50.0515 121.388 49.9942C121.305 49.7498 121.13 49.5493 120.942 49.3787C120.848 49.2929 120.748 49.2125 120.653 49.137L120.594 49.0909C120.519 49.0318 120.448 48.9759 120.382 48.9206C119.879 48.4956 119.339 48.0974 118.748 47.7873C118.427 47.6187 118.094 47.5116 117.765 47.4061C117.702 47.3857 117.639 47.3654 117.576 47.3448C117.384 47.2818 117.142 47.2704 116.932 47.3093C117.024 47.2219 117.108 47.1252 117.186 47.0292C117.225 46.9803 117.263 46.9319 117.301 46.8847C117.401 46.7571 117.496 46.6369 117.601 46.5334C117.66 46.4744 117.728 46.4251 117.803 46.3741L117.853 46.3404C117.913 46.3004 117.977 46.2575 118.037 46.2099C118.098 46.1625 118.157 46.1124 118.215 46.0638C118.237 46.0448 118.26 46.0259 118.282 46.0076C118.361 45.9414 118.439 45.8794 118.522 45.825C118.632 45.7528 118.747 45.6917 118.869 45.6277L118.95 45.5851C119.098 45.5062 119.251 45.4199 119.391 45.3065C119.445 45.2623 119.542 45.2193 119.63 45.1803L119.636 45.1777C119.74 45.131 119.841 45.0746 119.936 45.0213C119.963 45.0063 119.989 44.9916 120.015 44.9774C120.136 44.9109 120.252 44.8529 120.377 44.8166C120.581 44.757 120.786 44.6862 120.987 44.6168C121.097 44.5788 121.205 44.5413 121.312 44.5063C121.348 44.4944 121.385 44.4774 121.412 44.4654C121.422 44.4609 121.43 44.4571 121.436 44.4546C121.463 44.4433 121.486 44.4368 121.519 44.4368H122.145C122.212 44.4368 122.279 44.4357 122.344 44.4346C122.48 44.4324 122.611 44.4302 122.744 44.4381C122.873 44.4458 122.991 44.4948 123.127 44.5516C123.153 44.5624 123.18 44.5736 123.208 44.5848C123.268 44.6089 123.327 44.6177 123.374 44.6243L123.383 44.6256C123.429 44.632 123.463 44.6367 123.495 44.6474C123.553 44.6664 123.616 44.6355 123.635 44.5783C123.643 44.5546 123.643 44.5302 123.635 44.5083C123.692 44.4902 123.739 44.4586 123.771 44.4365L123.773 44.4351C123.816 44.4058 123.838 44.3912 123.861 44.3848C124.053 44.3323 124.249 44.3072 124.45 44.3032C124.534 44.3015 124.62 44.3018 124.706 44.3021C124.956 44.303 125.215 44.3039 125.471 44.2579C125.614 44.2324 125.77 44.2293 125.929 44.226C125.98 44.225 126.032 44.2239 126.084 44.2221Z" fill="black"/>
<path d="M132.503 69.0968L132.397 69.5681C130.88 72.9208 129.549 72.8905 126.408 74.2816C125.227 74.4929 124.596 74.6302 123.177 74.2816C119.83 72.844 118.446 72.7782 117.09 69.5681L117.009 69.2088L116.432 66.6477L114.895 59.8277L115.987 58.7514L117.973 56.4973L120.015 54.9634L129.401 54.8238L130.74 56.371L133.501 58.7514L134.593 59.8277L132.503 69.0968Z" fill="#FFE2E2"/>
<path d="M132.781 68.872C133.615 68.556 134.968 69.0108 136.12 67.1178C136.942 65.7663 137.229 63.4648 137.098 62.8179C136.966 62.1703 136.574 61.7809 136.297 61.5085C136.224 61.4367 136.111 61.4121 135.944 61.4476C135.776 61.4831 135.578 61.5748 135.367 61.7019C134.948 61.9552 134.512 62.3312 134.238 62.6007L134.203 62.5654L132.781 68.872Z" fill="#FFE2E2"/>
<path d="M116.692 68.8082L116.217 66.7001L115.226 63.1185C114.955 62.7632 114.618 62.3821 114.267 62.0685C113.907 61.7477 113.543 61.5076 113.223 61.4278C113.066 61.3885 112.925 61.3895 112.801 61.4336C112.679 61.4773 112.563 61.5673 112.461 61.7252C112.255 62.0446 112.117 62.6281 112.115 63.5932C112.113 64.5583 112.294 65.1953 112.798 66.0596C113.053 66.4966 113.316 66.905 113.57 67.2302C113.827 67.5589 114.063 67.7895 114.261 67.8869L116.692 68.8082Z" fill="url(#paint0_linear_388_581)"/>
<path d="M107.5 130H142.5L143 131.5L143 133H107V131.5L107.5 130Z" fill="#373E4D"/>
<path d="M107 132H143V132C143 140.284 136.284 147 128 147H122C113.716 147 107 140.284 107 132V132Z" fill="#081023"/>
<path d="M107 139.5C107 135.358 110.358 132 114.5 132V132C118.642 132 122 135.358 122 139.5V164H107V139.5Z" fill="#081023"/>
<rect x="107" y="164" width="15" height="2" fill="#373E4C"/>
<path d="M128 139.5C128 135.358 131.358 132 135.5 132V132C139.642 132 143 135.358 143 139.5V164H128V139.5Z" fill="#081023"/>
<rect x="128" y="164" width="15" height="2" fill="#373E4C"/>
<path d="M94.8919 113.976C94.962 110.879 97.5289 108.426 100.625 108.496V108.496C103.722 108.566 106.175 111.133 106.105 114.23L105.52 140.061C105.45 143.157 102.883 145.61 99.7866 145.54V145.54C96.6902 145.47 94.2369 142.903 94.307 139.807L94.8919 113.976Z" fill="#FFE2E2"/>
<rect x="94.2502" y="134.359" width="12" height="2" transform="rotate(1.29707 94.2502 134.359)" fill="#8CA5E5"/>
<rect x="94.205" y="136.358" width="12" height="2" transform="rotate(1.29707 94.205 136.358)" fill="#0045F5"/>
<path d="M156.313 113.66C156.132 110.568 153.479 108.208 150.388 108.388V108.388C147.296 108.568 144.935 111.221 145.116 114.313L146.621 140.107C146.801 143.199 149.454 145.559 152.546 145.379V145.379C155.638 145.198 157.998 142.545 157.817 139.454L156.313 113.66Z" fill="#FFE2E2"/>
<rect width="12" height="2" transform="matrix(-0.998302 0.058244 0.058244 0.998302 157.68 134.007)" fill="#8CA5E5"/>
<rect width="12" height="2" transform="matrix(-0.998302 0.058244 0.058244 0.998302 157.797 136.003)" fill="#0045F5"/>
<rect x="109.998" y="219.037" width="12" height="3" transform="rotate(-1.73964 109.998 219.037)" fill="#8CA5E5"/>
<path d="M105.276 228.282C105.157 224.364 108.237 221.092 112.154 220.973L122.053 220.672L122.387 231.667L109.296 232.065C107.141 232.13 105.342 230.436 105.276 228.282V228.282Z" fill="#E0E7F5"/>
<path d="M106.364 231.153L122.357 230.668L122.387 231.667L108.848 232.078C107.931 232.106 107.039 231.774 106.364 231.153V231.153Z" fill="#393939"/>
<rect x="109.937" y="217.038" width="12" height="2" transform="rotate(-1.73964 109.937 217.038)" fill="#0045F5"/>
<rect width="12" height="3" transform="matrix(-0.999539 -0.0303577 -0.0303577 0.999539 139.389 219.037)" fill="#8CA5E5"/>
<path d="M144.111 228.282C144.23 224.364 141.15 221.092 137.233 220.973L127.334 220.672L127 231.667L140.091 232.065C142.246 232.13 144.045 230.436 144.111 228.282V228.282Z" fill="#E0E7F5"/>
<path d="M143.023 231.153L127.03 230.668L127 231.667L140.539 232.078C141.456 232.106 142.347 231.774 143.023 231.153V231.153Z" fill="#393939"/>
<rect width="12" height="2" transform="matrix(-0.999539 -0.0303577 -0.0303577 0.999539 139.45 217.038)" fill="#0045F5"/>
<ellipse cx="125.5" cy="232.5" rx="22.5" ry="1.5" fill="black" fill-opacity="0.1"/>
<defs>
<linearGradient id="paint0_linear_388_581" x1="124.5" y1="44" x2="124.5" y2="74.7607" gradientUnits="userSpaceOnUse">
<stop offset="1" stop-color="#FFD6D6"/>
</linearGradient>
</defs>
</svg>
