<svg width="512" height="512" viewBox="0 0 512 512" fill="none" xmlns="http://www.w3.org/2000/svg">
<g clip-path="url(#clip0_172_175)">
<path fill-rule="evenodd" clip-rule="evenodd" d="M0 116.882C0 53.8008 48.0044 0.88916 109.336 0.88916H403.664C464.996 0.88916 513 53.8008 513 116.882V281.501C513 344.582 464.996 397.494 403.664 397.494H249.432L109.18 507.897C104.49 511.59 98.056 512.149 92.7983 509.322C87.5406 506.495 84.4598 500.819 84.9538 494.87L93.1428 396.242C39.761 387.898 0 338.911 0 281.501V116.882ZM123.142 397.494L117.702 463.009L200.93 397.494H200.242L239.738 367.494H244.236H403.664C446.533 367.494 483 329.973 483 281.501V116.882C483 68.4097 446.533 30.8892 403.664 30.8892H109.336C66.4669 30.8892 30 68.4097 30 116.882V281.501C30 329.973 66.4669 367.494 109.336 367.494H125.625L123.23 397.494H123.142Z" fill="black"/>
</g>
<defs>
<clipPath id="clip0_172_175">
<rect width="512" height="512" fill="white"/>
</clipPath>
</defs>
</svg>
