<svg width="512" height="512" viewBox="0 0 512 512" fill="none" xmlns="http://www.w3.org/2000/svg">
<g clip-path="url(#clip0_176_196)">
<path d="M491.024 231.834L268.921 20.1888C261.66 13.2704 250.34 13.2704 243.079 20.1888L20.9761 231.834C8.53372 243.69 16.8155 264.857 33.8967 264.857H58.9263V449.234C58.9263 475.614 80.0347 497 106.073 497H196.595V480.76V370.898C196.595 344.517 217.703 323.132 243.742 323.132H268.258C294.297 323.132 315.405 344.517 315.405 370.898V475.361V497H406.87C432.908 497 454.017 475.614 454.017 449.234V264.857H478.103C495.185 264.857 503.466 243.69 491.024 231.834Z" stroke="black" stroke-width="30" stroke-linecap="round" stroke-linejoin="round"/>
</g>
<defs>
<clipPath id="clip0_176_196">
<rect width="512" height="512" fill="white"/>
</clipPath>
</defs>
</svg>
