<svg width="512" height="512" viewBox="0 0 512 512" fill="none" xmlns="http://www.w3.org/2000/svg">
<g clip-path="url(#clip0_167_122)">
<path d="M54 310.051V105.457C54 87.9382 65.4005 72.4575 82.1307 67.259L244.866 16.6927C252.605 14.2877 260.893 14.2906 268.631 16.701L430.896 67.2458C447.613 72.4529 459 87.9269 459 105.436V309.978C459 314.949 458.115 319.892 456.14 324.455C430.914 382.748 376.602 434.112 276.44 491.584C264.429 498.476 249.594 498.382 237.649 491.378C127.886 427.011 78.7791 375.191 56.816 324.387C54.8621 319.867 54 314.974 54 310.051Z" stroke="black" stroke-width="30" stroke-linecap="round"/>
</g>
<defs>
<clipPath id="clip0_167_122">
<rect width="512" height="512" fill="white"/>
</clipPath>
</defs>
</svg>
