<svg width="512" height="512" viewBox="0 0 512 512" fill="none" xmlns="http://www.w3.org/2000/svg">
<g clip-path="url(#clip0_183_112)">
<rect x="15" y="15" width="482" height="482" rx="241" stroke="black" stroke-width="30" stroke-linejoin="round"/>
<path d="M241 372C241 380.284 247.716 387 256 387C264.284 387 271 380.284 271 372L241 372ZM266.607 129.393C260.749 123.536 251.251 123.536 245.394 129.393L149.934 224.853C144.076 230.711 144.076 240.208 149.934 246.066C155.792 251.924 165.289 251.924 171.147 246.066L256 161.213L340.853 246.066C346.711 251.924 356.208 251.924 362.066 246.066C367.924 240.208 367.924 230.711 362.066 224.853L266.607 129.393ZM271 372L271 140L241 140L241 372L271 372Z" fill="black"/>
</g>
<defs>
<clipPath id="clip0_183_112">
<rect width="512" height="512" fill="white"/>
</clipPath>
</defs>
</svg>
