<svg width="512" height="512" viewBox="0 0 512 512" fill="none" xmlns="http://www.w3.org/2000/svg">
<g clip-path="url(#clip0_167_120)">
<path d="M241.358 15H263.984C284.022 15 300.265 31.2802 300.265 51.3629C300.265 67.2675 310.578 81.3266 325.725 86.0705L327.532 86.6365C339.988 90.5377 353.566 87.9117 363.679 79.6454L369.266 75.0789C385.461 61.8415 409.156 63.6024 423.227 79.0892L431.248 87.9179C443.993 101.946 444.965 123.081 433.561 138.225L426.263 147.917C418.547 158.163 416.573 171.643 421.026 183.678C426.486 198.438 440.534 208.233 456.24 208.233H457.653C479.384 208.233 497 225.889 497 247.669V264.922C497 286.701 479.384 304.357 457.653 304.357H451.767C438.651 304.357 426.818 312.255 421.763 324.385C416.944 335.946 419.165 349.252 427.476 358.612L436.813 369.128C450.708 384.777 449.971 408.583 435.134 423.338L424.437 433.975C409.665 448.666 386.033 449.287 370.512 435.393L366.321 431.641C354.842 421.365 338.44 418.741 324.339 424.924L322.502 425.729C308.994 431.652 300.265 445.028 300.265 459.805C300.265 480.385 283.591 497.054 263.057 497L242.886 496.947C221.862 496.892 204.849 479.796 204.849 458.725V456.402C204.849 443.416 197.561 431.534 186.001 425.671C173.104 419.13 157.503 421.377 146.965 431.291L142.895 435.121C127.9 449.229 104.594 449.383 89.4148 435.474L77.3796 424.445C61.0024 409.438 60.24 383.834 75.6951 367.875L80.2493 363.172C89.8957 353.211 92.6839 338.444 87.3358 325.639C81.9515 312.748 69.371 304.357 55.4271 304.357H53.0954C32.0559 304.357 15 287.263 15 266.176V242.832C15 221.546 32.2172 204.29 53.4557 204.29H55.7998C69.5715 204.29 82.0516 196.161 87.6448 183.548C92.8804 171.741 91.1852 158.003 83.2378 147.83L76.9031 139.722C64.6018 123.976 66.0072 101.495 80.1732 87.4119L91.2837 76.3663C104.974 62.7555 127.191 63.2127 140.312 77.3755C149.117 86.8785 162.527 90.5721 174.941 86.9129L179.004 85.7152C194.351 81.191 204.934 67.13 205.059 51.0968C205.215 31.1156 221.421 15 241.358 15Z" stroke="black" stroke-width="30" stroke-linecap="round"/>
<path d="M341 256C341 302.944 302.944 341 256 341C209.056 341 171 302.944 171 256C171 209.056 209.056 171 256 171C302.944 171 341 209.056 341 256Z" stroke="black" stroke-width="30"/>
</g>
<defs>
<clipPath id="clip0_167_120">
<rect width="512" height="512" fill="white"/>
</clipPath>
</defs>
</svg>
