<svg width="92" height="196" viewBox="0 0 92 196" fill="none" xmlns="http://www.w3.org/2000/svg">
<path d="M51.0965 111.74C51.0432 109.255 53.0143 107.197 55.499 107.144V107.144C57.9837 107.091 60.0412 109.062 60.0945 111.547L60.6964 139.594C60.7497 142.078 58.7787 144.136 56.294 144.189V144.189C53.8093 144.242 51.7518 142.271 51.6985 139.787L51.0965 111.74Z" fill="#FFE2E2"/>
<path d="M51.7814 139.588C51.7484 137.103 53.7361 135.061 56.2212 135.028V135.028C58.7062 134.995 60.7476 136.983 60.7806 139.468L61.3184 179.874C61.3515 182.359 59.3638 184.4 56.8787 184.433V184.433C54.3937 184.467 52.3523 182.479 52.3192 179.994L51.7814 139.588Z" fill="#FFE2E2"/>
<path d="M32.1497 111.497C32.2374 109.013 34.3221 107.071 36.8058 107.159V107.159C39.2895 107.247 41.2318 109.331 41.1441 111.815L40.1533 139.851C40.0656 142.335 37.981 144.277 35.4972 144.189V144.189C33.0135 144.102 31.0712 142.017 31.159 139.533L32.1497 111.497Z" fill="#FFE2E2"/>
<path d="M31.0766 140.597C31.0513 138.112 33.0454 136.077 35.5305 136.051V136.051C38.0157 136.026 40.0508 138.02 40.0761 140.505L40.464 178.617C40.4892 181.102 38.4951 183.137 36.01 183.163V183.163C33.5248 183.188 31.4897 181.194 31.4644 178.709L31.0766 140.597Z" fill="#FFE2E2"/>
<rect x="28.9999" y="178" width="12" height="3" fill="#8CA5E5"/>
<path d="M23.9999 187.097C23.9999 183.177 27.1772 180 31.0967 180H40.9999V191H27.9031C25.7474 191 23.9999 189.252 23.9999 187.097V187.097Z" fill="#E0E7F5"/>
<path d="M24.9999 190H40.9999V191H27.455C26.5375 191 25.6563 190.641 24.9999 190V190Z" fill="#393939"/>
<rect x="28.9999" y="176" width="12" height="2" fill="#0045F5"/>
<path d="M21.4577 66.7004C19.8328 68.6544 16.9314 68.9213 14.9774 67.2963V67.2963C13.0233 65.6714 12.7565 62.7701 14.3814 60.816L29.4761 42.6636C31.1011 40.7095 34.0024 40.4427 35.9565 42.0676V42.0676C37.9106 43.6925 38.1774 46.5939 36.5525 48.548L21.4577 66.7004Z" fill="#FFE2E2"/>
<path d="M70.0369 66.5749C71.6618 68.5289 74.5632 68.7958 76.5173 67.1708V67.1708C78.4713 65.5459 78.7382 62.6446 77.1132 60.6905L62.0185 42.5381C60.3936 40.584 57.4922 40.3172 55.5381 41.9421V41.9421C53.584 43.567 53.3172 46.4684 54.9421 48.4225L70.0369 66.5749Z" fill="#FFE2E2"/>
<rect width="12" height="3" transform="matrix(-1 0 0 1 64 178)" fill="#8CA5E5"/>
<path d="M69 187.097C69 183.177 65.8227 180 61.9032 180H52V191H65.0968C67.2525 191 69 189.252 69 187.097V187.097Z" fill="#E0E7F5"/>
<path d="M68 190H52V191H65.5449C66.4624 191 67.3436 190.641 68 190V190Z" fill="#393939"/>
<rect width="12" height="2" transform="matrix(-1 0 0 1 64 176)" fill="#0045F5"/>
<path d="M33.9999 45H56.9999V65H33.9999V45Z" fill="#FFE2E2"/>
<path d="M28.9999 45.5C28.9999 43.0147 31.0146 41 33.4999 41H58.4999C60.9852 41 62.9999 43.0147 62.9999 45.5V45.5C62.9999 47.9853 60.9852 50 58.4999 50H33.4999C31.0146 50 28.9999 47.9853 28.9999 45.5V45.5Z" fill="#FFE2E2"/>
<rect x="27.9999" y="41" width="36" height="11" rx="5.5" fill="#FFE2E2"/>
<rect x="40.9999" y="34" width="10" height="18" fill="#FFE2E2"/>
<path d="M33.9999 39.6726H39.4999L40.4999 48.6726H51.4999L51.9999 44.6726L52.4999 39.6726H57.4999L56.9999 50.6726L60 55.1726L56.9999 68.6726L61 90.6726H30.5L34.4999 68.6726C34.4999 68.6726 32.9998 62.1726 31.4999 55.1726L34.4999 50.1726L33.9999 39.6726Z" fill="#8CA5E5"/>
<path d="M30 92H61C62.4887 100.688 62.174 105.484 61 114H30C28.952 105.331 28.7485 100.499 30 92Z" fill="#E3E8FB"/>
<path d="M29.3406 98.5409C29.643 95.3551 32.3799 93 35.58 93V93C39.1257 93 42 95.8743 42 99.42V125H30C29.0652 114.472 28.4576 107.841 29.3406 98.5409Z" fill="#E3E8FB"/>
<rect x="30" y="124" width="12" height="2" fill="#567DDF"/>
<path d="M49 98.3361C49 94.8368 51.8368 92 55.3361 92V92C58.5616 92 61.2888 94.422 61.568 97.6354C62.392 107.122 62.1774 113.708 61 124H49V98.3361Z" fill="#E3E8FB"/>
<rect x="49" y="124" width="12" height="2" fill="#567DDF"/>
<path d="M30.4306 90H60.5695L61 91.5L61 93H30V91.5L30.4306 90Z" fill="#567DDF"/>
<path d="M41.122 18.6844L39.0792 20.2183L38.3016 21.101M41.122 18.6844L48.4512 18.5754M41.122 18.6844C38 20.5 39 20.5 38.697 20.9477C38.5353 21.0863 38.4162 21.2702 38.2708 21.4259C38.1929 21.5094 38.1513 21.6508 38.0866 21.7479C38.0293 21.8338 37.9784 21.9209 37.9191 22.0066C37.7631 22.2318 37.506 22.3494 37.3905 22.6058C37.2348 22.952 37.0809 23.2355 36.9383 23.5854M34.1063 25.2205C34.2413 25.2205 34.4511 25.2382 34.6797 25.2882M34.1063 25.2205C34.0996 25.1871 34.0929 25.154 34.0863 25.121M34.1063 25.2205L34.0863 25.121M36.6797 14.1866C34.6797 16.1866 34.9213 16.2813 33.6063 19.2205C33.407 21.2425 33.5815 22.5802 34.0431 24.9047M36.6797 14.1866C34.4891 12.5944 35.634 10.5117 36.3329 10.1767M36.6797 14.1866C37.0468 13.9678 39.2648 13.1324 39.6353 12.9516M53.1524 13.2426C53.5524 12.4426 52.3733 11.7217 52.0066 11.472M53.1524 13.2426C52.6912 12.9688 52.0966 12.7296 51.4855 12.5604M53.1524 13.2426C55.9778 14.5864 56.9072 16.4249 58.1063 19.2205C58.341 21.3631 58.233 22.6495 57.6261 25.1398M57.6063 25.2205C57.613 25.1935 57.6195 25.1665 57.6261 25.1398M57.6063 25.2205L57.6261 25.1398M57.6063 25.2205C57.1971 25.0159 56.6833 25.2388 56.212 25.5947M43.0841 5.9576C42.3788 6.38281 40.2033 6.4512 39.2033 8.45115C39.2033 8.45115 37.7201 10.92 39.3632 12.6903M43.0841 5.9576C41.5 4.45757 38.5 5.95757 37.5 6.95757C37.5 6.95757 35.6546 9.14461 36.3329 10.1767M43.0841 5.9576C46.0841 6.54399 44.5848 12.1624 44.5848 12.1624M43.0841 5.9576C44.0258 3.96434 47.8675 5.51375 49.1067 6.72081M43.0841 5.9576C43.0149 6.02216 42.9641 6.12198 42.9283 6.24763M43.0841 5.9576C43.0438 6.04286 42.9912 6.14006 42.9283 6.24763M39.6353 12.9516C39.0014 12.7403 36.7437 10.7951 36.3329 10.1767M39.6353 12.9516C40.8663 12.6228 42.6615 12.3151 44.5848 12.1624M39.6353 12.9516C39.5363 12.8665 39.4458 12.7793 39.3632 12.6903M39.6353 12.9516C39.5003 12.8976 39.4119 12.8086 39.3632 12.6903M44.5848 12.1624C44.5848 12.1624 43.6041 10.8698 43.2033 9.45114C43.1799 9.36838 42.6717 7.14679 42.9283 6.24763M44.5848 12.1624C45.9696 12.0525 47.4208 12.0228 48.7756 12.1234M49.1067 6.72081C49.9715 7.56317 48.7756 12.1234 48.7756 12.1234M49.1067 6.72081C50.4385 7.56168 52.2292 9.99367 52.0066 11.472M48.7756 12.1234C49.7488 12.1957 50.6722 12.3351 51.4855 12.5604M52.0066 11.472C51.939 11.9212 51.4855 12.5604 51.4855 12.5604M54.868 22.6762C54.9047 22.8987 54.8752 23.0697 54.822 23.1762C54.322 23.6762 53.422 24.9762 53.822 26.1762C54.222 27.3762 53.6554 28.3428 53.322 28.6762C53.822 28.1762 53.322 26.6762 52.822 26.1762C52.322 25.6762 53.822 23.6762 53.322 22.6762C52.922 21.8762 52.1554 21.3428 51.822 21.1762C51.1054 21.1762 50.0679 19.5715 49.5 18.5182M54.868 22.6762L55.6067 23.721L55.4541 24.6367M54.868 22.6762C54.8542 22.5928 54.8312 22.5021 54.7966 22.4049M53.1067 20.721C53.6981 21.1646 54.0801 21.5763 54.3181 21.9359M36.1067 22.721C36.0283 22.9039 35.9475 23.1228 35.873 23.3666M35.5895 25.721C35.5884 25.7093 35.5873 25.6976 35.5863 25.6859M35.5895 25.721C35.5997 25.8266 35.6138 25.9314 35.6323 26.0349M35.5895 25.721L35.5863 25.6859M35.5895 25.721C35.3492 25.4887 34.9964 25.3574 34.6797 25.2882M34.4727 24.9623L34.4747 24.9591L34.4682 24.9609L34.4727 24.9623ZM34.4727 24.9623C34.8195 25.073 35.1834 25.3256 35.5219 25.6276C35.5434 25.6468 35.5649 25.6662 35.5863 25.6859M34.4727 24.9623C34.4562 24.9663 34.3528 24.9212 34.3641 24.9322C34.256 24.907 34.1482 24.8965 34.0431 24.9047M35.5863 25.6859C35.5246 24.9859 35.6331 24.2549 35.7952 23.6401M35.5863 25.6859C35.9127 25.9859 36.2218 26.3358 36.4771 26.6656L35.7952 23.6401M35.7952 23.6401L35.7589 23.479L35.873 23.3666M35.7952 23.6401C35.8201 23.546 35.8461 23.4547 35.873 23.3666M35.873 23.3666L36.8829 22.3709L37.276 21.9205M37.276 21.9205C37.3749 21.6976 37.9405 21.6162 38.0623 21.3726C38.1484 21.3726 37.795 21.2127 37.9102 21.1938M37.276 21.9205L37.9102 21.1938M37.276 21.9205C37.1788 22.1395 37.1891 22.0959 37.0157 22.5488M37.9102 21.1938L38.8719 20.092L41.0549 18.4797L48.8893 18.3649M37.9102 21.1938C38.0281 21.1746 38.1596 21.1444 38.3016 21.101M48.8893 18.3649C48.9665 18.3196 49.0391 18.2717 49.1067 18.221C49.129 18.2656 49.1527 18.3123 49.1777 18.3606M48.8893 18.3649L49.1777 18.3606M48.8893 18.3649C48.7562 18.4428 48.6096 18.5127 48.4512 18.5754M49.1777 18.3606L50.5747 18.3401L52.054 19.9657L54.3181 21.9359M49.1777 18.3606C49.2111 18.4252 49.4622 18.4481 49.5 18.5182M54.3181 21.9359L54.818 22.3709L55.3762 23L55.942 23.479L55.3762 25.9892C55.649 25.7398 56.007 25.4489 56.3582 25.2367C56.5771 25.1044 56.8007 24.9981 57.0038 24.9551C57.1067 24.9332 57.2102 24.9267 57.3067 24.9447C57.3067 24.9447 57.5449 25.0596 57.5607 25.0751L57.5636 25.0779C57.5836 25.0977 57.6045 25.1183 57.6261 25.1398M54.3181 21.9359C54.4414 22.1221 54.7414 22.2494 54.7966 22.4049M57.6261 25.1398C57.9027 25.4153 58.2872 25.8327 58.4218 26.4961C58.5675 27.2145 58.2559 29.5721 57.4166 30.9512C56.1776 32.9872 54.6834 32.5615 53.8308 32.8455L53.7062 33.3986C52.216 36.4905 51.092 36.6808 47.6069 38.221C46.2254 38.5727 45.4666 38.5645 44.1918 38.221C40.7778 36.8056 39.3093 36.6541 37.9947 33.3986L37.7 32.8038L37.4376 32.7025M34.0431 24.9047C33.9714 24.9104 33.901 24.9248 33.8325 24.9492C33.6563 25.0122 33.504 25.1378 33.3808 25.3291C33.1381 25.7058 33 26.3491 33 27.3366V27.359L33.009 27.3796C33.009 28.1216 33.1973 29.0066 33.7124 29.8896C33.9698 30.3309 34.2391 30.7485 34.5012 31.0844C34.7605 31.4167 34.8622 31.6822 35.1078 31.8033L37.4376 32.7025M34.0431 24.9047C34.0572 24.9759 34.0716 25.0479 34.0863 25.121M39.3632 12.6903C38.9017 11.5688 42.0132 7.81167 42.9283 6.24763M49.5 18.5182L50.7229 18.5L52.0621 20.0472L54.7966 22.4049M49.5 18.5182L48.4512 18.5754M54.7966 22.4049L54.6076 22.4724L55.6993 23.5487L55.4541 24.6367M38.3016 21.101C39.0966 20.8577 40.22 20.1989 41.1067 18.721C42.8766 19.016 46.5261 19.3371 48.4512 18.5754M38.3016 21.101L37.3905 22.0511L37.0157 22.5488M37.0157 22.5488L36.0016 23.5487L37.0234 28.0821M37.0157 22.5488C35.5711 26.3223 37.655 26.8176 38.1067 27.721C38.5784 28.6643 38.1601 30.0526 37.6915 31.0464M37.0234 28.0821C37.7736 28.8459 37.7169 29.5993 37.5178 30.2757M37.0234 28.0821L37.5178 30.2757M37.0234 28.0821C36.9053 27.9619 36.7673 27.8415 36.6067 27.721C36.5939 27.7114 36.5812 27.7017 36.5687 27.6919M37.5178 30.2757L37.6915 31.0464M37.5178 30.2757C37.4769 30.4149 37.4299 30.5508 37.3826 30.6829M37.6915 31.0464L38.197 33.2892C39.5524 36.4992 40.9366 36.565 44.2835 38.0026C45.7028 38.3512 46.3336 38.214 47.5151 38.0026C50.656 36.6115 51.9864 36.6418 53.5039 33.2892L55.4541 24.6367M37.6915 31.0464C37.6634 31.1061 37.635 31.1643 37.6067 31.221C37.5814 31.2716 37.5586 31.3224 37.5382 31.3734M37.5382 31.3734L37.3826 30.6829M37.5382 31.3734C37.4004 31.7177 37.37 32.0673 37.3926 32.3753M37.5382 31.3734L37.7988 32.5292L37.3926 32.3753M37.3826 30.6829C37.2457 31.0659 37.1067 31.4166 37.1067 31.721C37.1067 31.929 37.1292 32.119 37.1655 32.2893M37.3826 30.6829L37.3236 30.4211L36.5687 27.6919M37.1655 32.2893L37.3926 32.3753M37.1655 32.2893L35.3673 31.6079C35.1698 31.5105 34.9334 31.2799 34.6768 30.9512C34.4231 30.626 34.1593 30.2176 33.9044 29.7807C33.4002 28.9163 33.2195 28.2793 33.2216 27.3142C33.2237 26.3491 33.362 25.7656 33.5678 25.4462C33.6696 25.2883 33.7856 25.1983 33.908 25.1546C33.9638 25.1347 34.0233 25.1235 34.0863 25.121M37.1655 32.2893C37.2688 32.7736 37.4834 33.0977 37.6067 33.221C37.5485 33.1047 37.4822 32.9233 37.4376 32.7025M37.3926 32.3753C37.4011 32.4911 37.417 32.601 37.4376 32.7025M56.212 25.5947C56.299 25.5335 56.3868 25.4755 56.474 25.4229C56.6843 25.2958 56.883 25.2041 57.0504 25.1686C57.2179 25.1331 57.3311 25.1577 57.404 25.2295C57.6803 25.5019 58.0732 25.8913 58.2045 26.539C58.3358 27.1858 58.0491 29.4873 57.2266 30.8388C56.0746 32.7318 54.7219 32.277 53.8878 32.593L55.2533 26.5344M56.212 25.5947C55.8427 25.8735 55.4995 26.2341 55.2533 26.5344M56.212 25.5947C55.8805 25.8279 55.5617 26.1082 55.3451 26.3218L55.3092 26.2864L55.2533 26.5344M55.2533 26.5344C55.1996 26.6 55.1504 26.6627 55.1067 26.721L55.4541 24.6367M35.6323 26.0349C35.8883 26.2913 36.1289 26.5727 36.3329 26.8395L36.5687 27.6919M35.6323 26.0349C35.7465 26.6761 36.0268 27.2685 36.5687 27.6919M35.6323 26.0349C35.5474 25.9499 35.4608 25.8676 35.3732 25.7896C35.1395 25.5811 34.9038 25.4067 34.6797 25.2882M34.6797 25.2882C34.559 25.2244 34.4417 25.1768 34.3298 25.1488C34.2436 25.1273 34.1624 25.1179 34.0863 25.121M42.7135 17.4434C42.1606 17.554 41.6545 17.7834 41.1302 17.9888C40.55 18.216 39.9677 18.4373 39.378 18.6397C38.7798 18.845 38.1047 19.0412 37.6153 19.4542C37.2791 19.7379 36.959 20.0847 36.8395 20.5149C36.7442 20.8582 36.4885 21.1697 36.4437 21.5282M43.6317 17.095C43.3981 17.218 43.2195 17.4256 42.9773 17.5454C42.4882 17.7872 41.9675 17.9771 41.4591 18.1734C40.9511 18.3696 40.4509 18.581 39.9515 18.7979C39.5268 18.9824 39.0854 19.1262 38.6832 19.3591C38.2822 19.5912 37.8168 19.8638 37.4746 20.1824C37.246 20.3952 37.0328 20.6164 36.8079 20.8315C36.4392 21.1842 36.3746 21.7758 36.12 22.2002C35.9703 22.4496 35.8914 22.7387 35.7787 23.0059C35.687 23.2233 35.5887 23.5673 35.5887 23.8081M43.4734 17.6333C43.7684 17.9991 44.0165 18.333 44.455 18.5199C44.7675 18.6531 45.0666 18.6299 45.3874 18.6941C46.0651 18.8296 46.5504 18.4459 47.129 18.1751C47.2529 18.1171 47.3907 18.0917 47.5125 18.0308C47.6338 17.9702 47.7309 17.878 47.859 17.8268C48.0698 17.7425 48.3416 17.6377 48.5715 17.6333C49.0558 17.624 49.3634 18.0276 49.5215 18.4566C49.6968 18.9325 50.067 19.5684 50.5787 19.739C50.8398 19.826 51.1482 19.8297 51.4214 19.8428C51.7147 19.8568 52.0296 19.8737 52.3239 19.8481C52.643 19.8203 52.7911 19.3863 53.1243 19.3749C53.3988 19.3654 53.448 19.5249 53.448 19.7865C53.448 19.9204 53.3666 20.1841 53.4339 20.309C53.553 20.5301 53.8231 20.6436 54.0496 20.7083C54.2451 20.7642 54.4673 20.8909 54.6495 20.988C54.6959 21.0128 54.8934 21.069 54.9046 21.1165C54.9155 21.1628 55.082 21.2393 55.1245 21.2889C55.1812 21.355 55.2984 21.3766 55.3655 21.4331C55.519 21.5623 55.8453 21.5988 56.041 21.6548C56.174 21.6927 56.2534 21.8636 56.3454 21.9556C56.4133 22.0235 56.5838 22.0935 56.6215 22.1614C56.657 22.2253 56.9364 22.5382 56.6778 22.3831M56.2807 23.2559C56.3628 23.4048 56.4245 23.5748 56.4904 23.7322C56.5189 23.8002 56.5362 23.8608 56.5362 23.9341C56.5362 24.0068 56.4819 24.0119 56.4147 24.0082C56.3305 24.0035 56.2918 23.9053 56.2665 23.8379M55.6278 22.9012C55.748 23.0445 55.8305 23.2153 55.8943 23.3901C55.9707 23.5991 56.0839 23.813 56.1096 24.0359C56.1195 24.1217 56.1329 24.2126 56.1238 24.2993C56.119 24.3446 56.1013 24.3144 56.0931 24.2875C56.055 24.1635 56.0293 24.0345 55.9969 23.909M55.642 23.398C55.6878 23.5603 55.7453 23.7393 55.7547 23.909C55.759 23.9862 55.7637 24.0502 55.7808 24.1251C55.7848 24.143 55.8009 24.2277 55.8328 24.1755C55.885 24.0901 55.8549 23.9314 55.8549 23.838M55.7698 23.5398C55.7831 23.7392 55.8124 23.9346 55.8124 24.1344C55.8124 24.1844 55.8065 24.32 55.8549 24.207M55.784 23.6109C55.7668 23.8689 55.6704 24.0964 55.6704 24.3521C55.6704 24.4554 55.6136 24.5195 55.6136 24.6195C55.6136 24.6712 55.6179 24.7164 55.6271 24.7669C55.6379 24.8269 55.6446 24.7528 55.6562 24.718M55.6845 24.4341C55.6539 24.5473 55.6371 24.6659 55.6065 24.7764C55.5902 24.8351 55.5956 24.8743 55.5678 24.9309C55.5509 24.9654 55.4966 25.1209 55.5426 25.1438M57.2033 24.9734C57.0765 25.0385 56.9003 25.0073 56.7917 25.1004C56.7769 25.1131 56.7213 25.1157 56.7491 25.1296M57.175 24.931C57.0805 24.9834 56.9544 25.0293 56.8738 25.1044C56.832 25.1433 56.7903 25.1621 56.7365 25.1794C56.6978 25.1918 56.6603 25.2386 56.6214 25.2432C56.5859 25.2474 56.5705 25.2982 56.5426 25.3134C56.507 25.3328 56.4671 25.3354 56.429 25.3457C56.4021 25.353 56.3835 25.3771 56.3572 25.3852C56.304 25.4016 56.2595 25.4029 56.2098 25.4278C56.1549 25.4552 56.1022 25.4887 56.0505 25.5208C56.0131 25.544 55.979 25.5707 55.9385 25.591C55.8827 25.6189 55.8094 25.6231 55.7619 25.662C55.6669 25.7396 55.5018 25.8141 55.4725 25.9458C55.4648 25.9805 55.4685 26.0186 55.4543 26.0523C55.4074 26.1638 55.4795 25.9896 55.5064 25.9529C55.6146 25.8052 55.7153 25.7139 55.9093 25.699C55.9438 25.6964 56.0112 25.7121 56.0426 25.6911C56.0831 25.6642 56.0414 25.7052 56.0245 25.7243C55.9522 25.8055 55.8628 25.8588 55.7761 25.9214C55.6821 25.9893 55.713 25.8662 55.713 25.7968M38.6832 20.5149C38.3544 20.6729 38.3739 21.0045 38.0623 21.1938C37.9398 21.2683 37.4882 21.0669 37.3905 21.171C37.2436 21.3276 37.1469 21.5115 37.0137 21.6781C36.9016 21.8182 36.7801 21.9529 36.6722 22.0959C36.5509 22.2567 36.4836 22.4284 36.3949 22.6058M38.6561 20.127C38.361 20.5248 38.0138 20.8869 37.6827 21.2547C37.5961 21.351 37.5211 21.4453 37.4585 21.559C37.3866 21.6894 38.1554 21.3687 38.0866 21.4981C38.0572 21.5534 37.7058 21.9929 37.6827 22.0511C37.6252 22.1967 37.7116 21.8062 37.4585 22.2345C37.1874 22.6934 37.276 22.4514 37 22.9575C36.9663 23.1365 36.8505 23.3277 36.8137 23.5065C36.7348 23.8895 36.6693 24.2763 36.6089 24.6622C36.5884 24.7941 36.5457 24.9242 36.5457 25.0586V25.432M36.5457 25.432V25.5518C36.5457 25.6506 36.6066 25.936 36.5624 25.8477C36.5215 25.7658 36.5241 25.6178 36.5299 25.5285C36.5321 25.4942 36.5378 25.4625 36.5457 25.432ZM36.5457 25.432C36.5628 25.3657 36.5899 25.3049 36.6127 25.2354C36.6599 25.091 36.6733 24.9417 36.7132 24.7962C36.7487 24.6667 36.7554 24.4922 36.8304 24.3775C36.8482 24.3502 36.861 24.3303 36.8639 24.2975C36.8996 23.893 36.9203 23.6329 36.9383 23.5854M36.9383 23.5854C36.9874 23.4562 36.8862 23.7134 36.9383 23.5854ZM34.7702 25.0513C34.6761 25.0513 34.6191 24.9993 34.5348 24.9852C34.4517 24.9714 34.3784 24.9843 34.2882 24.9843C34.2 24.9843 34.0976 24.9555 34.0202 24.9136C33.9303 24.8649 33.991 24.8936 34.0537 24.9005C34.3054 24.9285 34.5762 24.9566 34.8195 25.0271C34.9122 25.0539 34.9521 25.0926 34.9934 25.1427M34.9934 25.1427C35.0161 25.1702 35.0392 25.2012 35.0717 25.2355C35.0874 25.2521 35.1792 25.3311 35.122 25.3025C35.0111 25.2471 34.9097 25.1816 34.7861 25.1602C34.6741 25.1408 34.5587 25.1109 34.4455 25.1025C34.4405 25.1021 34.434 25.1018 34.4267 25.1016M34.9934 25.1427C34.9 25.1324 34.8063 25.1163 34.7135 25.1099C34.6178 25.1034 34.5224 25.1019 34.4267 25.1016M34.9934 25.1427C35.042 25.148 35.0905 25.1518 35.1387 25.1518M34.4267 25.1016C34.3869 25.1005 34.3227 25.1015 34.3496 25.1015C34.3754 25.1015 34.4011 25.1015 34.4267 25.1016ZM36.9978 27.6138C36.9978 27.6631 36.9751 27.95 37.0639 27.839C37.0941 27.8012 37.1073 27.7278 37.1151 27.6808M36.8303 27.6641C36.9058 27.8634 37.0141 28.0391 37.0611 28.2503C37.0864 28.3644 37.1822 28.6354 37.0816 28.736M36.7466 27.7144C36.8352 28.0689 36.9578 28.4152 37.0574 28.7668C37.0829 28.8568 37.1175 28.9482 37.1113 29.0432C37.1049 29.1424 37.0777 29.2114 37.0313 29.0878M36.7969 27.7813C36.9447 28.3448 37.1113 28.9034 37.2565 29.4674C37.2692 29.5166 37.3161 29.7578 37.3161 29.5902M35.2439 31.5087C35.254 31.5163 35.264 31.5243 35.2742 31.5325M35.2742 31.5325C35.3176 31.5675 35.3626 31.6053 35.412 31.6288C35.468 31.6555 35.5579 31.6649 35.6008 31.7111C35.6408 31.7541 35.7103 31.7786 35.7606 31.807L35.7646 31.8092C35.8163 31.8384 35.8679 31.8674 35.9219 31.8915M35.2742 31.5325C35.3035 31.5478 35.3329 31.5628 35.3623 31.5773C35.5587 31.6741 35.7529 31.7836 35.9549 31.8699M35.2742 31.5325C35.2359 31.5126 35.1976 31.4923 35.159 31.4724M35.9219 31.8915C35.9486 31.9034 35.9758 31.9141 36.0039 31.923C36.0175 31.9273 36.0332 31.9305 36.0493 31.9338M35.9219 31.8915C35.7972 31.8425 35.6783 31.7689 35.5647 31.7087C35.4361 31.6406 35.3009 31.5864 35.171 31.5211M35.9219 31.8915C35.9612 31.9069 36.001 31.9199 36.0414 31.9293M36.0493 31.9338C36.0744 31.9391 36.1002 31.9449 36.1199 31.9561C36.1417 31.9686 36.0794 31.9496 36.0493 31.9338ZM36.0493 31.9338C36.0463 31.9323 36.0436 31.9307 36.0414 31.9293M36.0414 31.9293L36.04 31.9283C36.012 31.9085 35.9836 31.889 35.9549 31.8699M36.0414 31.9293C36.0858 31.9395 36.1308 31.9455 36.1767 31.9455C36.1767 31.9455 36.0499 31.9085 36.0264 31.8993C36.0024 31.8899 35.9786 31.88 35.9549 31.8699M35.9549 31.8699C35.7087 31.7062 35.4377 31.5698 35.159 31.4724M35.159 31.4724C35.15 31.4693 35.1411 31.4662 35.1321 31.4631C35.1147 31.4572 35.0854 31.4503 35.0556 31.4439M35.159 31.4724C35.0778 31.4304 34.9956 31.3903 34.9107 31.3589C34.9038 31.3564 34.8956 31.3533 34.8875 31.3502M35.0556 31.4439C35.0387 31.4402 35.0218 31.4368 35.0066 31.4337M35.0556 31.4439C35.0013 31.4078 34.9462 31.3738 34.8875 31.3502M35.0556 31.4439C35.0941 31.4695 35.1322 31.4962 35.171 31.5211M35.0066 31.4337C34.9652 31.4254 34.9377 31.4201 34.9658 31.4234C34.9797 31.4251 34.9933 31.4288 35.0066 31.4337ZM35.0066 31.4337C35.0465 31.4486 35.0838 31.4752 35.1196 31.4945C35.1366 31.5036 35.1538 31.5124 35.171 31.5211M35.171 31.5211C35.2026 31.5414 35.2346 31.5604 35.2676 31.5767C35.4381 31.6609 35.6126 31.7326 35.776 31.8306C35.8309 31.8636 35.8882 31.8956 35.9405 31.933M34.8875 31.3502C34.8529 31.337 34.8184 31.3234 34.8811 31.3477C34.8833 31.3485 34.8854 31.3494 34.8875 31.3502ZM35.9405 31.933C35.9457 31.9367 35.9508 31.9405 35.9559 31.9443C35.9698 31.9547 35.9881 31.9729 36.0056 31.9768C36.0864 31.9948 36.0383 31.9716 35.9405 31.933ZM35.9405 31.933C35.9271 31.9277 35.9127 31.9221 35.8975 31.9163M35.8975 31.9163C35.8329 31.8914 35.7549 31.8623 35.6795 31.8344M35.8975 31.9163C35.9196 31.9317 35.938 31.9495 35.9488 31.9703C35.9541 31.9804 35.9508 31.9858 35.9417 31.9877M35.8975 31.9163C35.8529 31.885 35.7936 31.8635 35.7529 31.8466C35.7289 31.8366 35.6555 31.8104 35.6795 31.8344M35.6795 31.8344C35.5884 31.8007 35.5012 31.7685 35.4463 31.7472C35.2759 31.6809 34.7672 31.4764 34.9332 31.5531C35.0293 31.5974 35.1192 31.6578 35.2137 31.7058C35.3745 31.7873 35.5413 31.8523 35.7073 31.9218C35.7166 31.9256 35.8975 31.997 35.9417 31.9877M35.6795 31.8344C35.6838 31.8387 35.6912 31.8446 35.7026 31.8525C35.7771 31.9042 35.8576 31.9486 35.9417 31.9877M35.9417 31.9877C36.1638 32.0909 36.4111 32.1566 36.6395 32.2201C36.6631 32.2266 36.6872 32.2319 36.7117 32.2331C36.7417 32.2345 36.7553 32.2636 36.7792 32.2804C36.8866 32.3566 37.0648 32.4497 37.1994 32.4568C37.2577 32.4599 37.3192 32.4355 37.3805 32.4355C37.4376 32.4355 37.5156 32.4302 37.5243 32.3603C37.5342 32.2809 37.5354 32.2074 37.5237 32.1266C37.51 32.0317 37.4588 31.9169 37.4704 31.82C37.4746 31.7853 37.5474 31.9123 37.5474 31.9123C37.5623 31.948 37.5779 31.9836 37.5934 32.0193M37.5934 32.0193C37.618 32.0758 37.6422 32.1326 37.6622 32.1905C37.6669 32.2041 37.7287 32.4026 37.7261 32.3219C37.7239 32.2516 37.6914 32.1789 37.6681 32.1135C37.6584 32.0861 37.63 31.9601 37.5983 31.9478C37.5926 31.9456 37.592 31.9785 37.5934 32.0193ZM37.5934 32.0193C37.5955 32.08 37.6021 32.1582 37.603 32.1644C37.6165 32.2529 37.6383 32.3421 37.6622 32.4284C37.6855 32.5125 37.7023 32.3895 37.6729 32.3503M34.9457 31.3384C34.9329 31.3146 34.9059 31.301 34.8877 31.2816C34.8479 31.2393 34.8181 31.1849 34.7835 31.1384C34.7543 31.0991 34.731 31.058 34.703 31.0188C34.6759 30.9808 34.6413 30.948 34.6237 30.904C34.6133 30.878 34.5798 30.8694 34.5645 30.846C34.5439 30.8143 34.5158 30.7857 34.4983 30.7525C34.4681 30.6954 34.4416 30.6532 34.397 30.6087C34.3361 30.5478 34.2649 30.4824 34.194 30.4335C34.15 30.4031 34.1063 30.3446 34.0603 30.3216C33.9833 30.2831 33.9466 30.2076 33.891 30.1458C33.8213 30.0684 33.7941 29.9932 33.7525 29.9002C33.7222 29.8324 33.728 29.7466 33.7182 29.6741C33.7074 29.5945 33.6958 29.5189 33.6803 29.4398C33.6678 29.3759 33.6433 29.3453 33.614 29.2883C33.5847 29.2312 33.553 29.1563 33.5128 29.1072C33.4932 29.0831 33.418 28.9503 33.4826 29.0261C33.5756 29.135 33.6273 29.2872 33.688 29.4149C33.7451 29.5351 33.8036 29.6554 33.8585 29.7765C33.8988 29.8655 33.9115 29.9848 33.9715 30.0612C34.0047 30.1035 34.0295 30.166 34.0295 30.2198M33.2412 28.1103C33.2027 27.9206 33.1741 27.7132 33.111 27.5291C33.0996 27.4959 33.1054 27.4694 33.1134 27.4344C33.1333 27.3471 33.1347 27.2561 33.1347 27.1669C33.1347 27.0392 33.124 26.9136 33.124 26.7869C33.124 26.714 33.154 26.6462 33.156 26.5762C33.1576 26.5196 33.1619 26.442 33.1832 26.3898C33.2128 26.3171 33.2142 26.2419 33.2353 26.1667C33.2485 26.1196 33.2625 26.052 33.2625 26.0033C33.2625 25.8849 33.3105 25.7889 33.3627 25.6846L33.3643 25.6813C33.4305 25.5489 33.51 25.4388 33.6141 25.3404C33.6541 25.3026 33.6988 25.2672 33.7419 25.2315C33.7721 25.2065 33.7907 25.1805 33.8165 25.1534C33.8318 25.1372 33.8514 25.1049 33.8703 25.0954C33.8992 25.081 33.9178 25.0514 33.9443 25.0321C33.9697 25.0136 33.9931 25.0052 34.0147 24.9836C34.0819 24.9164 34.1895 24.9 34.2639 24.8504" stroke="black" stroke-width="0.2" stroke-linecap="round"/>
<path d="M12.4783 67.7126C11.1096 65.6382 11.6817 62.847 13.7561 61.4783V61.4783C15.8305 60.1096 18.6217 60.6817 19.9904 62.7561L33.0028 82.4779C34.3716 84.5523 33.7994 87.3436 31.725 88.7123V88.7123C29.6506 90.081 26.8594 89.5089 25.4907 87.4344L12.4783 67.7126Z" fill="#FFE2E2"/>
<rect x="23.5981" y="84.5659" width="9" height="1.76366" transform="rotate(-33.4168 23.5981 84.5659)" fill="#0A50FF"/>
<rect x="22.627" y="83.0938" width="9" height="1.76366" transform="rotate(-33.4168 22.627 83.0938)" fill="#8CA5E5"/>
<path d="M79.0028 67.7126C80.3715 65.6382 79.7994 62.847 77.725 61.4783V61.4783C75.6506 60.1096 72.8593 60.6817 71.4906 62.7561L58.4782 82.4779C57.1095 84.5523 57.6816 87.3436 59.7561 88.7123V88.7123C61.8305 90.081 64.6217 89.5089 65.9904 87.4344L79.0028 67.7126Z" fill="#FFE2E2"/>
<rect width="9" height="1.76366" transform="matrix(-0.834687 -0.550725 -0.550725 0.834687 67.8829 84.5659)" fill="#0A50FF"/>
<rect width="9" height="1.76366" transform="matrix(-0.834687 -0.550725 -0.550725 0.834687 68.8541 83.0938)" fill="#8CA5E5"/>
</svg>
