<svg width="92" height="196" viewBox="0 0 92 196" fill="none" xmlns="http://www.w3.org/2000/svg">
<path d="M51.1203 111.847C51.0539 108.751 53.5102 106.187 56.6067 106.12C59.7031 106.054 62.2672 108.51 62.3336 111.607L62.888 137.438C62.9545 140.535 60.4981 143.099 57.4017 143.165C54.3052 143.232 51.7411 140.775 51.6747 137.679L51.1203 111.847Z" fill="#FFE2E2"/>
<path d="M51.7962 139.696C51.755 136.599 54.2321 134.055 57.329 134.014C60.4259 133.972 62.9699 136.449 63.0111 139.546L63.5194 177.737C63.5606 180.834 61.0835 183.377 57.9866 183.419C54.8897 183.46 52.3457 180.983 52.3045 177.886L51.7962 139.696Z" fill="#FFE2E2"/>
<path d="M29 44H63V64H29V44Z" fill="#FFE2E2"/>
<path d="M29 44.5C29 42.0147 31.0147 40 33.5 40H58.5C60.9853 40 63 42.0147 63 44.5C63 46.9853 60.9853 49 58.5 49H33.5C31.0147 49 29 46.9853 29 44.5Z" fill="#FFE2E2"/>
<rect x="23" y="40" width="46" height="11" rx="5.5" fill="#FFE2E2"/>
<rect x="41" y="33" width="10" height="18" fill="#FFE2E2"/>
<path d="M34 38H39.5L42 43H50L52.5 38H57.5L57 49L58.5 55L63.5 59.5V65L63 68L63.5 73L63 80.5L63.5 82V89H28.5L28 82L28.5 77L28 72.5L28.5 59.5L33.5 55L34.5 48.5L34 38Z" fill="#1A3474"/>
<path fill-rule="evenodd" clip-rule="evenodd" d="M56.8352 11.4736C56.8404 11.4293 56.8175 11.3845 56.7747 11.3634C56.7674 11.3598 56.7504 11.3481 56.7249 11.3238C56.701 11.301 56.6748 11.2722 56.6492 11.2409C56.596 11.1762 56.5543 11.1122 56.5403 11.0809C56.4876 10.9628 56.4328 10.8768 56.3627 10.7763C56.2879 10.669 56.2122 10.5681 56.1381 10.4693C55.9928 10.2756 55.8535 10.0899 55.7387 9.87969L55.7063 9.82041C55.5553 9.54337 55.3992 9.25717 55.2103 8.99852C55.0976 8.84419 54.9181 8.74661 54.7389 8.68665C54.6255 8.64873 54.5072 8.62413 54.3958 8.61015C54.3874 8.45003 54.3309 8.31627 54.2741 8.19775C54.2628 8.17433 54.2517 8.15171 54.2409 8.12965C54.1901 8.0262 54.1453 7.93491 54.1217 7.83024C54.0911 7.69454 54.0281 7.57051 53.9715 7.45914L53.9619 7.44032C53.9504 7.41755 53.9388 7.39189 53.9258 7.36272L53.9226 7.35573C53.9108 7.32924 53.8979 7.3002 53.884 7.27172C53.8546 7.2111 53.8161 7.14149 53.7615 7.0877C53.7195 7.04623 53.6734 7.02203 53.6272 7.00917C53.6069 6.98784 53.5781 6.9745 53.5462 6.9745C53.5294 6.9745 53.5218 6.97063 53.5168 6.96723C53.5099 6.96251 53.5005 6.95311 53.4881 6.9332C53.477 6.91535 53.4673 6.89564 53.4546 6.87L53.4479 6.85637C53.4331 6.82666 53.4143 6.78977 53.3895 6.75571C53.1897 6.48216 52.9105 6.33749 52.6366 6.20246C52.1521 5.96364 51.6302 5.77249 51.077 5.72599C50.7314 5.69693 50.3903 5.62384 50.0418 5.54722L49.9981 5.53761C49.6659 5.46448 49.3265 5.38976 48.9812 5.35392C48.9727 5.35305 48.9645 5.35313 48.9564 5.35407C48.8567 5.33311 48.7598 5.28698 48.6473 5.23287L48.6435 5.23105C48.534 5.17836 48.4092 5.11833 48.2727 5.0914C47.8793 5.01383 47.4748 4.98975 47.0762 5.00379C47.0322 5.00534 46.9855 5.00626 46.9372 5.00723C46.7744 5.01047 46.5928 5.01409 46.4315 5.04301C46.1968 5.08508 45.9676 5.08433 45.7241 5.08352C45.6337 5.08322 45.5412 5.08292 45.4458 5.0848C45.2282 5.08909 45.0137 5.11627 44.8018 5.17432C44.7393 5.19142 44.6879 5.22691 44.6531 5.25088L44.6461 5.25573C44.6056 5.2835 44.583 5.29697 44.5598 5.30223C44.5053 5.31465 44.4695 5.36484 44.4744 5.41834C44.454 5.41481 44.4346 5.41214 44.4172 5.40973L44.4051 5.40805C44.3578 5.40141 44.3233 5.39536 44.2918 5.38263C44.2691 5.37347 44.2457 5.36364 44.2215 5.35352C44.0857 5.29658 43.9275 5.23024 43.7571 5.22006C43.6161 5.21164 43.4697 5.21403 43.3292 5.21632C43.2661 5.21735 43.2041 5.21836 43.1444 5.21836H42.5187C42.4482 5.21836 42.3955 5.23444 42.3502 5.25321C42.3304 5.26142 42.3157 5.26815 42.3027 5.27414C42.2828 5.28333 42.2667 5.29077 42.2416 5.29902C42.128 5.33634 42.0163 5.37495 41.9052 5.41334C41.7082 5.48144 41.513 5.54888 41.3134 5.60713C41.1644 5.6506 41.0311 5.71849 40.9072 5.78658C40.878 5.80264 40.8494 5.81858 40.8214 5.83428C40.7276 5.88674 40.6387 5.93646 40.5441 5.97859L40.5278 5.9858C40.4494 6.02055 40.3281 6.07431 40.2498 6.13793C40.1279 6.23691 39.9907 6.31486 39.844 6.39292L39.7675 6.43332C39.6457 6.49745 39.5183 6.56453 39.3985 6.64323C39.305 6.70472 39.2195 6.77318 39.1384 6.84083C39.1143 6.86093 39.0908 6.88076 39.0675 6.90035C39.0113 6.94785 38.9565 6.99411 38.8993 7.03886C38.8456 7.08089 38.7908 7.11773 38.7324 7.15691L38.6769 7.19431C38.5995 7.24702 38.5183 7.30545 38.4438 7.37891C38.3281 7.49296 38.2208 7.62933 38.1176 7.76039C38.0822 7.80534 38.047 7.85009 38.0124 7.89267C37.8726 8.06489 37.7332 8.21578 37.5668 8.31418C37.5315 8.33506 37.5123 8.37228 37.5131 8.41015L37.4418 8.42361C37.3179 8.44707 37.1852 8.4736 37.0574 8.52207C36.8077 8.61675 36.5799 8.79546 36.3915 8.94402L36.385 8.94921C36.0876 9.18377 35.7534 9.44732 35.5654 9.81807C35.3779 10.1878 35.1857 10.5501 34.9685 10.9014C34.9249 10.9719 34.8861 11.0457 34.8496 11.1152C34.8379 11.1374 34.8264 11.1594 34.8151 11.1805C34.7671 11.2701 34.7194 11.3521 34.6597 11.4261C34.6354 11.4563 34.6088 11.4961 34.5853 11.5312C34.5742 11.5478 34.5637 11.5634 34.5546 11.5764C34.5205 11.6249 34.4928 11.6562 34.467 11.6726C34.4042 11.7126 34.3744 11.7849 34.3581 11.8372C34.3398 11.896 34.3286 11.9642 34.3213 12.0291C34.3068 12.1596 34.3068 12.2947 34.3068 12.3527C34.3068 12.403 34.3412 12.4453 34.388 12.458C34.2044 12.6817 34.0171 12.9034 33.8289 13.1262L33.828 13.1273C33.7151 13.2609 33.6014 13.3955 33.4885 13.5305C33.1794 13.9002 32.8651 14.2448 32.4789 14.5169C32.4635 14.5277 32.3511 14.6114 32.2454 14.6923C32.1922 14.733 32.1394 14.7739 32.1003 14.8054C32.081 14.8209 32.0637 14.8352 32.0511 14.8464C32.0453 14.8516 32.0379 14.8584 32.0314 14.8655C32.029 14.8681 32.0218 14.876 32.0154 14.887C32.0127 14.8915 32.0046 14.9055 32.0013 14.9254C31.9977 14.9477 31.9988 14.995 32.0417 15.0288C32.0656 15.0477 32.0921 15.0565 32.1106 15.0611C32.1305 15.066 32.151 15.0685 32.1696 15.0697C32.2069 15.0722 32.2481 15.0706 32.2856 15.0678C32.3237 15.065 32.3616 15.0608 32.3926 15.0571L32.4163 15.0542C32.4364 15.0518 32.4503 15.0501 32.4591 15.0494C32.7853 15.0239 33.1002 14.9752 33.4179 14.9253C33.4281 14.9237 33.4529 14.9226 33.4986 14.9209C33.5396 14.9193 33.591 14.9172 33.6421 14.9125C33.6798 14.909 33.7206 14.9037 33.7592 14.895C33.7582 15.139 33.752 15.3803 33.7257 15.6191C33.6922 15.9237 33.6171 16.2278 33.5412 16.5349C33.5195 16.6228 33.4977 16.711 33.4768 16.7995C33.3512 17.3315 33.303 17.8912 33.257 18.4252L33.255 18.4482C33.1773 19.3506 33.3869 20.1668 33.6827 20.9932C33.7108 21.0716 33.7344 21.1487 33.7588 21.2283C33.773 21.2747 33.7877 21.3226 33.8035 21.3714C33.8452 21.5005 33.8938 21.6331 33.964 21.7598C33.998 21.821 34.0468 21.8855 34.0904 21.943L34.1205 21.9831C34.1749 22.0562 34.2136 22.1154 34.2294 22.1658C34.2349 22.1836 34.2447 22.199 34.2572 22.2112C34.0754 22.1688 33.8946 22.1678 33.7256 22.2282C33.5494 22.2912 33.3971 22.4168 33.2738 22.6081C33.0311 22.9848 32.8931 23.6281 32.8931 24.6156V24.638L32.902 24.6586C32.902 25.4006 33.0904 26.2856 33.6054 27.1686C33.8629 27.6099 34.1322 28.0275 34.3943 28.3634C34.6536 28.6957 34.7553 28.9612 35.0009 29.0822L37.593 30.0828L37.8878 30.6776C39.2024 33.9331 40.6709 34.0846 44.0848 35.5C45.3597 35.8434 46.1185 35.8516 47.5 35.5C50.9851 33.9598 52.1091 33.7695 53.5993 30.6776L53.7239 30.1245C54.5765 29.8405 56.0707 30.2662 57.3097 28.2302C58.149 26.8511 58.4606 24.4935 58.3149 23.7751C58.1698 23.0601 57.7344 22.6308 57.4567 22.3569L57.4537 22.3541C57.438 22.3386 57.4217 22.3245 57.4048 22.3118C57.4951 22.1794 57.5911 22.0511 57.6887 21.9206L57.7603 21.8248C57.8858 21.6561 58.0114 21.4826 58.1222 21.2977C58.2696 21.0518 58.255 20.8129 58.2411 20.5841C58.2379 20.5318 58.2347 20.4801 58.2335 20.429C58.2309 20.3158 58.2117 20.2065 58.1935 20.1059L58.1913 20.0936C58.1735 19.9954 58.1572 19.9056 58.1527 19.8152C58.1422 19.6019 58.1179 19.3918 58.0796 19.1813C58.021 18.8598 58.0143 18.5247 58.0143 18.1874V17.036L58.0144 16.9572C58.0148 16.6858 58.0153 16.3999 57.9703 16.1212C57.9541 16.0207 57.95 15.9188 57.9455 15.8094L57.9455 15.8082C57.9411 15.7006 57.9363 15.5855 57.9169 15.4704C57.8962 15.3482 57.8991 15.2242 57.9023 15.0905C57.9035 15.04 57.9047 14.9882 57.9047 14.9345C57.9047 14.8915 57.8997 14.8497 57.8944 14.8124L57.8885 14.7726C57.885 14.7501 57.8819 14.7297 57.8794 14.7078C57.8718 14.6424 57.8749 14.5987 57.893 14.563C57.9127 14.5242 57.9067 14.4793 57.8814 14.4471C57.9332 14.4555 57.9868 14.4613 58.0406 14.4613C58.1005 14.4613 58.1582 14.4536 58.2072 14.447L58.2087 14.4468C58.2606 14.4398 58.3029 14.4343 58.3436 14.4343C58.3899 14.4343 58.5548 14.4226 58.6951 14.4011C58.7636 14.3906 58.837 14.3763 58.8886 14.3561C58.9022 14.3508 58.9174 14.3439 58.9318 14.3349C58.9451 14.3265 58.9654 14.3117 58.9805 14.2876C58.9983 14.2594 59.0068 14.2214 58.9936 14.1821C58.9823 14.1485 58.9596 14.1273 58.9445 14.1157C58.877 14.064 58.7968 14.0371 58.7369 14.017L58.7132 14.009C58.6451 13.9854 58.6011 13.9652 58.5683 13.9285C58.5118 13.8654 58.4403 13.8142 58.3763 13.7708L58.3315 13.7407C58.2823 13.7079 58.2387 13.6788 58.2001 13.6469C58.1184 13.5795 58.0525 13.5026 57.9849 13.4179L57.9458 13.3685C57.891 13.299 57.8321 13.2243 57.7649 13.1542C57.691 13.0772 57.6261 12.9859 57.5591 12.8865L57.5226 12.832C57.4682 12.7503 57.4108 12.6643 57.3484 12.5856C57.3004 12.5249 57.2486 12.4656 57.1954 12.4076C57.2222 12.4066 57.2488 12.396 57.2694 12.3757C57.3126 12.3331 57.3126 12.2639 57.2694 12.2213C57.264 12.216 57.2588 12.2073 57.2444 12.1751L57.2427 12.1713C57.2307 12.1443 57.2109 12.0997 57.1741 12.0614L57.1546 12.0412C57.1235 12.009 57.1106 11.9957 57.1033 11.976C57.0794 11.9111 57.029 11.7845 56.9662 11.6675C56.9348 11.6092 56.8986 11.5499 56.8589 11.501C56.8516 11.4921 56.8437 11.4828 56.8352 11.4736ZM48.2292 5.3056C47.8556 5.23192 47.4687 5.20855 47.0841 5.22209C47.0322 5.22392 46.9802 5.22498 46.9286 5.22603C46.7694 5.22927 46.6133 5.23245 46.4712 5.25793C46.2147 5.30389 45.9558 5.303 45.7059 5.30214C45.6194 5.30184 45.5341 5.30155 45.4502 5.3032C45.2486 5.30717 45.0528 5.33228 44.8611 5.3848C44.8375 5.39124 44.8153 5.40579 44.7726 5.43506L44.7706 5.43645C44.7383 5.4586 44.6922 5.49021 44.6347 5.5083C44.6423 5.53018 44.643 5.55463 44.635 5.57828C44.6156 5.63551 44.5529 5.66643 44.4949 5.64736C44.4625 5.63672 44.4289 5.63201 44.3829 5.62558L44.3738 5.62431C44.3269 5.61771 44.2674 5.60888 44.2077 5.58476C44.18 5.57356 44.1532 5.56242 44.1271 5.55156C43.9905 5.49477 43.8727 5.44582 43.7437 5.43811C43.6112 5.43019 43.4796 5.43238 43.3437 5.43463C43.2784 5.43571 43.2122 5.43681 43.1444 5.43681H42.5187C42.4861 5.43681 42.4632 5.44331 42.436 5.4546C42.4299 5.45713 42.4215 5.46092 42.4116 5.46542C42.3852 5.4774 42.3476 5.49445 42.3116 5.50626C42.205 5.54129 42.0964 5.57881 41.9865 5.61675C41.7855 5.6862 41.5804 5.75704 41.3763 5.8166C41.2517 5.85292 41.136 5.91092 41.015 5.97739C40.9892 5.99159 40.9629 6.0063 40.9362 6.02125C40.8409 6.0746 40.7401 6.13099 40.6353 6.17767L40.6294 6.18029C40.5418 6.21929 40.445 6.26235 40.3906 6.30655C40.251 6.4199 40.0976 6.5062 39.9493 6.58514L39.8687 6.62772C39.7472 6.6917 39.6313 6.75277 39.5214 6.82499C39.4386 6.87943 39.3608 6.94144 39.2814 7.00762C39.2595 7.02594 39.2372 7.04476 39.2146 7.06382C39.1571 7.11237 39.0977 7.16252 39.0371 7.20993C38.9764 7.25745 38.9124 7.30037 38.8528 7.34039L38.8028 7.37407C38.7279 7.42508 38.6602 7.47442 38.6004 7.53337C38.4954 7.63691 38.4008 7.75709 38.3004 7.88467C38.2632 7.93194 38.225 7.98034 38.1854 8.02917C38.1074 8.12522 38.0242 8.22188 37.9315 8.30933C38.1413 8.27036 38.384 8.28183 38.5755 8.34476C38.6384 8.36544 38.7016 8.38573 38.765 8.40609C39.0934 8.51157 39.4269 8.61867 39.7481 8.78729C40.3388 9.0974 40.8792 9.49563 41.382 9.92059C41.4474 9.97589 41.5186 10.0318 41.5937 10.0909L41.6523 10.137C41.7481 10.2125 41.8479 10.2929 41.9422 10.3787C42.1298 10.5493 42.3052 10.7498 42.3879 10.9942C42.4072 11.0515 42.3759 11.1133 42.3178 11.1324C42.2598 11.1515 42.197 11.1205 42.1777 11.0633C42.1127 10.8711 41.9699 10.7011 41.792 10.5393C41.7037 10.4589 41.609 10.3826 41.5138 10.3075L41.4572 10.263C41.3818 10.2036 41.3066 10.1446 41.2378 10.0864C40.742 9.66741 40.2153 9.28004 39.644 8.98011C39.3414 8.82126 39.0293 8.72091 38.7011 8.61537C38.6366 8.59463 38.5713 8.57363 38.5054 8.552C38.3166 8.48992 38.0542 8.48985 37.8654 8.5507C37.7491 8.5882 37.6284 8.61089 37.5158 8.63207L37.4836 8.63813C37.359 8.66171 37.2442 8.68528 37.1369 8.72595C36.9247 8.80642 36.7232 8.96215 36.5299 9.11459C36.2236 9.35625 35.9275 9.59247 35.7636 9.91576C35.5751 10.2875 35.3797 10.6561 35.1577 11.0151C35.1184 11.0785 35.0847 11.1427 35.0491 11.2104C35.0368 11.234 35.0242 11.258 35.011 11.2825C34.9615 11.3751 34.906 11.4717 34.8331 11.5621C34.8143 11.5854 34.7983 11.6095 34.7792 11.6382C34.7669 11.6568 34.7532 11.6774 34.7367 11.7009C34.701 11.7516 34.6535 11.8129 34.5901 11.8543L34.589 11.8549L34.5873 11.856L34.5901 11.8543L34.589 11.8549C34.5866 11.8587 34.5791 11.8719 34.5699 11.9014C34.5575 11.9412 34.5481 11.9939 34.5416 12.0529C34.5324 12.1354 34.5296 12.2213 34.5287 12.2853C34.8028 11.9459 35.0671 11.6003 35.3119 11.2383C35.3458 11.1881 35.4146 11.1745 35.4655 11.208C35.5164 11.2414 35.5301 11.3092 35.4962 11.3594C35.0404 12.0335 34.5173 12.6527 33.9966 13.2691C33.884 13.4024 33.7711 13.536 33.6595 13.6695C33.3479 14.0422 33.0186 14.4052 32.6076 14.6946L32.6053 14.6963L32.6001 14.7001L32.5832 14.7126L32.5301 14.7522C32.4988 14.7757 32.4612 14.804 32.4224 14.8335L32.4416 14.8316C32.7578 14.8069 33.0646 14.7596 33.383 14.7096C33.4077 14.7057 33.4461 14.7042 33.4807 14.7029L33.49 14.7026C33.5314 14.701 33.5771 14.6991 33.6213 14.695C33.6664 14.6908 33.7042 14.6847 33.7311 14.6765C33.7407 14.6736 33.7466 14.6711 33.75 14.6695C33.7528 14.6653 33.7558 14.6615 33.7591 14.6578L33.759 14.6367C33.7588 14.578 33.7586 14.5191 33.7586 14.4601C33.7586 14.3997 33.8082 14.3508 33.8694 14.3508C33.9305 14.3508 33.9801 14.3997 33.9801 14.4601C33.9801 14.5176 33.9803 14.5754 33.9806 14.6336C33.9817 14.9655 33.983 15.3067 33.946 15.6427C33.9108 15.963 33.8309 16.2858 33.7544 16.5951C33.7332 16.6809 33.7122 16.7656 33.6926 16.849C33.5706 17.3656 33.5236 17.9118 33.4772 18.4509L33.4758 18.4667C33.402 19.3234 33.5997 20.1051 33.8916 20.9204C33.9211 21.0028 33.9476 21.0892 33.9733 21.1727C33.9872 21.2181 34.0009 21.2627 34.0146 21.3052C34.0549 21.4297 34.0983 21.5467 34.1584 21.6549C34.1841 21.7013 34.2204 21.7493 34.2628 21.8054L34.2992 21.8539C34.3521 21.925 34.413 22.0115 34.4411 22.1015C34.4591 22.1592 34.4263 22.2203 34.3678 22.2381L34.3612 22.2398C34.7094 22.3498 35.075 22.6033 35.4149 22.9066C35.7651 23.2189 36.0981 23.5932 36.3702 23.9445L35.652 20.758L36.7759 19.6499L38.765 17.371L40.948 15.7587L50.4678 15.6191L51.9471 17.2447L54.7111 19.6499L55.8351 20.758L55.2693 23.2682C55.5421 23.0188 55.9001 22.7279 56.2513 22.5156C56.4702 22.3834 56.6938 22.2771 56.8969 22.2341C56.9998 22.2122 57.1033 22.2057 57.1997 22.2237C57.2022 22.2184 57.2051 22.2133 57.2085 22.2083C57.3055 22.0648 57.4095 21.9258 57.5116 21.7893L57.5816 21.6955C57.7066 21.5277 57.8266 21.3616 57.9315 21.1865C58.0415 21.0029 58.0326 20.8426 58.0203 20.6222C58.0171 20.5642 58.0136 20.5019 58.012 20.434C58.0098 20.3398 57.9938 20.2461 57.9754 20.1443L57.9724 20.1278C57.9552 20.0331 57.9366 19.9307 57.9314 19.8259C57.9214 19.622 57.8981 19.4212 57.8615 19.2199C57.7992 18.8775 57.7928 18.5252 57.7928 18.1874L57.7928 16.9591C57.7932 16.6845 57.7936 16.4161 57.7515 16.1555C57.7332 16.0422 57.7286 15.9293 57.7243 15.8238L57.7241 15.817C57.7196 15.7074 57.7152 15.6058 57.6984 15.5064C57.6739 15.362 57.6776 15.2073 57.681 15.0674C57.6821 15.0212 57.6831 14.9766 57.6831 14.9345C57.6831 14.9071 57.6799 14.8774 57.675 14.8429L57.6702 14.8105C57.6664 14.7856 57.6622 14.758 57.6592 14.7324C57.6503 14.6553 57.6473 14.5591 57.6948 14.4653C57.7052 14.4449 57.7213 14.429 57.7402 14.4187L57.6955 14.4084L57.689 14.4069C57.6529 14.3985 57.6189 14.3906 57.5861 14.384C57.5737 14.3815 57.5585 14.3788 57.5414 14.3757C57.4776 14.3642 57.3864 14.3478 57.3097 14.3201C57.218 14.2871 57.0803 14.2141 57.0803 14.0548C57.0803 13.9945 57.1299 13.9456 57.1911 13.9456C57.2523 13.9456 57.3019 13.9945 57.3019 14.0548C57.3019 14.0612 57.3035 14.0853 57.3858 14.115C57.4428 14.1355 57.5062 14.147 57.5678 14.1582C57.589 14.1621 57.61 14.1659 57.6305 14.17C57.667 14.1774 57.704 14.1859 57.7398 14.1942L57.7457 14.1956C57.7799 14.2036 57.8131 14.2113 57.8463 14.2182C57.9166 14.2329 57.9812 14.2428 58.0406 14.2428C58.0838 14.2428 58.1274 14.2372 58.1789 14.2303L58.1833 14.2297C58.2312 14.2233 58.287 14.2158 58.3436 14.2158C58.3696 14.2158 58.4762 14.209 58.5864 14.1955C58.5259 14.1713 58.4584 14.1359 58.4022 14.0731C58.3653 14.0318 58.3139 13.9936 58.2508 13.9508L58.2128 13.9254C58.1622 13.8916 58.1061 13.8542 58.0578 13.8144C57.958 13.7319 57.8806 13.6404 57.8108 13.553L57.7678 13.4988C57.7137 13.4301 57.663 13.3659 57.6039 13.3043C57.5159 13.2126 57.4422 13.1078 57.3745 13.0073L57.3355 12.949C57.2813 12.8678 57.2301 12.7911 57.1738 12.7201C57.0728 12.5926 56.9575 12.4748 56.8389 12.3537C56.7931 12.3069 56.7469 12.2597 56.7007 12.2111L56.6526 12.1604C56.4776 11.9758 56.3221 11.8117 56.1177 11.6743C56.0672 11.6403 56.0236 11.598 55.9883 11.5638L55.9745 11.5505C55.9338 11.5113 55.9016 11.483 55.8659 11.4641C55.774 11.4155 55.6726 11.3864 55.5607 11.3542C55.5318 11.3459 55.5022 11.3374 55.4719 11.3283C55.1607 11.2349 54.8709 11.1649 54.5602 11.1649C54.499 11.1649 54.4494 11.116 54.4494 11.0557C54.4494 10.9953 54.499 10.9464 54.5602 10.9464C54.9045 10.9464 55.2198 11.0243 55.5364 11.1193C55.5606 11.1265 55.586 11.1338 55.6123 11.1413C55.7262 11.1739 55.8561 11.211 55.9707 11.2716C56.0366 11.3065 56.0881 11.3546 56.1292 11.3941L56.1436 11.408C56.1807 11.4438 56.2095 11.4716 56.2426 11.4938C56.4682 11.6455 56.6402 11.8271 56.8125 12.0092L56.8624 12.0617C56.9035 12.105 56.9467 12.1492 56.9908 12.1941C57.0024 12.206 57.0141 12.218 57.0258 12.23C57.0212 12.2213 57.0174 12.2159 57.013 12.2114L57.0009 12.1991C56.9707 12.1689 56.9199 12.118 56.8951 12.0506C56.8728 11.9902 56.8265 11.8742 56.7704 11.7698C56.7422 11.7174 56.7134 11.6714 56.6859 11.6376C56.6723 11.6207 56.6605 11.6088 56.6509 11.601C56.6432 11.5947 56.6382 11.5925 56.6382 11.5925C56.5846 11.5766 56.5524 11.5242 56.5609 11.4711C56.5322 11.4428 56.5035 11.4107 56.4769 11.3784C56.4195 11.3083 56.3633 11.2266 56.3375 11.1688C56.2927 11.0685 56.2465 10.9952 56.1802 10.9C56.1147 10.8062 56.0441 10.7119 55.9723 10.6161C55.8214 10.4147 55.6657 10.2068 55.5436 9.98326L55.5128 9.92681C55.3601 9.64687 55.2106 9.37271 55.0305 9.12616C54.9559 9.02401 54.8257 8.94636 54.6677 8.89351C54.5114 8.84125 54.3405 8.81747 54.2013 8.81427C54.1401 8.81287 54.0917 8.76285 54.0931 8.70254C54.0943 8.65368 54.1278 8.61305 54.173 8.60015C54.1634 8.4933 54.1245 8.39688 54.0737 8.2911C54.0645 8.27183 54.0547 8.25201 54.0447 8.23164C53.9935 8.12775 53.9352 8.00957 53.9054 7.87763C53.8809 7.76898 53.8292 7.66699 53.7692 7.54865L53.7638 7.53801C53.7494 7.50978 53.7358 7.47943 53.723 7.45076L53.7201 7.44422C53.708 7.41713 53.6964 7.39122 53.6842 7.36599C53.657 7.31004 53.6316 7.26854 53.6049 7.24216C53.5804 7.21804 53.5502 7.20975 53.4934 7.21846C53.464 7.22296 53.4324 7.2314 53.396 7.242L53.3778 7.24732C53.3481 7.25608 53.3146 7.26599 53.283 7.27294L53.2725 7.27876C53.2634 7.28475 53.2529 7.29316 53.2381 7.30573L53.2302 7.31252C53.2053 7.33395 53.1634 7.37004 53.1161 7.38911C53.082 7.40286 53.0505 7.41488 53.021 7.42613C52.9046 7.47045 52.8193 7.50295 52.7325 7.58262C52.5519 7.74836 52.3898 7.93588 52.2404 8.1338C52.1522 8.25066 52.0569 8.35613 51.9626 8.45738L51.9007 8.52357C51.827 8.60214 51.755 8.67898 51.685 8.76056C51.4928 8.98467 51.2904 9.19833 51.0895 9.4105C50.9956 9.50959 50.9019 9.60855 50.8098 9.7079C50.6665 9.86252 50.5348 10.0273 50.4007 10.1957L50.3891 10.2102C50.2596 10.373 50.1273 10.5391 49.9836 10.6965C49.9427 10.7414 49.8727 10.745 49.8272 10.7046C49.7817 10.6643 49.778 10.5952 49.819 10.5504C49.9576 10.3985 50.0857 10.2375 50.2167 10.0731L50.2264 10.0608C50.3599 9.89312 50.4965 9.72211 50.6462 9.56057C50.7419 9.45731 50.8374 9.3565 50.9322 9.2564C51.1312 9.04643 51.3272 8.83952 51.5158 8.61953C51.5893 8.53386 51.6657 8.45239 51.7399 8.3733L51.7994 8.30963C51.8927 8.20952 51.9816 8.11083 52.0627 8.00338C52.2177 7.79804 52.3886 7.59983 52.5815 7.42274C52.7025 7.3117 52.8345 7.26203 52.9552 7.21658C52.9815 7.2067 53.0073 7.19701 53.0322 7.18693C53.0433 7.18248 53.0569 7.17127 53.0936 7.14011L53.0958 7.13823C53.1226 7.11546 53.1721 7.07346 53.2344 7.05981C53.2536 7.05559 53.2736 7.04996 53.2967 7.04322C53.2805 7.01659 53.2663 6.98774 53.2546 6.96398L53.2489 6.95237C53.2342 6.92285 53.2225 6.90091 53.2097 6.88335C53.0454 6.65849 52.8137 6.53403 52.5375 6.39785C52.0662 6.1655 51.5726 5.98689 51.0582 5.94364C50.6956 5.91316 50.3406 5.83674 49.9936 5.76043L49.9541 5.75173C49.6185 5.67788 49.2903 5.60566 48.958 5.57116L48.9566 5.57101C48.9449 5.57253 48.9327 5.57221 48.9204 5.5698C48.7881 5.5437 48.6658 5.48483 48.5576 5.4328L48.5501 5.42919C48.4353 5.37394 48.3347 5.32639 48.2292 5.3056ZM53.5032 30.0968L55.5924 20.8277L54.5007 19.7514L51.7399 17.371L50.4007 15.8238L41.015 15.9634L38.9723 17.4973L36.9864 19.7514L35.8947 20.8277L37.4318 27.6477L38.0091 30.2088L38.0901 30.5681C39.4455 33.7782 40.8297 33.844 44.1766 35.2816C45.5959 35.6302 46.2267 35.4929 47.4082 35.2816C50.5491 33.8904 51.8795 33.9208 53.397 30.5681L53.5032 30.0968ZM57.1197 28.1178C55.9677 30.0108 54.615 29.556 53.7808 29.872L55.2023 23.5654L55.2382 23.6007C55.5116 23.3312 55.9478 22.9552 56.367 22.7019C56.5774 22.5748 56.7761 22.4831 56.9435 22.4476C57.1109 22.4121 57.2242 22.4367 57.2971 22.5085C57.5733 22.7809 57.9662 23.1703 58.0976 23.8179C58.2288 24.4648 57.9422 26.7663 57.1197 28.1178ZM37.2167 27.7001L37.6918 29.8082L35.2604 28.8869C35.0628 28.7895 34.8264 28.5589 34.5699 28.2302C34.3162 27.905 34.0524 27.4966 33.7975 27.0596C33.2933 26.1953 33.1126 25.5583 33.1147 24.5932C33.1168 23.6281 33.2551 23.0446 33.4609 22.7252C33.5626 22.5673 33.6786 22.4773 33.801 22.4336C33.9244 22.3895 34.0653 22.3885 34.2229 22.4278C34.5423 22.5076 34.9067 22.7477 35.2663 23.0685C35.6178 23.3821 35.9543 23.7632 36.226 24.1185L37.2167 27.7001Z" fill="black"/>
<path d="M47.0841 5.22209C47.4687 5.20855 47.8556 5.23192 48.2292 5.3056C48.3347 5.32639 48.4353 5.37394 48.5501 5.42919L48.5576 5.4328C48.6658 5.48483 48.7881 5.5437 48.9204 5.5698C48.9327 5.57221 48.9449 5.57253 48.9566 5.57101L48.958 5.57116C49.2903 5.60566 49.6185 5.67788 49.9541 5.75173L49.9936 5.76043C50.3406 5.83674 50.6956 5.91316 51.0582 5.94364C51.5726 5.98689 52.0662 6.1655 52.5375 6.39785C52.8137 6.53403 53.0454 6.65849 53.2097 6.88335C53.2225 6.90091 53.2342 6.92285 53.2489 6.95237L53.2546 6.96398C53.2663 6.98774 53.2805 7.01659 53.2967 7.04322C53.2736 7.04996 53.2536 7.05559 53.2344 7.05981C53.1721 7.07346 53.1226 7.11546 53.0958 7.13823L53.0936 7.14011C53.0569 7.17127 53.0433 7.18248 53.0322 7.18693C53.0073 7.19701 52.9815 7.2067 52.9552 7.21658C52.8345 7.26203 52.7025 7.3117 52.5815 7.42274C52.3886 7.59983 52.2177 7.79804 52.0627 8.00338C51.9816 8.11083 51.8927 8.20952 51.7994 8.30963L51.7399 8.3733C51.6657 8.45239 51.5893 8.53386 51.5158 8.61953C51.3272 8.83952 51.1312 9.04643 50.9322 9.2564C50.8374 9.3565 50.7419 9.45731 50.6462 9.56057C50.4965 9.72211 50.3599 9.89312 50.2264 10.0608L50.2167 10.0731C50.0857 10.2375 49.9576 10.3985 49.819 10.5504C49.778 10.5952 49.7817 10.6643 49.8272 10.7046C49.8727 10.745 49.9427 10.7414 49.9836 10.6965C50.1273 10.5391 50.2596 10.373 50.3891 10.2102L50.4007 10.1957C50.5348 10.0273 50.6665 9.86252 50.8098 9.7079C50.9019 9.60855 50.9956 9.50959 51.0895 9.4105C51.2904 9.19833 51.4928 8.98467 51.685 8.76056C51.755 8.67898 51.827 8.60214 51.9007 8.52357L51.9626 8.45738C52.0569 8.35613 52.1522 8.25066 52.2404 8.1338C52.3898 7.93588 52.5519 7.74836 52.7325 7.58262C52.8193 7.50295 52.9046 7.47045 53.021 7.42613C53.0505 7.41488 53.082 7.40286 53.1161 7.38911C53.1634 7.37004 53.2053 7.33395 53.2302 7.31252L53.2381 7.30573C53.2529 7.29316 53.2634 7.28475 53.2725 7.27876L53.283 7.27294C53.3146 7.26599 53.3481 7.25608 53.3778 7.24732L53.396 7.242C53.4324 7.2314 53.464 7.22296 53.4934 7.21846C53.5502 7.20975 53.5804 7.21804 53.6049 7.24216C53.6316 7.26854 53.657 7.31004 53.6842 7.36599C53.6964 7.39122 53.708 7.41713 53.7201 7.44422L53.723 7.45076C53.7358 7.47943 53.7494 7.50978 53.7638 7.53801L53.7692 7.54865C53.8292 7.66699 53.8809 7.76898 53.9054 7.87763C53.9352 8.00957 53.9935 8.12775 54.0447 8.23164C54.0547 8.25201 54.0645 8.27183 54.0737 8.2911C54.1245 8.39688 54.1634 8.4933 54.173 8.60015C54.1278 8.61305 54.0943 8.65368 54.0931 8.70254C54.0917 8.76285 54.1401 8.81287 54.2013 8.81427C54.3405 8.81747 54.5114 8.84125 54.6677 8.89351C54.8257 8.94636 54.9559 9.02401 55.0305 9.12616C55.2106 9.37271 55.3601 9.64687 55.5128 9.92681L55.5436 9.98326C55.6657 10.2068 55.8214 10.4147 55.9723 10.6161C56.0441 10.7119 56.1147 10.8062 56.1802 10.9C56.2465 10.9952 56.2927 11.0685 56.3375 11.1688C56.3633 11.2266 56.4195 11.3083 56.4769 11.3784C56.5035 11.4107 56.5322 11.4428 56.5609 11.4711C56.5524 11.5242 56.5846 11.5766 56.6382 11.5925C56.6382 11.5925 56.6432 11.5947 56.6509 11.601C56.6605 11.6088 56.6723 11.6207 56.6859 11.6376C56.7134 11.6714 56.7422 11.7174 56.7704 11.7698C56.8265 11.8742 56.8728 11.9902 56.8951 12.0506C56.9199 12.118 56.9707 12.1689 57.0009 12.1991L57.013 12.2114C57.0174 12.2159 57.0212 12.2213 57.0258 12.23L56.9908 12.1941C56.9467 12.1492 56.9035 12.105 56.8624 12.0617L56.8125 12.0092C56.6402 11.8271 56.4682 11.6455 56.2426 11.4938C56.2095 11.4716 56.1807 11.4438 56.1436 11.408L56.1292 11.3941C56.0881 11.3546 56.0366 11.3065 55.9707 11.2716C55.8561 11.211 55.7262 11.1739 55.6123 11.1413C55.586 11.1338 55.5606 11.1265 55.5364 11.1193C55.2198 11.0243 54.9045 10.9464 54.5602 10.9464C54.499 10.9464 54.4494 10.9953 54.4494 11.0557C54.4494 11.116 54.499 11.1649 54.5602 11.1649C54.8709 11.1649 55.1607 11.2349 55.4719 11.3283C55.5022 11.3374 55.5318 11.3459 55.5607 11.3542C55.6726 11.3864 55.774 11.4155 55.8659 11.4641C55.9016 11.483 55.9338 11.5113 55.9745 11.5505L55.9883 11.5638C56.0236 11.598 56.0672 11.6403 56.1177 11.6743C56.3221 11.8117 56.4776 11.9758 56.6526 12.1604L56.7007 12.2111C56.7469 12.2597 56.7931 12.3069 56.8389 12.3537C56.9575 12.4748 57.0728 12.5926 57.1738 12.7201C57.2301 12.7911 57.2813 12.8678 57.3355 12.949L57.3745 13.0073C57.4422 13.1078 57.5159 13.2126 57.6039 13.3043C57.663 13.3659 57.7137 13.4301 57.7678 13.4988L57.8108 13.553C57.8806 13.6404 57.958 13.7319 58.0578 13.8144C58.1061 13.8542 58.1622 13.8916 58.2128 13.9254L58.2508 13.9508C58.3139 13.9936 58.3653 14.0318 58.4022 14.0731C58.4584 14.1359 58.5259 14.1713 58.5864 14.1955C58.4762 14.209 58.3696 14.2158 58.3436 14.2158C58.287 14.2158 58.2312 14.2233 58.1833 14.2297L58.1789 14.2303C58.1274 14.2372 58.0838 14.2428 58.0406 14.2428C57.9812 14.2428 57.9166 14.2329 57.8463 14.2182C57.8131 14.2113 57.7799 14.2036 57.7457 14.1956L57.7398 14.1942C57.704 14.1859 57.667 14.1774 57.6305 14.17C57.61 14.1659 57.589 14.1621 57.5678 14.1582C57.5062 14.147 57.4428 14.1355 57.3858 14.115C57.3035 14.0853 57.3019 14.0612 57.3019 14.0548C57.3019 13.9945 57.2523 13.9456 57.1911 13.9456C57.1299 13.9456 57.0803 13.9945 57.0803 14.0548C57.0803 14.2141 57.218 14.2871 57.3097 14.3201C57.3864 14.3478 57.4776 14.3642 57.5414 14.3757C57.5585 14.3788 57.5737 14.3815 57.5861 14.384C57.6189 14.3906 57.6529 14.3985 57.689 14.4069L57.6955 14.4084L57.7402 14.4187C57.7213 14.429 57.7052 14.4449 57.6948 14.4653C57.6473 14.5591 57.6503 14.6553 57.6592 14.7324C57.6622 14.758 57.6664 14.7856 57.6702 14.8105L57.675 14.8429C57.6799 14.8774 57.6831 14.9071 57.6831 14.9345C57.6831 14.9766 57.6821 15.0212 57.681 15.0674C57.6776 15.2073 57.6739 15.362 57.6984 15.5064C57.7152 15.6058 57.7196 15.7074 57.7241 15.817L57.7243 15.8238C57.7286 15.9293 57.7332 16.0422 57.7515 16.1555C57.7936 16.4161 57.7932 16.6845 57.7928 16.9591L57.7928 18.1874C57.7928 18.5252 57.7992 18.8775 57.8615 19.2199C57.8981 19.4212 57.9214 19.622 57.9314 19.8259C57.9366 19.9307 57.9552 20.0331 57.9724 20.1278L57.9754 20.1443C57.9938 20.2461 58.0098 20.3398 58.012 20.434C58.0136 20.5019 58.0171 20.5642 58.0203 20.6222C58.0326 20.8426 58.0415 21.0029 57.9315 21.1865C57.8266 21.3616 57.7066 21.5277 57.5816 21.6955L57.5116 21.7893C57.4095 21.9258 57.3055 22.0648 57.2085 22.2083C57.2051 22.2133 57.2022 22.2184 57.1997 22.2237C57.1033 22.2057 56.9998 22.2122 56.8969 22.2341C56.6938 22.2771 56.4702 22.3834 56.2513 22.5156C55.9001 22.7279 55.5421 23.0188 55.2693 23.2682L55.8351 20.758L54.7111 19.6499L51.9471 17.2447L50.4678 15.6191L40.948 15.7587L38.765 17.371L36.7759 19.6499L35.652 20.758L36.3702 23.9445C36.0981 23.5932 35.7651 23.2189 35.4149 22.9066C35.075 22.6033 34.7094 22.3498 34.3612 22.2398L34.3678 22.2381C34.4263 22.2203 34.4591 22.1592 34.4411 22.1015C34.413 22.0115 34.3521 21.925 34.2992 21.8539L34.2628 21.8054C34.2204 21.7493 34.1841 21.7013 34.1584 21.6549C34.0983 21.5467 34.0549 21.4297 34.0146 21.3052C34.0009 21.2627 33.9872 21.2181 33.9733 21.1727C33.9476 21.0892 33.9211 21.0028 33.8916 20.9204C33.5997 20.1051 33.402 19.3234 33.4758 18.4667L33.4772 18.4509C33.5236 17.9118 33.5706 17.3656 33.6926 16.849C33.7122 16.7656 33.7332 16.6809 33.7544 16.5951C33.8309 16.2858 33.9108 15.963 33.946 15.6427C33.983 15.3067 33.9817 14.9655 33.9806 14.6336C33.9803 14.5754 33.9801 14.5176 33.9801 14.4601C33.9801 14.3997 33.9305 14.3508 33.8694 14.3508C33.8082 14.3508 33.7586 14.3997 33.7586 14.4601C33.7586 14.5191 33.7588 14.578 33.759 14.6367L33.7591 14.6578C33.7558 14.6615 33.7528 14.6653 33.75 14.6695C33.7466 14.6711 33.7407 14.6736 33.7311 14.6765C33.7042 14.6847 33.6664 14.6908 33.6213 14.695C33.5771 14.6991 33.5314 14.701 33.49 14.7026L33.4807 14.7029C33.4461 14.7042 33.4077 14.7057 33.383 14.7096C33.0646 14.7596 32.7578 14.8069 32.4416 14.8316L32.4224 14.8335C32.4612 14.804 32.4988 14.7757 32.5301 14.7522L32.5832 14.7126L32.6001 14.7001L32.6053 14.6963L32.6076 14.6946C33.0186 14.4052 33.3479 14.0422 33.6595 13.6695C33.7711 13.536 33.884 13.4024 33.9966 13.2691C34.5173 12.6527 35.0404 12.0335 35.4962 11.3594C35.5301 11.3092 35.5164 11.2414 35.4655 11.208C35.4146 11.1745 35.3458 11.1881 35.3119 11.2383C35.0671 11.6003 34.8028 11.9459 34.5287 12.2853C34.5296 12.2213 34.5324 12.1354 34.5416 12.0529C34.5481 11.9939 34.5575 11.9412 34.5699 11.9014C34.5791 11.8719 34.5866 11.8587 34.589 11.8549L34.5901 11.8543C34.6535 11.8129 34.701 11.7516 34.7367 11.7009C34.7532 11.6774 34.7669 11.6568 34.7792 11.6382C34.7983 11.6095 34.8143 11.5854 34.8331 11.5621C34.906 11.4717 34.9615 11.3751 35.011 11.2825C35.0242 11.258 35.0368 11.234 35.0491 11.2104C35.0847 11.1427 35.1184 11.0785 35.1577 11.0151C35.3797 10.6561 35.5751 10.2875 35.7636 9.91576C35.9275 9.59247 36.2236 9.35625 36.5299 9.11459C36.7232 8.96215 36.9247 8.80642 37.1369 8.72595C37.2442 8.68528 37.359 8.66171 37.4836 8.63813L37.5158 8.63207C37.6284 8.61089 37.7491 8.5882 37.8654 8.5507C38.0542 8.48985 38.3166 8.48992 38.5054 8.552C38.5713 8.57363 38.6366 8.59463 38.7011 8.61537C39.0293 8.72091 39.3414 8.82126 39.644 8.98011C40.2153 9.28004 40.742 9.66741 41.2378 10.0864C41.3066 10.1446 41.3818 10.2036 41.4572 10.263L41.5138 10.3075C41.609 10.3826 41.7037 10.4589 41.792 10.5393C41.9699 10.7011 42.1127 10.8711 42.1777 11.0633C42.197 11.1205 42.2598 11.1515 42.3178 11.1324C42.3759 11.1133 42.4072 11.0515 42.3879 10.9942C42.3052 10.7498 42.1298 10.5493 41.9422 10.3787C41.8479 10.2929 41.7481 10.2125 41.6523 10.137L41.5937 10.0909C41.5186 10.0318 41.4474 9.97589 41.382 9.92059C40.8792 9.49563 40.3388 9.0974 39.7481 8.78729C39.4269 8.61867 39.0934 8.51157 38.765 8.40609C38.7016 8.38573 38.6384 8.36544 38.5755 8.34476C38.384 8.28183 38.1413 8.27036 37.9315 8.30933C38.0242 8.22188 38.1074 8.12522 38.1854 8.02917C38.225 7.98034 38.2632 7.93194 38.3004 7.88467C38.4008 7.75709 38.4954 7.63691 38.6004 7.53337C38.6602 7.47442 38.7279 7.42508 38.8028 7.37407L38.8528 7.34039C38.9124 7.30037 38.9764 7.25745 39.0371 7.20993C39.0977 7.16252 39.1571 7.11237 39.2146 7.06382C39.2372 7.04476 39.2595 7.02594 39.2814 7.00762C39.3608 6.94144 39.4386 6.87943 39.5214 6.82499C39.6313 6.75277 39.7472 6.6917 39.8687 6.62772L39.9493 6.58514C40.0976 6.5062 40.251 6.4199 40.3906 6.30655C40.445 6.26235 40.5418 6.21929 40.6294 6.18029L40.6353 6.17767C40.7401 6.13099 40.8409 6.0746 40.9362 6.02125C40.9629 6.0063 40.9892 5.99159 41.015 5.97739C41.136 5.91092 41.2517 5.85292 41.3763 5.8166C41.5804 5.75704 41.7855 5.6862 41.9865 5.61675C42.0964 5.57881 42.205 5.54129 42.3116 5.50626C42.3476 5.49445 42.3852 5.4774 42.4116 5.46542C42.4215 5.46092 42.4299 5.45713 42.436 5.4546C42.4632 5.44331 42.4861 5.43681 42.5187 5.43681H43.1444C43.2122 5.43681 43.2784 5.43571 43.3437 5.43463C43.4796 5.43238 43.6112 5.43019 43.7437 5.43811C43.8727 5.44582 43.9905 5.49477 44.1271 5.55156C44.1532 5.56242 44.18 5.57356 44.2077 5.58476C44.2674 5.60888 44.3269 5.61771 44.3738 5.62431L44.3829 5.62558C44.4289 5.63201 44.4625 5.63672 44.4949 5.64736C44.5529 5.66643 44.6156 5.63551 44.635 5.57828C44.643 5.55463 44.6423 5.53018 44.6347 5.5083C44.6922 5.49021 44.7383 5.4586 44.7706 5.43645L44.7726 5.43506C44.8153 5.40579 44.8375 5.39124 44.8611 5.3848C45.0528 5.33228 45.2486 5.30717 45.4502 5.3032C45.5341 5.30155 45.6194 5.30184 45.7059 5.30214C45.9558 5.303 46.2147 5.30389 46.4712 5.25793C46.6133 5.23245 46.7694 5.22927 46.9286 5.22603C46.9802 5.22498 47.0322 5.22392 47.0841 5.22209Z" fill="black"/>
<path d="M53.5032 30.0968L53.397 30.5681C51.8795 33.9208 50.5491 33.8904 47.4082 35.2816C46.2267 35.4929 45.5959 35.6302 44.1766 35.2816C40.8297 33.844 39.4455 33.7782 38.0901 30.5681L38.0091 30.2088L37.4318 27.6477L35.8947 20.8277L36.9864 19.7514L38.9723 17.4973L41.015 15.9634L50.4007 15.8238L51.7399 17.371L54.5007 19.7514L55.5924 20.8277L53.5032 30.0968Z" fill="#FFE2E2"/>
<path d="M53.7808 29.872C54.615 29.556 55.9677 30.0108 57.1197 28.1178C57.9422 26.7663 58.2288 24.4648 58.0976 23.8179C57.9662 23.1703 57.5733 22.7809 57.2971 22.5085C57.2242 22.4367 57.1109 22.4121 56.9435 22.4476C56.7761 22.4831 56.5774 22.5748 56.367 22.7019C55.9478 22.9552 55.5116 23.3312 55.2382 23.6007L55.2023 23.5654L53.7808 29.872Z" fill="#FFE2E2"/>
<path d="M37.6918 29.8082L37.2167 27.7001L36.226 24.1185C35.9543 23.7632 35.6178 23.3821 35.2663 23.0685C34.9067 22.7477 34.5423 22.5076 34.2229 22.4278C34.0653 22.3885 33.9244 22.3895 33.801 22.4336C33.6786 22.4773 33.5626 22.5673 33.4609 22.7252C33.2551 23.0446 33.1168 23.6281 33.1147 24.5932C33.1126 25.5583 33.2933 26.1953 33.7975 27.0596C34.0524 27.4966 34.3162 27.905 34.5699 28.2302C34.8264 28.5589 35.0628 28.7895 35.2604 28.8869L37.6918 29.8082Z" fill="url(#paint0_linear_186_273)"/>
<path d="M30.1105 111.604C30.2199 108.509 32.8178 106.089 35.913 106.198C39.0083 106.307 41.4288 108.905 41.3195 112.001L40.407 137.822C40.2976 140.917 37.6997 143.338 34.6045 143.228C31.5092 143.119 29.0887 140.521 29.1981 137.426L30.1105 111.604Z" fill="#FFE2E2"/>
<path d="M29.4767 139.608C29.5123 136.511 32.0517 134.029 35.1487 134.064C38.2457 134.1 40.7275 136.639 40.6919 139.736L40.2796 175.632C40.244 178.729 37.7046 181.211 34.6076 181.175C31.5107 181.139 29.0289 178.6 29.0645 175.503L29.4767 139.608Z" fill="#FFE2E2"/>
<rect x="29" y="177" width="12" height="3" fill="#8CA5E5"/>
<path d="M24 186.097C24 182.177 27.1773 179 31.0968 179H41V190H27.9032C25.7475 190 24 188.252 24 186.097Z" fill="#E0E7F5"/>
<path d="M25 189H41V190H27.4551C26.5376 190 25.6564 189.641 25 189Z" fill="#393939"/>
<rect x="29" y="175" width="12" height="2" fill="#0045F5"/>
<path d="M28.5 89H43V125H28V90.5L28.5 89Z" fill="#081023"/>
<path d="M43 89H63.5L64 90.5V113.923H43V89Z" fill="#081023"/>
<path d="M49 113.923H64V125H49V113.923Z" fill="#081023"/>
<path d="M28.5 89H63.5L64 90.5L64 92H28V90.5L28.5 89Z" fill="#2046A7"/>
<path d="M28 122H43V123.5V125H28V123.5V122Z" fill="#2046A7"/>
<path d="M49 122H64V123.5V125H49V123.5V122Z" fill="#2046A7"/>
<path d="M15.2094 69.3495C13.2291 71.7309 9.69327 72.056 7.31187 70.0758C4.93046 68.0955 4.60529 64.5597 6.58556 62.1783L23.1055 42.3119C25.0858 39.9305 28.6216 39.6054 31.003 41.5856C33.3845 43.5659 33.7096 47.1017 31.7294 49.4831L15.2094 69.3495Z" fill="#FFE2E2"/>
<path d="M15.2094 69.3495C13.2291 71.7309 9.69327 72.056 7.31187 70.0758V70.0758C4.93046 68.0955 4.60529 64.5597 6.58556 62.1783L23.1055 42.3119C25.0858 39.9305 28.6216 39.6054 31.003 41.5856V41.5856C33.3845 43.5659 33.7096 47.1017 31.7294 49.4831L15.2094 69.3495Z" fill="#FFE2E2"/>
<path d="M6.32677 69.3193C4.57143 66.7676 5.21702 63.276 7.76875 61.5206V61.5206C10.3205 59.7653 13.8121 60.4109 15.5674 62.9626L30.211 84.2498C31.9663 86.8016 31.3207 90.2931 28.769 92.0485V92.0485C26.2173 93.8038 22.7257 93.1582 20.9703 90.6065L6.32677 69.3193Z" fill="#FFE2E2"/>
<rect x="17.7356" y="86.2222" width="12" height="2" transform="rotate(-34.5243 17.7356 86.2222)" fill="#8CA5E5"/>
<rect x="18.8691" y="87.8699" width="12" height="2" transform="rotate(-34.5243 18.8691 87.8699)" fill="#0045F5"/>
<path d="M6.32677 69.3193C4.57143 66.7676 5.21702 63.276 7.76875 61.5206V61.5206C10.3205 59.7653 13.8121 60.4109 15.5674 62.9626L30.211 84.2498C31.9663 86.8016 31.3207 90.2931 28.769 92.0485V92.0485C26.2173 93.8038 22.7257 93.1582 20.9703 90.6065L6.32677 69.3193Z" fill="#FFE2E2"/>
<rect x="17.7356" y="86.2222" width="12" height="2" transform="rotate(-34.5243 17.7356 86.2222)" fill="#1A3474"/>
<rect x="18.8691" y="87.8699" width="12" height="2" transform="rotate(-34.5243 18.8691 87.8699)" fill="#0A50FF"/>
<path d="M76.1056 69.3495C78.0858 71.7309 81.6217 72.056 84.0031 70.0758V70.0758C86.3845 68.0955 86.7097 64.5597 84.7294 62.1783L68.2094 42.3119C66.2291 39.9305 62.6933 39.6054 60.3119 41.5856V41.5856C57.9305 43.5659 57.6053 47.1017 59.5856 49.4831L76.1056 69.3495Z" fill="#FFE2E2"/>
<path d="M76.1056 69.3495C78.0858 71.7309 81.6217 72.056 84.0031 70.0758V70.0758C86.3845 68.0955 86.7097 64.5597 84.7294 62.1783L68.2094 42.3119C66.2291 39.9305 62.6933 39.6054 60.3119 41.5856V41.5856C57.9305 43.5659 57.6053 47.1017 59.5856 49.4831L76.1056 69.3495Z" fill="#FFE2E2"/>
<path d="M84.9882 69.3193C86.7435 66.7676 86.0979 63.276 83.5462 61.5206V61.5206C80.9945 59.7653 77.5029 60.4109 75.7475 62.9626L61.104 84.2498C59.3486 86.8016 59.9942 90.2931 62.5459 92.0485V92.0485C65.0977 93.8038 68.5892 93.1582 70.3446 90.6065L84.9882 69.3193Z" fill="#FFE2E2"/>
<rect width="12" height="2" transform="matrix(-0.823886 -0.566755 -0.566755 0.823886 73.5793 86.2222)" fill="#8CA5E5"/>
<rect width="12" height="2" transform="matrix(-0.823886 -0.566755 -0.566755 0.823886 72.4458 87.8699)" fill="#0045F5"/>
<path d="M84.9882 69.3193C86.7435 66.7676 86.0979 63.276 83.5462 61.5206V61.5206C80.9945 59.7653 77.5029 60.4109 75.7475 62.9626L61.104 84.2498C59.3486 86.8016 59.9942 90.2931 62.5459 92.0485V92.0485C65.0977 93.8038 68.5892 93.1582 70.3446 90.6065L84.9882 69.3193Z" fill="#FFE2E2"/>
<rect width="12" height="2" transform="matrix(-0.823886 -0.566755 -0.566755 0.823886 73.5793 86.2222)" fill="#1A3474"/>
<rect width="12" height="2" transform="matrix(-0.823886 -0.566755 -0.566755 0.823886 72.4458 87.8699)" fill="#0A50FF"/>
<rect width="12" height="3" transform="matrix(-1 0 0 1 64 177)" fill="#8CA5E5"/>
<path d="M69 186.097C69 182.177 65.8227 179 61.9032 179H52V190H65.0968C67.2525 190 69 188.252 69 186.097Z" fill="#E0E7F5"/>
<path d="M68 189H52V190H65.5449C66.4624 190 67.3436 189.641 68 189Z" fill="#393939"/>
<rect width="12" height="2" transform="matrix(-1 0 0 1 64 175)" fill="#0045F5"/>
<defs>
<linearGradient id="paint0_linear_186_273" x1="45.5" y1="5" x2="45.5" y2="35.7607" gradientUnits="userSpaceOnUse">
<stop offset="1" stop-color="#FFD6D6"/>
</linearGradient>
</defs>
</svg>
